M48
;Layer_Color=9474304
;FILE_FORMAT=4:4
METRIC,LZ
;TYPE=PLATED
T1F00S00C0.2000
T2F00S00C0.3000
T3F00S00C0.4000
T5F00S00C1.0000
T6F00S00C1.3000
%
T01
X00726Y00005
Y0001
Y00015
Y0002
Y00025
Y0003
Y00035
Y0004
X00727676Y00051015
X00722676Y00051006
X00717676Y00050997
X00712676Y00050988
X00716034Y00064453
X00721034Y00064462
X00726034Y00064471
X00731034Y00064517
X00735991Y00063865
X00740654Y00062059
X00744772Y00059223
X00748088Y00055481
X00750413Y00051055
X00751558Y00046188
X00751729Y00041191
X00751906Y00036194
Y00031194
Y00026194
Y00021194
Y00016194
Y00011194
X00764Y0001
Y00015
Y0002
Y00025
Y0003
Y00035
Y0004
X00738094Y00038185
Y00033185
Y00028185
Y00023186
Y00018185
Y00013185
Y00008185
X00764Y00005
X00738271Y00043182
X0073681Y00047964
X0073267Y00050767
X00735Y00148
X00753
X00776Y00153
X00823Y00141
X00839Y00157
X00845Y00168
X00856
X008648Y00162975
X00852465Y00151465
X00875042Y00135097
X00875051Y00130097
X00875059Y00125097
X00875068Y00120097
X00875351Y00115105
X00876845Y00110333
X00879565Y00106138
X00883312Y00102827
X0088781Y00100643
X00892729Y00099745
X00897682Y00099067
X00902172Y00096867
X00905674Y00093298
X00907704Y00088729
X00908271Y00083761
Y00078761
Y00073761
Y00068761
Y00063761
Y00058761
Y00053761
Y00048761
Y00043761
X00908094Y00038764
Y00033764
Y00028764
Y00023764
Y00018764
Y00013764
Y00008764
X00896Y0001
Y00005
Y00015
Y0002
Y00025
Y0003
Y00035
Y0004
X00921833Y00040618
X00921906Y00035618
Y00030619
Y00025619
Y00020619
Y00015618
Y00010618
X00934Y0001
Y00015
Y0002
Y00025
Y0003
Y00035
Y0004
X00921729Y00045617
Y00050617
Y00055617
Y00060617
Y00065617
Y00070617
Y00075617
Y00080617
X00921774Y00085617
X00921186Y00090582
X00919809Y00095389
X00917539Y00099844
X00914523Y00103832
X00910858Y00107233
X00906656Y00109941
X00902045Y00111875
X00897167Y00112973
X00892191Y00113465
X00888731Y00117075
X00888523Y00122071
X00888514Y00127071
X00888506Y00132071
X00888497Y00137071
X00914Y0014
Y00148
X00925336Y0014294
X00935336
X0094Y0013
X00922Y0013
X009168Y00174475
X009243Y00183975
X009343
X009318Y00179475
X009028Y00179975
X009033Y00195475
Y00205475
X009143Y00201975
X00891464Y00188536
X00874536Y00188535
X008653Y00195475
Y00205475
X00864Y00221
X00859Y00234
X00875Y00247
X00893Y00247
X00871Y00284
X00828
Y00294
X00815Y00299
X00808Y00301075
X00821Y00306
X00816Y00319
X00807Y00327
X00815Y00279
X00807Y00266
Y00253
Y00241
X00815Y00239
X00828Y00234
Y00224
X00815Y00219
X00803Y00219
X00819Y00195
X00835Y00194
X00858Y00185
X00814Y00182
X0073Y00205
X00733Y00241
X00715Y00236
X00732Y00266
X00721Y00311
X00733Y00327
X00723Y00341
X00747Y0034
Y00367
X00752Y00314
X00975Y00325
Y003
Y00275
Y0025
Y00225
Y002
Y00175
Y0015
Y00125
Y001
Y00075
Y0005
Y00025
X00934Y00005
X00975Y0035
Y00375
X00696Y00337
X00663Y00339
X00651Y00317
X00641Y00274
X00601
Y00236
Y00213
Y00206
X00576Y00195
X0058Y0023175
X00562
X00567Y00238
X00545
X00548043Y00243107
X00545Y00248
X00547043Y00253107
X00545Y00228
X00548043Y00223107
X00545Y00218
X005245Y002245
Y002355
Y002465
X005135
Y002355
Y002245
X005025
Y002355
Y002465
X004955Y002755
X004955Y002855
X005315
X005315Y002755
X00532Y00269
X00526
X0052Y00268
X004715Y002545
Y002355
Y002275
X0049Y0021
X00504Y00204
X00526964Y00204484
X00528Y00193
X00536Y00193
X00508Y00184
Y00174
X00512Y00159
X00511987Y0013873
X00511Y00125
X0050024Y00124128
X00502347Y00119594
X00505699Y00115884
X00509872Y00113129
X00514618Y00111558
X00519608Y00111229
X00524608
X00529608
X00534608
X00539608
X00544607
X00549607
X00554607
X00559607
X00564607
X00569607
X00574607
X00579607
X00584607
X00589607
X00594607
X00599607
X00604607
X00609607
X00614607
X00619607
X00624607
X00629607
X00634607
X00639607Y00111275
X00644588Y00110841
X006494Y00109483
X00653876Y00107255
X00657867Y00104243
X00661236Y00100548
X00663867Y00096296
X00665671Y00091633
X00666603Y00086721
X00653088Y00085791
X00651598Y00090563
X00648468Y00094462
X00644131Y0009695
X00639199Y00097771
X00634199
X00629199
X00624199
X00619199
X00614199
X00609199
X00604199
X00599199
X00594199
X00589199
X00584199
X00579199
X00574199
X00569199
X00564199
X00559199
X00554199
X00549199
X00544199
X00539199
X00534199
X00529199
X00524199
X00519199
X00514204Y00097994
X00509297Y00098955
X00504599Y00100667
X00500224Y00103087
X00496277Y00106156
X00492855Y00109801
X00487175Y00109835
X00490039Y00113933
X00483757Y00106185
X00479815Y0010311
X00475443Y00100684
X00470747Y00098966
X00465842Y00097997
X00460847Y00097771
X00455847
X00450847
X00445847
X00440847
X00435847
X00430847
X00425847
X00420847
X00415847
X00410847
X00405847
X00400847
X00395847
X00390847
X00385847
X00380847
X00375847
X00370847
X00365847
X00360847
X00355847
X00350847
X00345847
X00340847
X00335913Y00096963
X00331567Y00094491
X00328423Y00090603
X00326916Y00085836
X00331233Y00071886
X00332898Y00067172
X00337182Y00064593
X00342178Y00064393
X00347178Y00064402
X00352178Y0006441
X00357178Y00064419
X00362178Y00064428
X00367178Y00064437
X00372178Y00064446
X00377178Y00064455
X00382178Y00064464
X00387178Y00064472
X00392178Y00064432
X00397095Y0006353
X00401671Y00061515
X00405604Y00058427
X00408716Y00054514
X0041075Y00049946
X00411672Y00045032
X00411906Y00040037
Y00035037
Y00030037
Y00025037
Y00020037
Y00015037
Y00010037
X00424Y0001
Y00015
Y0002
Y00025
Y0003
Y00035
Y0004
X00398095Y00039522
Y00034522
Y00029522
Y00024522
Y00019522
Y00014522
Y00009522
X00386Y0001
Y00005
Y00015
Y0002
Y00025
Y0003
Y00035
Y0004
X00386322Y00051012
X00381322Y00051003
X00376322Y00050995
X00371322Y00050986
X00366322Y00050977
X00361322Y00050968
X00356322Y00050959
X00351322Y0005095
X00346322Y00050941
X00341322Y00050933
X00336324Y00051073
X00331445Y00052168
X00326995Y00054448
X00323188Y00057689
X00317055Y00057984
X00320311Y00061778
X00315483Y0009508
X00317926Y00099443
X00321123Y00103287
X00324943Y00106513
X00329306Y00108956
X00334052Y0011053
X00339006Y00111206
X00344006Y00111229
X00349006
X00354006
X00359006
X00364006
X00369006
X00374005
X00379005
X00384005
X00389005
X00394005
X00399005
X00404005
X00409005
X00414005
X00419005
X00424005
X00429005
X00434005
X00439005
X00444005
X00449005
X00454005
X00459005
X00464002Y00111422
X00468874Y00112544
X00473228Y00115003
X00476786Y00118515
X00479358Y00122803
X00466Y00122
Y00138514
X00452Y00145
Y00155
Y00165
X00472Y00174
Y00184
X00476Y001595
X00444465Y00138535
Y00128535
X00433Y00139
X00446Y00199
X004445Y002755
X004345Y002755
X00427Y00275
Y00281
X00427995Y00286606
X004055Y002825
X003945
X003835
Y002935
X003945
X004055
Y003045
X003945
X003835
X00365Y00315
X00352Y00312
X00352Y0032
X00354Y00304
X00344
X00332Y00314
X00322
X00322Y00332
X00332
X00347Y00345
X00347Y00353
X003865Y003355
X003945Y003355
X004185Y003305
X004345Y003115
X004445
X00455Y00361
X00465
X00468536Y00377536
X00458536
X00522Y0037
X00597Y00363
X00602275Y00375975
X00651113Y00377946
X00597Y00312
X00642Y0022475
X0066Y0022475
X00671Y00225
X00682Y00233
X0067Y00194
X00682Y00168
X0066Y0015675
X00642
X006Y0015675
X00582Y0015675
X00529475Y001552
X00529Y00135
Y00125
X00574369Y00058394
X00578291Y00061495
X00582864Y00063518
X0058778Y00064428
X0059278Y00064473
X0059778Y00064464
X0060278Y00064455
X0060778Y00064446
X0061278Y00064437
X0061778Y00064428
X0062278Y00064419
X0062778Y00064411
X0063278Y00064402
X0063778Y00064393
X00642776Y00064588
X00647077Y00067138
X00648762Y00071846
X00648604Y00052182
X00643727Y00051078
X00638729Y00050932
X00633729Y00050941
X00628729Y0005095
X00623729Y00050959
X00618729Y00050968
X00613729Y00050977
X00608729Y00050986
X00603729Y00050995
X00598729Y00051003
X00593729Y00051012
X0058873Y00050951
X00584109Y00049041
X00581871Y0004457
X00581906Y0003957
Y0003457
Y0002957
Y0002457
Y0001957
Y0001457
Y0000957
X00594Y0001
Y00015
Y0002
Y00025
Y0003
Y00035
Y0004
X00568094Y00039994
Y00034994
Y00029994
Y00024994
Y00019994
Y00014994
Y00009994
X00556Y0001
Y00005
Y00015
Y0002
Y00025
Y0003
Y00035
Y0004
X00568324Y00044988
X00569238Y00049904
X00571264Y00054475
X00594Y00005
X00653049Y00054472
X00656844Y00057727
X00660957Y00060569
X00664125Y00056701
X00668142Y00053724
X00672746Y00051773
X00677676Y0005094
X00682676Y00050935
X00687676Y00050944
X00692676Y00050953
X00697676Y00050962
X00702676Y0005097
X00707676Y00050979
X00706034Y00064435
X00711034Y00064444
X00701034Y00064426
X00696034Y00064417
X00691034Y00064408
X00686034Y00064399
X00681034Y00064391
X0067606Y00064901
X00672211Y00068092
X00671229Y00072994
X00641Y00206
X00412107Y00259957
X00407Y00262
X00402107Y00258957
X00397Y00262
X00387Y00262
X00382107Y00258957
X00377Y00262
X00354Y00268
X00344Y00268
X00334Y00254
X00324Y00254
X00318Y00267
X00320465Y00237465
X00339Y00241
X00338Y00187
X00361968Y00278779
X0036276Y00284222
X00391321Y00050945
X00395932Y0004901
X00398135Y00044522
X00424Y00005
X00313346Y00054631
X00308932Y00052282
X00304071Y00051112
X00299074Y00050932
X00294074Y00050941
X00289074Y0005095
X00284074Y00050958
X00279074Y00050967
X00274074Y00050976
X00269074Y00050985
X00264074Y00050994
X00259074Y00051003
X00254074Y00051012
X00249074Y00050997
X00244388Y00049255
X00241916Y00044908
X00241906Y00039908
Y00034908
Y00029908
Y00024908
Y00019908
Y00014908
Y00009908
X00254Y0001
Y00015
Y0002
Y00025
Y0003
Y00035
Y0004
X00252438Y00064473
X00257438Y00064464
X00262438Y00064455
X00267438Y00064447
X00272438Y00064438
X00277438Y00064429
X00282438Y0006442
X00287438Y00064411
X00292438Y00064402
X00297438Y00064393
X00302436Y00064543
X00306865Y00066862
X00308717Y00071507
X00313133Y00085391
X00313933Y00090327
X00247439Y00064394
X00242535Y00063418
X0023799Y00061334
X00234111Y00058179
X00231107Y00054182
X00229141Y00049585
X00228291Y00044658
X00228095Y00039662
Y00034662
Y00029662
Y00024662
Y00019662
Y00014662
Y00009662
X00216Y0001
Y00005
Y00015
Y0002
Y00025
Y0003
Y00035
Y0004
X00254Y00005
X00084
Y0001
Y00015
Y0002
Y00025
Y0003
Y00035
Y0004
X00071729Y00042117
X00071729Y00047117
Y00052117
X00071729Y00057117
Y00062117
Y00067117
X00071729Y00072117
Y00077117
Y00082117
X00071962Y00087111
X00073527Y0009186
X00076565Y00095831
X00080751Y00098567
X0008563Y0009966
X00090602Y00100183
X00095279Y00101953
X00099305Y00104916
X0010239Y00108851
X0010431Y00113468
X00104968Y00118425
X00104938Y00123424
X00104946Y00128424
X00104955Y00133424
X00104963Y00138424
X00091505Y00138932
X00091497Y00133932
X00091489Y00128932
X0009148Y00123932
X00091472Y00118932
X00089483Y00114344
X00084628Y0011315
X00079685Y00112399
X00074948Y00110798
X00070585Y00108356
X00066717Y00105188
X0006347Y00101386
X00060971Y00097055
X00059265Y00092355
X00058405Y0008743
X00058271Y00082431
Y00077431
Y00072431
X00058271Y00067431
Y00062431
Y00057431
X00058271Y00052431
Y00047432
X00058271Y00042432
X00058095Y00037435
Y00032435
Y00027435
Y00022435
Y00017435
Y00012435
Y00007435
X00071906Y0000712
Y0001212
Y0001712
Y0002212
Y0002712
Y0003212
Y0003712
X00046Y00035
Y0004
Y0003
Y00025
Y0002
Y00015
Y0001
Y00005
X0001Y00025
Y0005
Y00075
Y001
Y00125
Y0015
Y00175
Y002
Y00225
Y0025
Y00275
Y003
Y00325
Y0035
Y00375
X00104Y00361
X00096Y0032
X00124Y0028
X00116Y00264
X001092Y00247975
X000912Y00247975
X000752Y00233975
Y00225975
X000892Y00215975
X000817Y00205475
Y00195475
X000802Y00179975
X000732Y00168975
X000812Y00162975
X000732Y00150975
X00062Y00151
X00091736Y0018851
X00107665Y00188511
X001197Y00195475
Y00205475
X00127775Y002107
X001307Y00201975
X00146Y00211
X001507Y00183975
X001482Y00179475
X00141736Y00178011
X001407Y00183975
X001192Y00179975
X001302Y00148975
Y00140975
X001382Y00141475
X001482
X001562Y00129975
X00173Y00149
X00178Y00269363
X00147Y00276
X00185Y00301
Y0032
X00187Y00339
X002Y00344
Y00354
X00187Y00359
X00211Y00368
X00215Y00379
X0022Y00376
X00282Y00329
Y00319
X00313Y00314
Y00334
X00314Y00256
X00314Y00236
X00283Y00241
X00283Y00251
X00291Y0042
Y00432
X00256Y0042
X0023Y00434
X0022Y00435
X00199Y00433
X00186Y00438
X00178Y00447
X00186Y00419
X00199Y00414
Y00404
X00186Y00399
X00178Y00386
X00123
X00123Y00434
X0009675Y0042915
X00104Y00447
X00158Y00421
X00236Y00445
X00228Y00495
X00256Y00493
Y00505
X0031
X00293Y00529
X00292Y00479
X0001Y00475
Y0045
Y00425
Y004
Y005
Y00525
Y0055
Y00575
Y006
Y00625
Y0065
Y00675
Y007
Y00725
Y0075
Y00775
X00136Y00705
X00146Y00713
Y00697
X00156Y00705
Y00721
Y00689
X00305Y00764
X0035Y0075
X003807Y007427
X00399235Y00758683
X004Y00725
X00416Y00737
X00421Y00707
X00453651Y00711
X00454271Y00721261
X00448Y00721
X00473Y00702
X00473299Y00691299
X00507Y00702
X00503Y00711
X00507Y00721
X00513995Y00730995
X00514Y00742
X00535Y00721
X00528Y0078
X00546475Y007802
X00579Y0077
X00584Y00748
X00618Y00773
X00623Y00777
X00627Y00781
X00648Y00745
Y007
Y00662
X00629Y00627
X00619
X00608Y00631
X00601
X00592Y00614
X00587Y00611
X00582Y00614
X00577Y00611
X00572Y00614
X0057Y00605
X00565Y00608
X005625Y005985
X00561Y00593
X0056125Y00586903
X00554Y00562
X00535Y00566
X00534Y00577
X00525Y00559
X00523Y00529
Y00518
X00547Y00525
X00555
X00612
X0062
X00662
X0067
X0071Y00517
X00708Y0056
X00704Y00569
X00698Y00571
X00692007Y00569007
X00688251Y0056499
X0066Y00588
X00653
X00645Y00591
X00637
X0063
X00628Y00584
X00621Y00587
Y00578
X00614Y00584
X00608Y00578
X00603Y00574
X00602Y00465
X00599Y00438
X00607Y00438
X00589Y00438
X00576Y00433
X00647452Y00438452
X00637Y00454
X00663Y00387
X0051605Y0038525
X0051605Y0039525
X0048005Y0039525
X0048005Y0038525
X0048Y00512
X00473Y00517
X0047Y00507
X00464
X00443Y00508
X00438Y00511
X00433Y00507
X00424Y00502
X00427Y00517
X00431Y00558
X00441Y00558
X00465Y00555
X00464Y00545
X0047
X0048Y00546
X00488
X00494464Y00544535
X00493Y00551
Y00561
Y00581
X00501Y0059
Y00598
X0051Y00612
X00511Y00645
X00501Y0066
Y00668
X00485536Y00653464
X00470465Y00606535
X00465Y00582
X00414475Y005912
X003975Y00588
X003847Y00582525
X00381Y00558
X00371Y00558
X00351Y00558
X00341Y00558
X00343Y00592
X00355
X003628Y00592475
X00330987Y0059073
X00331Y00628
X0033Y00653
Y00679
Y00699
X003685Y00628
X00415Y00631
X00419Y0062
X00421Y00612
X00411Y00558
X003908Y00558475
X00378Y00538
X00373Y00515
X00346Y00501
X00324Y0049
X00319Y00477
X00332Y00472
X00332Y00462
X00319Y00457
X00346495Y00445
X00332475Y004172
X00332Y00407
X00319Y00402
X00315464Y00413465
X00332Y00524
X00536Y00621
X00471Y00765
X00708Y00732
Y00705
X007Y00703
X0072Y00702
X00724Y00732
X00713Y0074
X00727Y00761
X00761Y00743
Y00735
X00769Y00725
X00747Y00727
X00761Y00678
Y0067
X00758Y00652
X00752Y00636
X00761Y00623
Y00615
X008Y00616
X00805Y00603
X00812Y00609
X00811092Y0062875
X0083Y00655
X00845Y00662
X00855Y00665
X00873Y006645
Y0067
X00877Y00692
X00873Y00705
X00886Y0071
X00886Y00721
X00901Y00723
X00906Y0071
X00896Y00697
X00907Y00671
X00912Y00645
X00912Y00635
Y00625
X00912Y00615
X00889Y00616
Y00609
X00873Y005955
X00873Y00586
X00873Y00558
X008248Y00552475
X008198Y00539475
X00812Y00529
X0083
X00822525Y00506025
Y00480625
X00844Y0048
X00855Y00488
X00864Y0047
Y00459
X00851Y00454
Y00465
X00843Y00446
Y00433
Y00421
X00846Y00403
X00864
X00864Y00414
X0089Y00405846
X00975Y004
Y00425
Y0045
Y00475
Y005
Y00525
Y0055
Y00575
Y006
Y00625
Y0065
Y00675
Y007
Y00725
Y0075
Y00775
X00817Y00719
X00815Y00694
X00828Y00692
X008365Y006925
X00794Y00681
X00799Y00674
X00791Y0067
X00797Y00661
X00812Y00577
X00825Y00572
X00728Y00566
X00721Y00572
X00725Y00581
X00728Y00534
X0072Y00524
X00775Y00511
X00762Y00496
X00787475Y00493375
X00768Y00446
X00762Y00435
X00752
Y00397
X00723Y00392
X00713Y00435
X00787Y00421
X00764Y00959954
Y00964954
Y00969954
Y00974954
Y00979954
Y00984954
Y00989954
Y00994954
X00726
Y00989954
Y00984954
Y00979954
Y00974954
Y00969954
Y00964954
Y00959954
X00896Y00959954
Y00964954
Y00969954
Y00974954
Y00979954
Y00984954
Y00989954
Y00994954
X00934
Y00989954
Y00984954
Y00979954
Y00974954
Y00969954
Y00964954
Y00959954
X00975Y0095
Y00975
Y00925
Y009
Y00875
Y0085
Y00825
Y008
X00937Y00887
Y00905
X009035Y009135
X00539Y00914
Y00902
Y0089
Y00878
Y00866
X0054Y00856
X00545Y00859
X0055Y00856
X00555Y00859
X0056Y00856
X00564Y008355
X00553
X00542
Y008245
X00553
X00564
X00574Y008
X00578Y00787
X00607Y00785
X00615
X0063Y00787
X00639Y00788
X00657Y00785
X00665
X00525Y00805
X00518Y00821
Y00826
Y00831
X00502
Y00826
Y00821
X00500525Y008408
Y008528
X00492Y00857
X00484
X00474
X00466
X00465Y00841
Y00834
Y00828
X00455Y00824
X00448
X00442Y00822
X00436
X0043
X00424
X00391Y00813
X00394Y00845
X00371Y00841
X00347Y00835
Y0083
Y00825
Y00858
Y00865
X00345Y00873
X00339
X00334
X00351
X00357
X00363
X00369Y00878
Y00884
X0035Y0088
Y00889
X00331Y00915
X00322Y00918
X00318Y00921
Y00953
X00376Y00985
X00411393Y0097638
X00409Y0096
X00415
X00421
X00427
X00433
X00439
X00445
X00451
X0046Y00942
X00494Y0094
X00506
X00506Y0096125
X00506Y00971
X005
X00494
X00491Y00976
X00497
X00503
X00509
X00531Y00972
Y0096
Y00948
Y00936
Y00924
X00517Y0089925
X00504Y00906
X00487Y009
X00488Y00872
X00478
X00498
X00505Y00875
X0051
X00517
X00458Y00878
Y00887
Y00893
Y00901
X00438
Y00893
X0044Y00887
Y00878
X00431Y0089
X00424
X00411Y00876
X00398Y00881
X00389Y00872
X00393Y00918
Y00924
Y0093
Y00936
X004
Y0093
X0043Y00985
X00459Y00845
X00477Y00823
Y00817
Y00811
Y00805
Y00799
Y00793
X0032124Y00841424
X00304Y00848
X0028184Y00845
X00285Y00813
X00272Y00817
Y00808
X0026Y008
X00252
X00244
X00236
X0024Y00792
X00248
X00256
X00264
X0026Y00785
X00252
X00244
X00236
X00214Y00808
Y00814
Y0082
X00212Y00855
X00225Y00875
X00226Y00881
X00241Y00876
X00257Y00888
X00262Y00886
X00267Y00888
X00246Y009
Y0091
X00269Y00922
X00279
X00279Y00958
X00269
X0029Y00953
X003
X00309Y00956
Y00949
Y00969
X0031Y00976
Y00981
Y00987
X0029
Y00982
X00285Y00984
Y00978
X0029Y00974
Y00965
X00249Y00947
X00231Y00951
X00203Y00948
X00197
X00191
Y00956
X00197
X00203
X00185Y00945
X00154
Y0094
Y0095
Y00955
X00155Y00896
Y00886
Y00876
X001405Y00863
X0012Y00857
X00127Y00823
X00112
X00119Y00811
X00135
X00127Y00802
X00143Y00823
X00181Y00872
X00175Y00904
X00104Y00884071
X00094Y00882
X00088
X00072Y00879
Y0087
X00062Y00853
X00055Y00852
X00048Y00853
Y00874
X00055Y00882
X0001Y00875
Y0085
Y00825
Y008
Y009
Y00925
Y0095
Y00975
X00091Y00954
X00314Y00918
Y00912
X00313Y00901
X00303905Y00807405
T02
X008788Y00154975
Y00165975
X008898
Y00154975
X008843Y00225475
X004955Y001525
Y001415
X004845
Y001525
X00322Y00349
X001007Y00225475
X000952Y00165975
Y00154975
X001062
Y00165975
X00839Y00712
X00849
X0049Y0091925
Y0092925
X00398Y0086481
Y0085719
Y0083581
Y0082819
X0029484Y0082719
Y0083481
Y0085619
Y0086381
X0020925Y0087875
X002
Y00888
Y0089725
X0019075
Y00888
Y0087875
X0020925Y00888
Y0089725
X00211535Y0096466
Y0097566
X00222535
Y0096466
X00180535
Y0097566
X00169535
Y0096466
T03
X00063Y009052
X00071
X00079
X00087
X00095
X00103
X00111
X00119
X00115Y009122
X00107
X00099
X00083
X00075
X00067
T05
X003376Y0072619
Y0074651
X003884Y0073635
T06
X006Y00911
X0065
M30
