G04*
G04 #@! TF.GenerationSoftware,Altium Limited,Altium Designer,21.2.2 (38)*
G04*
G04 Layer_Color=65535*
%FSLAX44Y44*%
%MOMM*%
G71*
G04*
G04 #@! TF.SameCoordinates,1D3918CC-9385-454E-ACC4-38365C0A3FBC*
G04*
G04*
G04 #@! TF.FilePolarity,Positive*
G04*
G01*
G75*
G36*
X1213581Y810647D02*
X1213747Y810629D01*
X1213933Y810610D01*
X1214136Y810555D01*
X1214322Y810499D01*
X1214507Y810406D01*
X1214525Y810388D01*
X1214581Y810369D01*
X1214673Y810314D01*
X1214784Y810240D01*
X1214895Y810147D01*
X1215025Y810036D01*
X1215155Y809906D01*
X1215266Y809758D01*
X1215284Y809740D01*
X1215321Y809684D01*
X1215358Y809592D01*
X1215433Y809481D01*
X1215507Y809351D01*
X1215562Y809184D01*
X1215636Y808999D01*
X1215692Y808795D01*
Y808777D01*
X1215710Y808703D01*
X1215729Y808592D01*
X1215766Y808444D01*
X1215784Y808277D01*
X1215803Y808092D01*
X1215821Y807647D01*
Y803092D01*
Y803074D01*
Y803055D01*
X1215784Y802981D01*
X1215766Y802963D01*
X1215673Y802907D01*
X1215655D01*
X1215618Y802889D01*
X1215562D01*
X1215470Y802870D01*
X1215377D01*
X1215284Y802852D01*
X1214932D01*
X1214821Y802870D01*
X1214803D01*
X1214747Y802889D01*
X1214673D01*
X1214618Y802907D01*
X1214599D01*
X1214581Y802926D01*
X1214507Y802981D01*
Y803018D01*
X1214488Y803092D01*
Y807462D01*
Y807481D01*
Y807536D01*
Y807629D01*
X1214470Y807740D01*
X1214451Y808018D01*
X1214396Y808296D01*
Y808314D01*
X1214377Y808370D01*
X1214359Y808425D01*
X1214340Y808518D01*
X1214247Y808740D01*
X1214136Y808943D01*
Y808962D01*
X1214099Y808999D01*
X1214025Y809110D01*
X1213877Y809240D01*
X1213692Y809369D01*
X1213673D01*
X1213636Y809388D01*
X1213581Y809425D01*
X1213507Y809444D01*
X1213303Y809499D01*
X1213062Y809518D01*
X1212988D01*
X1212896Y809499D01*
X1212766Y809481D01*
X1212636Y809425D01*
X1212470Y809369D01*
X1212303Y809277D01*
X1212137Y809147D01*
X1212118Y809129D01*
X1212063Y809092D01*
X1211970Y808999D01*
X1211840Y808888D01*
X1211692Y808740D01*
X1211525Y808573D01*
X1211340Y808370D01*
X1211137Y808129D01*
Y803092D01*
Y803074D01*
Y803055D01*
X1211100Y802981D01*
X1211081Y802963D01*
X1210988Y802907D01*
X1210970D01*
X1210933Y802889D01*
X1210877D01*
X1210785Y802870D01*
X1210692D01*
X1210600Y802852D01*
X1210266D01*
X1210155Y802870D01*
X1210137D01*
X1210081Y802889D01*
X1210007D01*
X1209952Y802907D01*
X1209933D01*
X1209914Y802926D01*
X1209840Y802981D01*
Y803018D01*
X1209822Y803092D01*
Y807462D01*
Y807481D01*
Y807536D01*
Y807629D01*
X1209803Y807740D01*
X1209785Y808018D01*
X1209729Y808296D01*
Y808314D01*
X1209711Y808370D01*
X1209692Y808425D01*
X1209655Y808518D01*
X1209581Y808740D01*
X1209452Y808943D01*
Y808962D01*
X1209415Y808999D01*
X1209341Y809110D01*
X1209192Y809240D01*
X1209007Y809369D01*
X1208989D01*
X1208970Y809388D01*
X1208915Y809425D01*
X1208841Y809444D01*
X1208637Y809499D01*
X1208378Y809518D01*
X1208304D01*
X1208211Y809499D01*
X1208081Y809481D01*
X1207952Y809425D01*
X1207785Y809369D01*
X1207618Y809277D01*
X1207452Y809147D01*
X1207433Y809129D01*
X1207378Y809092D01*
X1207285Y808999D01*
X1207156Y808888D01*
X1207007Y808740D01*
X1206841Y808573D01*
X1206656Y808370D01*
X1206452Y808129D01*
Y803092D01*
Y803074D01*
Y803055D01*
X1206415Y802981D01*
X1206396Y802963D01*
X1206304Y802907D01*
X1206285D01*
X1206248Y802889D01*
X1206193D01*
X1206100Y802870D01*
X1206026D01*
X1205915Y802852D01*
X1205563D01*
X1205452Y802870D01*
X1205434D01*
X1205396Y802889D01*
X1205267Y802907D01*
X1205248D01*
X1205230Y802926D01*
X1205156Y802981D01*
Y803018D01*
X1205137Y803092D01*
Y810295D01*
Y810314D01*
Y810332D01*
X1205156Y810406D01*
X1205174Y810425D01*
X1205211Y810462D01*
X1205248Y810480D01*
X1205267D01*
X1205304Y810499D01*
X1205359Y810518D01*
X1205434Y810536D01*
X1205452D01*
X1205508Y810555D01*
X1205915D01*
X1206008Y810536D01*
X1206026D01*
X1206082Y810518D01*
X1206137Y810499D01*
X1206193Y810480D01*
X1206211D01*
X1206230Y810462D01*
X1206267Y810443D01*
X1206285Y810406D01*
X1206304Y810388D01*
X1206322Y810295D01*
Y809351D01*
X1206341Y809388D01*
X1206433Y809462D01*
X1206544Y809573D01*
X1206693Y809721D01*
X1206859Y809888D01*
X1207063Y810054D01*
X1207267Y810203D01*
X1207489Y810332D01*
X1207507Y810351D01*
X1207581Y810388D01*
X1207711Y810443D01*
X1207859Y810499D01*
X1208026Y810555D01*
X1208230Y810610D01*
X1208433Y810647D01*
X1208655Y810666D01*
X1208822D01*
X1208915Y810647D01*
X1209174Y810629D01*
X1209452Y810555D01*
X1209470D01*
X1209507Y810536D01*
X1209581Y810518D01*
X1209674Y810480D01*
X1209877Y810388D01*
X1210081Y810258D01*
X1210100D01*
X1210137Y810221D01*
X1210248Y810129D01*
X1210396Y809999D01*
X1210544Y809814D01*
X1210563Y809795D01*
X1210581Y809777D01*
X1210618Y809721D01*
X1210655Y809647D01*
X1210766Y809462D01*
X1210877Y809240D01*
X1210896Y809258D01*
X1210933Y809314D01*
X1211007Y809369D01*
X1211100Y809462D01*
X1211303Y809684D01*
X1211544Y809888D01*
X1211562Y809906D01*
X1211600Y809943D01*
X1211674Y809980D01*
X1211748Y810054D01*
X1211951Y810184D01*
X1212174Y810332D01*
X1212192D01*
X1212229Y810369D01*
X1212285Y810388D01*
X1212359Y810425D01*
X1212562Y810499D01*
X1212766Y810573D01*
X1212785D01*
X1212822Y810592D01*
X1212877Y810610D01*
X1212951Y810629D01*
X1213118Y810647D01*
X1213340Y810666D01*
X1213451D01*
X1213581Y810647D01*
D02*
G37*
G36*
X1139829Y810647D02*
X1139996Y810629D01*
X1140181Y810610D01*
X1140385Y810555D01*
X1140570Y810499D01*
X1140755Y810406D01*
X1140774Y810388D01*
X1140829Y810369D01*
X1140922Y810314D01*
X1141033Y810240D01*
X1141144Y810147D01*
X1141273Y810036D01*
X1141403Y809906D01*
X1141514Y809758D01*
X1141533Y809740D01*
X1141570Y809684D01*
X1141607Y809592D01*
X1141681Y809481D01*
X1141755Y809351D01*
X1141811Y809184D01*
X1141885Y808999D01*
X1141940Y808795D01*
Y808777D01*
X1141959Y808703D01*
X1141977Y808592D01*
X1142014Y808444D01*
X1142033Y808277D01*
X1142051Y808092D01*
X1142070Y807647D01*
Y803092D01*
Y803074D01*
Y803055D01*
X1142033Y802981D01*
X1142014Y802963D01*
X1141922Y802907D01*
X1141903D01*
X1141866Y802889D01*
X1141811D01*
X1141718Y802870D01*
X1141625D01*
X1141533Y802852D01*
X1141181D01*
X1141070Y802870D01*
X1141051D01*
X1140996Y802889D01*
X1140922D01*
X1140866Y802907D01*
X1140848D01*
X1140829Y802926D01*
X1140755Y802981D01*
Y803018D01*
X1140736Y803092D01*
Y807462D01*
Y807481D01*
Y807536D01*
Y807629D01*
X1140718Y807740D01*
X1140699Y808018D01*
X1140644Y808295D01*
Y808314D01*
X1140625Y808370D01*
X1140607Y808425D01*
X1140588Y808518D01*
X1140496Y808740D01*
X1140385Y808943D01*
Y808962D01*
X1140348Y808999D01*
X1140274Y809110D01*
X1140126Y809240D01*
X1139940Y809369D01*
X1139922D01*
X1139885Y809388D01*
X1139829Y809425D01*
X1139755Y809444D01*
X1139551Y809499D01*
X1139311Y809518D01*
X1139237D01*
X1139144Y809499D01*
X1139015Y809481D01*
X1138885Y809425D01*
X1138718Y809369D01*
X1138552Y809277D01*
X1138385Y809147D01*
X1138366Y809129D01*
X1138311Y809092D01*
X1138218Y808999D01*
X1138089Y808888D01*
X1137941Y808740D01*
X1137774Y808573D01*
X1137589Y808370D01*
X1137385Y808129D01*
Y803092D01*
Y803074D01*
Y803055D01*
X1137348Y802981D01*
X1137329Y802963D01*
X1137237Y802907D01*
X1137218D01*
X1137181Y802889D01*
X1137126D01*
X1137033Y802870D01*
X1136941D01*
X1136848Y802852D01*
X1136515D01*
X1136404Y802870D01*
X1136385D01*
X1136330Y802889D01*
X1136255D01*
X1136200Y802907D01*
X1136181D01*
X1136163Y802926D01*
X1136089Y802981D01*
Y803018D01*
X1136070Y803092D01*
Y807462D01*
Y807481D01*
Y807536D01*
Y807629D01*
X1136052Y807740D01*
X1136033Y808018D01*
X1135978Y808295D01*
Y808314D01*
X1135959Y808370D01*
X1135941Y808425D01*
X1135904Y808518D01*
X1135830Y808740D01*
X1135700Y808943D01*
Y808962D01*
X1135663Y808999D01*
X1135589Y809110D01*
X1135441Y809240D01*
X1135256Y809369D01*
X1135237D01*
X1135219Y809388D01*
X1135163Y809425D01*
X1135089Y809444D01*
X1134885Y809499D01*
X1134626Y809518D01*
X1134552D01*
X1134459Y809499D01*
X1134330Y809481D01*
X1134200Y809425D01*
X1134034Y809369D01*
X1133867Y809277D01*
X1133700Y809147D01*
X1133682Y809129D01*
X1133626Y809092D01*
X1133534Y808999D01*
X1133404Y808888D01*
X1133256Y808740D01*
X1133089Y808573D01*
X1132904Y808370D01*
X1132700Y808129D01*
Y803092D01*
Y803074D01*
Y803055D01*
X1132663Y802981D01*
X1132645Y802963D01*
X1132552Y802907D01*
X1132534D01*
X1132497Y802889D01*
X1132441D01*
X1132348Y802870D01*
X1132274D01*
X1132163Y802852D01*
X1131812D01*
X1131700Y802870D01*
X1131682D01*
X1131645Y802889D01*
X1131515Y802907D01*
X1131497D01*
X1131478Y802926D01*
X1131404Y802981D01*
Y803018D01*
X1131386Y803092D01*
Y810295D01*
Y810314D01*
Y810332D01*
X1131404Y810406D01*
X1131423Y810425D01*
X1131460Y810462D01*
X1131497Y810480D01*
X1131515D01*
X1131552Y810499D01*
X1131608Y810517D01*
X1131682Y810536D01*
X1131700D01*
X1131756Y810555D01*
X1132163D01*
X1132256Y810536D01*
X1132274D01*
X1132330Y810517D01*
X1132385Y810499D01*
X1132441Y810480D01*
X1132460D01*
X1132478Y810462D01*
X1132515Y810443D01*
X1132534Y810406D01*
X1132552Y810388D01*
X1132571Y810295D01*
Y809351D01*
X1132589Y809388D01*
X1132682Y809462D01*
X1132793Y809573D01*
X1132941Y809721D01*
X1133108Y809888D01*
X1133311Y810054D01*
X1133515Y810203D01*
X1133737Y810332D01*
X1133756Y810351D01*
X1133830Y810388D01*
X1133960Y810443D01*
X1134108Y810499D01*
X1134274Y810555D01*
X1134478Y810610D01*
X1134682Y810647D01*
X1134904Y810666D01*
X1135070D01*
X1135163Y810647D01*
X1135422Y810629D01*
X1135700Y810555D01*
X1135719D01*
X1135756Y810536D01*
X1135830Y810517D01*
X1135922Y810480D01*
X1136126Y810388D01*
X1136330Y810258D01*
X1136348D01*
X1136385Y810221D01*
X1136496Y810129D01*
X1136644Y809999D01*
X1136793Y809814D01*
X1136811Y809795D01*
X1136830Y809777D01*
X1136867Y809721D01*
X1136904Y809647D01*
X1137015Y809462D01*
X1137126Y809240D01*
X1137144Y809258D01*
X1137181Y809314D01*
X1137255Y809369D01*
X1137348Y809462D01*
X1137552Y809684D01*
X1137792Y809888D01*
X1137811Y809906D01*
X1137848Y809943D01*
X1137922Y809980D01*
X1137996Y810054D01*
X1138200Y810184D01*
X1138422Y810332D01*
X1138440D01*
X1138477Y810369D01*
X1138533Y810388D01*
X1138607Y810425D01*
X1138811Y810499D01*
X1139015Y810573D01*
X1139033D01*
X1139070Y810592D01*
X1139126Y810610D01*
X1139200Y810629D01*
X1139366Y810647D01*
X1139588Y810666D01*
X1139700D01*
X1139829Y810647D01*
D02*
G37*
G36*
X1119405D02*
X1119609Y810610D01*
X1119665D01*
X1119720Y810592D01*
X1119794Y810573D01*
X1119961Y810536D01*
X1120128Y810480D01*
X1120146D01*
X1120165Y810462D01*
X1120276Y810443D01*
X1120405Y810388D01*
X1120535Y810332D01*
X1120572Y810314D01*
X1120628Y810277D01*
X1120702Y810240D01*
X1120776Y810184D01*
X1120794D01*
X1120831Y810147D01*
X1120868Y810110D01*
X1120887Y810073D01*
X1120905Y810036D01*
X1120924Y809962D01*
Y809943D01*
X1120942Y809925D01*
X1120961Y809814D01*
Y809795D01*
X1120979Y809758D01*
Y809684D01*
Y809610D01*
Y809592D01*
Y809518D01*
Y809444D01*
X1120961Y809351D01*
Y809332D01*
X1120942Y809295D01*
X1120905Y809203D01*
X1120887Y809166D01*
X1120850Y809110D01*
X1120831D01*
X1120757Y809092D01*
X1120739D01*
X1120702Y809110D01*
X1120646Y809129D01*
X1120553Y809166D01*
X1120535Y809184D01*
X1120461Y809221D01*
X1120350Y809277D01*
X1120202Y809351D01*
X1120165Y809369D01*
X1120072Y809425D01*
X1119905Y809481D01*
X1119702Y809555D01*
X1119683D01*
X1119646Y809573D01*
X1119591Y809592D01*
X1119517Y809610D01*
X1119294Y809629D01*
X1119035Y809647D01*
X1118924D01*
X1118831Y809629D01*
X1118646Y809610D01*
X1118443Y809555D01*
X1118424D01*
X1118406Y809536D01*
X1118294Y809499D01*
X1118146Y809425D01*
X1118017Y809332D01*
X1117998Y809314D01*
X1117924Y809240D01*
X1117850Y809129D01*
X1117776Y808999D01*
X1117757Y808962D01*
X1117739Y808888D01*
X1117720Y808758D01*
X1117702Y808592D01*
Y808573D01*
Y808536D01*
Y808481D01*
X1117720Y808407D01*
X1117757Y808240D01*
X1117850Y808055D01*
X1117887Y808018D01*
X1117961Y807925D01*
X1118091Y807814D01*
X1118257Y807684D01*
X1118276D01*
X1118313Y807666D01*
X1118350Y807629D01*
X1118424Y807592D01*
X1118609Y807499D01*
X1118850Y807407D01*
X1118868D01*
X1118905Y807388D01*
X1118979Y807351D01*
X1119054Y807333D01*
X1119276Y807240D01*
X1119517Y807147D01*
X1119535D01*
X1119572Y807129D01*
X1119646Y807092D01*
X1119720Y807055D01*
X1119942Y806962D01*
X1120183Y806833D01*
X1120202D01*
X1120239Y806796D01*
X1120294Y806759D01*
X1120387Y806721D01*
X1120572Y806592D01*
X1120776Y806425D01*
X1120794Y806407D01*
X1120813Y806388D01*
X1120868Y806333D01*
X1120924Y806277D01*
X1121053Y806092D01*
X1121183Y805851D01*
Y805833D01*
X1121201Y805796D01*
X1121239Y805722D01*
X1121276Y805629D01*
X1121294Y805518D01*
X1121331Y805370D01*
X1121350Y805055D01*
Y805036D01*
Y804962D01*
X1121331Y804851D01*
Y804722D01*
X1121294Y804574D01*
X1121257Y804407D01*
X1121201Y804240D01*
X1121127Y804074D01*
Y804055D01*
X1121090Y804000D01*
X1121035Y803925D01*
X1120979Y803833D01*
X1120794Y803592D01*
X1120553Y803352D01*
X1120535Y803333D01*
X1120479Y803296D01*
X1120405Y803259D01*
X1120313Y803185D01*
X1120183Y803111D01*
X1120016Y803037D01*
X1119850Y802963D01*
X1119665Y802907D01*
X1119646D01*
X1119572Y802889D01*
X1119461Y802870D01*
X1119331Y802833D01*
X1119165Y802814D01*
X1118961Y802777D01*
X1118739Y802759D01*
X1118369D01*
X1118276Y802777D01*
X1118035Y802796D01*
X1117776Y802833D01*
X1117757D01*
X1117720Y802852D01*
X1117665D01*
X1117572Y802870D01*
X1117387Y802907D01*
X1117165Y802963D01*
X1117146D01*
X1117128Y802981D01*
X1116998Y803018D01*
X1116850Y803074D01*
X1116684Y803148D01*
X1116646Y803166D01*
X1116572Y803222D01*
X1116480Y803277D01*
X1116406Y803333D01*
X1116387Y803352D01*
X1116369Y803389D01*
X1116332Y803463D01*
X1116295Y803555D01*
Y803574D01*
X1116276Y803666D01*
X1116258Y803777D01*
Y803944D01*
Y803963D01*
Y804037D01*
Y804111D01*
Y804203D01*
Y804222D01*
X1116276Y804259D01*
Y804314D01*
X1116295Y804370D01*
Y804388D01*
X1116313Y804407D01*
X1116350Y804444D01*
X1116369Y804463D01*
X1116387D01*
X1116406Y804481D01*
X1116480Y804500D01*
X1116498D01*
X1116535Y804481D01*
X1116609Y804463D01*
X1116721Y804388D01*
X1116758Y804370D01*
X1116850Y804314D01*
X1116980Y804240D01*
X1117146Y804148D01*
X1117165D01*
X1117202Y804129D01*
X1117239Y804111D01*
X1117313Y804074D01*
X1117498Y804000D01*
X1117739Y803907D01*
X1117757D01*
X1117794Y803888D01*
X1117868Y803870D01*
X1117980D01*
X1118091Y803851D01*
X1118239Y803833D01*
X1118554Y803814D01*
X1118757D01*
X1118942Y803833D01*
X1119146Y803870D01*
X1119165D01*
X1119202Y803888D01*
X1119313Y803925D01*
X1119461Y803981D01*
X1119628Y804074D01*
X1119646D01*
X1119665Y804092D01*
X1119739Y804185D01*
X1119850Y804296D01*
X1119942Y804444D01*
Y804463D01*
X1119961Y804481D01*
X1119998Y804592D01*
X1120035Y804759D01*
X1120053Y804962D01*
Y804981D01*
Y805018D01*
Y805073D01*
X1120035Y805129D01*
X1119979Y805296D01*
X1119887Y805462D01*
Y805481D01*
X1119868Y805499D01*
X1119776Y805592D01*
X1119646Y805722D01*
X1119480Y805833D01*
X1119461D01*
X1119442Y805870D01*
X1119387Y805888D01*
X1119313Y805925D01*
X1119128Y806018D01*
X1118905Y806111D01*
X1118887D01*
X1118850Y806129D01*
X1118794Y806166D01*
X1118702Y806184D01*
X1118498Y806277D01*
X1118239Y806370D01*
X1118220D01*
X1118183Y806388D01*
X1118109Y806425D01*
X1118035Y806462D01*
X1117813Y806573D01*
X1117572Y806684D01*
X1117554D01*
X1117517Y806721D01*
X1117461Y806759D01*
X1117387Y806796D01*
X1117202Y806925D01*
X1116998Y807092D01*
X1116980Y807110D01*
X1116961Y807147D01*
X1116906Y807184D01*
X1116850Y807259D01*
X1116721Y807444D01*
X1116591Y807684D01*
Y807703D01*
X1116572Y807740D01*
X1116554Y807814D01*
X1116517Y807925D01*
X1116498Y808036D01*
X1116461Y808184D01*
X1116443Y808518D01*
Y808536D01*
Y808592D01*
Y808666D01*
X1116461Y808777D01*
X1116498Y809036D01*
X1116591Y809332D01*
Y809351D01*
X1116628Y809406D01*
X1116665Y809481D01*
X1116721Y809573D01*
X1116869Y809795D01*
X1117072Y810017D01*
X1117091Y810036D01*
X1117128Y810073D01*
X1117202Y810129D01*
X1117294Y810184D01*
X1117424Y810258D01*
X1117554Y810332D01*
X1117887Y810480D01*
X1117906D01*
X1117980Y810517D01*
X1118072Y810536D01*
X1118220Y810573D01*
X1118387Y810610D01*
X1118591Y810629D01*
X1118813Y810666D01*
X1119220D01*
X1119405Y810647D01*
D02*
G37*
G36*
X1112999D02*
X1113202Y810610D01*
X1113258D01*
X1113313Y810592D01*
X1113388Y810573D01*
X1113554Y810536D01*
X1113721Y810480D01*
X1113739D01*
X1113758Y810462D01*
X1113869Y810443D01*
X1113999Y810388D01*
X1114128Y810332D01*
X1114165Y810314D01*
X1114221Y810277D01*
X1114295Y810240D01*
X1114369Y810184D01*
X1114387D01*
X1114424Y810147D01*
X1114462Y810110D01*
X1114480Y810073D01*
X1114499Y810036D01*
X1114517Y809962D01*
Y809943D01*
X1114536Y809925D01*
X1114554Y809814D01*
Y809795D01*
X1114573Y809758D01*
Y809684D01*
Y809610D01*
Y809592D01*
Y809518D01*
Y809444D01*
X1114554Y809351D01*
Y809332D01*
X1114536Y809295D01*
X1114499Y809203D01*
X1114480Y809166D01*
X1114443Y809110D01*
X1114424D01*
X1114350Y809092D01*
X1114332D01*
X1114295Y809110D01*
X1114239Y809129D01*
X1114147Y809166D01*
X1114128Y809184D01*
X1114054Y809221D01*
X1113943Y809277D01*
X1113795Y809351D01*
X1113758Y809369D01*
X1113665Y809425D01*
X1113499Y809481D01*
X1113295Y809555D01*
X1113276D01*
X1113239Y809573D01*
X1113184Y809592D01*
X1113110Y809610D01*
X1112888Y809629D01*
X1112628Y809647D01*
X1112517D01*
X1112425Y809629D01*
X1112240Y809610D01*
X1112036Y809555D01*
X1112017D01*
X1111999Y809536D01*
X1111888Y809499D01*
X1111740Y809425D01*
X1111610Y809332D01*
X1111591Y809314D01*
X1111517Y809240D01*
X1111443Y809129D01*
X1111369Y808999D01*
X1111351Y808962D01*
X1111332Y808888D01*
X1111314Y808758D01*
X1111295Y808592D01*
Y808573D01*
Y808536D01*
Y808481D01*
X1111314Y808407D01*
X1111351Y808240D01*
X1111443Y808055D01*
X1111480Y808018D01*
X1111554Y807925D01*
X1111684Y807814D01*
X1111851Y807684D01*
X1111869D01*
X1111906Y807666D01*
X1111943Y807629D01*
X1112017Y807592D01*
X1112202Y807499D01*
X1112443Y807407D01*
X1112462D01*
X1112499Y807388D01*
X1112573Y807351D01*
X1112647Y807333D01*
X1112869Y807240D01*
X1113110Y807147D01*
X1113128D01*
X1113165Y807129D01*
X1113239Y807092D01*
X1113313Y807055D01*
X1113536Y806962D01*
X1113776Y806833D01*
X1113795D01*
X1113832Y806796D01*
X1113887Y806759D01*
X1113980Y806721D01*
X1114165Y806592D01*
X1114369Y806425D01*
X1114387Y806407D01*
X1114406Y806388D01*
X1114462Y806333D01*
X1114517Y806277D01*
X1114647Y806092D01*
X1114776Y805851D01*
Y805833D01*
X1114795Y805796D01*
X1114832Y805722D01*
X1114869Y805629D01*
X1114887Y805518D01*
X1114924Y805370D01*
X1114943Y805055D01*
Y805036D01*
Y804962D01*
X1114924Y804851D01*
Y804722D01*
X1114887Y804574D01*
X1114850Y804407D01*
X1114795Y804240D01*
X1114721Y804074D01*
Y804055D01*
X1114684Y804000D01*
X1114628Y803925D01*
X1114573Y803833D01*
X1114387Y803592D01*
X1114147Y803352D01*
X1114128Y803333D01*
X1114073Y803296D01*
X1113999Y803259D01*
X1113906Y803185D01*
X1113776Y803111D01*
X1113610Y803037D01*
X1113443Y802963D01*
X1113258Y802907D01*
X1113239D01*
X1113165Y802889D01*
X1113054Y802870D01*
X1112925Y802833D01*
X1112758Y802814D01*
X1112554Y802777D01*
X1112332Y802759D01*
X1111962D01*
X1111869Y802777D01*
X1111628Y802796D01*
X1111369Y802833D01*
X1111351D01*
X1111314Y802852D01*
X1111258D01*
X1111165Y802870D01*
X1110980Y802907D01*
X1110758Y802963D01*
X1110740D01*
X1110721Y802981D01*
X1110592Y803018D01*
X1110443Y803074D01*
X1110277Y803148D01*
X1110240Y803166D01*
X1110166Y803222D01*
X1110073Y803277D01*
X1109999Y803333D01*
X1109980Y803352D01*
X1109962Y803389D01*
X1109925Y803463D01*
X1109888Y803555D01*
Y803574D01*
X1109869Y803666D01*
X1109851Y803777D01*
Y803944D01*
Y803963D01*
Y804037D01*
Y804111D01*
Y804203D01*
Y804222D01*
X1109869Y804259D01*
Y804314D01*
X1109888Y804370D01*
Y804388D01*
X1109906Y804407D01*
X1109943Y804444D01*
X1109962Y804463D01*
X1109980D01*
X1109999Y804481D01*
X1110073Y804500D01*
X1110092D01*
X1110129Y804481D01*
X1110203Y804463D01*
X1110314Y804388D01*
X1110351Y804370D01*
X1110443Y804314D01*
X1110573Y804240D01*
X1110740Y804148D01*
X1110758D01*
X1110795Y804129D01*
X1110832Y804111D01*
X1110906Y804074D01*
X1111092Y804000D01*
X1111332Y803907D01*
X1111351D01*
X1111388Y803888D01*
X1111462Y803870D01*
X1111573D01*
X1111684Y803851D01*
X1111832Y803833D01*
X1112147Y803814D01*
X1112351D01*
X1112536Y803833D01*
X1112739Y803870D01*
X1112758D01*
X1112795Y803888D01*
X1112906Y803925D01*
X1113054Y803981D01*
X1113221Y804074D01*
X1113239D01*
X1113258Y804092D01*
X1113332Y804185D01*
X1113443Y804296D01*
X1113536Y804444D01*
Y804463D01*
X1113554Y804481D01*
X1113591Y804592D01*
X1113628Y804759D01*
X1113647Y804962D01*
Y804981D01*
Y805018D01*
Y805073D01*
X1113628Y805129D01*
X1113573Y805296D01*
X1113480Y805462D01*
Y805481D01*
X1113462Y805499D01*
X1113369Y805592D01*
X1113239Y805722D01*
X1113073Y805833D01*
X1113054D01*
X1113036Y805870D01*
X1112980Y805888D01*
X1112906Y805925D01*
X1112721Y806018D01*
X1112499Y806111D01*
X1112480D01*
X1112443Y806129D01*
X1112388Y806166D01*
X1112295Y806184D01*
X1112091Y806277D01*
X1111832Y806370D01*
X1111814D01*
X1111777Y806388D01*
X1111702Y806425D01*
X1111628Y806462D01*
X1111406Y806573D01*
X1111165Y806684D01*
X1111147D01*
X1111110Y806721D01*
X1111054Y806759D01*
X1110980Y806796D01*
X1110795Y806925D01*
X1110592Y807092D01*
X1110573Y807110D01*
X1110555Y807147D01*
X1110499Y807184D01*
X1110443Y807259D01*
X1110314Y807444D01*
X1110184Y807684D01*
Y807703D01*
X1110166Y807740D01*
X1110147Y807814D01*
X1110110Y807925D01*
X1110092Y808036D01*
X1110054Y808184D01*
X1110036Y808518D01*
Y808536D01*
Y808592D01*
Y808666D01*
X1110054Y808777D01*
X1110092Y809036D01*
X1110184Y809332D01*
Y809351D01*
X1110221Y809406D01*
X1110258Y809481D01*
X1110314Y809573D01*
X1110462Y809795D01*
X1110666Y810017D01*
X1110684Y810036D01*
X1110721Y810073D01*
X1110795Y810129D01*
X1110888Y810184D01*
X1111017Y810258D01*
X1111147Y810332D01*
X1111480Y810480D01*
X1111499D01*
X1111573Y810517D01*
X1111665Y810536D01*
X1111814Y810573D01*
X1111980Y810610D01*
X1112184Y810629D01*
X1112406Y810666D01*
X1112813D01*
X1112999Y810647D01*
D02*
G37*
G36*
X1162364Y810536D02*
X1162475Y810517D01*
X1162494D01*
X1162549Y810499D01*
X1162623Y810480D01*
X1162679Y810443D01*
X1162697Y810425D01*
X1162716Y810406D01*
X1162734Y810351D01*
X1162753Y810295D01*
Y810277D01*
Y810240D01*
X1162734Y810147D01*
X1162697Y810054D01*
X1160123Y802907D01*
X1159161Y800278D01*
X1159142Y800259D01*
X1159105Y800204D01*
X1159031Y800130D01*
X1158901Y800074D01*
X1158864Y800055D01*
X1158753Y800037D01*
X1158679Y800018D01*
X1158587D01*
X1158457Y800000D01*
X1158198D01*
X1158087Y800018D01*
X1157975Y800037D01*
X1157957D01*
X1157920Y800055D01*
X1157790Y800111D01*
X1157772D01*
X1157753Y800148D01*
X1157716Y800167D01*
X1157698Y800222D01*
Y800241D01*
Y800278D01*
X1157716Y800333D01*
X1157753Y800407D01*
X1158735Y802907D01*
X1158698Y802926D01*
X1158661Y802963D01*
X1158605Y803000D01*
Y803018D01*
X1158568Y803055D01*
X1158512Y803148D01*
X1155957Y810036D01*
X1155939Y810073D01*
X1155920Y810129D01*
X1155902Y810221D01*
X1155883Y810295D01*
Y810314D01*
Y810351D01*
X1155902Y810406D01*
X1155939Y810443D01*
X1155957Y810462D01*
X1155994Y810480D01*
X1156068Y810499D01*
X1156161Y810517D01*
X1156179D01*
X1156272Y810536D01*
X1156383Y810555D01*
X1156809D01*
X1156920Y810536D01*
X1156939D01*
X1156994Y810517D01*
X1157068Y810499D01*
X1157124Y810480D01*
X1157142D01*
X1157179Y810462D01*
X1157216Y810443D01*
X1157253Y810388D01*
Y810369D01*
X1157272Y810351D01*
X1157327Y810240D01*
X1159383Y804463D01*
X1159401D01*
X1161401Y810258D01*
Y810277D01*
X1161420Y810351D01*
X1161457Y810406D01*
X1161494Y810462D01*
X1161512D01*
X1161549Y810480D01*
X1161605Y810499D01*
X1161697Y810517D01*
X1161734D01*
X1161808Y810536D01*
X1161938Y810555D01*
X1162234D01*
X1162364Y810536D01*
D02*
G37*
G36*
X1171530Y813239D02*
X1171770Y813221D01*
X1172030Y813184D01*
X1172270Y813128D01*
X1172511Y813073D01*
X1172530D01*
X1172604Y813036D01*
X1172715Y812999D01*
X1172863Y812943D01*
X1173178Y812776D01*
X1173344Y812665D01*
X1173492Y812554D01*
X1173511Y812536D01*
X1173567Y812499D01*
X1173641Y812425D01*
X1173715Y812332D01*
X1173826Y812203D01*
X1173918Y812054D01*
X1174011Y811906D01*
X1174103Y811721D01*
X1174122Y811702D01*
X1174140Y811628D01*
X1174177Y811536D01*
X1174214Y811406D01*
X1174252Y811240D01*
X1174270Y811054D01*
X1174307Y810851D01*
Y810629D01*
Y810610D01*
Y810573D01*
Y810499D01*
X1174289Y810406D01*
X1174270Y810184D01*
X1174214Y809925D01*
Y809906D01*
X1174196Y809869D01*
X1174177Y809795D01*
X1174140Y809721D01*
X1174066Y809518D01*
X1173937Y809295D01*
Y809277D01*
X1173900Y809258D01*
X1173826Y809129D01*
X1173696Y808962D01*
X1173511Y808795D01*
X1173492D01*
X1173474Y808758D01*
X1173418Y808721D01*
X1173344Y808666D01*
X1173159Y808555D01*
X1172918Y808425D01*
X1172937D01*
X1172992Y808407D01*
X1173066Y808388D01*
X1173178Y808370D01*
X1173437Y808277D01*
X1173715Y808129D01*
X1173733D01*
X1173770Y808092D01*
X1173844Y808055D01*
X1173937Y807981D01*
X1174140Y807814D01*
X1174344Y807592D01*
X1174363Y807573D01*
X1174400Y807536D01*
X1174437Y807462D01*
X1174511Y807370D01*
X1174566Y807259D01*
X1174640Y807129D01*
X1174789Y806814D01*
Y806796D01*
X1174807Y806740D01*
X1174844Y806647D01*
X1174881Y806536D01*
X1174900Y806388D01*
X1174937Y806240D01*
X1174955Y805870D01*
Y805851D01*
Y805777D01*
Y805685D01*
X1174937Y805574D01*
X1174918Y805425D01*
X1174900Y805277D01*
X1174826Y804962D01*
Y804944D01*
X1174807Y804888D01*
X1174770Y804814D01*
X1174733Y804722D01*
X1174622Y804481D01*
X1174474Y804222D01*
X1174455Y804203D01*
X1174437Y804166D01*
X1174381Y804111D01*
X1174326Y804018D01*
X1174159Y803833D01*
X1173937Y803648D01*
X1173918Y803629D01*
X1173881Y803611D01*
X1173807Y803555D01*
X1173733Y803500D01*
X1173622Y803444D01*
X1173492Y803370D01*
X1173215Y803240D01*
X1173196D01*
X1173141Y803222D01*
X1173066Y803185D01*
X1172955Y803148D01*
X1172844Y803111D01*
X1172696Y803055D01*
X1172363Y802981D01*
X1172344D01*
X1172289Y802963D01*
X1172196D01*
X1172067Y802944D01*
X1171918Y802926D01*
X1171733D01*
X1171548Y802907D01*
X1168586D01*
X1168511Y802926D01*
X1168400Y802963D01*
X1168271Y803018D01*
X1168252Y803037D01*
X1168197Y803129D01*
X1168141Y803259D01*
X1168123Y803463D01*
Y812684D01*
Y812702D01*
Y812739D01*
X1168141Y812850D01*
X1168178Y812999D01*
X1168271Y813128D01*
X1168308Y813147D01*
X1168382Y813202D01*
X1168493Y813239D01*
X1168623Y813258D01*
X1171326D01*
X1171530Y813239D01*
D02*
G37*
G36*
X1154050Y814036D02*
X1154069D01*
X1154124Y814017D01*
X1154198Y813998D01*
X1154254Y813980D01*
X1154272D01*
X1154291Y813961D01*
X1154365Y813887D01*
X1154383Y813869D01*
X1154402Y813795D01*
Y803092D01*
Y803074D01*
Y803055D01*
X1154365Y802981D01*
X1154346Y802963D01*
X1154254Y802907D01*
X1154235D01*
X1154198Y802889D01*
X1154143D01*
X1154050Y802870D01*
X1153976D01*
X1153865Y802852D01*
X1153513D01*
X1153402Y802870D01*
X1153383D01*
X1153346Y802889D01*
X1153217Y802907D01*
X1153198D01*
X1153180Y802926D01*
X1153106Y802981D01*
Y803018D01*
X1153087Y803092D01*
Y813795D01*
Y813813D01*
Y813832D01*
X1153106Y813887D01*
Y813906D01*
X1153143Y813924D01*
X1153217Y813980D01*
X1153235D01*
X1153272Y813998D01*
X1153328Y814017D01*
X1153402Y814036D01*
X1153420D01*
X1153494Y814054D01*
X1153957D01*
X1154050Y814036D01*
D02*
G37*
G36*
X1104851Y813295D02*
X1104888D01*
X1104944Y813276D01*
X1105036Y813258D01*
X1105111Y813239D01*
X1105129D01*
X1105166Y813221D01*
X1105222Y813202D01*
X1105277Y813147D01*
X1105296D01*
X1105314Y813110D01*
X1105370Y813017D01*
X1108851Y803389D01*
X1108869Y803352D01*
X1108888Y803277D01*
X1108906Y803185D01*
Y803092D01*
Y803074D01*
Y803037D01*
X1108888Y802981D01*
X1108851Y802926D01*
X1108832D01*
X1108814Y802907D01*
X1108740Y802889D01*
X1108647Y802870D01*
X1108536D01*
X1108407Y802852D01*
X1107981D01*
X1107851Y802870D01*
X1107832D01*
X1107777Y802889D01*
X1107703D01*
X1107629Y802907D01*
X1107610D01*
X1107592Y802926D01*
X1107518Y802963D01*
Y802981D01*
X1107499Y803000D01*
X1107444Y803092D01*
X1106555Y805629D01*
X1102241D01*
X1101407Y803129D01*
Y803111D01*
X1101389Y803092D01*
X1101333Y803000D01*
X1101315Y802963D01*
X1101222Y802907D01*
X1101204D01*
X1101167Y802889D01*
X1101093D01*
X1101000Y802870D01*
X1100907D01*
X1100796Y802852D01*
X1100518D01*
X1100389Y802870D01*
X1100259Y802889D01*
X1100241D01*
X1100185Y802907D01*
X1100111Y802926D01*
X1100056Y802944D01*
Y802963D01*
X1100037Y802981D01*
X1100018Y803037D01*
X1100000Y803092D01*
Y803111D01*
X1100018Y803166D01*
X1100037Y803259D01*
X1100074Y803389D01*
X1103537Y813017D01*
Y813036D01*
X1103555Y813073D01*
X1103611Y813165D01*
X1103629Y813184D01*
X1103648Y813202D01*
X1103759Y813239D01*
X1103777D01*
X1103833Y813258D01*
X1103907Y813276D01*
X1104018Y813295D01*
X1104055D01*
X1104129Y813313D01*
X1104722D01*
X1104851Y813295D01*
D02*
G37*
G36*
X1192287Y812462D02*
X1192305D01*
X1192361Y812443D01*
X1192435Y812425D01*
X1192490Y812406D01*
X1192509D01*
X1192527Y812388D01*
X1192601Y812314D01*
X1192620Y812295D01*
X1192639Y812221D01*
Y810518D01*
X1194509D01*
X1194583Y810480D01*
X1194601D01*
X1194620Y810462D01*
X1194675Y810369D01*
Y810351D01*
X1194694Y810332D01*
X1194712Y810277D01*
X1194731Y810203D01*
Y810184D01*
X1194750Y810147D01*
Y810054D01*
Y809962D01*
Y809943D01*
Y809906D01*
Y809795D01*
X1194712Y809666D01*
X1194675Y809536D01*
X1194657Y809518D01*
X1194620Y809481D01*
X1194564Y809444D01*
X1194472Y809425D01*
X1192639D01*
Y805407D01*
Y805370D01*
Y805277D01*
X1192657Y805148D01*
Y804981D01*
X1192731Y804611D01*
X1192768Y804444D01*
X1192842Y804277D01*
X1192861Y804259D01*
X1192879Y804222D01*
X1192935Y804166D01*
X1193027Y804092D01*
X1193139Y804018D01*
X1193268Y803963D01*
X1193435Y803925D01*
X1193639Y803907D01*
X1193842D01*
X1193953Y803925D01*
X1193972D01*
X1194046Y803944D01*
X1194120Y803981D01*
X1194212Y804000D01*
X1194231Y804018D01*
X1194286Y804037D01*
X1194398Y804092D01*
X1194416D01*
X1194453Y804111D01*
X1194564Y804129D01*
X1194583D01*
X1194638Y804092D01*
X1194657Y804074D01*
X1194694Y804018D01*
Y804000D01*
X1194712Y803981D01*
X1194731Y803870D01*
Y803851D01*
X1194750Y803814D01*
Y803722D01*
Y803629D01*
Y803592D01*
Y803500D01*
X1194731Y803389D01*
X1194712Y803259D01*
Y803240D01*
X1194694Y803185D01*
X1194657Y803111D01*
X1194601Y803055D01*
X1194583D01*
X1194564Y803018D01*
X1194509Y802981D01*
X1194416Y802944D01*
X1194398D01*
X1194324Y802926D01*
X1194231Y802907D01*
X1194120Y802870D01*
X1194101D01*
X1194027Y802852D01*
X1193916Y802833D01*
X1193787Y802814D01*
X1193750D01*
X1193676Y802796D01*
X1193546Y802777D01*
X1193213D01*
X1193083Y802796D01*
X1192935Y802814D01*
X1192768Y802833D01*
X1192453Y802907D01*
X1192435D01*
X1192398Y802944D01*
X1192324Y802963D01*
X1192231Y803018D01*
X1192009Y803166D01*
X1191805Y803352D01*
X1191787Y803370D01*
X1191768Y803407D01*
X1191713Y803481D01*
X1191657Y803574D01*
X1191602Y803685D01*
X1191546Y803814D01*
X1191435Y804129D01*
Y804148D01*
X1191416Y804203D01*
X1191398Y804314D01*
X1191379Y804444D01*
X1191361Y804592D01*
X1191342Y804777D01*
X1191324Y804981D01*
Y805203D01*
Y809425D01*
X1190287D01*
X1190231Y809444D01*
X1190157Y809481D01*
X1190102Y809536D01*
Y809555D01*
X1190083Y809647D01*
X1190065Y809777D01*
X1190046Y809962D01*
Y809980D01*
Y810054D01*
Y810129D01*
X1190065Y810203D01*
Y810221D01*
X1190083Y810258D01*
Y810314D01*
X1190102Y810369D01*
Y810388D01*
X1190120Y810406D01*
X1190194Y810480D01*
X1190213D01*
X1190231Y810499D01*
X1190305Y810518D01*
X1191324D01*
Y812221D01*
Y812240D01*
Y812258D01*
X1191342Y812314D01*
Y812332D01*
X1191379Y812351D01*
X1191453Y812406D01*
X1191472D01*
X1191509Y812425D01*
X1191565Y812443D01*
X1191639Y812462D01*
X1191657D01*
X1191731Y812480D01*
X1192194D01*
X1192287Y812462D01*
D02*
G37*
G36*
X1186806D02*
X1186824D01*
X1186880Y812443D01*
X1186954Y812425D01*
X1187010Y812406D01*
X1187028D01*
X1187047Y812388D01*
X1187121Y812314D01*
X1187139Y812295D01*
X1187158Y812221D01*
Y810518D01*
X1189028D01*
X1189102Y810480D01*
X1189120D01*
X1189139Y810462D01*
X1189194Y810369D01*
Y810351D01*
X1189213Y810332D01*
X1189231Y810277D01*
X1189250Y810203D01*
Y810184D01*
X1189268Y810147D01*
Y810054D01*
Y809962D01*
Y809943D01*
Y809906D01*
Y809795D01*
X1189231Y809666D01*
X1189194Y809536D01*
X1189176Y809518D01*
X1189139Y809481D01*
X1189083Y809444D01*
X1188991Y809425D01*
X1187158D01*
Y805407D01*
Y805370D01*
Y805277D01*
X1187176Y805148D01*
Y804981D01*
X1187250Y804611D01*
X1187287Y804444D01*
X1187361Y804277D01*
X1187380Y804259D01*
X1187398Y804222D01*
X1187454Y804166D01*
X1187546Y804092D01*
X1187658Y804018D01*
X1187787Y803963D01*
X1187954Y803925D01*
X1188158Y803907D01*
X1188361D01*
X1188472Y803925D01*
X1188491D01*
X1188565Y803944D01*
X1188639Y803981D01*
X1188732Y804000D01*
X1188750Y804018D01*
X1188806Y804037D01*
X1188917Y804092D01*
X1188935D01*
X1188972Y804111D01*
X1189083Y804129D01*
X1189102D01*
X1189157Y804092D01*
X1189176Y804074D01*
X1189213Y804018D01*
Y804000D01*
X1189231Y803981D01*
X1189250Y803870D01*
Y803851D01*
X1189268Y803814D01*
Y803722D01*
Y803629D01*
Y803592D01*
Y803500D01*
X1189250Y803389D01*
X1189231Y803259D01*
Y803240D01*
X1189213Y803185D01*
X1189176Y803111D01*
X1189120Y803055D01*
X1189102D01*
X1189083Y803018D01*
X1189028Y802981D01*
X1188935Y802944D01*
X1188917D01*
X1188843Y802926D01*
X1188750Y802907D01*
X1188639Y802870D01*
X1188621D01*
X1188546Y802852D01*
X1188435Y802833D01*
X1188306Y802814D01*
X1188269D01*
X1188195Y802796D01*
X1188065Y802777D01*
X1187732D01*
X1187602Y802796D01*
X1187454Y802814D01*
X1187287Y802833D01*
X1186973Y802907D01*
X1186954D01*
X1186917Y802944D01*
X1186843Y802963D01*
X1186750Y803018D01*
X1186528Y803166D01*
X1186324Y803352D01*
X1186306Y803370D01*
X1186287Y803407D01*
X1186232Y803481D01*
X1186176Y803574D01*
X1186121Y803685D01*
X1186065Y803814D01*
X1185954Y804129D01*
Y804148D01*
X1185936Y804203D01*
X1185917Y804314D01*
X1185899Y804444D01*
X1185880Y804592D01*
X1185862Y804777D01*
X1185843Y804981D01*
Y805203D01*
Y809425D01*
X1184806D01*
X1184751Y809444D01*
X1184676Y809481D01*
X1184621Y809536D01*
Y809555D01*
X1184602Y809647D01*
X1184584Y809777D01*
X1184565Y809962D01*
Y809980D01*
Y810054D01*
Y810129D01*
X1184584Y810203D01*
Y810221D01*
X1184602Y810258D01*
Y810314D01*
X1184621Y810369D01*
Y810388D01*
X1184639Y810406D01*
X1184714Y810480D01*
X1184732D01*
X1184751Y810499D01*
X1184825Y810518D01*
X1185843D01*
Y812221D01*
Y812240D01*
Y812258D01*
X1185862Y812314D01*
Y812332D01*
X1185899Y812351D01*
X1185973Y812406D01*
X1185991D01*
X1186028Y812425D01*
X1186084Y812443D01*
X1186158Y812462D01*
X1186176D01*
X1186250Y812480D01*
X1186713D01*
X1186806Y812462D01*
D02*
G37*
G36*
X1199971Y810647D02*
X1200175Y810629D01*
X1200415Y810592D01*
X1200675Y810555D01*
X1200934Y810480D01*
X1201193Y810388D01*
X1201230Y810369D01*
X1201304Y810332D01*
X1201434Y810277D01*
X1201582Y810203D01*
X1201767Y810092D01*
X1201952Y809962D01*
X1202138Y809814D01*
X1202304Y809629D01*
X1202323Y809610D01*
X1202378Y809536D01*
X1202452Y809425D01*
X1202563Y809295D01*
X1202656Y809110D01*
X1202767Y808906D01*
X1202878Y808666D01*
X1202971Y808407D01*
X1202989Y808370D01*
X1203008Y808277D01*
X1203045Y808129D01*
X1203082Y807925D01*
X1203119Y807684D01*
X1203156Y807407D01*
X1203193Y807110D01*
Y806777D01*
Y806759D01*
Y806740D01*
Y806629D01*
X1203175Y806462D01*
X1203156Y806259D01*
X1203138Y805999D01*
X1203100Y805740D01*
X1203026Y805444D01*
X1202952Y805166D01*
X1202934Y805129D01*
X1202915Y805036D01*
X1202860Y804907D01*
X1202767Y804722D01*
X1202675Y804537D01*
X1202563Y804314D01*
X1202415Y804092D01*
X1202249Y803888D01*
X1202230Y803870D01*
X1202175Y803796D01*
X1202064Y803703D01*
X1201934Y803592D01*
X1201767Y803444D01*
X1201582Y803315D01*
X1201360Y803185D01*
X1201101Y803055D01*
X1201064Y803037D01*
X1200971Y803018D01*
X1200841Y802963D01*
X1200638Y802907D01*
X1200415Y802852D01*
X1200138Y802814D01*
X1199842Y802777D01*
X1199508Y802759D01*
X1199360D01*
X1199193Y802777D01*
X1198990Y802796D01*
X1198730Y802814D01*
X1198471Y802870D01*
X1198212Y802926D01*
X1197953Y803018D01*
X1197916Y803037D01*
X1197842Y803074D01*
X1197712Y803129D01*
X1197564Y803203D01*
X1197397Y803315D01*
X1197212Y803444D01*
X1197027Y803611D01*
X1196842Y803777D01*
X1196823Y803796D01*
X1196768Y803870D01*
X1196694Y803981D01*
X1196601Y804111D01*
X1196490Y804296D01*
X1196397Y804500D01*
X1196286Y804740D01*
X1196194Y804999D01*
Y805036D01*
X1196157Y805129D01*
X1196138Y805277D01*
X1196101Y805481D01*
X1196064Y805722D01*
X1196027Y805999D01*
X1196009Y806296D01*
X1195990Y806629D01*
Y806647D01*
Y806666D01*
Y806777D01*
X1196009Y806944D01*
X1196027Y807166D01*
X1196046Y807425D01*
X1196083Y807684D01*
X1196138Y807981D01*
X1196212Y808258D01*
X1196231Y808296D01*
X1196249Y808388D01*
X1196305Y808518D01*
X1196379Y808703D01*
X1196471Y808888D01*
X1196601Y809110D01*
X1196731Y809332D01*
X1196897Y809536D01*
X1196916Y809555D01*
X1196990Y809629D01*
X1197083Y809721D01*
X1197212Y809851D01*
X1197379Y809980D01*
X1197582Y810110D01*
X1197805Y810258D01*
X1198045Y810369D01*
X1198082Y810388D01*
X1198175Y810425D01*
X1198305Y810462D01*
X1198508Y810518D01*
X1198749Y810573D01*
X1199008Y810629D01*
X1199323Y810647D01*
X1199656Y810666D01*
X1199805D01*
X1199971Y810647D01*
D02*
G37*
G36*
X1180362D02*
X1180566Y810629D01*
X1180807Y810592D01*
X1181066Y810555D01*
X1181325Y810480D01*
X1181584Y810388D01*
X1181621Y810369D01*
X1181695Y810332D01*
X1181825Y810277D01*
X1181973Y810203D01*
X1182158Y810092D01*
X1182343Y809962D01*
X1182529Y809814D01*
X1182695Y809629D01*
X1182714Y809610D01*
X1182769Y809536D01*
X1182843Y809425D01*
X1182954Y809295D01*
X1183047Y809110D01*
X1183158Y808906D01*
X1183269Y808666D01*
X1183362Y808407D01*
X1183380Y808370D01*
X1183399Y808277D01*
X1183436Y808129D01*
X1183473Y807925D01*
X1183510Y807684D01*
X1183547Y807407D01*
X1183584Y807110D01*
Y806777D01*
Y806759D01*
Y806740D01*
Y806629D01*
X1183565Y806462D01*
X1183547Y806259D01*
X1183528Y805999D01*
X1183491Y805740D01*
X1183417Y805444D01*
X1183343Y805166D01*
X1183325Y805129D01*
X1183306Y805036D01*
X1183251Y804907D01*
X1183158Y804722D01*
X1183065Y804537D01*
X1182954Y804314D01*
X1182806Y804092D01*
X1182640Y803888D01*
X1182621Y803870D01*
X1182566Y803796D01*
X1182454Y803703D01*
X1182325Y803592D01*
X1182158Y803444D01*
X1181973Y803315D01*
X1181751Y803185D01*
X1181492Y803055D01*
X1181454Y803037D01*
X1181362Y803018D01*
X1181232Y802963D01*
X1181029Y802907D01*
X1180807Y802852D01*
X1180529Y802814D01*
X1180232Y802777D01*
X1179899Y802759D01*
X1179751D01*
X1179584Y802777D01*
X1179381Y802796D01*
X1179121Y802814D01*
X1178862Y802870D01*
X1178603Y802926D01*
X1178344Y803018D01*
X1178307Y803037D01*
X1178233Y803074D01*
X1178103Y803129D01*
X1177955Y803203D01*
X1177788Y803315D01*
X1177603Y803444D01*
X1177418Y803611D01*
X1177233Y803777D01*
X1177214Y803796D01*
X1177159Y803870D01*
X1177085Y803981D01*
X1176992Y804111D01*
X1176881Y804296D01*
X1176788Y804500D01*
X1176677Y804740D01*
X1176585Y804999D01*
Y805036D01*
X1176548Y805129D01*
X1176529Y805277D01*
X1176492Y805481D01*
X1176455Y805722D01*
X1176418Y805999D01*
X1176400Y806296D01*
X1176381Y806629D01*
Y806647D01*
Y806666D01*
Y806777D01*
X1176400Y806944D01*
X1176418Y807166D01*
X1176436Y807425D01*
X1176474Y807684D01*
X1176529Y807981D01*
X1176603Y808258D01*
X1176622Y808296D01*
X1176640Y808388D01*
X1176696Y808518D01*
X1176770Y808703D01*
X1176862Y808888D01*
X1176992Y809110D01*
X1177122Y809332D01*
X1177288Y809536D01*
X1177307Y809555D01*
X1177381Y809629D01*
X1177474Y809721D01*
X1177603Y809851D01*
X1177770Y809980D01*
X1177973Y810110D01*
X1178196Y810258D01*
X1178436Y810369D01*
X1178473Y810388D01*
X1178566Y810425D01*
X1178696Y810462D01*
X1178899Y810518D01*
X1179140Y810573D01*
X1179399Y810629D01*
X1179714Y810647D01*
X1180047Y810666D01*
X1180195D01*
X1180362Y810647D01*
D02*
G37*
G36*
X1145440Y814036D02*
X1145458D01*
X1145514Y814017D01*
X1145588Y813998D01*
X1145643Y813980D01*
X1145662D01*
X1145680Y813961D01*
X1145754Y813887D01*
X1145773Y813869D01*
X1145792Y813795D01*
Y809481D01*
X1145810Y809499D01*
X1145847Y809536D01*
X1145903Y809592D01*
X1145995Y809666D01*
X1146180Y809832D01*
X1146403Y810017D01*
X1146421Y810036D01*
X1146458Y810054D01*
X1146514Y810091D01*
X1146588Y810147D01*
X1146773Y810277D01*
X1146977Y810388D01*
X1146995D01*
X1147032Y810406D01*
X1147088Y810443D01*
X1147162Y810462D01*
X1147347Y810536D01*
X1147569Y810592D01*
X1147588D01*
X1147625Y810610D01*
X1147680D01*
X1147754Y810629D01*
X1147958Y810647D01*
X1148180Y810666D01*
X1148310D01*
X1148458Y810647D01*
X1148643Y810629D01*
X1148847Y810592D01*
X1149069Y810536D01*
X1149291Y810462D01*
X1149513Y810351D01*
X1149532Y810332D01*
X1149606Y810295D01*
X1149717Y810221D01*
X1149847Y810129D01*
X1149995Y809999D01*
X1150143Y809851D01*
X1150291Y809684D01*
X1150421Y809499D01*
X1150439Y809481D01*
X1150476Y809406D01*
X1150550Y809295D01*
X1150624Y809147D01*
X1150698Y808981D01*
X1150791Y808758D01*
X1150865Y808536D01*
X1150939Y808277D01*
Y808240D01*
X1150958Y808147D01*
X1150995Y808018D01*
X1151032Y807832D01*
X1151050Y807610D01*
X1151087Y807351D01*
X1151106Y807092D01*
Y806796D01*
Y806777D01*
Y806759D01*
Y806703D01*
Y806629D01*
X1151087Y806462D01*
Y806240D01*
X1151050Y805962D01*
X1151013Y805685D01*
X1150958Y805388D01*
X1150884Y805111D01*
Y805073D01*
X1150847Y804981D01*
X1150791Y804851D01*
X1150735Y804666D01*
X1150643Y804481D01*
X1150550Y804259D01*
X1150421Y804037D01*
X1150291Y803833D01*
X1150273Y803814D01*
X1150217Y803740D01*
X1150143Y803648D01*
X1150032Y803537D01*
X1149884Y803407D01*
X1149717Y803277D01*
X1149513Y803148D01*
X1149310Y803037D01*
X1149291Y803018D01*
X1149217Y803000D01*
X1149088Y802944D01*
X1148939Y802907D01*
X1148736Y802852D01*
X1148513Y802796D01*
X1148273Y802777D01*
X1147995Y802759D01*
X1147865D01*
X1147791Y802777D01*
X1147569Y802796D01*
X1147347Y802833D01*
X1147328D01*
X1147291Y802852D01*
X1147236Y802870D01*
X1147180Y802889D01*
X1146995Y802944D01*
X1146792Y803037D01*
X1146773D01*
X1146736Y803055D01*
X1146680Y803092D01*
X1146625Y803148D01*
X1146440Y803259D01*
X1146217Y803407D01*
X1146199Y803426D01*
X1146162Y803444D01*
X1146106Y803500D01*
X1146032Y803574D01*
X1145847Y803759D01*
X1145625Y803981D01*
Y803092D01*
Y803055D01*
X1145588Y802981D01*
X1145569Y802944D01*
X1145551Y802926D01*
X1145495Y802907D01*
X1145477D01*
X1145440Y802889D01*
X1145384D01*
X1145310Y802870D01*
X1145236D01*
X1145162Y802852D01*
X1144866D01*
X1144773Y802870D01*
X1144755D01*
X1144718Y802889D01*
X1144588Y802907D01*
X1144569D01*
X1144551Y802926D01*
X1144514Y802944D01*
X1144495Y802963D01*
Y802981D01*
Y803000D01*
X1144477Y803092D01*
Y813795D01*
Y813813D01*
Y813832D01*
X1144495Y813887D01*
Y813906D01*
X1144532Y813924D01*
X1144606Y813980D01*
X1144625D01*
X1144662Y813998D01*
X1144718Y814017D01*
X1144792Y814036D01*
X1144810D01*
X1144884Y814054D01*
X1145347D01*
X1145440Y814036D01*
D02*
G37*
G36*
X1126497Y810647D02*
X1126701Y810629D01*
X1126923Y810592D01*
X1127164Y810555D01*
X1127405Y810480D01*
X1127645Y810388D01*
X1127664Y810369D01*
X1127756Y810332D01*
X1127868Y810277D01*
X1127997Y810184D01*
X1128145Y810091D01*
X1128312Y809962D01*
X1128478Y809814D01*
X1128627Y809647D01*
X1128645Y809629D01*
X1128682Y809573D01*
X1128756Y809462D01*
X1128849Y809332D01*
X1128941Y809184D01*
X1129034Y808999D01*
X1129127Y808795D01*
X1129201Y808573D01*
Y808555D01*
X1129238Y808462D01*
X1129256Y808351D01*
X1129293Y808184D01*
X1129330Y807981D01*
X1129349Y807758D01*
X1129386Y807518D01*
Y807259D01*
Y807018D01*
Y806999D01*
Y806962D01*
X1129367Y806851D01*
X1129312Y806703D01*
X1129219Y806573D01*
X1129201Y806555D01*
X1129127Y806518D01*
X1129016Y806462D01*
X1128867Y806444D01*
X1124127D01*
Y806425D01*
Y806333D01*
Y806222D01*
X1124146Y806073D01*
Y805907D01*
X1124183Y805722D01*
X1124238Y805351D01*
Y805333D01*
X1124257Y805277D01*
X1124294Y805185D01*
X1124331Y805073D01*
X1124460Y804796D01*
X1124646Y804518D01*
X1124664Y804500D01*
X1124701Y804463D01*
X1124757Y804407D01*
X1124849Y804333D01*
X1124942Y804240D01*
X1125071Y804166D01*
X1125368Y804000D01*
X1125386D01*
X1125442Y803981D01*
X1125553Y803944D01*
X1125683Y803925D01*
X1125849Y803888D01*
X1126034Y803851D01*
X1126238Y803833D01*
X1126664D01*
X1126794Y803851D01*
X1127090Y803870D01*
X1127386Y803907D01*
X1127405D01*
X1127460Y803925D01*
X1127534Y803944D01*
X1127627Y803963D01*
X1127849Y804018D01*
X1128090Y804092D01*
X1128108D01*
X1128145Y804111D01*
X1128256Y804166D01*
X1128423Y804222D01*
X1128571Y804277D01*
X1128590D01*
X1128608Y804296D01*
X1128682Y804333D01*
X1128775Y804351D01*
X1128867Y804370D01*
X1128904D01*
X1128960Y804333D01*
X1128979D01*
X1128997Y804314D01*
X1129034Y804240D01*
Y804222D01*
X1129053Y804203D01*
X1129071Y804092D01*
Y804074D01*
X1129090Y804037D01*
Y803944D01*
Y803851D01*
Y803833D01*
Y803796D01*
X1129071Y803666D01*
Y803648D01*
Y803629D01*
X1129053Y803518D01*
X1129034Y803481D01*
X1128997Y803407D01*
X1128979Y803389D01*
X1128941Y803333D01*
X1128904Y803296D01*
X1128812Y803259D01*
X1128682Y803185D01*
X1128664D01*
X1128645Y803166D01*
X1128590Y803148D01*
X1128534Y803129D01*
X1128349Y803074D01*
X1128108Y803000D01*
X1128090D01*
X1128053Y802981D01*
X1127979Y802963D01*
X1127886Y802944D01*
X1127775Y802926D01*
X1127627Y802889D01*
X1127312Y802833D01*
X1127293D01*
X1127238Y802814D01*
X1127145D01*
X1127034Y802796D01*
X1126886Y802777D01*
X1126720D01*
X1126349Y802759D01*
X1126201D01*
X1126034Y802777D01*
X1125831Y802796D01*
X1125571Y802814D01*
X1125312Y802870D01*
X1125053Y802926D01*
X1124794Y803000D01*
X1124757Y803018D01*
X1124683Y803037D01*
X1124553Y803111D01*
X1124405Y803185D01*
X1124220Y803277D01*
X1124035Y803407D01*
X1123849Y803555D01*
X1123664Y803722D01*
X1123646Y803740D01*
X1123590Y803814D01*
X1123516Y803925D01*
X1123405Y804055D01*
X1123294Y804240D01*
X1123183Y804444D01*
X1123072Y804685D01*
X1122979Y804944D01*
Y804981D01*
X1122942Y805073D01*
X1122905Y805222D01*
X1122868Y805444D01*
X1122831Y805685D01*
X1122794Y805981D01*
X1122775Y806314D01*
X1122757Y806666D01*
Y806684D01*
Y806703D01*
Y806814D01*
X1122775Y806999D01*
X1122794Y807222D01*
X1122812Y807481D01*
X1122850Y807758D01*
X1122905Y808055D01*
X1122979Y808333D01*
X1122998Y808370D01*
X1123016Y808462D01*
X1123072Y808592D01*
X1123164Y808777D01*
X1123257Y808962D01*
X1123368Y809184D01*
X1123516Y809388D01*
X1123664Y809592D01*
X1123683Y809610D01*
X1123738Y809684D01*
X1123849Y809777D01*
X1123979Y809888D01*
X1124127Y810017D01*
X1124312Y810147D01*
X1124535Y810277D01*
X1124757Y810388D01*
X1124794Y810406D01*
X1124868Y810425D01*
X1124997Y810480D01*
X1125183Y810536D01*
X1125386Y810573D01*
X1125646Y810629D01*
X1125905Y810647D01*
X1126201Y810666D01*
X1126349D01*
X1126497Y810647D01*
D02*
G37*
%LPC*%
G36*
X1171122Y812128D02*
X1169493D01*
Y808777D01*
X1171252D01*
X1171382Y808795D01*
X1171659Y808832D01*
X1171789Y808869D01*
X1171918Y808906D01*
X1171937D01*
X1171974Y808925D01*
X1172030Y808962D01*
X1172122Y809018D01*
X1172289Y809129D01*
X1172474Y809277D01*
X1172493Y809295D01*
X1172511Y809314D01*
X1172548Y809369D01*
X1172604Y809444D01*
X1172696Y809610D01*
X1172789Y809832D01*
Y809851D01*
X1172807Y809888D01*
X1172826Y809943D01*
X1172844Y810036D01*
X1172881Y810240D01*
X1172900Y810480D01*
Y810499D01*
Y810555D01*
Y810629D01*
X1172881Y810721D01*
X1172863Y810943D01*
X1172789Y811165D01*
Y811184D01*
X1172770Y811221D01*
X1172752Y811277D01*
X1172715Y811351D01*
X1172604Y811517D01*
X1172456Y811684D01*
X1172437Y811702D01*
X1172418Y811721D01*
X1172363Y811758D01*
X1172307Y811795D01*
X1172104Y811906D01*
X1171863Y811999D01*
X1171844D01*
X1171807Y812017D01*
X1171715Y812036D01*
X1171622Y812073D01*
X1171474Y812091D01*
X1171326Y812110D01*
X1171122Y812128D01*
D02*
G37*
G36*
X1171382Y807684D02*
X1169493D01*
Y804037D01*
X1171659D01*
X1171770Y804055D01*
X1172030Y804092D01*
X1172307Y804148D01*
X1172326D01*
X1172363Y804166D01*
X1172437Y804203D01*
X1172511Y804222D01*
X1172715Y804333D01*
X1172918Y804463D01*
X1172937Y804481D01*
X1172974Y804500D01*
X1173085Y804611D01*
X1173215Y804796D01*
X1173344Y805018D01*
Y805036D01*
X1173363Y805074D01*
X1173400Y805148D01*
X1173437Y805240D01*
X1173455Y805351D01*
X1173492Y805481D01*
X1173511Y805777D01*
Y805796D01*
Y805851D01*
Y805944D01*
X1173492Y806055D01*
X1173455Y806314D01*
X1173363Y806592D01*
Y806610D01*
X1173344Y806647D01*
X1173307Y806722D01*
X1173252Y806796D01*
X1173122Y806999D01*
X1172918Y807185D01*
X1172900Y807203D01*
X1172863Y807222D01*
X1172807Y807277D01*
X1172733Y807314D01*
X1172622Y807388D01*
X1172511Y807444D01*
X1172215Y807555D01*
X1172196D01*
X1172141Y807573D01*
X1172048Y807592D01*
X1171918Y807629D01*
X1171770Y807647D01*
X1171585Y807666D01*
X1171382Y807684D01*
D02*
G37*
G36*
X1104388Y811888D02*
X1104370D01*
X1102592Y806721D01*
X1106203D01*
X1104388Y811888D01*
D02*
G37*
G36*
X1199601Y809555D02*
X1199508D01*
X1199397Y809536D01*
X1199249D01*
X1199101Y809499D01*
X1198916Y809462D01*
X1198749Y809407D01*
X1198582Y809332D01*
X1198564D01*
X1198508Y809295D01*
X1198434Y809240D01*
X1198342Y809184D01*
X1198120Y808999D01*
X1197897Y808740D01*
X1197879Y808721D01*
X1197860Y808666D01*
X1197805Y808592D01*
X1197749Y808499D01*
X1197675Y808370D01*
X1197601Y808203D01*
X1197545Y808036D01*
X1197490Y807851D01*
Y807832D01*
X1197471Y807758D01*
X1197453Y807647D01*
X1197434Y807518D01*
X1197397Y807351D01*
X1197379Y807147D01*
X1197360Y806944D01*
Y806722D01*
Y806703D01*
Y806629D01*
Y806499D01*
X1197379Y806370D01*
Y806185D01*
X1197397Y805999D01*
X1197453Y805611D01*
Y805592D01*
X1197471Y805518D01*
X1197508Y805425D01*
X1197545Y805296D01*
X1197657Y805018D01*
X1197823Y804703D01*
X1197842Y804685D01*
X1197879Y804648D01*
X1197934Y804574D01*
X1198008Y804481D01*
X1198101Y804389D01*
X1198231Y804277D01*
X1198508Y804092D01*
X1198527D01*
X1198582Y804055D01*
X1198675Y804018D01*
X1198805Y803981D01*
X1198953Y803944D01*
X1199138Y803907D01*
X1199342Y803888D01*
X1199564Y803870D01*
X1199656D01*
X1199768Y803888D01*
X1199916D01*
X1200082Y803925D01*
X1200249Y803963D01*
X1200415Y804000D01*
X1200582Y804074D01*
X1200601Y804092D01*
X1200656Y804111D01*
X1200730Y804166D01*
X1200823Y804222D01*
X1201064Y804407D01*
X1201286Y804648D01*
X1201304Y804666D01*
X1201323Y804722D01*
X1201378Y804796D01*
X1201434Y804907D01*
X1201508Y805036D01*
X1201582Y805185D01*
X1201638Y805351D01*
X1201693Y805536D01*
Y805555D01*
X1201712Y805629D01*
X1201730Y805740D01*
X1201767Y805888D01*
X1201786Y806055D01*
X1201804Y806240D01*
X1201823Y806684D01*
Y806703D01*
Y806777D01*
Y806907D01*
X1201804Y807055D01*
Y807222D01*
X1201786Y807407D01*
X1201712Y807795D01*
Y807814D01*
X1201693Y807888D01*
X1201656Y807981D01*
X1201619Y808110D01*
X1201508Y808407D01*
X1201341Y808703D01*
X1201323Y808721D01*
X1201304Y808777D01*
X1201249Y808832D01*
X1201175Y808925D01*
X1201082Y809018D01*
X1200953Y809129D01*
X1200823Y809221D01*
X1200675Y809314D01*
X1200656Y809332D01*
X1200601Y809351D01*
X1200508Y809388D01*
X1200378Y809444D01*
X1200230Y809481D01*
X1200045Y809518D01*
X1199842Y809536D01*
X1199601Y809555D01*
D02*
G37*
G36*
X1179992D02*
X1179899D01*
X1179788Y809536D01*
X1179640D01*
X1179492Y809499D01*
X1179307Y809462D01*
X1179140Y809407D01*
X1178973Y809332D01*
X1178955D01*
X1178899Y809295D01*
X1178825Y809240D01*
X1178733Y809184D01*
X1178510Y808999D01*
X1178288Y808740D01*
X1178270Y808721D01*
X1178251Y808666D01*
X1178196Y808592D01*
X1178140Y808499D01*
X1178066Y808370D01*
X1177992Y808203D01*
X1177936Y808036D01*
X1177881Y807851D01*
Y807832D01*
X1177862Y807758D01*
X1177844Y807647D01*
X1177825Y807518D01*
X1177788Y807351D01*
X1177770Y807147D01*
X1177751Y806944D01*
Y806722D01*
Y806703D01*
Y806629D01*
Y806499D01*
X1177770Y806370D01*
Y806185D01*
X1177788Y805999D01*
X1177844Y805611D01*
Y805592D01*
X1177862Y805518D01*
X1177899Y805425D01*
X1177936Y805296D01*
X1178047Y805018D01*
X1178214Y804703D01*
X1178233Y804685D01*
X1178270Y804648D01*
X1178325Y804574D01*
X1178399Y804481D01*
X1178492Y804389D01*
X1178622Y804277D01*
X1178899Y804092D01*
X1178918D01*
X1178973Y804055D01*
X1179066Y804018D01*
X1179195Y803981D01*
X1179344Y803944D01*
X1179529Y803907D01*
X1179733Y803888D01*
X1179955Y803870D01*
X1180047D01*
X1180158Y803888D01*
X1180306D01*
X1180473Y803925D01*
X1180640Y803963D01*
X1180807Y804000D01*
X1180973Y804074D01*
X1180992Y804092D01*
X1181047Y804111D01*
X1181121Y804166D01*
X1181214Y804222D01*
X1181454Y804407D01*
X1181677Y804648D01*
X1181695Y804666D01*
X1181714Y804722D01*
X1181769Y804796D01*
X1181825Y804907D01*
X1181899Y805036D01*
X1181973Y805185D01*
X1182029Y805351D01*
X1182084Y805536D01*
Y805555D01*
X1182103Y805629D01*
X1182121Y805740D01*
X1182158Y805888D01*
X1182177Y806055D01*
X1182195Y806240D01*
X1182214Y806684D01*
Y806703D01*
Y806777D01*
Y806907D01*
X1182195Y807055D01*
Y807222D01*
X1182177Y807407D01*
X1182103Y807795D01*
Y807814D01*
X1182084Y807888D01*
X1182047Y807981D01*
X1182010Y808110D01*
X1181899Y808407D01*
X1181732Y808703D01*
X1181714Y808721D01*
X1181695Y808777D01*
X1181640Y808832D01*
X1181566Y808925D01*
X1181473Y809018D01*
X1181343Y809129D01*
X1181214Y809221D01*
X1181066Y809314D01*
X1181047Y809332D01*
X1180992Y809351D01*
X1180899Y809388D01*
X1180769Y809444D01*
X1180621Y809481D01*
X1180436Y809518D01*
X1180232Y809536D01*
X1179992Y809555D01*
D02*
G37*
G36*
X1147921Y809536D02*
X1147754D01*
X1147588Y809499D01*
X1147402Y809462D01*
X1147384D01*
X1147365Y809444D01*
X1147254Y809406D01*
X1147088Y809314D01*
X1146903Y809203D01*
X1146884D01*
X1146865Y809166D01*
X1146754Y809092D01*
X1146569Y808962D01*
X1146366Y808777D01*
X1146347Y808758D01*
X1146310Y808740D01*
X1146255Y808666D01*
X1146199Y808592D01*
X1146106Y808499D01*
X1146014Y808388D01*
X1145792Y808110D01*
Y805240D01*
X1145810Y805203D01*
X1145884Y805129D01*
X1145995Y805018D01*
X1146125Y804870D01*
X1146273Y804703D01*
X1146458Y804537D01*
X1146643Y804370D01*
X1146829Y804222D01*
X1146847Y804203D01*
X1146921Y804166D01*
X1147014Y804111D01*
X1147143Y804055D01*
X1147310Y804000D01*
X1147477Y803944D01*
X1147662Y803907D01*
X1147865Y803888D01*
X1147958D01*
X1148051Y803907D01*
X1148162Y803925D01*
X1148439Y803981D01*
X1148588Y804037D01*
X1148717Y804111D01*
X1148736Y804129D01*
X1148773Y804148D01*
X1148847Y804203D01*
X1148939Y804277D01*
X1149125Y804481D01*
X1149310Y804740D01*
X1149328Y804759D01*
X1149347Y804814D01*
X1149384Y804888D01*
X1149439Y804999D01*
X1149476Y805148D01*
X1149532Y805296D01*
X1149624Y805648D01*
Y805666D01*
X1149643Y805740D01*
X1149661Y805833D01*
X1149680Y805962D01*
X1149699Y806111D01*
X1149717Y806277D01*
X1149736Y806647D01*
Y806666D01*
Y806740D01*
Y806851D01*
X1149717Y806999D01*
Y807147D01*
X1149699Y807333D01*
X1149643Y807721D01*
Y807740D01*
X1149624Y807814D01*
X1149606Y807907D01*
X1149569Y808036D01*
X1149476Y808333D01*
X1149347Y808629D01*
Y808647D01*
X1149310Y808703D01*
X1149273Y808777D01*
X1149199Y808869D01*
X1149032Y809073D01*
X1148791Y809277D01*
X1148773Y809295D01*
X1148736Y809314D01*
X1148662Y809351D01*
X1148550Y809406D01*
X1148421Y809462D01*
X1148273Y809499D01*
X1148106Y809518D01*
X1147921Y809536D01*
D02*
G37*
G36*
X1126145Y809629D02*
X1125960D01*
X1125849Y809610D01*
X1125571Y809555D01*
X1125275Y809444D01*
X1125257D01*
X1125220Y809406D01*
X1125146Y809369D01*
X1125053Y809314D01*
X1124849Y809147D01*
X1124646Y808943D01*
X1124627Y808925D01*
X1124609Y808888D01*
X1124553Y808832D01*
X1124516Y808740D01*
X1124442Y808647D01*
X1124386Y808518D01*
X1124257Y808240D01*
Y808221D01*
X1124238Y808166D01*
X1124220Y808092D01*
X1124201Y807981D01*
X1124164Y807851D01*
X1124146Y807721D01*
X1124127Y807407D01*
X1128053D01*
Y807425D01*
Y807462D01*
Y807499D01*
Y807573D01*
X1128034Y807758D01*
X1127997Y807999D01*
X1127942Y808258D01*
X1127849Y808536D01*
X1127738Y808795D01*
X1127571Y809036D01*
X1127553Y809055D01*
X1127479Y809129D01*
X1127367Y809221D01*
X1127219Y809332D01*
X1127016Y809444D01*
X1126775Y809536D01*
X1126479Y809610D01*
X1126145Y809629D01*
D02*
G37*
%LPD*%
M02*
