G04*
G04 #@! TF.GenerationSoftware,Altium Limited,Altium Designer,21.2.2 (38)*
G04*
G04 Layer_Physical_Order=3*
G04 Layer_Color=128*
%FSLAX44Y44*%
%MOMM*%
G71*
G04*
G04 #@! TF.SameCoordinates,2A35CB41-4F08-4B63-A201-FD04A52A5515*
G04*
G04*
G04 #@! TF.FilePolarity,Negative*
G04*
G01*
G75*
%ADD10C,0.2000*%
%ADD80C,1.0000*%
%ADD91C,1.0160*%
%ADD92C,1.4000*%
%ADD93C,2.3000*%
%ADD94C,1.2000*%
%ADD95C,1.3000*%
%ADD96C,2.0000*%
%ADD97C,0.2540*%
%ADD98O,1.6000X2.2000*%
G36*
X1107851Y890499D02*
X1108018Y890480D01*
X1108203Y890462D01*
X1108407Y890406D01*
X1108610Y890351D01*
X1108795Y890258D01*
X1108814Y890240D01*
X1108888Y890221D01*
X1108962Y890166D01*
X1109092Y890091D01*
X1109203Y889999D01*
X1109351Y889888D01*
X1109481Y889758D01*
X1109592Y889610D01*
X1109610Y889592D01*
X1109647Y889536D01*
X1109703Y889444D01*
X1109758Y889332D01*
X1109832Y889203D01*
X1109906Y889036D01*
X1109980Y888851D01*
X1110036Y888647D01*
Y888629D01*
X1110054Y888555D01*
X1110092Y888444D01*
X1110110Y888277D01*
X1110147Y888092D01*
X1110166Y887869D01*
X1110184Y887610D01*
Y887333D01*
Y882944D01*
Y882926D01*
Y882907D01*
X1110147Y882833D01*
X1110129Y882814D01*
X1110036Y882759D01*
X1110017D01*
X1109980Y882740D01*
X1109925D01*
X1109832Y882722D01*
X1109758D01*
X1109647Y882703D01*
X1109295D01*
X1109184Y882722D01*
X1109166D01*
X1109129Y882740D01*
X1108999Y882759D01*
X1108981D01*
X1108962Y882777D01*
X1108888Y882833D01*
Y882870D01*
X1108869Y882944D01*
Y887166D01*
Y887184D01*
Y887277D01*
Y887388D01*
X1108851Y887518D01*
X1108832Y887832D01*
X1108795Y887999D01*
X1108758Y888147D01*
Y888166D01*
X1108740Y888221D01*
X1108721Y888277D01*
X1108684Y888370D01*
X1108610Y888592D01*
X1108481Y888795D01*
Y888814D01*
X1108444Y888851D01*
X1108351Y888962D01*
X1108203Y889092D01*
X1107999Y889221D01*
X1107981D01*
X1107944Y889240D01*
X1107888Y889277D01*
X1107814Y889295D01*
X1107592Y889351D01*
X1107333Y889369D01*
X1107240D01*
X1107147Y889351D01*
X1107018Y889332D01*
X1106870Y889277D01*
X1106703Y889221D01*
X1106518Y889129D01*
X1106333Y888999D01*
X1106314Y888980D01*
X1106240Y888943D01*
X1106148Y888851D01*
X1106018Y888740D01*
X1105851Y888592D01*
X1105685Y888425D01*
X1105499Y888221D01*
X1105296Y887981D01*
Y882944D01*
Y882926D01*
Y882907D01*
X1105259Y882833D01*
X1105240Y882814D01*
X1105148Y882759D01*
X1105129D01*
X1105092Y882740D01*
X1105036D01*
X1104944Y882722D01*
X1104870D01*
X1104759Y882703D01*
X1104407D01*
X1104296Y882722D01*
X1104277D01*
X1104240Y882740D01*
X1104111Y882759D01*
X1104092D01*
X1104074Y882777D01*
X1104000Y882833D01*
Y882870D01*
X1103981Y882944D01*
Y890147D01*
Y890166D01*
Y890184D01*
X1104000Y890258D01*
X1104018Y890277D01*
X1104055Y890314D01*
X1104092Y890332D01*
X1104111D01*
X1104148Y890351D01*
X1104203Y890369D01*
X1104277Y890388D01*
X1104296D01*
X1104351Y890406D01*
X1104759D01*
X1104851Y890388D01*
X1104870D01*
X1104925Y890369D01*
X1104981Y890351D01*
X1105036Y890332D01*
X1105055D01*
X1105074Y890314D01*
X1105111Y890295D01*
X1105129Y890258D01*
X1105148Y890240D01*
X1105166Y890147D01*
Y889203D01*
X1105203Y889240D01*
X1105277Y889314D01*
X1105388Y889425D01*
X1105555Y889573D01*
X1105722Y889740D01*
X1105925Y889906D01*
X1106148Y890054D01*
X1106370Y890184D01*
X1106407Y890203D01*
X1106481Y890240D01*
X1106592Y890295D01*
X1106759Y890351D01*
X1106944Y890406D01*
X1107147Y890462D01*
X1107370Y890499D01*
X1107592Y890517D01*
X1107721D01*
X1107851Y890499D01*
D02*
G37*
G36*
X1155976Y893147D02*
X1156087Y893128D01*
X1156105D01*
X1156161Y893110D01*
X1156235Y893091D01*
X1156291Y893054D01*
X1156309Y893036D01*
X1156328Y893017D01*
X1156346Y892962D01*
X1156365Y892887D01*
Y892869D01*
Y892813D01*
X1156346Y892739D01*
X1156309Y892610D01*
X1153568Y883055D01*
Y883037D01*
X1153550Y882981D01*
X1153531Y882907D01*
X1153476Y882851D01*
X1153457D01*
X1153439Y882814D01*
X1153383Y882796D01*
X1153291Y882759D01*
X1153272D01*
X1153217Y882740D01*
X1153124D01*
X1153013Y882722D01*
X1152902D01*
X1152791Y882703D01*
X1152328D01*
X1152198Y882722D01*
X1152180D01*
X1152106Y882740D01*
X1152013D01*
X1151921Y882759D01*
X1151902D01*
X1151865Y882777D01*
X1151809Y882814D01*
X1151754Y882851D01*
Y882870D01*
X1151717Y882907D01*
X1151698Y882963D01*
X1151661Y883055D01*
X1149495Y890869D01*
X1149476D01*
X1147477Y883055D01*
Y883037D01*
X1147458Y882981D01*
X1147439Y882907D01*
X1147402Y882851D01*
X1147384D01*
X1147365Y882814D01*
X1147310Y882796D01*
X1147236Y882759D01*
X1147217D01*
X1147162Y882740D01*
X1147069D01*
X1146958Y882722D01*
X1146847D01*
X1146717Y882703D01*
X1146255D01*
X1146106Y882722D01*
X1146088D01*
X1146014Y882740D01*
X1145903D01*
X1145810Y882759D01*
X1145792D01*
X1145754Y882777D01*
X1145699Y882814D01*
X1145643Y882851D01*
Y882870D01*
X1145606Y882907D01*
X1145588Y882963D01*
X1145569Y883055D01*
X1142829Y892628D01*
Y892665D01*
X1142810Y892721D01*
X1142792Y892813D01*
X1142773Y892906D01*
Y892925D01*
Y892962D01*
X1142792Y893017D01*
X1142829Y893073D01*
X1142847Y893091D01*
X1142885Y893110D01*
X1142959Y893128D01*
X1143051Y893147D01*
X1143088D01*
X1143162Y893165D01*
X1143736D01*
X1143847Y893147D01*
X1143866D01*
X1143940Y893128D01*
X1143996Y893110D01*
X1144070Y893091D01*
X1144088D01*
X1144125Y893073D01*
X1144162Y893054D01*
X1144181Y893017D01*
Y892999D01*
X1144199Y892980D01*
X1144236Y892869D01*
X1146551Y884185D01*
X1146569D01*
X1148773Y892850D01*
Y892869D01*
X1148791Y892906D01*
X1148828Y892999D01*
Y893017D01*
X1148865Y893036D01*
X1148939Y893091D01*
X1148958D01*
X1149013Y893110D01*
X1149088Y893128D01*
X1149180Y893147D01*
X1149199D01*
X1149291Y893165D01*
X1149810D01*
X1149921Y893147D01*
X1149939D01*
X1149995Y893128D01*
X1150069Y893110D01*
X1150124Y893091D01*
X1150143D01*
X1150180Y893073D01*
X1150217Y893036D01*
X1150254Y892999D01*
Y892980D01*
X1150273Y892962D01*
X1150310Y892850D01*
X1152680Y884185D01*
X1152698D01*
X1154976Y892869D01*
Y892887D01*
X1154994Y892906D01*
X1155031Y892999D01*
Y893017D01*
X1155050Y893036D01*
X1155087Y893054D01*
X1155124Y893091D01*
X1155142D01*
X1155180Y893110D01*
X1155254Y893128D01*
X1155346Y893147D01*
X1155365D01*
X1155457Y893165D01*
X1155846D01*
X1155976Y893147D01*
D02*
G37*
G36*
X1121035Y893239D02*
X1121201D01*
X1121405Y893202D01*
X1121627Y893165D01*
X1121850Y893110D01*
X1122072Y893036D01*
X1122090D01*
X1122164Y892999D01*
X1122275Y892943D01*
X1122405Y892887D01*
X1122720Y892702D01*
X1122868Y892591D01*
X1123016Y892462D01*
X1123035Y892443D01*
X1123072Y892388D01*
X1123146Y892314D01*
X1123238Y892221D01*
X1123331Y892091D01*
X1123423Y891943D01*
X1123516Y891777D01*
X1123590Y891591D01*
Y891573D01*
X1123627Y891517D01*
X1123646Y891406D01*
X1123683Y891277D01*
X1123720Y891128D01*
X1123738Y890943D01*
X1123775Y890555D01*
Y890536D01*
Y890480D01*
Y890369D01*
X1123757Y890258D01*
Y890110D01*
X1123738Y889943D01*
X1123683Y889573D01*
Y889555D01*
X1123664Y889481D01*
X1123646Y889388D01*
X1123609Y889258D01*
X1123553Y889092D01*
X1123479Y888906D01*
X1123405Y888703D01*
X1123294Y888499D01*
X1123275Y888481D01*
X1123238Y888407D01*
X1123183Y888295D01*
X1123090Y888129D01*
X1122979Y887944D01*
X1122831Y887740D01*
X1122664Y887499D01*
X1122479Y887240D01*
X1122461Y887203D01*
X1122387Y887110D01*
X1122257Y886962D01*
X1122109Y886777D01*
X1121887Y886536D01*
X1121646Y886259D01*
X1121368Y885962D01*
X1121053Y885629D01*
X1119424Y883925D01*
X1123960D01*
X1124035Y883888D01*
X1124053D01*
X1124072Y883870D01*
X1124146Y883777D01*
Y883759D01*
X1124164Y883722D01*
X1124183Y883666D01*
X1124201Y883592D01*
Y883574D01*
X1124220Y883518D01*
X1124238Y883444D01*
Y883333D01*
Y883315D01*
Y883259D01*
X1124220Y883185D01*
X1124201Y883092D01*
Y883074D01*
X1124183Y883018D01*
X1124146Y882889D01*
Y882870D01*
X1124127Y882851D01*
X1124053Y882777D01*
X1124016D01*
X1123923Y882759D01*
X1118128D01*
X1117998Y882777D01*
X1117980D01*
X1117961Y882796D01*
X1117868Y882870D01*
Y882889D01*
X1117831Y882907D01*
X1117813Y882963D01*
X1117776Y883037D01*
Y883055D01*
Y883129D01*
X1117757Y883222D01*
Y883352D01*
Y883389D01*
Y883444D01*
Y883537D01*
Y883629D01*
Y883648D01*
X1117776Y883703D01*
X1117813Y883833D01*
Y883851D01*
X1117831Y883888D01*
X1117906Y884018D01*
X1117924Y884037D01*
X1117961Y884074D01*
X1118017Y884148D01*
X1118072Y884222D01*
X1120146Y886351D01*
X1120183Y886388D01*
X1120257Y886481D01*
X1120405Y886610D01*
X1120553Y886777D01*
X1120739Y886981D01*
X1120942Y887203D01*
X1121127Y887425D01*
X1121294Y887647D01*
X1121313Y887666D01*
X1121368Y887740D01*
X1121442Y887869D01*
X1121553Y887999D01*
X1121646Y888166D01*
X1121757Y888351D01*
X1121868Y888536D01*
X1121961Y888721D01*
X1121979Y888740D01*
X1121998Y888795D01*
X1122035Y888888D01*
X1122090Y889018D01*
X1122201Y889295D01*
X1122275Y889592D01*
Y889610D01*
X1122294Y889666D01*
X1122312Y889740D01*
X1122331Y889832D01*
X1122349Y890073D01*
X1122368Y890332D01*
Y890351D01*
Y890388D01*
Y890462D01*
X1122349Y890555D01*
X1122312Y890758D01*
X1122238Y890980D01*
Y890999D01*
X1122220Y891036D01*
X1122201Y891091D01*
X1122164Y891165D01*
X1122053Y891332D01*
X1121905Y891517D01*
X1121887Y891536D01*
X1121868Y891554D01*
X1121757Y891647D01*
X1121572Y891777D01*
X1121350Y891888D01*
X1121331D01*
X1121294Y891906D01*
X1121220Y891943D01*
X1121127Y891962D01*
X1121016Y891999D01*
X1120887Y892017D01*
X1120591Y892036D01*
X1120405D01*
X1120294Y892017D01*
X1120146Y891999D01*
X1119998Y891980D01*
X1119683Y891888D01*
X1119665D01*
X1119609Y891869D01*
X1119535Y891832D01*
X1119442Y891795D01*
X1119220Y891702D01*
X1118979Y891591D01*
X1118961D01*
X1118924Y891573D01*
X1118868Y891536D01*
X1118813Y891499D01*
X1118646Y891388D01*
X1118480Y891295D01*
X1118443Y891277D01*
X1118369Y891240D01*
X1118257Y891184D01*
X1118165Y891165D01*
X1118128D01*
X1118054Y891184D01*
X1118035Y891221D01*
X1117980Y891295D01*
Y891314D01*
X1117961Y891351D01*
Y891406D01*
X1117943Y891480D01*
Y891499D01*
Y891573D01*
Y891665D01*
Y891777D01*
Y891795D01*
Y891851D01*
Y891980D01*
Y891999D01*
Y892036D01*
X1117961Y892128D01*
Y892147D01*
X1117980Y892165D01*
X1118017Y892258D01*
Y892277D01*
X1118054Y892295D01*
X1118091Y892332D01*
X1118146Y892388D01*
X1118165Y892406D01*
X1118220Y892462D01*
X1118331Y892536D01*
X1118480Y892628D01*
X1118498D01*
X1118517Y892647D01*
X1118572Y892684D01*
X1118646Y892721D01*
X1118831Y892813D01*
X1119072Y892906D01*
X1119091D01*
X1119146Y892925D01*
X1119220Y892962D01*
X1119313Y892999D01*
X1119424Y893036D01*
X1119572Y893073D01*
X1119868Y893147D01*
X1119887D01*
X1119942Y893165D01*
X1120035Y893184D01*
X1120146Y893202D01*
X1120276Y893221D01*
X1120424Y893239D01*
X1120757Y893258D01*
X1120887D01*
X1121035Y893239D01*
D02*
G37*
G36*
X1161383Y893091D02*
X1161586Y893073D01*
X1161623D01*
X1161753Y893054D01*
X1161901D01*
X1162068Y893036D01*
X1162086D01*
X1162160Y893017D01*
X1162271Y892999D01*
X1162420Y892962D01*
X1162586Y892906D01*
X1162771Y892850D01*
X1163123Y892702D01*
X1163142Y892684D01*
X1163197Y892665D01*
X1163290Y892610D01*
X1163401Y892554D01*
X1163642Y892369D01*
X1163901Y892128D01*
X1163919Y892110D01*
X1163956Y892073D01*
X1164012Y891999D01*
X1164086Y891906D01*
X1164160Y891795D01*
X1164234Y891665D01*
X1164364Y891351D01*
Y891332D01*
X1164382Y891277D01*
X1164419Y891184D01*
X1164456Y891054D01*
X1164475Y890925D01*
X1164512Y890758D01*
X1164530Y890369D01*
Y890351D01*
Y890277D01*
Y890184D01*
X1164512Y890054D01*
X1164493Y889906D01*
X1164475Y889758D01*
X1164382Y889425D01*
Y889406D01*
X1164364Y889351D01*
X1164327Y889277D01*
X1164271Y889184D01*
X1164141Y888943D01*
X1163975Y888703D01*
X1163956Y888684D01*
X1163938Y888647D01*
X1163882Y888592D01*
X1163808Y888518D01*
X1163605Y888333D01*
X1163345Y888147D01*
X1163327D01*
X1163290Y888110D01*
X1163197Y888073D01*
X1163105Y888018D01*
X1162975Y887962D01*
X1162845Y887907D01*
X1162512Y887777D01*
X1162531D01*
X1162549Y887758D01*
X1162660Y887684D01*
X1162808Y887592D01*
X1162975Y887481D01*
X1162993D01*
X1163012Y887444D01*
X1163105Y887370D01*
X1163234Y887240D01*
X1163364Y887073D01*
Y887055D01*
X1163401Y887036D01*
X1163438Y886981D01*
X1163475Y886907D01*
X1163586Y886740D01*
X1163697Y886518D01*
Y886499D01*
X1163734Y886462D01*
X1163753Y886407D01*
X1163808Y886314D01*
X1163901Y886092D01*
X1164030Y885814D01*
X1164956Y883537D01*
Y883518D01*
X1164975Y883481D01*
X1165012Y883370D01*
X1165067Y883240D01*
X1165086Y883129D01*
Y883111D01*
X1165104Y883074D01*
X1165123Y882944D01*
Y882907D01*
X1165104Y882833D01*
X1165086Y882814D01*
X1165049Y882796D01*
X1164993Y882759D01*
X1164975D01*
X1164938Y882740D01*
X1164864D01*
X1164771Y882722D01*
X1164678D01*
X1164567Y882703D01*
X1164160D01*
X1164049Y882722D01*
X1164030D01*
X1163975Y882740D01*
X1163901D01*
X1163845Y882759D01*
X1163827D01*
X1163808Y882777D01*
X1163716Y882851D01*
Y882870D01*
X1163697Y882907D01*
X1163642Y883018D01*
X1162697Y885462D01*
Y885481D01*
X1162660Y885536D01*
X1162642Y885611D01*
X1162586Y885722D01*
X1162475Y885962D01*
X1162345Y886222D01*
Y886240D01*
X1162308Y886277D01*
X1162271Y886351D01*
X1162216Y886425D01*
X1162086Y886629D01*
X1161901Y886814D01*
X1161882Y886833D01*
X1161864Y886851D01*
X1161808Y886907D01*
X1161734Y886962D01*
X1161549Y887092D01*
X1161327Y887222D01*
X1161309D01*
X1161271Y887240D01*
X1161197Y887277D01*
X1161105Y887296D01*
X1160975Y887333D01*
X1160846Y887351D01*
X1160512Y887370D01*
X1159605D01*
Y882944D01*
Y882907D01*
X1159568Y882833D01*
X1159531Y882814D01*
X1159494Y882796D01*
X1159438Y882777D01*
X1159420D01*
X1159383Y882759D01*
X1159327D01*
X1159235Y882740D01*
X1159216D01*
X1159142Y882722D01*
X1159049Y882703D01*
X1158809D01*
X1158698Y882722D01*
X1158587Y882740D01*
X1158568D01*
X1158512Y882759D01*
X1158364Y882777D01*
X1158346D01*
X1158327Y882796D01*
X1158253Y882833D01*
Y882851D01*
Y882870D01*
X1158235Y882944D01*
Y892536D01*
Y892554D01*
Y892591D01*
X1158253Y892702D01*
X1158290Y892850D01*
X1158383Y892980D01*
X1158420Y892999D01*
X1158494Y893054D01*
X1158605Y893091D01*
X1158735Y893110D01*
X1161160D01*
X1161383Y893091D01*
D02*
G37*
G36*
X1138366D02*
X1138589Y893073D01*
X1138644D01*
X1138718Y893054D01*
X1138792Y893036D01*
X1138903Y893017D01*
X1139033Y892999D01*
X1139329Y892943D01*
X1139348D01*
X1139403Y892925D01*
X1139496Y892906D01*
X1139588Y892869D01*
X1139718Y892832D01*
X1139866Y892776D01*
X1140181Y892610D01*
X1140200Y892591D01*
X1140255Y892573D01*
X1140329Y892517D01*
X1140440Y892443D01*
X1140681Y892240D01*
X1140922Y891980D01*
X1140940Y891962D01*
X1140977Y891925D01*
X1141033Y891832D01*
X1141107Y891740D01*
X1141181Y891610D01*
X1141255Y891462D01*
X1141403Y891128D01*
Y891110D01*
X1141422Y891036D01*
X1141459Y890943D01*
X1141496Y890814D01*
X1141514Y890666D01*
X1141551Y890480D01*
X1141570Y890073D01*
Y890036D01*
Y889943D01*
X1141551Y889795D01*
X1141533Y889610D01*
X1141514Y889388D01*
X1141459Y889147D01*
X1141403Y888906D01*
X1141311Y888666D01*
X1141292Y888647D01*
X1141255Y888555D01*
X1141199Y888444D01*
X1141125Y888295D01*
X1141014Y888129D01*
X1140885Y887944D01*
X1140736Y887758D01*
X1140570Y887592D01*
X1140551Y887573D01*
X1140477Y887518D01*
X1140385Y887444D01*
X1140237Y887333D01*
X1140070Y887222D01*
X1139866Y887110D01*
X1139644Y886999D01*
X1139385Y886907D01*
X1139348D01*
X1139255Y886870D01*
X1139126Y886833D01*
X1138922Y886796D01*
X1138681Y886759D01*
X1138403Y886721D01*
X1138089Y886703D01*
X1137737Y886684D01*
X1136570D01*
Y882944D01*
Y882907D01*
X1136533Y882833D01*
X1136496Y882814D01*
X1136459Y882796D01*
X1136404Y882777D01*
X1136385D01*
X1136348Y882759D01*
X1136292D01*
X1136200Y882740D01*
X1136181D01*
X1136107Y882722D01*
X1136015Y882703D01*
X1135774D01*
X1135663Y882722D01*
X1135552Y882740D01*
X1135533D01*
X1135478Y882759D01*
X1135330Y882777D01*
X1135311D01*
X1135293Y882796D01*
X1135219Y882833D01*
Y882851D01*
Y882870D01*
X1135200Y882944D01*
Y892517D01*
Y892536D01*
Y892573D01*
X1135219Y892684D01*
X1135274Y892832D01*
X1135367Y892962D01*
X1135404Y892980D01*
X1135478Y893036D01*
X1135589Y893091D01*
X1135737Y893110D01*
X1138163D01*
X1138366Y893091D01*
D02*
G37*
G36*
X1100889Y893147D02*
X1101000Y893128D01*
X1101018D01*
X1101074Y893110D01*
X1101148Y893091D01*
X1101204Y893073D01*
X1101222D01*
X1101259Y893054D01*
X1101296Y893036D01*
X1101333Y892999D01*
X1101352Y892980D01*
X1101370Y892906D01*
Y882944D01*
Y882907D01*
X1101333Y882833D01*
X1101296Y882814D01*
X1101259Y882796D01*
X1101204Y882777D01*
X1101185D01*
X1101148Y882759D01*
X1101093D01*
X1101000Y882740D01*
X1100981D01*
X1100907Y882722D01*
X1100815Y882703D01*
X1100574D01*
X1100463Y882722D01*
X1100352Y882740D01*
X1100333D01*
X1100278Y882759D01*
X1100130Y882777D01*
X1100111D01*
X1100093Y882796D01*
X1100018Y882833D01*
Y882851D01*
Y882870D01*
X1100000Y882944D01*
Y892906D01*
Y892925D01*
Y892943D01*
X1100018Y892999D01*
Y893017D01*
X1100056Y893036D01*
X1100130Y893073D01*
X1100148D01*
X1100185Y893091D01*
X1100259Y893110D01*
X1100352Y893128D01*
X1100370D01*
X1100444Y893147D01*
X1100555Y893165D01*
X1100796D01*
X1100889Y893147D01*
D02*
G37*
G36*
X1113869Y892314D02*
X1113887D01*
X1113943Y892295D01*
X1114017Y892277D01*
X1114073Y892258D01*
X1114091D01*
X1114110Y892240D01*
X1114184Y892165D01*
X1114202Y892147D01*
X1114221Y892073D01*
Y890369D01*
X1116091D01*
X1116165Y890332D01*
X1116183D01*
X1116202Y890314D01*
X1116258Y890221D01*
Y890203D01*
X1116276Y890184D01*
X1116295Y890129D01*
X1116313Y890054D01*
Y890036D01*
X1116332Y889999D01*
Y889906D01*
Y889814D01*
Y889795D01*
Y889758D01*
Y889647D01*
X1116295Y889518D01*
X1116258Y889388D01*
X1116239Y889369D01*
X1116202Y889332D01*
X1116146Y889295D01*
X1116054Y889277D01*
X1114221D01*
Y885259D01*
Y885222D01*
Y885129D01*
X1114239Y884999D01*
Y884833D01*
X1114313Y884463D01*
X1114350Y884296D01*
X1114424Y884129D01*
X1114443Y884111D01*
X1114462Y884074D01*
X1114517Y884018D01*
X1114610Y883944D01*
X1114721Y883870D01*
X1114850Y883814D01*
X1115017Y883777D01*
X1115221Y883759D01*
X1115424D01*
X1115535Y883777D01*
X1115554D01*
X1115628Y883796D01*
X1115702Y883833D01*
X1115795Y883851D01*
X1115813Y883870D01*
X1115869Y883888D01*
X1115980Y883944D01*
X1115998D01*
X1116035Y883962D01*
X1116146Y883981D01*
X1116165D01*
X1116221Y883944D01*
X1116239Y883925D01*
X1116276Y883870D01*
Y883851D01*
X1116295Y883833D01*
X1116313Y883722D01*
Y883703D01*
X1116332Y883666D01*
Y883574D01*
Y883481D01*
Y883444D01*
Y883352D01*
X1116313Y883240D01*
X1116295Y883111D01*
Y883092D01*
X1116276Y883037D01*
X1116239Y882963D01*
X1116183Y882907D01*
X1116165D01*
X1116146Y882870D01*
X1116091Y882833D01*
X1115998Y882796D01*
X1115980D01*
X1115906Y882777D01*
X1115813Y882759D01*
X1115702Y882722D01*
X1115684D01*
X1115610Y882703D01*
X1115498Y882685D01*
X1115369Y882666D01*
X1115332D01*
X1115258Y882648D01*
X1115128Y882629D01*
X1114795D01*
X1114665Y882648D01*
X1114517Y882666D01*
X1114350Y882685D01*
X1114036Y882759D01*
X1114017D01*
X1113980Y882796D01*
X1113906Y882814D01*
X1113813Y882870D01*
X1113591Y883018D01*
X1113388Y883203D01*
X1113369Y883222D01*
X1113351Y883259D01*
X1113295Y883333D01*
X1113239Y883426D01*
X1113184Y883537D01*
X1113128Y883666D01*
X1113017Y883981D01*
Y884000D01*
X1112999Y884055D01*
X1112980Y884166D01*
X1112962Y884296D01*
X1112943Y884444D01*
X1112925Y884629D01*
X1112906Y884833D01*
Y885055D01*
Y889277D01*
X1111869D01*
X1111814Y889295D01*
X1111740Y889332D01*
X1111684Y889388D01*
Y889406D01*
X1111665Y889499D01*
X1111647Y889629D01*
X1111628Y889814D01*
Y889832D01*
Y889906D01*
Y889980D01*
X1111647Y890054D01*
Y890073D01*
X1111665Y890110D01*
Y890166D01*
X1111684Y890221D01*
Y890240D01*
X1111702Y890258D01*
X1111777Y890332D01*
X1111795D01*
X1111814Y890351D01*
X1111888Y890369D01*
X1112906D01*
Y892073D01*
Y892091D01*
Y892110D01*
X1112925Y892165D01*
Y892184D01*
X1112962Y892202D01*
X1113036Y892258D01*
X1113054D01*
X1113091Y892277D01*
X1113147Y892295D01*
X1113221Y892314D01*
X1113239D01*
X1113313Y892332D01*
X1113776D01*
X1113869Y892314D01*
D02*
G37*
G36*
X1167567Y894091D02*
X1167586D01*
X1167623Y894073D01*
X1167678D01*
X1167734Y894054D01*
X1167752D01*
X1167771Y894036D01*
X1167845Y893998D01*
X1167863Y893980D01*
X1167882Y893943D01*
X1167900Y893924D01*
X1167919Y893869D01*
X1167956Y893776D01*
X1168011Y893665D01*
X1168085Y893517D01*
X1168178Y893332D01*
X1168252Y893128D01*
X1168363Y892906D01*
X1168456Y892665D01*
X1168567Y892406D01*
X1168789Y891832D01*
X1168993Y891221D01*
X1169178Y890573D01*
Y890555D01*
X1169196Y890499D01*
X1169215Y890406D01*
X1169252Y890277D01*
X1169289Y890129D01*
X1169326Y889925D01*
X1169382Y889721D01*
X1169419Y889481D01*
X1169456Y889240D01*
X1169511Y888962D01*
X1169585Y888370D01*
X1169641Y887721D01*
X1169660Y887055D01*
Y887036D01*
Y887018D01*
Y886962D01*
Y886907D01*
Y886721D01*
X1169641Y886499D01*
X1169622Y886222D01*
X1169604Y885907D01*
X1169567Y885592D01*
X1169530Y885259D01*
Y885240D01*
Y885222D01*
X1169511Y885111D01*
X1169493Y884925D01*
X1169456Y884703D01*
X1169400Y884444D01*
X1169345Y884148D01*
X1169196Y883518D01*
X1169178Y883481D01*
X1169159Y883370D01*
X1169104Y883203D01*
X1169048Y882981D01*
X1168956Y882740D01*
X1168863Y882444D01*
X1168752Y882148D01*
X1168641Y881833D01*
X1168623Y881796D01*
X1168586Y881685D01*
X1168511Y881518D01*
X1168437Y881315D01*
X1168326Y881074D01*
X1168197Y880796D01*
X1167900Y880185D01*
X1167882Y880148D01*
X1167826Y880111D01*
X1167789Y880093D01*
X1167697Y880055D01*
X1167678D01*
X1167641Y880037D01*
X1167586Y880018D01*
X1167456D01*
X1167363Y880000D01*
X1167160D01*
X1167049Y880018D01*
X1166937Y880037D01*
X1166919D01*
X1166882Y880055D01*
X1166826Y880074D01*
X1166771Y880093D01*
X1166752Y880130D01*
X1166734Y880204D01*
Y880222D01*
Y880259D01*
X1166771Y880370D01*
Y880389D01*
X1166808Y880444D01*
X1166845Y880537D01*
X1166900Y880648D01*
X1166956Y880796D01*
X1167030Y880963D01*
X1167104Y881167D01*
X1167197Y881389D01*
X1167271Y881629D01*
X1167363Y881889D01*
X1167549Y882444D01*
X1167734Y883037D01*
X1167882Y883666D01*
Y883685D01*
X1167900Y883740D01*
X1167919Y883833D01*
X1167937Y883962D01*
X1167974Y884111D01*
X1168011Y884296D01*
X1168048Y884500D01*
X1168085Y884722D01*
X1168104Y884981D01*
X1168141Y885240D01*
X1168215Y885814D01*
X1168252Y886425D01*
X1168271Y887073D01*
Y887092D01*
Y887147D01*
Y887240D01*
Y887370D01*
X1168252Y887518D01*
Y887703D01*
X1168234Y887907D01*
X1168215Y888129D01*
X1168197Y888388D01*
X1168178Y888647D01*
X1168104Y889221D01*
X1168011Y889832D01*
X1167882Y890462D01*
Y890480D01*
X1167863Y890536D01*
X1167845Y890629D01*
X1167808Y890758D01*
X1167771Y890906D01*
X1167734Y891091D01*
X1167678Y891295D01*
X1167604Y891517D01*
X1167530Y891758D01*
X1167456Y892017D01*
X1167252Y892573D01*
X1167030Y893165D01*
X1166771Y893776D01*
Y893795D01*
X1166752Y893813D01*
X1166734Y893906D01*
Y893924D01*
X1166752Y893943D01*
X1166808Y894017D01*
X1166826D01*
X1166863Y894036D01*
X1166919Y894054D01*
X1166993Y894073D01*
X1167012D01*
X1167067Y894091D01*
X1167160Y894110D01*
X1167475D01*
X1167567Y894091D01*
D02*
G37*
G36*
X1132497D02*
X1132589Y894073D01*
X1132608D01*
X1132645Y894054D01*
X1132700Y894036D01*
X1132756Y894017D01*
X1132774D01*
X1132793Y893998D01*
X1132811Y893961D01*
X1132830Y893906D01*
Y893869D01*
Y893832D01*
X1132811Y893776D01*
Y893758D01*
X1132774Y893702D01*
X1132737Y893610D01*
X1132682Y893499D01*
X1132626Y893351D01*
X1132552Y893184D01*
X1132478Y892980D01*
X1132385Y892758D01*
X1132293Y892517D01*
X1132200Y892258D01*
X1132015Y891702D01*
X1131830Y891091D01*
X1131682Y890462D01*
Y890443D01*
X1131663Y890388D01*
X1131645Y890295D01*
X1131626Y890166D01*
X1131589Y890017D01*
X1131571Y889832D01*
X1131534Y889629D01*
X1131497Y889406D01*
X1131460Y889166D01*
X1131423Y888888D01*
X1131367Y888314D01*
X1131330Y887703D01*
X1131312Y887073D01*
Y887055D01*
Y886999D01*
Y886907D01*
Y886777D01*
X1131330Y886629D01*
Y886444D01*
X1131349Y886240D01*
X1131367Y885999D01*
X1131386Y885759D01*
X1131404Y885481D01*
X1131460Y884907D01*
X1131552Y884296D01*
X1131682Y883666D01*
Y883648D01*
X1131700Y883592D01*
X1131719Y883500D01*
X1131756Y883389D01*
X1131793Y883222D01*
X1131849Y883055D01*
X1131904Y882851D01*
X1131960Y882629D01*
X1132034Y882389D01*
X1132126Y882129D01*
X1132311Y881574D01*
X1132534Y880981D01*
X1132793Y880370D01*
Y880352D01*
X1132811Y880315D01*
X1132830Y880204D01*
Y880185D01*
Y880167D01*
Y880130D01*
X1132793Y880093D01*
X1132774D01*
X1132756Y880074D01*
X1132700Y880055D01*
X1132608Y880037D01*
X1132589D01*
X1132534Y880018D01*
X1132423Y880000D01*
X1132145D01*
X1132052Y880018D01*
X1131997D01*
X1131867Y880055D01*
X1131849D01*
X1131830Y880074D01*
X1131738Y880111D01*
X1131719Y880130D01*
X1131682Y880185D01*
Y880204D01*
X1131663Y880222D01*
X1131608Y880333D01*
X1131515Y880481D01*
X1131423Y880704D01*
X1131293Y880944D01*
X1131163Y881222D01*
X1131034Y881518D01*
X1130904Y881833D01*
Y881852D01*
X1130886Y881870D01*
X1130849Y881981D01*
X1130793Y882148D01*
X1130719Y882352D01*
X1130627Y882611D01*
X1130552Y882889D01*
X1130460Y883203D01*
X1130367Y883518D01*
Y883537D01*
Y883555D01*
X1130330Y883666D01*
X1130293Y883833D01*
X1130238Y884055D01*
X1130182Y884314D01*
X1130126Y884611D01*
X1130089Y884925D01*
X1130034Y885259D01*
Y885277D01*
Y885296D01*
X1130015Y885407D01*
X1129997Y885592D01*
X1129978Y885814D01*
X1129960Y886092D01*
X1129941Y886388D01*
X1129923Y886721D01*
Y887055D01*
Y887073D01*
Y887092D01*
Y887203D01*
Y887388D01*
X1129941Y887610D01*
Y887869D01*
X1129978Y888166D01*
X1129997Y888481D01*
X1130034Y888814D01*
Y888832D01*
Y888851D01*
X1130052Y888962D01*
X1130089Y889147D01*
X1130126Y889369D01*
X1130182Y889629D01*
X1130238Y889925D01*
X1130312Y890240D01*
X1130386Y890573D01*
Y890592D01*
X1130404Y890610D01*
X1130423Y890721D01*
X1130478Y890888D01*
X1130552Y891110D01*
X1130627Y891369D01*
X1130719Y891665D01*
X1130941Y892277D01*
Y892295D01*
X1130960Y892314D01*
X1130997Y892425D01*
X1131071Y892591D01*
X1131163Y892813D01*
X1131274Y893054D01*
X1131404Y893332D01*
X1131682Y893943D01*
Y893961D01*
X1131719Y893998D01*
X1131738Y894017D01*
X1131812Y894054D01*
X1131830D01*
X1131867Y894073D01*
X1131923D01*
X1131997Y894091D01*
X1132015D01*
X1132071Y894110D01*
X1132404D01*
X1132497Y894091D01*
D02*
G37*
%LPC*%
G36*
X1161031Y891980D02*
X1159605D01*
Y888481D01*
X1161142D01*
X1161271Y888499D01*
X1161568Y888536D01*
X1161882Y888610D01*
X1161901D01*
X1161957Y888629D01*
X1162031Y888666D01*
X1162123Y888703D01*
X1162345Y888814D01*
X1162549Y888962D01*
X1162568Y888980D01*
X1162586Y888999D01*
X1162642Y889055D01*
X1162697Y889129D01*
X1162827Y889295D01*
X1162938Y889518D01*
Y889536D01*
X1162956Y889573D01*
X1162975Y889647D01*
X1163012Y889740D01*
X1163049Y889962D01*
X1163067Y890221D01*
Y890240D01*
Y890332D01*
X1163049Y890443D01*
X1163030Y890573D01*
X1162993Y890740D01*
X1162956Y890925D01*
X1162882Y891091D01*
X1162790Y891258D01*
X1162771Y891277D01*
X1162734Y891332D01*
X1162660Y891406D01*
X1162568Y891499D01*
X1162438Y891591D01*
X1162290Y891702D01*
X1162086Y891795D01*
X1161864Y891869D01*
X1161827Y891888D01*
X1161734Y891906D01*
X1161605Y891925D01*
X1161420Y891943D01*
X1161383D01*
X1161309Y891962D01*
X1161142D01*
X1161031Y891980D01*
D02*
G37*
G36*
X1137848D02*
X1136570D01*
Y887814D01*
X1138033D01*
X1138181Y887832D01*
X1138348Y887851D01*
X1138514Y887869D01*
X1138681Y887907D01*
X1138848Y887962D01*
X1138866D01*
X1138922Y887999D01*
X1138996Y888036D01*
X1139089Y888073D01*
X1139311Y888221D01*
X1139533Y888407D01*
X1139551Y888425D01*
X1139588Y888462D01*
X1139644Y888518D01*
X1139700Y888610D01*
X1139848Y888814D01*
X1139977Y889092D01*
Y889110D01*
X1139996Y889166D01*
X1140033Y889240D01*
X1140051Y889351D01*
X1140088Y889481D01*
X1140107Y889629D01*
X1140126Y889962D01*
Y889999D01*
Y890073D01*
X1140107Y890184D01*
X1140088Y890332D01*
X1140070Y890499D01*
X1140033Y890666D01*
X1139959Y890851D01*
X1139885Y891017D01*
X1139866Y891036D01*
X1139848Y891091D01*
X1139792Y891165D01*
X1139718Y891258D01*
X1139533Y891462D01*
X1139422Y891554D01*
X1139292Y891647D01*
X1139274Y891665D01*
X1139237Y891684D01*
X1139163Y891721D01*
X1139070Y891758D01*
X1138848Y891851D01*
X1138570Y891906D01*
X1138552D01*
X1138514Y891925D01*
X1138440D01*
X1138348Y891943D01*
X1138107Y891962D01*
X1137848Y891980D01*
D02*
G37*
%LPD*%
D10*
X65000Y869000D02*
Y915000D01*
X43000Y869000D02*
X65000D01*
X28000Y884000D02*
X43000Y869000D01*
X166000Y917000D02*
X175000Y926000D01*
Y970000D01*
X191000Y986000D01*
Y990000D01*
X188000Y993000D02*
X191000Y990000D01*
X47000Y993000D02*
X188000D01*
X28000Y974000D02*
X47000Y993000D01*
X28000Y884000D02*
Y974000D01*
X63000Y917000D02*
X65000Y915000D01*
X63000Y917000D02*
X166000D01*
D80*
X577000Y834000D02*
X689000D01*
X543000Y800000D02*
X577000Y834000D01*
X503000Y800000D02*
X543000D01*
X489000Y814000D02*
X503000Y800000D01*
X489000Y814000D02*
Y826000D01*
X481000Y834000D02*
X489000Y826000D01*
X416000Y834000D02*
X481000D01*
X319000Y498000D02*
X842531D01*
X319000Y765000D02*
X416000D01*
X319000Y706059D02*
Y765000D01*
X842531Y498000D02*
X975000D01*
Y992000D01*
X689000D02*
X975000D01*
X689000Y834000D02*
Y992000D01*
X416000Y765000D02*
Y834000D01*
X319000Y498000D02*
Y706059D01*
D91*
X0Y0D02*
X985000D01*
X985000Y1000000D02*
X985000Y0D01*
X681000Y1000000D02*
X985000D01*
X681000Y951000D02*
Y1000000D01*
X568972Y951000D02*
X681000D01*
X568972D02*
Y1000000D01*
X0D02*
X568972D01*
X0D02*
X0Y0D01*
X681000Y1000000D02*
X985000D01*
X681000Y951000D02*
Y1000000D01*
X568972Y951000D02*
X681000D01*
X568972D02*
Y1000000D01*
X0D02*
X568972D01*
X0Y0D02*
X985000D01*
X985000Y1000000D02*
X985000Y0D01*
X0Y1000000D02*
X0Y0D01*
D92*
X67000Y912200D02*
D03*
X115000D02*
D03*
X75000D02*
D03*
X107000D02*
D03*
X83000D02*
D03*
X99000D02*
D03*
X63000Y905200D02*
D03*
X119000D02*
D03*
X71000D02*
D03*
X111000D02*
D03*
X79000D02*
D03*
X103000D02*
D03*
X87000D02*
D03*
X95000D02*
D03*
D93*
X600000Y911000D02*
D03*
X650000D02*
D03*
D94*
X542000Y824500D02*
D03*
Y835500D02*
D03*
X553000Y824500D02*
D03*
Y835500D02*
D03*
X564000Y824500D02*
D03*
Y835500D02*
D03*
X524500Y246500D02*
D03*
Y235500D02*
D03*
Y224500D02*
D03*
X513500Y246500D02*
D03*
Y235500D02*
D03*
Y224500D02*
D03*
X502500Y246500D02*
D03*
Y235500D02*
D03*
Y224500D02*
D03*
X405500Y282500D02*
D03*
X394500D02*
D03*
X383500D02*
D03*
X405500Y293500D02*
D03*
X394500D02*
D03*
X383500D02*
D03*
X405500Y304500D02*
D03*
X394500D02*
D03*
X383500D02*
D03*
X726000Y40000D02*
D03*
Y35000D02*
D03*
Y30000D02*
D03*
Y25000D02*
D03*
Y20000D02*
D03*
Y15000D02*
D03*
Y10000D02*
D03*
Y5000D02*
D03*
X764000Y40000D02*
D03*
Y35000D02*
D03*
Y30000D02*
D03*
Y25000D02*
D03*
Y20000D02*
D03*
Y15000D02*
D03*
Y10000D02*
D03*
Y5000D02*
D03*
X764000Y959954D02*
D03*
Y964954D02*
D03*
Y969954D02*
D03*
Y974954D02*
D03*
Y979954D02*
D03*
Y984954D02*
D03*
Y989954D02*
D03*
Y994954D02*
D03*
X934000Y959954D02*
D03*
Y964954D02*
D03*
Y969954D02*
D03*
Y974954D02*
D03*
Y979954D02*
D03*
Y984954D02*
D03*
Y989954D02*
D03*
Y994954D02*
D03*
X896000Y959954D02*
D03*
Y964954D02*
D03*
Y969954D02*
D03*
Y974954D02*
D03*
Y979954D02*
D03*
Y984954D02*
D03*
Y989954D02*
D03*
Y994954D02*
D03*
X726000Y959954D02*
D03*
Y964954D02*
D03*
Y969954D02*
D03*
Y974954D02*
D03*
Y979954D02*
D03*
Y984954D02*
D03*
Y989954D02*
D03*
Y994954D02*
D03*
X94000Y882000D02*
D03*
X88000D02*
D03*
X856000Y168000D02*
D03*
X331000Y915000D02*
D03*
X852465Y151465D02*
D03*
X332000Y332000D02*
D03*
X322000D02*
D03*
X427000Y275000D02*
D03*
Y281000D02*
D03*
X520000Y268000D02*
D03*
X532000Y269000D02*
D03*
X934000Y40000D02*
D03*
Y35000D02*
D03*
Y30000D02*
D03*
Y25000D02*
D03*
Y20000D02*
D03*
Y15000D02*
D03*
Y10000D02*
D03*
Y5000D02*
D03*
X896000D02*
D03*
Y10000D02*
D03*
Y15000D02*
D03*
Y20000D02*
D03*
Y25000D02*
D03*
Y30000D02*
D03*
Y35000D02*
D03*
Y40000D02*
D03*
X594000D02*
D03*
Y35000D02*
D03*
Y30000D02*
D03*
Y25000D02*
D03*
Y20000D02*
D03*
Y15000D02*
D03*
Y10000D02*
D03*
Y5000D02*
D03*
X556000D02*
D03*
Y10000D02*
D03*
Y15000D02*
D03*
Y20000D02*
D03*
Y25000D02*
D03*
Y30000D02*
D03*
Y35000D02*
D03*
Y40000D02*
D03*
X424000D02*
D03*
Y35000D02*
D03*
Y30000D02*
D03*
Y25000D02*
D03*
Y20000D02*
D03*
Y15000D02*
D03*
Y10000D02*
D03*
Y5000D02*
D03*
X386000D02*
D03*
Y10000D02*
D03*
Y15000D02*
D03*
Y20000D02*
D03*
Y25000D02*
D03*
Y30000D02*
D03*
Y35000D02*
D03*
Y40000D02*
D03*
X254000D02*
D03*
Y35000D02*
D03*
Y30000D02*
D03*
Y25000D02*
D03*
Y20000D02*
D03*
Y15000D02*
D03*
Y10000D02*
D03*
Y5000D02*
D03*
X216000D02*
D03*
Y10000D02*
D03*
Y15000D02*
D03*
Y20000D02*
D03*
Y25000D02*
D03*
Y30000D02*
D03*
Y35000D02*
D03*
Y40000D02*
D03*
X91505Y138932D02*
D03*
X91497Y133932D02*
D03*
X91489Y128932D02*
D03*
X91480Y123932D02*
D03*
X91472Y118932D02*
D03*
X89483Y114344D02*
D03*
X84628Y113150D02*
D03*
X79685Y112399D02*
D03*
X74948Y110798D02*
D03*
X70585Y108356D02*
D03*
X66717Y105188D02*
D03*
X63470Y101386D02*
D03*
X60971Y97055D02*
D03*
X59265Y92355D02*
D03*
X58405Y87430D02*
D03*
X58271Y82431D02*
D03*
Y77431D02*
D03*
Y72431D02*
D03*
X58271Y67431D02*
D03*
Y62431D02*
D03*
Y57431D02*
D03*
X58271Y52431D02*
D03*
Y47432D02*
D03*
X58271Y42432D02*
D03*
X58095Y37435D02*
D03*
Y32435D02*
D03*
Y27435D02*
D03*
Y22435D02*
D03*
Y17435D02*
D03*
Y12435D02*
D03*
Y7435D02*
D03*
X71906Y7120D02*
D03*
Y12120D02*
D03*
Y17120D02*
D03*
Y22120D02*
D03*
Y27120D02*
D03*
Y32120D02*
D03*
Y37120D02*
D03*
X71729Y42117D02*
D03*
X71729Y47117D02*
D03*
Y52117D02*
D03*
X71729Y57117D02*
D03*
Y62117D02*
D03*
Y67117D02*
D03*
X71729Y72117D02*
D03*
Y77117D02*
D03*
Y82117D02*
D03*
X71962Y87111D02*
D03*
X73527Y91860D02*
D03*
X76565Y95831D02*
D03*
X80751Y98567D02*
D03*
X85630Y99660D02*
D03*
X90602Y100183D02*
D03*
X95279Y101953D02*
D03*
X99305Y104916D02*
D03*
X102390Y108851D02*
D03*
X104310Y113468D02*
D03*
X104968Y118425D02*
D03*
X104938Y123424D02*
D03*
X104946Y128424D02*
D03*
X104955Y133424D02*
D03*
X104963Y138424D02*
D03*
X875042Y135097D02*
D03*
X875051Y130097D02*
D03*
X875059Y125097D02*
D03*
X875068Y120097D02*
D03*
X875351Y115105D02*
D03*
X876845Y110333D02*
D03*
X879565Y106138D02*
D03*
X883312Y102827D02*
D03*
X887810Y100643D02*
D03*
X892729Y99745D02*
D03*
X897682Y99067D02*
D03*
X902172Y96867D02*
D03*
X905674Y93298D02*
D03*
X907704Y88729D02*
D03*
X908271Y83761D02*
D03*
Y78761D02*
D03*
Y73761D02*
D03*
Y68761D02*
D03*
Y63761D02*
D03*
Y58761D02*
D03*
Y53761D02*
D03*
Y48761D02*
D03*
Y43761D02*
D03*
X908094Y38764D02*
D03*
Y33764D02*
D03*
Y28764D02*
D03*
Y23764D02*
D03*
Y18764D02*
D03*
Y13764D02*
D03*
Y8764D02*
D03*
X921906Y10618D02*
D03*
Y15618D02*
D03*
Y20619D02*
D03*
Y25619D02*
D03*
Y30619D02*
D03*
Y35618D02*
D03*
X921833Y40618D02*
D03*
X921729Y45617D02*
D03*
Y50617D02*
D03*
Y55617D02*
D03*
Y60617D02*
D03*
Y65617D02*
D03*
Y70617D02*
D03*
Y75617D02*
D03*
Y80617D02*
D03*
X921774Y85617D02*
D03*
X921186Y90582D02*
D03*
X919809Y95389D02*
D03*
X917539Y99844D02*
D03*
X914523Y103832D02*
D03*
X910858Y107233D02*
D03*
X906656Y109941D02*
D03*
X902045Y111875D02*
D03*
X897167Y112973D02*
D03*
X892191Y113465D02*
D03*
X888731Y117075D02*
D03*
X888523Y122071D02*
D03*
X888514Y127071D02*
D03*
X888506Y132071D02*
D03*
X888497Y137071D02*
D03*
X479358Y122803D02*
D03*
X476786Y118515D02*
D03*
X473228Y115003D02*
D03*
X468874Y112544D02*
D03*
X464002Y111422D02*
D03*
X459005Y111229D02*
D03*
X454005D02*
D03*
X449005D02*
D03*
X444005D02*
D03*
X439005D02*
D03*
X434005D02*
D03*
X429005D02*
D03*
X424005D02*
D03*
X419005D02*
D03*
X414005D02*
D03*
X409005D02*
D03*
X404005D02*
D03*
X399005D02*
D03*
X394005D02*
D03*
X389005D02*
D03*
X384005D02*
D03*
X379005D02*
D03*
X374005D02*
D03*
X369006D02*
D03*
X364006D02*
D03*
X359006D02*
D03*
X354006D02*
D03*
X349006D02*
D03*
X344006D02*
D03*
X339006Y111206D02*
D03*
X334052Y110530D02*
D03*
X329306Y108956D02*
D03*
X324943Y106513D02*
D03*
X321123Y103287D02*
D03*
X317926Y99443D02*
D03*
X315483Y95080D02*
D03*
X313933Y90327D02*
D03*
X313133Y85391D02*
D03*
X308717Y71507D02*
D03*
X306865Y66862D02*
D03*
X302436Y64543D02*
D03*
X297438Y64393D02*
D03*
X292438Y64402D02*
D03*
X287438Y64411D02*
D03*
X282438Y64420D02*
D03*
X277438Y64429D02*
D03*
X272438Y64438D02*
D03*
X267438Y64447D02*
D03*
X262438Y64455D02*
D03*
X257438Y64464D02*
D03*
X252438Y64473D02*
D03*
X247439Y64394D02*
D03*
X242535Y63418D02*
D03*
X237990Y61334D02*
D03*
X234111Y58179D02*
D03*
X231107Y54182D02*
D03*
X229141Y49585D02*
D03*
X228291Y44658D02*
D03*
X228095Y39662D02*
D03*
Y34662D02*
D03*
Y29662D02*
D03*
Y24662D02*
D03*
Y19662D02*
D03*
Y14662D02*
D03*
Y9662D02*
D03*
X241906Y9908D02*
D03*
Y14908D02*
D03*
Y19908D02*
D03*
Y24908D02*
D03*
Y29908D02*
D03*
Y34908D02*
D03*
Y39908D02*
D03*
X241916Y44908D02*
D03*
X244388Y49255D02*
D03*
X249074Y50997D02*
D03*
X254074Y51012D02*
D03*
X259074Y51003D02*
D03*
X264074Y50994D02*
D03*
X269074Y50985D02*
D03*
X274074Y50976D02*
D03*
X279074Y50967D02*
D03*
X284074Y50958D02*
D03*
X289074Y50950D02*
D03*
X294074Y50941D02*
D03*
X299074Y50932D02*
D03*
X304071Y51112D02*
D03*
X308932Y52282D02*
D03*
X313346Y54631D02*
D03*
X317055Y57984D02*
D03*
X320311Y61778D02*
D03*
X323188Y57689D02*
D03*
X326995Y54448D02*
D03*
X331445Y52168D02*
D03*
X336324Y51073D02*
D03*
X341322Y50933D02*
D03*
X346322Y50941D02*
D03*
X351322Y50950D02*
D03*
X356322Y50959D02*
D03*
X361322Y50968D02*
D03*
X366322Y50977D02*
D03*
X371322Y50986D02*
D03*
X376322Y50995D02*
D03*
X381322Y51003D02*
D03*
X386322Y51012D02*
D03*
X391321Y50945D02*
D03*
X395932Y49010D02*
D03*
X398135Y44522D02*
D03*
X398095Y39522D02*
D03*
Y34522D02*
D03*
Y29522D02*
D03*
Y24522D02*
D03*
Y19522D02*
D03*
Y14522D02*
D03*
Y9522D02*
D03*
X411906Y10037D02*
D03*
Y15037D02*
D03*
Y20037D02*
D03*
Y25037D02*
D03*
Y30037D02*
D03*
Y35037D02*
D03*
Y40037D02*
D03*
X411672Y45032D02*
D03*
X410750Y49946D02*
D03*
X408716Y54514D02*
D03*
X405604Y58427D02*
D03*
X401671Y61515D02*
D03*
X397095Y63530D02*
D03*
X392178Y64432D02*
D03*
X387178Y64472D02*
D03*
X382178Y64464D02*
D03*
X377178Y64455D02*
D03*
X372178Y64446D02*
D03*
X367178Y64437D02*
D03*
X362178Y64428D02*
D03*
X357178Y64419D02*
D03*
X352178Y64410D02*
D03*
X347178Y64402D02*
D03*
X342178Y64393D02*
D03*
X337182Y64593D02*
D03*
X332898Y67172D02*
D03*
X331233Y71886D02*
D03*
X326916Y85836D02*
D03*
X328423Y90603D02*
D03*
X331567Y94491D02*
D03*
X335913Y96963D02*
D03*
X340847Y97771D02*
D03*
X345847D02*
D03*
X350847D02*
D03*
X355847D02*
D03*
X360847D02*
D03*
X365847D02*
D03*
X370847D02*
D03*
X375847D02*
D03*
X380847D02*
D03*
X385847D02*
D03*
X390847D02*
D03*
X395847D02*
D03*
X400847D02*
D03*
X405847D02*
D03*
X410847D02*
D03*
X415847D02*
D03*
X420847D02*
D03*
X425847D02*
D03*
X430847D02*
D03*
X435847D02*
D03*
X440847D02*
D03*
X445847D02*
D03*
X450847D02*
D03*
X455847D02*
D03*
X460847D02*
D03*
X465842Y97997D02*
D03*
X470747Y98966D02*
D03*
X475443Y100684D02*
D03*
X479815Y103110D02*
D03*
X483757Y106185D02*
D03*
X487175Y109835D02*
D03*
X490039Y113933D02*
D03*
X492855Y109801D02*
D03*
X496277Y106156D02*
D03*
X500224Y103087D02*
D03*
X504599Y100667D02*
D03*
X509297Y98955D02*
D03*
X514204Y97994D02*
D03*
X519199Y97771D02*
D03*
X524199D02*
D03*
X529199D02*
D03*
X534199D02*
D03*
X539199D02*
D03*
X544199D02*
D03*
X549199D02*
D03*
X554199D02*
D03*
X559199D02*
D03*
X564199D02*
D03*
X569199D02*
D03*
X574199D02*
D03*
X579199D02*
D03*
X584199D02*
D03*
X589199D02*
D03*
X594199D02*
D03*
X599199D02*
D03*
X604199D02*
D03*
X609199D02*
D03*
X614199D02*
D03*
X619199D02*
D03*
X624199D02*
D03*
X629199D02*
D03*
X634199D02*
D03*
X639199D02*
D03*
X644131Y96950D02*
D03*
X648468Y94462D02*
D03*
X651598Y90563D02*
D03*
X653088Y85791D02*
D03*
X648762Y71846D02*
D03*
X647077Y67138D02*
D03*
X642776Y64588D02*
D03*
X637780Y64393D02*
D03*
X632780Y64402D02*
D03*
X627780Y64411D02*
D03*
X622780Y64419D02*
D03*
X617780Y64428D02*
D03*
X612780Y64437D02*
D03*
X607780Y64446D02*
D03*
X602780Y64455D02*
D03*
X597780Y64464D02*
D03*
X592780Y64473D02*
D03*
X587780Y64428D02*
D03*
X582864Y63518D02*
D03*
X578291Y61495D02*
D03*
X574369Y58394D02*
D03*
X571264Y54475D02*
D03*
X569238Y49904D02*
D03*
X568324Y44988D02*
D03*
X568094Y39994D02*
D03*
Y34994D02*
D03*
Y29994D02*
D03*
Y24994D02*
D03*
Y19994D02*
D03*
Y14994D02*
D03*
Y9994D02*
D03*
X581906Y9570D02*
D03*
Y14570D02*
D03*
Y19570D02*
D03*
Y24570D02*
D03*
Y29570D02*
D03*
Y34570D02*
D03*
Y39570D02*
D03*
X581871Y44570D02*
D03*
X584109Y49041D02*
D03*
X588730Y50951D02*
D03*
X593729Y51012D02*
D03*
X598729Y51003D02*
D03*
X603729Y50995D02*
D03*
X608729Y50986D02*
D03*
X613729Y50977D02*
D03*
X618729Y50968D02*
D03*
X623729Y50959D02*
D03*
X628729Y50950D02*
D03*
X633729Y50941D02*
D03*
X638729Y50932D02*
D03*
X643727Y51078D02*
D03*
X648604Y52182D02*
D03*
X653049Y54472D02*
D03*
X656844Y57727D02*
D03*
X660957Y60569D02*
D03*
X664125Y56701D02*
D03*
X668142Y53724D02*
D03*
X672746Y51773D02*
D03*
X677676Y50940D02*
D03*
X682676Y50935D02*
D03*
X687676Y50944D02*
D03*
X692676Y50953D02*
D03*
X697676Y50962D02*
D03*
X702676Y50970D02*
D03*
X707676Y50979D02*
D03*
X712676Y50988D02*
D03*
X717676Y50997D02*
D03*
X722676Y51006D02*
D03*
X727676Y51015D02*
D03*
X732670Y50767D02*
D03*
X736810Y47964D02*
D03*
X738271Y43182D02*
D03*
X738094Y38185D02*
D03*
Y33185D02*
D03*
Y28185D02*
D03*
Y23186D02*
D03*
Y18185D02*
D03*
Y13185D02*
D03*
Y8185D02*
D03*
X751906Y11194D02*
D03*
Y16194D02*
D03*
Y21194D02*
D03*
Y26194D02*
D03*
Y31194D02*
D03*
Y36194D02*
D03*
X751729Y41191D02*
D03*
X751558Y46188D02*
D03*
X750413Y51055D02*
D03*
X748088Y55481D02*
D03*
X744772Y59223D02*
D03*
X740654Y62059D02*
D03*
X735991Y63865D02*
D03*
X731034Y64517D02*
D03*
X726034Y64471D02*
D03*
X721034Y64462D02*
D03*
X716034Y64453D02*
D03*
X711034Y64444D02*
D03*
X706034Y64435D02*
D03*
X701034Y64426D02*
D03*
X696034Y64417D02*
D03*
X691034Y64408D02*
D03*
X686034Y64399D02*
D03*
X681034Y64391D02*
D03*
X676060Y64901D02*
D03*
X672211Y68092D02*
D03*
X671229Y72994D02*
D03*
X666603Y86721D02*
D03*
X665671Y91633D02*
D03*
X663867Y96296D02*
D03*
X661236Y100548D02*
D03*
X657867Y104243D02*
D03*
X653876Y107255D02*
D03*
X649400Y109483D02*
D03*
X644588Y110841D02*
D03*
X639607Y111275D02*
D03*
X634607Y111229D02*
D03*
X629607D02*
D03*
X624607D02*
D03*
X619607D02*
D03*
X614607D02*
D03*
X609607D02*
D03*
X604607D02*
D03*
X599607D02*
D03*
X594607D02*
D03*
X589607D02*
D03*
X584607D02*
D03*
X579607D02*
D03*
X574607D02*
D03*
X569607D02*
D03*
X564607D02*
D03*
X559607D02*
D03*
X554607D02*
D03*
X549607D02*
D03*
X544607D02*
D03*
X539608D02*
D03*
X534608D02*
D03*
X529608D02*
D03*
X524608D02*
D03*
X519608D02*
D03*
X514618Y111558D02*
D03*
X509872Y113129D02*
D03*
X505699Y115884D02*
D03*
X502347Y119594D02*
D03*
X500240Y124128D02*
D03*
X332000Y524000D02*
D03*
X373000Y515000D02*
D03*
X424000Y502000D02*
D03*
X473000Y517000D02*
D03*
X480000Y512000D02*
D03*
X470000Y507000D02*
D03*
X464000D02*
D03*
X523000Y518000D02*
D03*
Y529000D02*
D03*
X433000Y507000D02*
D03*
X438000Y511000D02*
D03*
X443000Y508000D02*
D03*
X48000Y853000D02*
D03*
X62000D02*
D03*
X55000Y852000D02*
D03*
X104000Y884071D02*
D03*
X72000Y870000D02*
D03*
Y879000D02*
D03*
X267000Y888000D02*
D03*
X257000D02*
D03*
X262000Y886000D02*
D03*
X477000Y793000D02*
D03*
Y799000D02*
D03*
Y805000D02*
D03*
Y811000D02*
D03*
Y823000D02*
D03*
Y817000D02*
D03*
X459000Y845000D02*
D03*
X465000Y841000D02*
D03*
Y834000D02*
D03*
Y828000D02*
D03*
X505000Y875000D02*
D03*
X510000D02*
D03*
X517000D02*
D03*
X214000Y808000D02*
D03*
Y820000D02*
D03*
Y814000D02*
D03*
X303905Y807405D02*
D03*
X285000Y813000D02*
D03*
X272000Y808000D02*
D03*
Y817000D02*
D03*
X460000Y942000D02*
D03*
X531000Y972000D02*
D03*
Y960000D02*
D03*
Y948000D02*
D03*
Y936000D02*
D03*
Y924000D02*
D03*
X539000Y914000D02*
D03*
Y902000D02*
D03*
Y890000D02*
D03*
Y878000D02*
D03*
Y866000D02*
D03*
X451000Y960000D02*
D03*
X445000D02*
D03*
X439000D02*
D03*
X433000D02*
D03*
X427000D02*
D03*
X421000D02*
D03*
X415000D02*
D03*
X409000D02*
D03*
X458000Y893000D02*
D03*
X438000D02*
D03*
Y901000D02*
D03*
X440000Y887000D02*
D03*
Y878000D02*
D03*
X458000D02*
D03*
Y901000D02*
D03*
Y887000D02*
D03*
X431000Y890000D02*
D03*
X424000D02*
D03*
X371000Y841000D02*
D03*
X321240Y841424D02*
D03*
X347000Y825000D02*
D03*
Y830000D02*
D03*
Y835000D02*
D03*
Y858000D02*
D03*
Y865000D02*
D03*
X350000Y880000D02*
D03*
Y889000D02*
D03*
X369000Y884000D02*
D03*
Y878000D02*
D03*
X363000Y873000D02*
D03*
X357000D02*
D03*
X351000D02*
D03*
X345000D02*
D03*
X339000D02*
D03*
X334000D02*
D03*
X310000Y976000D02*
D03*
Y981000D02*
D03*
Y987000D02*
D03*
X285000Y984000D02*
D03*
Y978000D02*
D03*
X290000Y974000D02*
D03*
Y982000D02*
D03*
Y987000D02*
D03*
X293000Y529000D02*
D03*
X178000Y269363D02*
D03*
X211000Y368000D02*
D03*
X215000Y379000D02*
D03*
X803000Y219000D02*
D03*
X670000Y194000D02*
D03*
X576000Y195000D02*
D03*
X173000Y149000D02*
D03*
X597000Y312000D02*
D03*
Y363000D02*
D03*
X607000Y438000D02*
D03*
X602275Y375975D02*
D03*
X903500Y913500D02*
D03*
X10000Y25000D02*
D03*
Y75000D02*
D03*
Y125000D02*
D03*
Y175000D02*
D03*
Y225000D02*
D03*
Y275000D02*
D03*
Y325000D02*
D03*
Y375000D02*
D03*
Y425000D02*
D03*
Y350000D02*
D03*
Y300000D02*
D03*
Y250000D02*
D03*
Y200000D02*
D03*
Y150000D02*
D03*
Y100000D02*
D03*
Y50000D02*
D03*
Y400000D02*
D03*
Y450000D02*
D03*
Y475000D02*
D03*
Y500000D02*
D03*
Y525000D02*
D03*
Y550000D02*
D03*
Y575000D02*
D03*
Y600000D02*
D03*
Y625000D02*
D03*
Y650000D02*
D03*
Y675000D02*
D03*
Y700000D02*
D03*
Y725000D02*
D03*
Y750000D02*
D03*
Y775000D02*
D03*
Y800000D02*
D03*
Y825000D02*
D03*
Y850000D02*
D03*
Y875000D02*
D03*
Y900000D02*
D03*
Y925000D02*
D03*
Y950000D02*
D03*
Y975000D02*
D03*
X975000D02*
D03*
Y950000D02*
D03*
Y925000D02*
D03*
Y900000D02*
D03*
Y875000D02*
D03*
Y850000D02*
D03*
Y825000D02*
D03*
Y800000D02*
D03*
Y775000D02*
D03*
Y750000D02*
D03*
Y725000D02*
D03*
Y700000D02*
D03*
Y675000D02*
D03*
Y650000D02*
D03*
Y625000D02*
D03*
Y600000D02*
D03*
Y575000D02*
D03*
Y550000D02*
D03*
Y525000D02*
D03*
Y500000D02*
D03*
Y475000D02*
D03*
Y450000D02*
D03*
Y400000D02*
D03*
Y50000D02*
D03*
Y100000D02*
D03*
Y150000D02*
D03*
Y200000D02*
D03*
Y250000D02*
D03*
Y300000D02*
D03*
Y350000D02*
D03*
Y425000D02*
D03*
Y375000D02*
D03*
Y325000D02*
D03*
Y275000D02*
D03*
Y225000D02*
D03*
Y175000D02*
D03*
Y125000D02*
D03*
Y75000D02*
D03*
Y25000D02*
D03*
X465000Y555000D02*
D03*
Y582000D02*
D03*
X419000Y620000D02*
D03*
X346000Y501000D02*
D03*
X89200Y215975D02*
D03*
X473299Y691299D02*
D03*
X823000Y141000D02*
D03*
X446000Y199000D02*
D03*
X185000Y320000D02*
D03*
X124000Y280000D02*
D03*
X185000Y301000D02*
D03*
X116000Y264000D02*
D03*
X146000Y211000D02*
D03*
X127775Y210700D02*
D03*
X62000Y151000D02*
D03*
X433000Y139000D02*
D03*
X814000Y182000D02*
D03*
X819000Y195000D02*
D03*
X839000Y157000D02*
D03*
X529475Y155200D02*
D03*
X845000Y168000D02*
D03*
X935336Y142940D02*
D03*
X914000Y140000D02*
D03*
Y148000D02*
D03*
X903300Y195475D02*
D03*
X858000Y185000D02*
D03*
X865300Y195475D02*
D03*
X511987Y138730D02*
D03*
X390800Y558475D02*
D03*
X332475Y417200D02*
D03*
X500525Y840800D02*
D03*
Y852800D02*
D03*
X391000Y813000D02*
D03*
X394000Y845000D02*
D03*
X389000Y872000D02*
D03*
X414475Y591200D02*
D03*
X384700Y582525D02*
D03*
X330987Y590730D02*
D03*
X362800Y592475D02*
D03*
X368500Y628000D02*
D03*
X331000D02*
D03*
X471000Y765000D02*
D03*
X504000Y906000D02*
D03*
X415000Y631000D02*
D03*
X399235Y758683D02*
D03*
X411000Y876000D02*
D03*
X421000Y612000D02*
D03*
X534000Y577000D02*
D03*
X536000Y621000D02*
D03*
X511000Y645000D02*
D03*
X454271Y721261D02*
D03*
X453651Y711000D02*
D03*
X212000Y855000D02*
D03*
X421000Y707000D02*
D03*
X473000Y702000D02*
D03*
X304000Y848000D02*
D03*
X305000Y764000D02*
D03*
X507000Y721000D02*
D03*
Y702000D02*
D03*
X400000Y725000D02*
D03*
X411393Y976380D02*
D03*
X448000Y721000D02*
D03*
X727000Y761000D02*
D03*
X747000Y727000D02*
D03*
X416000Y737000D02*
D03*
X350000Y750000D02*
D03*
X330000Y653000D02*
D03*
Y679000D02*
D03*
X579000Y770000D02*
D03*
X584000Y748000D02*
D03*
X225000Y875000D02*
D03*
X226000Y881000D02*
D03*
X574000Y800000D02*
D03*
X241000Y876000D02*
D03*
X181000Y872000D02*
D03*
X120000Y857000D02*
D03*
X140500Y863000D02*
D03*
X155000Y876000D02*
D03*
Y886000D02*
D03*
Y896000D02*
D03*
X246000Y900000D02*
D03*
Y910000D02*
D03*
X231000Y951000D02*
D03*
X185000Y945000D02*
D03*
X91000Y954000D02*
D03*
X281840Y845000D02*
D03*
X398000Y881000D02*
D03*
X487000Y900000D02*
D03*
X506000Y961250D02*
D03*
X517000Y899250D02*
D03*
X269000Y958000D02*
D03*
X279000D02*
D03*
X279000Y922000D02*
D03*
X430000Y985000D02*
D03*
X376000D02*
D03*
X313000Y901000D02*
D03*
X314000Y912000D02*
D03*
X318000Y921000D02*
D03*
X322000Y918000D02*
D03*
X314000Y918000D02*
D03*
X46000Y40000D02*
D03*
Y35000D02*
D03*
Y30000D02*
D03*
Y25000D02*
D03*
Y20000D02*
D03*
Y15000D02*
D03*
Y10000D02*
D03*
Y5000D02*
D03*
X84000D02*
D03*
Y10000D02*
D03*
Y15000D02*
D03*
Y20000D02*
D03*
Y25000D02*
D03*
Y30000D02*
D03*
Y35000D02*
D03*
Y40000D02*
D03*
X629000Y627000D02*
D03*
X619000D02*
D03*
X608000Y631000D02*
D03*
X601000D02*
D03*
X725000Y581000D02*
D03*
X728000Y566000D02*
D03*
X721000Y572000D02*
D03*
X752000Y636000D02*
D03*
X696000Y337000D02*
D03*
X713000Y435000D02*
D03*
X704000Y569000D02*
D03*
X468536Y377536D02*
D03*
X458536D02*
D03*
X603000Y574000D02*
D03*
X637000Y454000D02*
D03*
X602000Y465000D02*
D03*
X346495Y445000D02*
D03*
X220000Y376000D02*
D03*
X525000Y559000D02*
D03*
X561250Y586903D02*
D03*
X561000Y593000D02*
D03*
X565000Y608000D02*
D03*
X562500Y598500D02*
D03*
X570000Y605000D02*
D03*
X572000Y614000D02*
D03*
X577000Y611000D02*
D03*
X582000Y614000D02*
D03*
X587000Y611000D02*
D03*
X592000Y614000D02*
D03*
X291000Y420000D02*
D03*
Y432000D02*
D03*
X220000Y435000D02*
D03*
X427000Y517000D02*
D03*
X310000Y505000D02*
D03*
X535000Y566000D02*
D03*
X775000Y511000D02*
D03*
X752000Y435000D02*
D03*
X723000Y392000D02*
D03*
X724000Y732000D02*
D03*
X720000Y702000D02*
D03*
X648000Y745000D02*
D03*
Y700000D02*
D03*
X708000Y705000D02*
D03*
X713000Y740000D02*
D03*
X708000Y732000D02*
D03*
X700000Y703000D02*
D03*
X817000Y719000D02*
D03*
X922000Y130000D02*
D03*
X940000Y130000D02*
D03*
X156200Y129975D02*
D03*
X747000Y367000D02*
D03*
X864000Y403000D02*
D03*
X864000Y414000D02*
D03*
X554000Y562000D02*
D03*
X470465Y606535D02*
D03*
X485536Y653464D02*
D03*
X341000Y558000D02*
D03*
X371000Y558000D02*
D03*
X431000Y558000D02*
D03*
X493000Y581000D02*
D03*
Y561000D02*
D03*
Y551000D02*
D03*
X494464Y544535D02*
D03*
X488000Y546000D02*
D03*
X647452Y438452D02*
D03*
X728000Y534000D02*
D03*
X710000Y517000D02*
D03*
X708000Y560000D02*
D03*
X698000Y571000D02*
D03*
X692007Y569007D02*
D03*
X688251Y564990D02*
D03*
X660000Y588000D02*
D03*
X653000D02*
D03*
X645000Y591000D02*
D03*
X637000D02*
D03*
X630000D02*
D03*
X628000Y584000D02*
D03*
X621000Y587000D02*
D03*
Y578000D02*
D03*
X614000Y584000D02*
D03*
X608000Y578000D02*
D03*
X535000Y721000D02*
D03*
X513995Y730995D02*
D03*
X514000Y742000D02*
D03*
X175000Y904000D02*
D03*
X510000Y612000D02*
D03*
X503000Y711000D02*
D03*
X761000Y735000D02*
D03*
X769000Y725000D02*
D03*
X648000Y662000D02*
D03*
X830000Y655000D02*
D03*
X758000Y652000D02*
D03*
X797000Y661000D02*
D03*
X791000Y670000D02*
D03*
X799000Y674000D02*
D03*
X794000Y681000D02*
D03*
X845000Y662000D02*
D03*
X855000Y665000D02*
D03*
X815000Y694000D02*
D03*
X836500Y692500D02*
D03*
X525000Y805000D02*
D03*
X886000Y721000D02*
D03*
X828000Y692000D02*
D03*
X896000Y697000D02*
D03*
X578000Y787000D02*
D03*
X528000Y780000D02*
D03*
X618000Y773000D02*
D03*
X623000Y777000D02*
D03*
X627000Y781000D02*
D03*
X630000Y787000D02*
D03*
X639000Y788000D02*
D03*
X560000Y856000D02*
D03*
X550000D02*
D03*
X555000Y859000D02*
D03*
X545000D02*
D03*
X540000Y856000D02*
D03*
X663000Y339000D02*
D03*
Y387000D02*
D03*
X651000Y317000D02*
D03*
X912000Y645000D02*
D03*
X912000Y635000D02*
D03*
Y625000D02*
D03*
X912000Y615000D02*
D03*
X937000Y905000D02*
D03*
X651113Y377946D02*
D03*
X890000Y405846D02*
D03*
X907000Y671000D02*
D03*
X886000Y710000D02*
D03*
X901000Y723000D02*
D03*
X873000Y670000D02*
D03*
Y558000D02*
D03*
X812000Y577000D02*
D03*
X824800Y552475D02*
D03*
X812000Y529000D02*
D03*
X768000Y446000D02*
D03*
X843000Y421000D02*
D03*
Y433000D02*
D03*
Y446000D02*
D03*
X864000Y459000D02*
D03*
Y470000D02*
D03*
X762000Y435000D02*
D03*
X787000Y421000D02*
D03*
X762000Y496000D02*
D03*
X787475Y493375D02*
D03*
X822525Y506025D02*
D03*
Y480625D02*
D03*
X844000Y480000D02*
D03*
X567000Y238000D02*
D03*
X871000Y284000D02*
D03*
X747000Y340000D02*
D03*
X723000Y341000D02*
D03*
X811092Y628750D02*
D03*
X805000Y603000D02*
D03*
X812000Y609000D02*
D03*
X873000Y595500D02*
D03*
X873000Y586000D02*
D03*
X732000Y266000D02*
D03*
X807000D02*
D03*
Y253000D02*
D03*
Y241000D02*
D03*
X671000Y225000D02*
D03*
X601000Y213000D02*
D03*
Y236000D02*
D03*
X752000Y397000D02*
D03*
X526964Y204484D02*
D03*
X236000Y445000D02*
D03*
X522000Y370000D02*
D03*
X516050Y395250D02*
D03*
X480050Y395250D02*
D03*
X365000Y315000D02*
D03*
X378000Y538000D02*
D03*
X292000Y479000D02*
D03*
X256000Y505000D02*
D03*
Y493000D02*
D03*
Y420000D02*
D03*
X230000Y434000D02*
D03*
X427995Y286606D02*
D03*
X318000Y267000D02*
D03*
X361968Y278779D02*
D03*
X332000Y407000D02*
D03*
Y462000D02*
D03*
X332000Y472000D02*
D03*
X324000Y490000D02*
D03*
X228000Y495000D02*
D03*
X821000Y306000D02*
D03*
X123000Y386000D02*
D03*
X178000D02*
D03*
X576000Y433000D02*
D03*
X158000Y421000D02*
D03*
X199000Y433000D02*
D03*
Y414000D02*
D03*
Y404000D02*
D03*
X200000Y354000D02*
D03*
Y344000D02*
D03*
X828000Y294000D02*
D03*
Y284000D02*
D03*
Y224000D02*
D03*
Y234000D02*
D03*
X104000Y447000D02*
D03*
X123000Y434000D02*
D03*
X178000Y447000D02*
D03*
X104000Y361000D02*
D03*
X96000Y320000D02*
D03*
X147000Y276000D02*
D03*
X490000Y210000D02*
D03*
X835000Y194000D02*
D03*
X476000Y159500D02*
D03*
X776000Y153000D02*
D03*
X735000Y148000D02*
D03*
X753000D02*
D03*
X715000Y236000D02*
D03*
X730000Y205000D02*
D03*
X733000Y241000D02*
D03*
X721000Y311000D02*
D03*
X808000Y301075D02*
D03*
X807000Y327000D02*
D03*
X752000Y314000D02*
D03*
X733000Y327000D02*
D03*
X601000Y206000D02*
D03*
X641000D02*
D03*
Y274000D02*
D03*
X601000D02*
D03*
X338000Y187000D02*
D03*
X526000Y269000D02*
D03*
X495500Y275500D02*
D03*
X548043Y243107D02*
D03*
X545000Y238000D02*
D03*
X547043Y253107D02*
D03*
X545000Y248000D02*
D03*
Y218000D02*
D03*
X548043Y223107D02*
D03*
X545000Y228000D02*
D03*
X893000Y247000D02*
D03*
X864000Y221000D02*
D03*
X109200Y247975D02*
D03*
X75200Y225975D02*
D03*
X931800Y179475D02*
D03*
X902800Y179975D02*
D03*
X864800Y162975D02*
D03*
X924300Y183975D02*
D03*
X934300D02*
D03*
X81700Y195475D02*
D03*
X119700Y195475D02*
D03*
X150700Y183975D02*
D03*
X140700D02*
D03*
X73200Y168975D02*
D03*
X73200Y150975D02*
D03*
X81200Y162975D02*
D03*
X80200Y179975D02*
D03*
X119200D02*
D03*
X130200Y140975D02*
D03*
Y148975D02*
D03*
X148200Y141475D02*
D03*
X148200Y179475D02*
D03*
X334000Y254000D02*
D03*
X324000Y254000D02*
D03*
X386500Y335500D02*
D03*
X418500Y330500D02*
D03*
X434500Y275500D02*
D03*
X434500Y311500D02*
D03*
X407000Y262000D02*
D03*
X412107Y259957D02*
D03*
X397000Y262000D02*
D03*
X402107Y258957D02*
D03*
X387000Y262000D02*
D03*
X382107Y258957D02*
D03*
X377000Y262000D02*
D03*
X536000Y193000D02*
D03*
X471500Y254500D02*
D03*
Y227500D02*
D03*
X531500Y275500D02*
D03*
X582000Y156750D02*
D03*
X660000Y156750D02*
D03*
X562000Y231750D02*
D03*
X660000Y224750D02*
D03*
X96750Y429150D02*
D03*
X347000Y345000D02*
D03*
X282000Y319000D02*
D03*
X313000Y314000D02*
D03*
X352000Y320000D02*
D03*
X354000Y304000D02*
D03*
X344000Y268000D02*
D03*
X314000Y236000D02*
D03*
X283000Y251000D02*
D03*
X529000Y135000D02*
D03*
X512000Y159000D02*
D03*
X444465Y138535D02*
D03*
Y128535D02*
D03*
X466000Y122000D02*
D03*
X529000Y125000D02*
D03*
X508000Y184000D02*
D03*
X472000D02*
D03*
X452000Y165000D02*
D03*
X501000Y668000D02*
D03*
Y590000D02*
D03*
X547000Y525000D02*
D03*
X612000D02*
D03*
X662000D02*
D03*
X761000Y615000D02*
D03*
Y670000D02*
D03*
X665000Y785000D02*
D03*
X615000D02*
D03*
D95*
X294840Y834810D02*
D03*
Y827190D02*
D03*
X398000Y857190D02*
D03*
Y864810D02*
D03*
X294840Y863810D02*
D03*
Y856190D02*
D03*
X398000Y828190D02*
D03*
Y835810D02*
D03*
X884300Y225475D02*
D03*
X100700D02*
D03*
X322000Y349000D02*
D03*
X200000Y888000D02*
D03*
Y897250D02*
D03*
X190750Y888000D02*
D03*
X200000Y878750D02*
D03*
X209250Y888000D02*
D03*
X190750Y878750D02*
D03*
Y897250D02*
D03*
X209250D02*
D03*
Y878750D02*
D03*
X849000Y712000D02*
D03*
X839000D02*
D03*
X495500Y152500D02*
D03*
Y141500D02*
D03*
X484500Y152500D02*
D03*
Y141500D02*
D03*
X878800Y154975D02*
D03*
Y165975D02*
D03*
X889800Y154975D02*
D03*
Y165975D02*
D03*
X95200Y154975D02*
D03*
Y165975D02*
D03*
X106200Y154975D02*
D03*
Y165975D02*
D03*
X211535Y975660D02*
D03*
X222535D02*
D03*
X211535Y964660D02*
D03*
X222535D02*
D03*
X169535Y975660D02*
D03*
X180535D02*
D03*
X169535Y964660D02*
D03*
X180535D02*
D03*
X490000Y919250D02*
D03*
Y929250D02*
D03*
D96*
X337600Y726190D02*
D03*
Y746510D02*
D03*
X388400Y736350D02*
D03*
D97*
X179000Y926000D02*
X190000Y915000D01*
X179000Y926000D02*
Y966000D01*
X206000Y993000D01*
X523000D01*
X562000Y954000D01*
Y844000D02*
Y954000D01*
X526000Y808000D02*
X562000Y844000D01*
X507000Y808000D02*
X526000D01*
X496000Y819000D02*
X507000Y808000D01*
X496000Y819000D02*
Y839000D01*
X519000Y862000D01*
Y888000D01*
X446000Y961000D02*
X519000Y888000D01*
X431000Y961000D02*
X446000D01*
X337000D02*
X431000D01*
X291000Y915000D02*
X337000Y961000D01*
X190000Y915000D02*
X291000D01*
X146000Y680000D02*
X164000D01*
X116000Y710000D02*
X146000Y680000D01*
X116000Y710000D02*
Y774000D01*
X194000Y852000D01*
X321000D01*
X367000Y898000D01*
X501000D01*
X507000Y892000D01*
X516000Y883000D01*
Y864000D02*
Y883000D01*
X497000Y845000D02*
X516000Y864000D01*
X367000Y845000D02*
X497000D01*
X349000Y827000D02*
X367000Y845000D01*
X243000Y827000D02*
X349000D01*
X189000Y773000D02*
X243000Y827000D01*
X189000Y705000D02*
Y773000D01*
X164000Y680000D02*
X189000Y705000D01*
X96000Y808000D02*
X119500Y784500D01*
X96000Y808000D02*
Y849000D01*
X157000Y910000D01*
X292000D01*
X337000Y955000D01*
X410000D01*
X425000Y940000D01*
Y918000D02*
Y940000D01*
X412000Y905000D02*
X425000Y918000D01*
X359000Y905000D02*
X412000D01*
X310000Y856000D02*
X359000Y905000D01*
X191000Y856000D02*
X310000D01*
X119500Y784500D02*
X191000Y856000D01*
D98*
X133700Y964000D02*
D03*
X48300D02*
D03*
X133700Y916700D02*
D03*
X48300D02*
D03*
M02*
