G04*
G04 #@! TF.GenerationSoftware,Altium Limited,Altium Designer,21.2.2 (38)*
G04*
G04 Layer_Color=12632256*
%FSLAX44Y44*%
%MOMM*%
G71*
G04*
G04 #@! TF.SameCoordinates,1D3918CC-9385-454E-ACC4-38365C0A3FBC*
G04*
G04*
G04 #@! TF.FilePolarity,Positive*
G04*
G01*
G75*
%ADD88C,1.1520*%
%ADD89O,1.0000X1.6000*%
%ADD90C,0.6500*%
%ADD91O,1.8000X2.3000*%
G36*
X1132626Y593517D02*
X1132830Y593462D01*
X1132923Y593424D01*
X1132997Y593369D01*
X1133034Y593332D01*
X1133052Y593295D01*
X1133089Y593221D01*
X1133126Y593147D01*
X1133145Y593036D01*
X1133182Y592906D01*
Y592739D01*
Y592721D01*
Y592665D01*
Y592591D01*
X1133163Y592480D01*
X1133108Y592276D01*
X1133052Y592184D01*
X1132997Y592110D01*
X1132960Y592091D01*
X1132923Y592054D01*
X1132849Y592036D01*
X1132774Y591999D01*
X1132645Y591962D01*
X1132515Y591943D01*
X1132200D01*
X1132089Y591962D01*
X1131886Y591999D01*
X1131793Y592036D01*
X1131719Y592091D01*
X1131700Y592128D01*
X1131663Y592165D01*
X1131645Y592239D01*
X1131608Y592313D01*
X1131571Y592425D01*
X1131552Y592554D01*
Y592721D01*
Y592739D01*
Y592795D01*
X1131571Y592869D01*
Y592980D01*
X1131626Y593184D01*
X1131663Y593276D01*
X1131719Y593350D01*
X1131756Y593387D01*
X1131793Y593406D01*
X1131867Y593443D01*
X1131960Y593480D01*
X1132071Y593499D01*
X1132200Y593536D01*
X1132515D01*
X1132626Y593517D01*
D02*
G37*
G36*
X1174196Y590647D02*
X1174214D01*
X1174270Y590629D01*
X1174363Y590610D01*
X1174455Y590592D01*
X1174474D01*
X1174548Y590573D01*
X1174622Y590555D01*
X1174715Y590518D01*
X1174733D01*
X1174789Y590499D01*
X1174844Y590480D01*
X1174881Y590443D01*
X1174900D01*
X1174918Y590425D01*
X1174955Y590369D01*
X1174974Y590351D01*
Y590277D01*
Y590258D01*
X1174992Y590240D01*
Y590184D01*
Y590110D01*
Y590092D01*
X1175011Y590036D01*
Y589962D01*
Y589832D01*
Y589795D01*
Y589721D01*
Y589629D01*
X1174992Y589536D01*
Y589518D01*
Y589481D01*
X1174955Y589351D01*
Y589332D01*
X1174937Y589314D01*
X1174900Y589240D01*
X1174881Y589221D01*
X1174807Y589203D01*
X1174752D01*
X1174640Y589240D01*
X1174622D01*
X1174585Y589258D01*
X1174511Y589295D01*
X1174437Y589314D01*
X1174418D01*
X1174363Y589332D01*
X1174289Y589369D01*
X1174177Y589388D01*
X1174159D01*
X1174085Y589407D01*
X1173974Y589425D01*
X1173826D01*
X1173733Y589407D01*
X1173622Y589388D01*
X1173474Y589332D01*
X1173437Y589314D01*
X1173363Y589277D01*
X1173233Y589184D01*
X1173066Y589073D01*
X1173029Y589036D01*
X1172937Y588944D01*
X1172789Y588777D01*
X1172622Y588573D01*
X1172604Y588555D01*
X1172585Y588518D01*
X1172530Y588462D01*
X1172474Y588369D01*
X1172400Y588258D01*
X1172326Y588129D01*
X1172122Y587832D01*
Y583092D01*
Y583074D01*
Y583055D01*
X1172085Y582981D01*
X1172067Y582963D01*
X1171974Y582907D01*
X1171955D01*
X1171918Y582889D01*
X1171863D01*
X1171770Y582870D01*
X1171696D01*
X1171585Y582852D01*
X1171233D01*
X1171122Y582870D01*
X1171104D01*
X1171067Y582889D01*
X1170937Y582907D01*
X1170919D01*
X1170900Y582926D01*
X1170826Y582981D01*
Y583018D01*
X1170807Y583092D01*
Y590295D01*
Y590314D01*
Y590332D01*
X1170826Y590406D01*
X1170844Y590425D01*
X1170882Y590462D01*
X1170919Y590480D01*
X1170937D01*
X1170974Y590499D01*
X1171030Y590517D01*
X1171104Y590536D01*
X1171122D01*
X1171178Y590555D01*
X1171585D01*
X1171678Y590536D01*
X1171696D01*
X1171752Y590517D01*
X1171807Y590499D01*
X1171863Y590480D01*
X1171881D01*
X1171900Y590462D01*
X1171937Y590443D01*
X1171955Y590406D01*
X1171974Y590388D01*
X1171993Y590295D01*
Y589240D01*
X1172011Y589258D01*
X1172048Y589314D01*
X1172104Y589388D01*
X1172178Y589499D01*
X1172344Y589721D01*
X1172548Y589943D01*
X1172567Y589962D01*
X1172585Y589999D01*
X1172715Y590110D01*
X1172863Y590240D01*
X1173029Y590369D01*
X1173048D01*
X1173066Y590388D01*
X1173178Y590462D01*
X1173326Y590536D01*
X1173492Y590592D01*
X1173511D01*
X1173529Y590610D01*
X1173641Y590629D01*
X1173789Y590647D01*
X1173955Y590666D01*
X1174103D01*
X1174196Y590647D01*
D02*
G37*
G36*
X1138533Y587444D02*
X1138552D01*
X1138570Y587425D01*
X1138589Y587407D01*
X1138626Y587351D01*
Y587333D01*
X1138644Y587314D01*
X1138663Y587258D01*
X1138681Y587184D01*
Y587166D01*
X1138700Y587110D01*
X1138718Y587036D01*
Y586925D01*
Y586907D01*
Y586870D01*
Y586759D01*
X1138681Y586610D01*
X1138663Y586555D01*
X1138644Y586499D01*
X1138626Y586481D01*
X1138589Y586444D01*
X1138514Y586407D01*
X1138422Y586388D01*
X1135070D01*
X1135015Y586407D01*
X1134941Y586444D01*
X1134867Y586499D01*
Y586518D01*
X1134848Y586610D01*
X1134830Y586740D01*
X1134811Y586925D01*
Y586944D01*
Y586981D01*
Y587092D01*
X1134830Y587240D01*
X1134848Y587295D01*
X1134867Y587351D01*
X1134885Y587370D01*
X1134922Y587425D01*
X1134996Y587462D01*
X1135089Y587481D01*
X1138459D01*
X1138533Y587444D01*
D02*
G37*
G36*
X1110814Y593239D02*
X1110888Y593221D01*
X1110906D01*
X1110962Y593184D01*
X1111017Y593147D01*
X1111073Y593091D01*
X1111092Y593073D01*
X1111110Y593036D01*
X1111165Y592980D01*
X1111203Y592906D01*
X1111221Y592888D01*
X1111240Y592832D01*
X1111258Y592739D01*
Y592628D01*
Y583092D01*
Y583055D01*
X1111221Y582981D01*
X1111184Y582963D01*
X1111147Y582944D01*
X1111092Y582926D01*
X1111073D01*
X1111036Y582907D01*
X1110980D01*
X1110888Y582889D01*
X1110869D01*
X1110795Y582870D01*
X1110684Y582852D01*
X1110443D01*
X1110332Y582870D01*
X1110221Y582889D01*
X1110203D01*
X1110147Y582907D01*
X1110073D01*
X1110017Y582926D01*
X1109999D01*
X1109980Y582944D01*
X1109906Y582981D01*
Y583000D01*
Y583018D01*
X1109888Y583092D01*
Y592128D01*
X1109869D01*
X1106203Y583055D01*
X1106185Y583018D01*
X1106129Y582963D01*
X1106092Y582944D01*
X1106055Y582926D01*
X1105999Y582907D01*
X1105981D01*
X1105944Y582889D01*
X1105888D01*
X1105814Y582870D01*
X1105740D01*
X1105648Y582852D01*
X1105333D01*
X1105240Y582870D01*
X1105222D01*
X1105166Y582889D01*
X1105036Y582907D01*
X1105018D01*
X1104999Y582926D01*
X1104907Y582963D01*
Y582981D01*
X1104888Y583000D01*
X1104870Y583055D01*
X1101370Y592128D01*
Y583092D01*
Y583055D01*
X1101333Y582981D01*
X1101296Y582963D01*
X1101259Y582944D01*
X1101204Y582926D01*
X1101185D01*
X1101148Y582907D01*
X1101093D01*
X1101000Y582889D01*
X1100981D01*
X1100907Y582870D01*
X1100796Y582852D01*
X1100555D01*
X1100444Y582870D01*
X1100333Y582889D01*
X1100315D01*
X1100259Y582907D01*
X1100185D01*
X1100130Y582926D01*
X1100111D01*
X1100093Y582944D01*
X1100018Y582981D01*
Y583000D01*
Y583018D01*
X1100000Y583092D01*
Y592628D01*
Y592647D01*
Y592684D01*
X1100018Y592739D01*
Y592813D01*
X1100074Y592980D01*
X1100167Y593110D01*
X1100204Y593128D01*
X1100296Y593184D01*
X1100426Y593239D01*
X1100574Y593258D01*
X1101555D01*
X1101703Y593239D01*
X1101852Y593202D01*
X1101870D01*
X1101889Y593184D01*
X1101981Y593165D01*
X1102092Y593110D01*
X1102204Y593036D01*
X1102222Y593017D01*
X1102296Y592962D01*
X1102370Y592888D01*
X1102444Y592776D01*
X1102463Y592758D01*
X1102500Y592684D01*
X1102555Y592554D01*
X1102611Y592406D01*
X1105592Y584907D01*
X1105629D01*
X1108703Y592388D01*
Y592406D01*
X1108721Y592425D01*
X1108758Y592536D01*
X1108832Y592665D01*
X1108906Y592795D01*
X1108925Y592832D01*
X1108981Y592888D01*
X1109055Y592980D01*
X1109129Y593054D01*
X1109147Y593073D01*
X1109221Y593110D01*
X1109295Y593165D01*
X1109406Y593202D01*
X1109444Y593221D01*
X1109518Y593239D01*
X1109629Y593258D01*
X1110740D01*
X1110814Y593239D01*
D02*
G37*
G36*
X1160753Y590536D02*
X1160864Y590517D01*
X1160883D01*
X1160938Y590499D01*
X1161012Y590480D01*
X1161068Y590443D01*
X1161086Y590425D01*
X1161105Y590406D01*
X1161123Y590351D01*
X1161142Y590295D01*
Y590277D01*
Y590240D01*
X1161123Y590147D01*
X1161086Y590055D01*
X1158512Y582907D01*
X1157550Y580278D01*
X1157531Y580259D01*
X1157494Y580204D01*
X1157420Y580130D01*
X1157290Y580074D01*
X1157253Y580056D01*
X1157142Y580037D01*
X1157068Y580019D01*
X1156976D01*
X1156846Y580000D01*
X1156587D01*
X1156476Y580019D01*
X1156365Y580037D01*
X1156346D01*
X1156309Y580056D01*
X1156179Y580111D01*
X1156161D01*
X1156142Y580148D01*
X1156105Y580167D01*
X1156087Y580222D01*
Y580241D01*
Y580278D01*
X1156105Y580333D01*
X1156142Y580407D01*
X1157124Y582907D01*
X1157087Y582926D01*
X1157050Y582963D01*
X1156994Y583000D01*
Y583018D01*
X1156957Y583055D01*
X1156901Y583148D01*
X1154346Y590036D01*
X1154328Y590073D01*
X1154309Y590129D01*
X1154291Y590221D01*
X1154272Y590295D01*
Y590314D01*
Y590351D01*
X1154291Y590406D01*
X1154328Y590443D01*
X1154346Y590462D01*
X1154383Y590480D01*
X1154457Y590499D01*
X1154550Y590517D01*
X1154568D01*
X1154661Y590536D01*
X1154772Y590555D01*
X1155198D01*
X1155309Y590536D01*
X1155328D01*
X1155383Y590517D01*
X1155457Y590499D01*
X1155513Y590480D01*
X1155531D01*
X1155568Y590462D01*
X1155605Y590443D01*
X1155642Y590388D01*
Y590369D01*
X1155661Y590351D01*
X1155716Y590240D01*
X1157772Y584463D01*
X1157790D01*
X1159790Y590258D01*
Y590277D01*
X1159809Y590351D01*
X1159846Y590406D01*
X1159883Y590462D01*
X1159901D01*
X1159938Y590480D01*
X1159994Y590499D01*
X1160086Y590517D01*
X1160123D01*
X1160198Y590536D01*
X1160327Y590555D01*
X1160623D01*
X1160753Y590536D01*
D02*
G37*
G36*
X1119683D02*
X1119702D01*
X1119757Y590517D01*
X1119831Y590499D01*
X1119887Y590480D01*
X1119905D01*
X1119924Y590462D01*
X1119998Y590406D01*
X1120016Y590388D01*
X1120035Y590295D01*
Y583092D01*
Y583074D01*
Y583055D01*
X1119998Y582981D01*
X1119979Y582963D01*
X1119887Y582907D01*
X1119868D01*
X1119850Y582889D01*
X1119794D01*
X1119702Y582870D01*
X1119628D01*
X1119535Y582852D01*
X1119220D01*
X1119109Y582870D01*
X1119091D01*
X1119054Y582889D01*
X1118924Y582907D01*
X1118887Y582926D01*
X1118831Y582981D01*
Y583018D01*
X1118813Y583092D01*
Y584037D01*
X1118794Y584000D01*
X1118702Y583926D01*
X1118591Y583814D01*
X1118443Y583666D01*
X1118257Y583500D01*
X1118054Y583333D01*
X1117831Y583185D01*
X1117609Y583055D01*
X1117591Y583037D01*
X1117517Y583018D01*
X1117387Y582963D01*
X1117239Y582907D01*
X1117054Y582852D01*
X1116850Y582814D01*
X1116628Y582777D01*
X1116387Y582759D01*
X1116276D01*
X1116146Y582777D01*
X1115980Y582796D01*
X1115776Y582814D01*
X1115591Y582852D01*
X1115387Y582907D01*
X1115184Y582981D01*
X1115165Y583000D01*
X1115110Y583018D01*
X1115017Y583074D01*
X1114906Y583148D01*
X1114776Y583240D01*
X1114647Y583352D01*
X1114387Y583629D01*
X1114369Y583648D01*
X1114332Y583703D01*
X1114295Y583796D01*
X1114221Y583907D01*
X1114147Y584055D01*
X1114091Y584222D01*
X1113961Y584592D01*
Y584611D01*
X1113943Y584685D01*
X1113924Y584814D01*
X1113906Y584963D01*
X1113869Y585166D01*
X1113850Y585388D01*
X1113832Y585648D01*
Y585925D01*
Y590295D01*
Y590314D01*
Y590332D01*
X1113850Y590406D01*
X1113887Y590425D01*
X1113961Y590480D01*
X1113980D01*
X1114017Y590499D01*
X1114073Y590517D01*
X1114165Y590536D01*
X1114184D01*
X1114258Y590555D01*
X1114702D01*
X1114813Y590536D01*
X1114832D01*
X1114887Y590517D01*
X1114961Y590499D01*
X1115017Y590480D01*
X1115035D01*
X1115054Y590462D01*
X1115128Y590406D01*
X1115147Y590388D01*
X1115165Y590295D01*
Y586110D01*
Y586092D01*
Y585999D01*
Y585888D01*
X1115184Y585740D01*
X1115202Y585407D01*
X1115221Y585240D01*
X1115239Y585092D01*
Y585074D01*
X1115258Y585037D01*
X1115276Y584963D01*
X1115313Y584870D01*
X1115387Y584648D01*
X1115517Y584426D01*
X1115535Y584407D01*
X1115554Y584388D01*
X1115647Y584277D01*
X1115813Y584148D01*
X1115998Y584018D01*
X1116017D01*
X1116054Y584000D01*
X1116109Y583981D01*
X1116202Y583963D01*
X1116406Y583907D01*
X1116665Y583889D01*
X1116758D01*
X1116850Y583907D01*
X1116980Y583926D01*
X1117128Y583963D01*
X1117294Y584037D01*
X1117461Y584111D01*
X1117646Y584222D01*
X1117665Y584240D01*
X1117739Y584296D01*
X1117831Y584370D01*
X1117961Y584481D01*
X1118128Y584629D01*
X1118294Y584814D01*
X1118498Y585018D01*
X1118702Y585259D01*
Y590295D01*
Y590314D01*
Y590332D01*
X1118720Y590406D01*
X1118757Y590425D01*
X1118831Y590480D01*
X1118850D01*
X1118887Y590499D01*
X1118942Y590517D01*
X1119035Y590536D01*
X1119054D01*
X1119128Y590555D01*
X1119572D01*
X1119683Y590536D01*
D02*
G37*
G36*
X1141533Y593295D02*
X1141644Y593276D01*
X1141662D01*
X1141718Y593258D01*
X1141792Y593239D01*
X1141848Y593221D01*
X1141866D01*
X1141903Y593202D01*
X1141940Y593184D01*
X1141977Y593147D01*
X1141996Y593128D01*
X1142014Y593054D01*
Y584092D01*
X1145754D01*
X1145847Y584055D01*
X1145866D01*
X1145884Y584037D01*
X1145940Y583944D01*
Y583926D01*
X1145958Y583889D01*
X1145977Y583833D01*
X1145995Y583759D01*
Y583740D01*
X1146014Y583685D01*
Y583611D01*
Y583500D01*
Y583481D01*
Y583407D01*
Y583315D01*
X1145995Y583222D01*
Y583203D01*
X1145977Y583166D01*
X1145940Y583037D01*
Y583018D01*
X1145921Y583000D01*
X1145847Y582926D01*
X1145810D01*
X1145717Y582907D01*
X1141107D01*
X1141033Y582926D01*
X1140922Y582963D01*
X1140792Y583018D01*
X1140774Y583037D01*
X1140718Y583129D01*
X1140663Y583259D01*
X1140644Y583463D01*
Y593054D01*
Y593073D01*
Y593091D01*
X1140663Y593147D01*
Y593165D01*
X1140699Y593184D01*
X1140774Y593221D01*
X1140792D01*
X1140829Y593239D01*
X1140903Y593258D01*
X1140996Y593276D01*
X1141014D01*
X1141088Y593295D01*
X1141199Y593313D01*
X1141440D01*
X1141533Y593295D01*
D02*
G37*
G36*
X1150421Y590647D02*
X1150624Y590629D01*
X1150847Y590592D01*
X1151069Y590536D01*
X1151273Y590480D01*
X1151291D01*
X1151365Y590443D01*
X1151458Y590406D01*
X1151587Y590351D01*
X1151883Y590184D01*
X1152032Y590073D01*
X1152161Y589962D01*
X1152180Y589943D01*
X1152217Y589906D01*
X1152272Y589832D01*
X1152346Y589740D01*
X1152421Y589610D01*
X1152513Y589462D01*
X1152587Y589295D01*
X1152643Y589110D01*
Y589092D01*
X1152661Y589018D01*
X1152698Y588925D01*
X1152735Y588777D01*
X1152754Y588610D01*
X1152791Y588406D01*
X1152809Y588184D01*
Y587944D01*
Y583074D01*
Y583055D01*
Y583018D01*
X1152772Y582981D01*
X1152735Y582944D01*
X1152717D01*
X1152698Y582926D01*
X1152643Y582907D01*
X1152550Y582889D01*
X1152532D01*
X1152476Y582870D01*
X1152365Y582852D01*
X1152124D01*
X1152013Y582870D01*
X1151902Y582889D01*
X1151883D01*
X1151828Y582907D01*
X1151772Y582926D01*
X1151717Y582944D01*
X1151698Y582981D01*
X1151680Y583018D01*
X1151661Y583074D01*
Y583796D01*
X1151643Y583777D01*
X1151587Y583722D01*
X1151476Y583629D01*
X1151365Y583518D01*
X1151198Y583388D01*
X1151013Y583259D01*
X1150828Y583129D01*
X1150606Y583018D01*
X1150587Y583000D01*
X1150513Y582981D01*
X1150384Y582944D01*
X1150236Y582889D01*
X1150050Y582833D01*
X1149847Y582796D01*
X1149624Y582777D01*
X1149384Y582759D01*
X1149180D01*
X1149032Y582777D01*
X1148884Y582796D01*
X1148699Y582814D01*
X1148347Y582907D01*
X1148328D01*
X1148273Y582926D01*
X1148180Y582963D01*
X1148088Y583000D01*
X1147828Y583129D01*
X1147569Y583315D01*
X1147551Y583333D01*
X1147514Y583370D01*
X1147458Y583426D01*
X1147384Y583518D01*
X1147310Y583611D01*
X1147217Y583740D01*
X1147069Y584018D01*
Y584037D01*
X1147051Y584092D01*
X1147014Y584166D01*
X1146995Y584296D01*
X1146958Y584426D01*
X1146921Y584574D01*
X1146903Y584944D01*
Y584963D01*
Y585037D01*
X1146921Y585148D01*
X1146940Y585296D01*
X1146958Y585462D01*
X1147014Y585629D01*
X1147069Y585814D01*
X1147143Y585981D01*
X1147162Y585999D01*
X1147180Y586055D01*
X1147236Y586147D01*
X1147328Y586259D01*
X1147421Y586370D01*
X1147551Y586499D01*
X1147680Y586629D01*
X1147847Y586740D01*
X1147865Y586759D01*
X1147940Y586796D01*
X1148032Y586851D01*
X1148162Y586907D01*
X1148328Y586981D01*
X1148513Y587055D01*
X1148736Y587129D01*
X1148976Y587184D01*
X1149013D01*
X1149106Y587203D01*
X1149236Y587240D01*
X1149421Y587258D01*
X1149643Y587295D01*
X1149902Y587314D01*
X1150199Y587333D01*
X1151495D01*
Y587888D01*
Y587907D01*
Y587962D01*
Y588036D01*
X1151476Y588129D01*
X1151458Y588369D01*
X1151402Y588610D01*
Y588629D01*
X1151384Y588666D01*
X1151365Y588721D01*
X1151328Y588795D01*
X1151235Y588981D01*
X1151106Y589147D01*
Y589166D01*
X1151069Y589184D01*
X1150976Y589277D01*
X1150810Y589388D01*
X1150606Y589481D01*
X1150587D01*
X1150550Y589499D01*
X1150476Y589518D01*
X1150402Y589536D01*
X1150291Y589555D01*
X1150162Y589573D01*
X1149847Y589592D01*
X1149661D01*
X1149550Y589573D01*
X1149254Y589536D01*
X1148958Y589462D01*
X1148939D01*
X1148902Y589444D01*
X1148828Y589425D01*
X1148736Y589388D01*
X1148513Y589314D01*
X1148291Y589203D01*
X1148273D01*
X1148236Y589184D01*
X1148180Y589166D01*
X1148125Y589129D01*
X1147958Y589055D01*
X1147791Y588962D01*
X1147754Y588943D01*
X1147680Y588907D01*
X1147588Y588870D01*
X1147514Y588851D01*
X1147477D01*
X1147384Y588870D01*
X1147365Y588888D01*
X1147310Y588962D01*
Y588981D01*
X1147291Y589018D01*
X1147254Y589129D01*
Y589147D01*
Y589203D01*
Y589277D01*
Y589351D01*
Y589369D01*
Y589388D01*
Y589462D01*
Y589573D01*
X1147273Y589666D01*
Y589684D01*
X1147310Y589740D01*
X1147347Y589814D01*
X1147402Y589888D01*
X1147421Y589906D01*
X1147495Y589962D01*
X1147606Y590036D01*
X1147773Y590129D01*
X1147791D01*
X1147828Y590147D01*
X1147884Y590184D01*
X1147958Y590221D01*
X1148143Y590295D01*
X1148384Y590388D01*
X1148402D01*
X1148439Y590406D01*
X1148513Y590425D01*
X1148606Y590462D01*
X1148717Y590480D01*
X1148847Y590517D01*
X1149143Y590573D01*
X1149162D01*
X1149217Y590592D01*
X1149291Y590610D01*
X1149402Y590629D01*
X1149513D01*
X1149661Y590647D01*
X1149958Y590666D01*
X1150236D01*
X1150421Y590647D01*
D02*
G37*
G36*
X1132682Y590536D02*
X1132700D01*
X1132756Y590517D01*
X1132830Y590499D01*
X1132886Y590480D01*
X1132904D01*
X1132923Y590462D01*
X1132997Y590388D01*
X1133015Y590369D01*
X1133034Y590295D01*
Y583092D01*
Y583074D01*
Y583055D01*
X1132997Y582981D01*
X1132978Y582963D01*
X1132886Y582907D01*
X1132867D01*
X1132830Y582889D01*
X1132774D01*
X1132682Y582870D01*
X1132608D01*
X1132497Y582852D01*
X1132145D01*
X1132034Y582870D01*
X1132015D01*
X1131978Y582889D01*
X1131849Y582907D01*
X1131830D01*
X1131812Y582926D01*
X1131738Y582981D01*
Y583018D01*
X1131719Y583092D01*
Y590295D01*
Y590314D01*
Y590332D01*
X1131738Y590388D01*
Y590406D01*
X1131775Y590425D01*
X1131849Y590480D01*
X1131867D01*
X1131904Y590499D01*
X1131960Y590517D01*
X1132034Y590536D01*
X1132052D01*
X1132126Y590555D01*
X1132589D01*
X1132682Y590536D01*
D02*
G37*
G36*
X1123442Y594036D02*
X1123460D01*
X1123516Y594017D01*
X1123590Y593999D01*
X1123646Y593980D01*
X1123664D01*
X1123683Y593961D01*
X1123757Y593887D01*
X1123775Y593869D01*
X1123794Y593795D01*
Y583092D01*
Y583074D01*
Y583055D01*
X1123757Y582981D01*
X1123738Y582963D01*
X1123646Y582907D01*
X1123627D01*
X1123590Y582889D01*
X1123535D01*
X1123442Y582870D01*
X1123368D01*
X1123257Y582852D01*
X1122905D01*
X1122794Y582870D01*
X1122775D01*
X1122738Y582889D01*
X1122609Y582907D01*
X1122590D01*
X1122572Y582926D01*
X1122498Y582981D01*
Y583018D01*
X1122479Y583092D01*
Y593795D01*
Y593813D01*
Y593832D01*
X1122498Y593887D01*
Y593906D01*
X1122535Y593924D01*
X1122609Y593980D01*
X1122627D01*
X1122664Y593999D01*
X1122720Y594017D01*
X1122794Y594036D01*
X1122812D01*
X1122887Y594054D01*
X1123349D01*
X1123442Y594036D01*
D02*
G37*
G36*
X1127516Y592462D02*
X1127534D01*
X1127590Y592443D01*
X1127664Y592425D01*
X1127719Y592406D01*
X1127738D01*
X1127756Y592388D01*
X1127831Y592313D01*
X1127849Y592295D01*
X1127868Y592221D01*
Y590517D01*
X1129738D01*
X1129812Y590480D01*
X1129830D01*
X1129849Y590462D01*
X1129904Y590369D01*
Y590351D01*
X1129923Y590332D01*
X1129941Y590277D01*
X1129960Y590203D01*
Y590184D01*
X1129978Y590147D01*
Y590055D01*
Y589962D01*
Y589943D01*
Y589906D01*
Y589795D01*
X1129941Y589666D01*
X1129904Y589536D01*
X1129886Y589518D01*
X1129849Y589481D01*
X1129793Y589444D01*
X1129701Y589425D01*
X1127868D01*
Y585407D01*
Y585370D01*
Y585277D01*
X1127886Y585148D01*
Y584981D01*
X1127960Y584611D01*
X1127997Y584444D01*
X1128071Y584277D01*
X1128090Y584259D01*
X1128108Y584222D01*
X1128164Y584166D01*
X1128256Y584092D01*
X1128367Y584018D01*
X1128497Y583963D01*
X1128664Y583926D01*
X1128867Y583907D01*
X1129071D01*
X1129182Y583926D01*
X1129201D01*
X1129275Y583944D01*
X1129349Y583981D01*
X1129441Y584000D01*
X1129460Y584018D01*
X1129516Y584037D01*
X1129627Y584092D01*
X1129645D01*
X1129682Y584111D01*
X1129793Y584129D01*
X1129812D01*
X1129867Y584092D01*
X1129886Y584074D01*
X1129923Y584018D01*
Y584000D01*
X1129941Y583981D01*
X1129960Y583870D01*
Y583852D01*
X1129978Y583814D01*
Y583722D01*
Y583629D01*
Y583592D01*
Y583500D01*
X1129960Y583388D01*
X1129941Y583259D01*
Y583240D01*
X1129923Y583185D01*
X1129886Y583111D01*
X1129830Y583055D01*
X1129812D01*
X1129793Y583018D01*
X1129738Y582981D01*
X1129645Y582944D01*
X1129627D01*
X1129553Y582926D01*
X1129460Y582907D01*
X1129349Y582870D01*
X1129330D01*
X1129256Y582852D01*
X1129145Y582833D01*
X1129016Y582814D01*
X1128979D01*
X1128904Y582796D01*
X1128775Y582777D01*
X1128441D01*
X1128312Y582796D01*
X1128164Y582814D01*
X1127997Y582833D01*
X1127682Y582907D01*
X1127664D01*
X1127627Y582944D01*
X1127553Y582963D01*
X1127460Y583018D01*
X1127238Y583166D01*
X1127034Y583352D01*
X1127016Y583370D01*
X1126997Y583407D01*
X1126942Y583481D01*
X1126886Y583574D01*
X1126831Y583685D01*
X1126775Y583814D01*
X1126664Y584129D01*
Y584148D01*
X1126645Y584203D01*
X1126627Y584314D01*
X1126608Y584444D01*
X1126590Y584592D01*
X1126571Y584777D01*
X1126553Y584981D01*
Y585203D01*
Y589425D01*
X1125516D01*
X1125460Y589444D01*
X1125386Y589481D01*
X1125331Y589536D01*
Y589555D01*
X1125312Y589647D01*
X1125294Y589777D01*
X1125275Y589962D01*
Y589981D01*
Y590055D01*
Y590129D01*
X1125294Y590203D01*
Y590221D01*
X1125312Y590258D01*
Y590314D01*
X1125331Y590369D01*
Y590388D01*
X1125349Y590406D01*
X1125423Y590480D01*
X1125442D01*
X1125460Y590499D01*
X1125534Y590517D01*
X1126553D01*
Y592221D01*
Y592239D01*
Y592258D01*
X1126571Y592313D01*
Y592332D01*
X1126608Y592351D01*
X1126682Y592406D01*
X1126701D01*
X1126738Y592425D01*
X1126794Y592443D01*
X1126868Y592462D01*
X1126886D01*
X1126960Y592480D01*
X1127423D01*
X1127516Y592462D01*
D02*
G37*
G36*
X1165919Y590647D02*
X1166123Y590629D01*
X1166345Y590592D01*
X1166586Y590555D01*
X1166826Y590480D01*
X1167067Y590388D01*
X1167086Y590369D01*
X1167178Y590332D01*
X1167289Y590277D01*
X1167419Y590184D01*
X1167567Y590092D01*
X1167734Y589962D01*
X1167900Y589814D01*
X1168048Y589647D01*
X1168067Y589629D01*
X1168104Y589573D01*
X1168178Y589462D01*
X1168271Y589332D01*
X1168363Y589184D01*
X1168456Y588999D01*
X1168549Y588795D01*
X1168623Y588573D01*
Y588555D01*
X1168660Y588462D01*
X1168678Y588351D01*
X1168715Y588184D01*
X1168752Y587981D01*
X1168771Y587758D01*
X1168808Y587518D01*
Y587258D01*
Y587018D01*
Y586999D01*
Y586962D01*
X1168789Y586851D01*
X1168734Y586703D01*
X1168641Y586573D01*
X1168623Y586555D01*
X1168549Y586518D01*
X1168437Y586462D01*
X1168289Y586444D01*
X1163549D01*
Y586425D01*
Y586333D01*
Y586222D01*
X1163568Y586073D01*
Y585907D01*
X1163605Y585722D01*
X1163660Y585351D01*
Y585333D01*
X1163679Y585277D01*
X1163716Y585185D01*
X1163753Y585074D01*
X1163882Y584796D01*
X1164067Y584518D01*
X1164086Y584500D01*
X1164123Y584463D01*
X1164178Y584407D01*
X1164271Y584333D01*
X1164364Y584240D01*
X1164493Y584166D01*
X1164790Y584000D01*
X1164808D01*
X1164864Y583981D01*
X1164975Y583944D01*
X1165104Y583926D01*
X1165271Y583889D01*
X1165456Y583852D01*
X1165660Y583833D01*
X1166086D01*
X1166215Y583852D01*
X1166512Y583870D01*
X1166808Y583907D01*
X1166826D01*
X1166882Y583926D01*
X1166956Y583944D01*
X1167049Y583963D01*
X1167271Y584018D01*
X1167512Y584092D01*
X1167530D01*
X1167567Y584111D01*
X1167678Y584166D01*
X1167845Y584222D01*
X1167993Y584277D01*
X1168011D01*
X1168030Y584296D01*
X1168104Y584333D01*
X1168197Y584351D01*
X1168289Y584370D01*
X1168326D01*
X1168382Y584333D01*
X1168400D01*
X1168419Y584314D01*
X1168456Y584240D01*
Y584222D01*
X1168474Y584203D01*
X1168493Y584092D01*
Y584074D01*
X1168511Y584037D01*
Y583944D01*
Y583852D01*
Y583833D01*
Y583796D01*
X1168493Y583666D01*
Y583648D01*
Y583629D01*
X1168474Y583518D01*
X1168456Y583481D01*
X1168419Y583407D01*
X1168400Y583388D01*
X1168363Y583333D01*
X1168326Y583296D01*
X1168234Y583259D01*
X1168104Y583185D01*
X1168085D01*
X1168067Y583166D01*
X1168011Y583148D01*
X1167956Y583129D01*
X1167771Y583074D01*
X1167530Y583000D01*
X1167512D01*
X1167475Y582981D01*
X1167400Y582963D01*
X1167308Y582944D01*
X1167197Y582926D01*
X1167049Y582889D01*
X1166734Y582833D01*
X1166715D01*
X1166660Y582814D01*
X1166567D01*
X1166456Y582796D01*
X1166308Y582777D01*
X1166141D01*
X1165771Y582759D01*
X1165623D01*
X1165456Y582777D01*
X1165253Y582796D01*
X1164993Y582814D01*
X1164734Y582870D01*
X1164475Y582926D01*
X1164216Y583000D01*
X1164178Y583018D01*
X1164105Y583037D01*
X1163975Y583111D01*
X1163827Y583185D01*
X1163642Y583277D01*
X1163456Y583407D01*
X1163271Y583555D01*
X1163086Y583722D01*
X1163067Y583740D01*
X1163012Y583814D01*
X1162938Y583926D01*
X1162827Y584055D01*
X1162716Y584240D01*
X1162605Y584444D01*
X1162494Y584685D01*
X1162401Y584944D01*
Y584981D01*
X1162364Y585074D01*
X1162327Y585222D01*
X1162290Y585444D01*
X1162253Y585685D01*
X1162216Y585981D01*
X1162197Y586314D01*
X1162179Y586666D01*
Y586684D01*
Y586703D01*
Y586814D01*
X1162197Y586999D01*
X1162216Y587221D01*
X1162234Y587481D01*
X1162271Y587758D01*
X1162327Y588055D01*
X1162401Y588332D01*
X1162420Y588369D01*
X1162438Y588462D01*
X1162494Y588592D01*
X1162586Y588777D01*
X1162679Y588962D01*
X1162790Y589184D01*
X1162938Y589388D01*
X1163086Y589592D01*
X1163105Y589610D01*
X1163160Y589684D01*
X1163271Y589777D01*
X1163401Y589888D01*
X1163549Y590018D01*
X1163734Y590147D01*
X1163956Y590277D01*
X1164178Y590388D01*
X1164216Y590406D01*
X1164290Y590425D01*
X1164419Y590480D01*
X1164604Y590536D01*
X1164808Y590573D01*
X1165067Y590629D01*
X1165327Y590647D01*
X1165623Y590666D01*
X1165771D01*
X1165919Y590647D01*
D02*
G37*
%LPC*%
G36*
X1151495Y586388D02*
X1150162D01*
X1150032Y586370D01*
X1149884D01*
X1149717Y586351D01*
X1149402Y586296D01*
X1149384D01*
X1149347Y586277D01*
X1149273Y586259D01*
X1149180Y586222D01*
X1148958Y586147D01*
X1148754Y586018D01*
X1148736D01*
X1148717Y585981D01*
X1148606Y585888D01*
X1148476Y585759D01*
X1148365Y585574D01*
Y585555D01*
X1148347Y585536D01*
X1148328Y585481D01*
X1148310Y585407D01*
X1148273Y585222D01*
X1148254Y585000D01*
Y584981D01*
Y584907D01*
X1148273Y584814D01*
X1148291Y584685D01*
X1148347Y584537D01*
X1148402Y584388D01*
X1148495Y584240D01*
X1148606Y584111D01*
X1148625Y584092D01*
X1148680Y584055D01*
X1148754Y584018D01*
X1148865Y583963D01*
X1148995Y583889D01*
X1149162Y583852D01*
X1149365Y583814D01*
X1149587Y583796D01*
X1149680D01*
X1149773Y583814D01*
X1149902Y583833D01*
X1150050Y583852D01*
X1150217Y583907D01*
X1150384Y583963D01*
X1150550Y584055D01*
X1150569Y584074D01*
X1150624Y584111D01*
X1150717Y584166D01*
X1150828Y584259D01*
X1150976Y584370D01*
X1151143Y584500D01*
X1151310Y584666D01*
X1151495Y584851D01*
Y586388D01*
D02*
G37*
G36*
X1165567Y589629D02*
X1165382D01*
X1165271Y589610D01*
X1164993Y589555D01*
X1164697Y589444D01*
X1164678D01*
X1164641Y589406D01*
X1164567Y589369D01*
X1164475Y589314D01*
X1164271Y589147D01*
X1164067Y588943D01*
X1164049Y588925D01*
X1164030Y588888D01*
X1163975Y588832D01*
X1163938Y588740D01*
X1163864Y588647D01*
X1163808Y588518D01*
X1163679Y588240D01*
Y588221D01*
X1163660Y588166D01*
X1163642Y588092D01*
X1163623Y587981D01*
X1163586Y587851D01*
X1163568Y587721D01*
X1163549Y587407D01*
X1167475D01*
Y587425D01*
Y587462D01*
Y587499D01*
Y587573D01*
X1167456Y587758D01*
X1167419Y587999D01*
X1167363Y588258D01*
X1167271Y588536D01*
X1167160Y588795D01*
X1166993Y589036D01*
X1166975Y589055D01*
X1166900Y589129D01*
X1166789Y589221D01*
X1166641Y589332D01*
X1166438Y589444D01*
X1166197Y589536D01*
X1165901Y589610D01*
X1165567Y589629D01*
D02*
G37*
%LPD*%
D88*
X835000Y975000D02*
D03*
X50000Y795000D02*
D03*
X950000Y95000D02*
D03*
D89*
X133700Y964000D02*
D03*
X48300D02*
D03*
X133700Y916700D02*
D03*
X48300D02*
D03*
D90*
X67000Y912200D02*
D03*
X115000D02*
D03*
X75000D02*
D03*
X107000D02*
D03*
X83000D02*
D03*
X99000D02*
D03*
X63000Y905200D02*
D03*
X119000D02*
D03*
X71000D02*
D03*
X111000D02*
D03*
X79000D02*
D03*
X103000D02*
D03*
X87000D02*
D03*
X95000D02*
D03*
D91*
X600000Y911000D02*
D03*
X650000D02*
D03*
M02*
