G04*
G04 #@! TF.GenerationSoftware,Altium Limited,Altium Designer,21.2.2 (38)*
G04*
G04 Layer_Color=32896*
%FSLAX44Y44*%
%MOMM*%
G71*
G04*
G04 #@! TF.SameCoordinates,1D3918CC-9385-454E-ACC4-38365C0A3FBC*
G04*
G04*
G04 #@! TF.FilePolarity,Positive*
G04*
G01*
G75*
G36*
X1183603Y730647D02*
X1183621D01*
X1183677Y730629D01*
X1183769Y730610D01*
X1183862Y730592D01*
X1183880D01*
X1183954Y730573D01*
X1184028Y730555D01*
X1184121Y730518D01*
X1184139D01*
X1184195Y730499D01*
X1184250Y730480D01*
X1184288Y730443D01*
X1184306D01*
X1184325Y730425D01*
X1184362Y730369D01*
X1184380Y730351D01*
Y730277D01*
Y730258D01*
X1184399Y730240D01*
Y730184D01*
Y730110D01*
Y730092D01*
X1184417Y730036D01*
Y729962D01*
Y729832D01*
Y729795D01*
Y729721D01*
Y729629D01*
X1184399Y729536D01*
Y729518D01*
Y729481D01*
X1184362Y729351D01*
Y729332D01*
X1184343Y729314D01*
X1184306Y729240D01*
X1184288Y729221D01*
X1184213Y729203D01*
X1184158D01*
X1184047Y729240D01*
X1184028D01*
X1183991Y729258D01*
X1183917Y729295D01*
X1183843Y729314D01*
X1183825D01*
X1183769Y729332D01*
X1183695Y729369D01*
X1183584Y729388D01*
X1183565D01*
X1183491Y729407D01*
X1183380Y729425D01*
X1183232D01*
X1183139Y729407D01*
X1183028Y729388D01*
X1182880Y729332D01*
X1182843Y729314D01*
X1182769Y729277D01*
X1182640Y729184D01*
X1182473Y729073D01*
X1182436Y729036D01*
X1182343Y728944D01*
X1182195Y728777D01*
X1182029Y728573D01*
X1182010Y728555D01*
X1181992Y728518D01*
X1181936Y728462D01*
X1181880Y728370D01*
X1181806Y728258D01*
X1181732Y728129D01*
X1181529Y727833D01*
Y723092D01*
Y723074D01*
Y723055D01*
X1181492Y722981D01*
X1181473Y722963D01*
X1181380Y722907D01*
X1181362D01*
X1181325Y722889D01*
X1181269D01*
X1181177Y722870D01*
X1181103D01*
X1180992Y722852D01*
X1180640D01*
X1180529Y722870D01*
X1180510D01*
X1180473Y722889D01*
X1180343Y722907D01*
X1180325D01*
X1180306Y722926D01*
X1180232Y722981D01*
Y723018D01*
X1180214Y723092D01*
Y730295D01*
Y730314D01*
Y730332D01*
X1180232Y730406D01*
X1180251Y730425D01*
X1180288Y730462D01*
X1180325Y730480D01*
X1180343D01*
X1180381Y730499D01*
X1180436Y730518D01*
X1180510Y730536D01*
X1180529D01*
X1180584Y730555D01*
X1180992D01*
X1181084Y730536D01*
X1181103D01*
X1181158Y730518D01*
X1181214Y730499D01*
X1181269Y730480D01*
X1181288D01*
X1181306Y730462D01*
X1181343Y730443D01*
X1181362Y730406D01*
X1181380Y730388D01*
X1181399Y730295D01*
Y729240D01*
X1181417Y729258D01*
X1181454Y729314D01*
X1181510Y729388D01*
X1181584Y729499D01*
X1181751Y729721D01*
X1181954Y729943D01*
X1181973Y729962D01*
X1181992Y729999D01*
X1182121Y730110D01*
X1182269Y730240D01*
X1182436Y730369D01*
X1182454D01*
X1182473Y730388D01*
X1182584Y730462D01*
X1182732Y730536D01*
X1182899Y730592D01*
X1182917D01*
X1182936Y730610D01*
X1183047Y730629D01*
X1183195Y730647D01*
X1183362Y730666D01*
X1183510D01*
X1183603Y730647D01*
D02*
G37*
G36*
X1145458Y730647D02*
X1145625Y730629D01*
X1145810Y730610D01*
X1146014Y730555D01*
X1146199Y730499D01*
X1146384Y730406D01*
X1146403Y730388D01*
X1146458Y730369D01*
X1146551Y730314D01*
X1146662Y730240D01*
X1146773Y730147D01*
X1146903Y730036D01*
X1147032Y729906D01*
X1147143Y729758D01*
X1147162Y729740D01*
X1147199Y729684D01*
X1147236Y729592D01*
X1147310Y729481D01*
X1147384Y729351D01*
X1147439Y729184D01*
X1147514Y728999D01*
X1147569Y728795D01*
Y728777D01*
X1147588Y728703D01*
X1147606Y728592D01*
X1147643Y728444D01*
X1147662Y728277D01*
X1147680Y728092D01*
X1147699Y727647D01*
Y723092D01*
Y723074D01*
Y723055D01*
X1147662Y722981D01*
X1147643Y722963D01*
X1147551Y722907D01*
X1147532D01*
X1147495Y722889D01*
X1147439D01*
X1147347Y722870D01*
X1147254D01*
X1147162Y722852D01*
X1146810D01*
X1146699Y722870D01*
X1146680D01*
X1146625Y722889D01*
X1146551D01*
X1146495Y722907D01*
X1146477D01*
X1146458Y722926D01*
X1146384Y722981D01*
Y723018D01*
X1146366Y723092D01*
Y727462D01*
Y727481D01*
Y727536D01*
Y727629D01*
X1146347Y727740D01*
X1146329Y728018D01*
X1146273Y728295D01*
Y728314D01*
X1146255Y728370D01*
X1146236Y728425D01*
X1146217Y728518D01*
X1146125Y728740D01*
X1146014Y728943D01*
Y728962D01*
X1145977Y728999D01*
X1145903Y729110D01*
X1145754Y729240D01*
X1145569Y729369D01*
X1145551D01*
X1145514Y729388D01*
X1145458Y729425D01*
X1145384Y729444D01*
X1145181Y729499D01*
X1144940Y729518D01*
X1144866D01*
X1144773Y729499D01*
X1144643Y729481D01*
X1144514Y729425D01*
X1144347Y729369D01*
X1144181Y729277D01*
X1144014Y729147D01*
X1143996Y729129D01*
X1143940Y729092D01*
X1143847Y728999D01*
X1143718Y728888D01*
X1143570Y728740D01*
X1143403Y728573D01*
X1143218Y728370D01*
X1143014Y728129D01*
Y723092D01*
Y723074D01*
Y723055D01*
X1142977Y722981D01*
X1142959Y722963D01*
X1142866Y722907D01*
X1142847D01*
X1142810Y722889D01*
X1142755D01*
X1142662Y722870D01*
X1142570D01*
X1142477Y722852D01*
X1142144D01*
X1142033Y722870D01*
X1142014D01*
X1141959Y722889D01*
X1141885D01*
X1141829Y722907D01*
X1141811D01*
X1141792Y722926D01*
X1141718Y722981D01*
Y723018D01*
X1141699Y723092D01*
Y727462D01*
Y727481D01*
Y727536D01*
Y727629D01*
X1141681Y727740D01*
X1141662Y728018D01*
X1141607Y728295D01*
Y728314D01*
X1141588Y728370D01*
X1141570Y728425D01*
X1141533Y728518D01*
X1141459Y728740D01*
X1141329Y728943D01*
Y728962D01*
X1141292Y728999D01*
X1141218Y729110D01*
X1141070Y729240D01*
X1140885Y729369D01*
X1140866D01*
X1140848Y729388D01*
X1140792Y729425D01*
X1140718Y729444D01*
X1140514Y729499D01*
X1140255Y729518D01*
X1140181D01*
X1140088Y729499D01*
X1139959Y729481D01*
X1139829Y729425D01*
X1139663Y729369D01*
X1139496Y729277D01*
X1139329Y729147D01*
X1139311Y729129D01*
X1139255Y729092D01*
X1139163Y728999D01*
X1139033Y728888D01*
X1138885Y728740D01*
X1138718Y728573D01*
X1138533Y728370D01*
X1138329Y728129D01*
Y723092D01*
Y723074D01*
Y723055D01*
X1138292Y722981D01*
X1138274Y722963D01*
X1138181Y722907D01*
X1138163D01*
X1138126Y722889D01*
X1138070D01*
X1137978Y722870D01*
X1137904D01*
X1137792Y722852D01*
X1137441D01*
X1137329Y722870D01*
X1137311D01*
X1137274Y722889D01*
X1137144Y722907D01*
X1137126D01*
X1137107Y722926D01*
X1137033Y722981D01*
Y723018D01*
X1137015Y723092D01*
Y730295D01*
Y730314D01*
Y730332D01*
X1137033Y730406D01*
X1137052Y730425D01*
X1137089Y730462D01*
X1137126Y730480D01*
X1137144D01*
X1137181Y730499D01*
X1137237Y730517D01*
X1137311Y730536D01*
X1137329D01*
X1137385Y730555D01*
X1137792D01*
X1137885Y730536D01*
X1137904D01*
X1137959Y730517D01*
X1138015Y730499D01*
X1138070Y730480D01*
X1138089D01*
X1138107Y730462D01*
X1138144Y730443D01*
X1138163Y730406D01*
X1138181Y730388D01*
X1138200Y730295D01*
Y729351D01*
X1138218Y729388D01*
X1138311Y729462D01*
X1138422Y729573D01*
X1138570Y729721D01*
X1138737Y729888D01*
X1138940Y730054D01*
X1139144Y730203D01*
X1139366Y730332D01*
X1139385Y730351D01*
X1139459Y730388D01*
X1139588Y730443D01*
X1139737Y730499D01*
X1139903Y730555D01*
X1140107Y730610D01*
X1140311Y730647D01*
X1140533Y730666D01*
X1140699D01*
X1140792Y730647D01*
X1141051Y730629D01*
X1141329Y730555D01*
X1141348D01*
X1141385Y730536D01*
X1141459Y730517D01*
X1141551Y730480D01*
X1141755Y730388D01*
X1141959Y730258D01*
X1141977D01*
X1142014Y730221D01*
X1142125Y730129D01*
X1142273Y729999D01*
X1142421Y729814D01*
X1142440Y729795D01*
X1142459Y729777D01*
X1142496Y729721D01*
X1142533Y729647D01*
X1142644Y729462D01*
X1142755Y729240D01*
X1142773Y729258D01*
X1142810Y729314D01*
X1142885Y729369D01*
X1142977Y729462D01*
X1143181Y729684D01*
X1143421Y729888D01*
X1143440Y729906D01*
X1143477Y729943D01*
X1143551Y729980D01*
X1143625Y730054D01*
X1143829Y730184D01*
X1144051Y730332D01*
X1144070D01*
X1144107Y730369D01*
X1144162Y730388D01*
X1144236Y730425D01*
X1144440Y730499D01*
X1144643Y730573D01*
X1144662D01*
X1144699Y730592D01*
X1144755Y730610D01*
X1144829Y730629D01*
X1144995Y730647D01*
X1145218Y730666D01*
X1145329D01*
X1145458Y730647D01*
D02*
G37*
G36*
X1203063Y730536D02*
X1203175Y730518D01*
X1203193D01*
X1203249Y730499D01*
X1203323Y730480D01*
X1203378Y730443D01*
X1203397Y730425D01*
X1203415Y730406D01*
X1203434Y730351D01*
X1203452Y730295D01*
Y730277D01*
Y730240D01*
X1203434Y730147D01*
X1203397Y730054D01*
X1200823Y722907D01*
X1199860Y720278D01*
X1199842Y720259D01*
X1199805Y720204D01*
X1199730Y720130D01*
X1199601Y720074D01*
X1199564Y720056D01*
X1199453Y720037D01*
X1199379Y720018D01*
X1199286D01*
X1199156Y720000D01*
X1198897D01*
X1198786Y720018D01*
X1198675Y720037D01*
X1198656D01*
X1198619Y720056D01*
X1198490Y720111D01*
X1198471D01*
X1198453Y720148D01*
X1198416Y720167D01*
X1198397Y720222D01*
Y720241D01*
Y720278D01*
X1198416Y720333D01*
X1198453Y720407D01*
X1199434Y722907D01*
X1199397Y722926D01*
X1199360Y722963D01*
X1199305Y723000D01*
Y723018D01*
X1199268Y723055D01*
X1199212Y723148D01*
X1196657Y730036D01*
X1196638Y730073D01*
X1196620Y730129D01*
X1196601Y730221D01*
X1196583Y730295D01*
Y730314D01*
Y730351D01*
X1196601Y730406D01*
X1196638Y730443D01*
X1196657Y730462D01*
X1196694Y730480D01*
X1196768Y730499D01*
X1196860Y730518D01*
X1196879D01*
X1196971Y730536D01*
X1197083Y730555D01*
X1197508D01*
X1197619Y730536D01*
X1197638D01*
X1197694Y730518D01*
X1197768Y730499D01*
X1197823Y730480D01*
X1197842D01*
X1197879Y730462D01*
X1197916Y730443D01*
X1197953Y730388D01*
Y730369D01*
X1197971Y730351D01*
X1198027Y730240D01*
X1200082Y724463D01*
X1200101D01*
X1202101Y730258D01*
Y730277D01*
X1202119Y730351D01*
X1202156Y730406D01*
X1202193Y730462D01*
X1202212D01*
X1202249Y730480D01*
X1202304Y730499D01*
X1202397Y730518D01*
X1202434D01*
X1202508Y730536D01*
X1202637Y730555D01*
X1202934D01*
X1203063Y730536D01*
D02*
G37*
G36*
X1170252Y730536D02*
X1170326D01*
X1170437Y730499D01*
X1170456D01*
X1170474Y730480D01*
X1170511Y730443D01*
X1170530Y730406D01*
X1170548Y730388D01*
X1170567Y730314D01*
Y730295D01*
X1170548Y730240D01*
Y730221D01*
Y730166D01*
Y730147D01*
X1170530Y730073D01*
X1170511Y730054D01*
X1170493Y729980D01*
X1168048Y723129D01*
Y723111D01*
X1168030Y723074D01*
X1167956Y722981D01*
X1167937D01*
X1167919Y722944D01*
X1167863Y722926D01*
X1167789Y722907D01*
X1167771D01*
X1167715Y722889D01*
X1167641D01*
X1167530Y722870D01*
X1167419D01*
X1167308Y722852D01*
X1166863D01*
X1166734Y722870D01*
X1166715D01*
X1166641Y722889D01*
X1166567D01*
X1166475Y722907D01*
X1166456D01*
X1166419Y722926D01*
X1166327Y723000D01*
Y723018D01*
X1166289Y723037D01*
X1166234Y723129D01*
X1163790Y729980D01*
Y729999D01*
X1163771Y730036D01*
X1163734Y730147D01*
Y730166D01*
Y730184D01*
X1163716Y730258D01*
Y730277D01*
Y730314D01*
Y730332D01*
Y730351D01*
X1163734Y730425D01*
Y730443D01*
X1163771Y730462D01*
X1163845Y730499D01*
X1163864D01*
X1163901Y730517D01*
X1163956Y730536D01*
X1164067D01*
X1164141Y730555D01*
X1164604D01*
X1164715Y730536D01*
X1164734D01*
X1164808Y730517D01*
X1164864Y730499D01*
X1164938Y730480D01*
X1164956D01*
X1164975Y730462D01*
X1165049Y730406D01*
X1165067Y730388D01*
X1165123Y730295D01*
X1167160Y724351D01*
X1167197Y724259D01*
X1167215Y724351D01*
X1169215Y730295D01*
Y730314D01*
X1169234Y730332D01*
X1169271Y730406D01*
Y730425D01*
X1169308Y730443D01*
X1169382Y730480D01*
X1169400D01*
X1169437Y730499D01*
X1169511Y730517D01*
X1169604Y730536D01*
X1169622D01*
X1169697Y730555D01*
X1170159D01*
X1170252Y730536D01*
D02*
G37*
G36*
X1103407Y733239D02*
X1103648Y733221D01*
X1103907Y733184D01*
X1104148Y733128D01*
X1104388Y733073D01*
X1104407D01*
X1104481Y733036D01*
X1104592Y732999D01*
X1104740Y732943D01*
X1105055Y732776D01*
X1105222Y732665D01*
X1105370Y732554D01*
X1105388Y732536D01*
X1105444Y732499D01*
X1105518Y732425D01*
X1105592Y732332D01*
X1105703Y732202D01*
X1105796Y732054D01*
X1105888Y731906D01*
X1105981Y731721D01*
X1105999Y731702D01*
X1106018Y731628D01*
X1106055Y731536D01*
X1106092Y731406D01*
X1106129Y731240D01*
X1106148Y731054D01*
X1106185Y730851D01*
Y730629D01*
Y730610D01*
Y730573D01*
Y730499D01*
X1106166Y730406D01*
X1106148Y730184D01*
X1106092Y729925D01*
Y729906D01*
X1106074Y729869D01*
X1106055Y729795D01*
X1106018Y729721D01*
X1105944Y729518D01*
X1105814Y729295D01*
Y729277D01*
X1105777Y729258D01*
X1105703Y729129D01*
X1105574Y728962D01*
X1105388Y728795D01*
X1105370D01*
X1105351Y728758D01*
X1105296Y728721D01*
X1105222Y728666D01*
X1105036Y728555D01*
X1104796Y728425D01*
X1104814D01*
X1104870Y728407D01*
X1104944Y728388D01*
X1105055Y728370D01*
X1105314Y728277D01*
X1105592Y728129D01*
X1105611D01*
X1105648Y728092D01*
X1105722Y728055D01*
X1105814Y727981D01*
X1106018Y727814D01*
X1106222Y727592D01*
X1106240Y727573D01*
X1106277Y727536D01*
X1106314Y727462D01*
X1106388Y727370D01*
X1106444Y727259D01*
X1106518Y727129D01*
X1106666Y726814D01*
Y726796D01*
X1106684Y726740D01*
X1106721Y726647D01*
X1106759Y726536D01*
X1106777Y726388D01*
X1106814Y726240D01*
X1106833Y725870D01*
Y725851D01*
Y725777D01*
Y725685D01*
X1106814Y725574D01*
X1106796Y725425D01*
X1106777Y725277D01*
X1106703Y724962D01*
Y724944D01*
X1106684Y724888D01*
X1106647Y724814D01*
X1106610Y724722D01*
X1106499Y724481D01*
X1106351Y724222D01*
X1106333Y724203D01*
X1106314Y724166D01*
X1106259Y724111D01*
X1106203Y724018D01*
X1106036Y723833D01*
X1105814Y723648D01*
X1105796Y723629D01*
X1105759Y723611D01*
X1105685Y723555D01*
X1105611Y723500D01*
X1105499Y723444D01*
X1105370Y723370D01*
X1105092Y723240D01*
X1105074D01*
X1105018Y723222D01*
X1104944Y723185D01*
X1104833Y723148D01*
X1104722Y723111D01*
X1104574Y723055D01*
X1104240Y722981D01*
X1104222D01*
X1104166Y722963D01*
X1104074D01*
X1103944Y722944D01*
X1103796Y722926D01*
X1103611D01*
X1103426Y722907D01*
X1100463D01*
X1100389Y722926D01*
X1100278Y722963D01*
X1100148Y723018D01*
X1100130Y723037D01*
X1100074Y723129D01*
X1100018Y723259D01*
X1100000Y723463D01*
Y732684D01*
Y732702D01*
Y732739D01*
X1100018Y732850D01*
X1100056Y732999D01*
X1100148Y733128D01*
X1100185Y733147D01*
X1100259Y733202D01*
X1100370Y733239D01*
X1100500Y733258D01*
X1103203D01*
X1103407Y733239D01*
D02*
G37*
G36*
X1192731Y730647D02*
X1192935Y730629D01*
X1193157Y730592D01*
X1193379Y730536D01*
X1193583Y730480D01*
X1193601D01*
X1193676Y730443D01*
X1193768Y730406D01*
X1193898Y730351D01*
X1194194Y730184D01*
X1194342Y730073D01*
X1194472Y729962D01*
X1194490Y729943D01*
X1194527Y729906D01*
X1194583Y729832D01*
X1194657Y729740D01*
X1194731Y729610D01*
X1194824Y729462D01*
X1194898Y729295D01*
X1194953Y729110D01*
Y729092D01*
X1194972Y729018D01*
X1195009Y728925D01*
X1195046Y728777D01*
X1195064Y728610D01*
X1195101Y728407D01*
X1195120Y728184D01*
Y727944D01*
Y723074D01*
Y723055D01*
Y723018D01*
X1195083Y722981D01*
X1195046Y722944D01*
X1195027D01*
X1195009Y722926D01*
X1194953Y722907D01*
X1194861Y722889D01*
X1194842D01*
X1194787Y722870D01*
X1194675Y722852D01*
X1194435D01*
X1194324Y722870D01*
X1194212Y722889D01*
X1194194D01*
X1194138Y722907D01*
X1194083Y722926D01*
X1194027Y722944D01*
X1194009Y722981D01*
X1193990Y723018D01*
X1193972Y723074D01*
Y723796D01*
X1193953Y723777D01*
X1193898Y723722D01*
X1193787Y723629D01*
X1193676Y723518D01*
X1193509Y723389D01*
X1193324Y723259D01*
X1193139Y723129D01*
X1192916Y723018D01*
X1192898Y723000D01*
X1192824Y722981D01*
X1192694Y722944D01*
X1192546Y722889D01*
X1192361Y722833D01*
X1192157Y722796D01*
X1191935Y722777D01*
X1191694Y722759D01*
X1191490D01*
X1191342Y722777D01*
X1191194Y722796D01*
X1191009Y722815D01*
X1190657Y722907D01*
X1190639D01*
X1190583Y722926D01*
X1190491Y722963D01*
X1190398Y723000D01*
X1190139Y723129D01*
X1189880Y723315D01*
X1189861Y723333D01*
X1189824Y723370D01*
X1189769Y723426D01*
X1189694Y723518D01*
X1189620Y723611D01*
X1189528Y723740D01*
X1189380Y724018D01*
Y724037D01*
X1189361Y724092D01*
X1189324Y724166D01*
X1189306Y724296D01*
X1189268Y724426D01*
X1189231Y724574D01*
X1189213Y724944D01*
Y724962D01*
Y725036D01*
X1189231Y725148D01*
X1189250Y725296D01*
X1189268Y725462D01*
X1189324Y725629D01*
X1189380Y725814D01*
X1189454Y725981D01*
X1189472Y725999D01*
X1189491Y726055D01*
X1189546Y726148D01*
X1189639Y726259D01*
X1189732Y726370D01*
X1189861Y726499D01*
X1189991Y726629D01*
X1190157Y726740D01*
X1190176Y726759D01*
X1190250Y726796D01*
X1190342Y726851D01*
X1190472Y726907D01*
X1190639Y726981D01*
X1190824Y727055D01*
X1191046Y727129D01*
X1191287Y727185D01*
X1191324D01*
X1191416Y727203D01*
X1191546Y727240D01*
X1191731Y727259D01*
X1191953Y727296D01*
X1192213Y727314D01*
X1192509Y727333D01*
X1193805D01*
Y727888D01*
Y727907D01*
Y727962D01*
Y728036D01*
X1193787Y728129D01*
X1193768Y728370D01*
X1193712Y728610D01*
Y728629D01*
X1193694Y728666D01*
X1193676Y728721D01*
X1193639Y728795D01*
X1193546Y728981D01*
X1193416Y729147D01*
Y729166D01*
X1193379Y729184D01*
X1193287Y729277D01*
X1193120Y729388D01*
X1192916Y729481D01*
X1192898D01*
X1192861Y729499D01*
X1192787Y729518D01*
X1192713Y729536D01*
X1192601Y729555D01*
X1192472Y729573D01*
X1192157Y729592D01*
X1191972D01*
X1191861Y729573D01*
X1191565Y729536D01*
X1191268Y729462D01*
X1191250D01*
X1191213Y729444D01*
X1191139Y729425D01*
X1191046Y729388D01*
X1190824Y729314D01*
X1190602Y729203D01*
X1190583D01*
X1190546Y729184D01*
X1190491Y729166D01*
X1190435Y729129D01*
X1190268Y729055D01*
X1190102Y728962D01*
X1190065Y728944D01*
X1189991Y728906D01*
X1189898Y728869D01*
X1189824Y728851D01*
X1189787D01*
X1189694Y728869D01*
X1189676Y728888D01*
X1189620Y728962D01*
Y728981D01*
X1189602Y729018D01*
X1189565Y729129D01*
Y729147D01*
Y729203D01*
Y729277D01*
Y729351D01*
Y729369D01*
Y729388D01*
Y729462D01*
Y729573D01*
X1189583Y729666D01*
Y729684D01*
X1189620Y729740D01*
X1189657Y729814D01*
X1189713Y729888D01*
X1189732Y729906D01*
X1189806Y729962D01*
X1189917Y730036D01*
X1190083Y730129D01*
X1190102D01*
X1190139Y730147D01*
X1190194Y730184D01*
X1190268Y730221D01*
X1190454Y730295D01*
X1190694Y730388D01*
X1190713D01*
X1190750Y730406D01*
X1190824Y730425D01*
X1190917Y730462D01*
X1191028Y730480D01*
X1191157Y730518D01*
X1191453Y730573D01*
X1191472D01*
X1191528Y730592D01*
X1191602Y730610D01*
X1191713Y730629D01*
X1191824D01*
X1191972Y730647D01*
X1192268Y730666D01*
X1192546D01*
X1192731Y730647D01*
D02*
G37*
G36*
X1186898Y734036D02*
X1186917D01*
X1186973Y734017D01*
X1187047Y733999D01*
X1187102Y733980D01*
X1187121D01*
X1187139Y733961D01*
X1187213Y733887D01*
X1187232Y733869D01*
X1187250Y733795D01*
Y723092D01*
Y723074D01*
Y723055D01*
X1187213Y722981D01*
X1187195Y722963D01*
X1187102Y722907D01*
X1187084D01*
X1187047Y722889D01*
X1186991D01*
X1186898Y722870D01*
X1186824D01*
X1186713Y722852D01*
X1186361D01*
X1186250Y722870D01*
X1186232D01*
X1186195Y722889D01*
X1186065Y722907D01*
X1186047D01*
X1186028Y722926D01*
X1185954Y722981D01*
Y723018D01*
X1185936Y723092D01*
Y733795D01*
Y733813D01*
Y733832D01*
X1185954Y733887D01*
Y733906D01*
X1185991Y733924D01*
X1186065Y733980D01*
X1186084D01*
X1186121Y733999D01*
X1186176Y734017D01*
X1186250Y734036D01*
X1186269D01*
X1186343Y734054D01*
X1186806D01*
X1186898Y734036D01*
D02*
G37*
G36*
X1124164Y732462D02*
X1124183D01*
X1124238Y732443D01*
X1124312Y732425D01*
X1124368Y732406D01*
X1124386D01*
X1124405Y732388D01*
X1124479Y732314D01*
X1124498Y732295D01*
X1124516Y732221D01*
Y730517D01*
X1126386D01*
X1126460Y730480D01*
X1126479D01*
X1126497Y730462D01*
X1126553Y730369D01*
Y730351D01*
X1126571Y730332D01*
X1126590Y730277D01*
X1126608Y730203D01*
Y730184D01*
X1126627Y730147D01*
Y730054D01*
Y729962D01*
Y729943D01*
Y729906D01*
Y729795D01*
X1126590Y729666D01*
X1126553Y729536D01*
X1126534Y729518D01*
X1126497Y729481D01*
X1126442Y729444D01*
X1126349Y729425D01*
X1124516D01*
Y725407D01*
Y725370D01*
Y725277D01*
X1124535Y725148D01*
Y724981D01*
X1124609Y724611D01*
X1124646Y724444D01*
X1124720Y724277D01*
X1124738Y724259D01*
X1124757Y724222D01*
X1124812Y724166D01*
X1124905Y724092D01*
X1125016Y724018D01*
X1125146Y723963D01*
X1125312Y723925D01*
X1125516Y723907D01*
X1125720D01*
X1125831Y723925D01*
X1125849D01*
X1125923Y723944D01*
X1125997Y723981D01*
X1126090Y724000D01*
X1126108Y724018D01*
X1126164Y724037D01*
X1126275Y724092D01*
X1126294D01*
X1126331Y724111D01*
X1126442Y724129D01*
X1126460D01*
X1126516Y724092D01*
X1126534Y724074D01*
X1126571Y724018D01*
Y724000D01*
X1126590Y723981D01*
X1126608Y723870D01*
Y723851D01*
X1126627Y723814D01*
Y723722D01*
Y723629D01*
Y723592D01*
Y723500D01*
X1126608Y723389D01*
X1126590Y723259D01*
Y723240D01*
X1126571Y723185D01*
X1126534Y723111D01*
X1126479Y723055D01*
X1126460D01*
X1126442Y723018D01*
X1126386Y722981D01*
X1126294Y722944D01*
X1126275D01*
X1126201Y722926D01*
X1126108Y722907D01*
X1125997Y722870D01*
X1125979D01*
X1125905Y722852D01*
X1125794Y722833D01*
X1125664Y722814D01*
X1125627D01*
X1125553Y722796D01*
X1125423Y722777D01*
X1125090D01*
X1124960Y722796D01*
X1124812Y722814D01*
X1124646Y722833D01*
X1124331Y722907D01*
X1124312D01*
X1124275Y722944D01*
X1124201Y722963D01*
X1124109Y723018D01*
X1123886Y723166D01*
X1123683Y723352D01*
X1123664Y723370D01*
X1123646Y723407D01*
X1123590Y723481D01*
X1123535Y723574D01*
X1123479Y723685D01*
X1123423Y723814D01*
X1123312Y724129D01*
Y724148D01*
X1123294Y724203D01*
X1123275Y724314D01*
X1123257Y724444D01*
X1123238Y724592D01*
X1123220Y724777D01*
X1123201Y724981D01*
Y725203D01*
Y729425D01*
X1122164D01*
X1122109Y729444D01*
X1122035Y729481D01*
X1121979Y729536D01*
Y729555D01*
X1121961Y729647D01*
X1121942Y729777D01*
X1121924Y729962D01*
Y729980D01*
Y730054D01*
Y730129D01*
X1121942Y730203D01*
Y730221D01*
X1121961Y730258D01*
Y730314D01*
X1121979Y730369D01*
Y730388D01*
X1121998Y730406D01*
X1122072Y730480D01*
X1122090D01*
X1122109Y730499D01*
X1122183Y730517D01*
X1123201D01*
Y732221D01*
Y732240D01*
Y732258D01*
X1123220Y732314D01*
Y732332D01*
X1123257Y732351D01*
X1123331Y732406D01*
X1123349D01*
X1123387Y732425D01*
X1123442Y732443D01*
X1123516Y732462D01*
X1123535D01*
X1123609Y732480D01*
X1124072D01*
X1124164Y732462D01*
D02*
G37*
G36*
X1118683D02*
X1118702D01*
X1118757Y732443D01*
X1118831Y732425D01*
X1118887Y732406D01*
X1118905D01*
X1118924Y732388D01*
X1118998Y732314D01*
X1119017Y732295D01*
X1119035Y732221D01*
Y730517D01*
X1120905D01*
X1120979Y730480D01*
X1120998D01*
X1121016Y730462D01*
X1121072Y730369D01*
Y730351D01*
X1121090Y730332D01*
X1121109Y730277D01*
X1121127Y730203D01*
Y730184D01*
X1121146Y730147D01*
Y730054D01*
Y729962D01*
Y729943D01*
Y729906D01*
Y729795D01*
X1121109Y729666D01*
X1121072Y729536D01*
X1121053Y729518D01*
X1121016Y729481D01*
X1120961Y729444D01*
X1120868Y729425D01*
X1119035D01*
Y725407D01*
Y725370D01*
Y725277D01*
X1119054Y725148D01*
Y724981D01*
X1119128Y724611D01*
X1119165Y724444D01*
X1119239Y724277D01*
X1119257Y724259D01*
X1119276Y724222D01*
X1119331Y724166D01*
X1119424Y724092D01*
X1119535Y724018D01*
X1119665Y723963D01*
X1119831Y723925D01*
X1120035Y723907D01*
X1120239D01*
X1120350Y723925D01*
X1120368D01*
X1120442Y723944D01*
X1120516Y723981D01*
X1120609Y724000D01*
X1120628Y724018D01*
X1120683Y724037D01*
X1120794Y724092D01*
X1120813D01*
X1120850Y724111D01*
X1120961Y724129D01*
X1120979D01*
X1121035Y724092D01*
X1121053Y724074D01*
X1121090Y724018D01*
Y724000D01*
X1121109Y723981D01*
X1121127Y723870D01*
Y723851D01*
X1121146Y723814D01*
Y723722D01*
Y723629D01*
Y723592D01*
Y723500D01*
X1121127Y723389D01*
X1121109Y723259D01*
Y723240D01*
X1121090Y723185D01*
X1121053Y723111D01*
X1120998Y723055D01*
X1120979D01*
X1120961Y723018D01*
X1120905Y722981D01*
X1120813Y722944D01*
X1120794D01*
X1120720Y722926D01*
X1120628Y722907D01*
X1120516Y722870D01*
X1120498D01*
X1120424Y722852D01*
X1120313Y722833D01*
X1120183Y722814D01*
X1120146D01*
X1120072Y722796D01*
X1119942Y722777D01*
X1119609D01*
X1119480Y722796D01*
X1119331Y722814D01*
X1119165Y722833D01*
X1118850Y722907D01*
X1118831D01*
X1118794Y722944D01*
X1118720Y722963D01*
X1118628Y723018D01*
X1118406Y723166D01*
X1118202Y723352D01*
X1118183Y723370D01*
X1118165Y723407D01*
X1118109Y723481D01*
X1118054Y723574D01*
X1117998Y723685D01*
X1117943Y723814D01*
X1117831Y724129D01*
Y724148D01*
X1117813Y724203D01*
X1117794Y724314D01*
X1117776Y724444D01*
X1117757Y724592D01*
X1117739Y724777D01*
X1117720Y724981D01*
Y725203D01*
Y729425D01*
X1116684D01*
X1116628Y729444D01*
X1116554Y729481D01*
X1116498Y729536D01*
Y729555D01*
X1116480Y729647D01*
X1116461Y729777D01*
X1116443Y729962D01*
Y729980D01*
Y730054D01*
Y730129D01*
X1116461Y730203D01*
Y730221D01*
X1116480Y730258D01*
Y730314D01*
X1116498Y730369D01*
Y730388D01*
X1116517Y730406D01*
X1116591Y730480D01*
X1116609D01*
X1116628Y730499D01*
X1116702Y730517D01*
X1117720D01*
Y732221D01*
Y732240D01*
Y732258D01*
X1117739Y732314D01*
Y732332D01*
X1117776Y732351D01*
X1117850Y732406D01*
X1117868D01*
X1117906Y732425D01*
X1117961Y732443D01*
X1118035Y732462D01*
X1118054D01*
X1118128Y732480D01*
X1118591D01*
X1118683Y732462D01*
D02*
G37*
G36*
X1175325Y730647D02*
X1175529Y730629D01*
X1175751Y730592D01*
X1175992Y730555D01*
X1176233Y730480D01*
X1176474Y730388D01*
X1176492Y730369D01*
X1176585Y730332D01*
X1176696Y730277D01*
X1176825Y730184D01*
X1176973Y730092D01*
X1177140Y729962D01*
X1177307Y729814D01*
X1177455Y729647D01*
X1177474Y729629D01*
X1177511Y729573D01*
X1177585Y729462D01*
X1177677Y729332D01*
X1177770Y729184D01*
X1177862Y728999D01*
X1177955Y728795D01*
X1178029Y728573D01*
Y728555D01*
X1178066Y728462D01*
X1178084Y728351D01*
X1178121Y728184D01*
X1178159Y727981D01*
X1178177Y727758D01*
X1178214Y727518D01*
Y727259D01*
Y727018D01*
Y726999D01*
Y726962D01*
X1178196Y726851D01*
X1178140Y726703D01*
X1178047Y726573D01*
X1178029Y726555D01*
X1177955Y726518D01*
X1177844Y726462D01*
X1177696Y726444D01*
X1172955D01*
Y726425D01*
Y726333D01*
Y726222D01*
X1172974Y726074D01*
Y725907D01*
X1173011Y725722D01*
X1173066Y725351D01*
Y725333D01*
X1173085Y725277D01*
X1173122Y725185D01*
X1173159Y725074D01*
X1173289Y724796D01*
X1173474Y724518D01*
X1173492Y724500D01*
X1173529Y724463D01*
X1173585Y724407D01*
X1173678Y724333D01*
X1173770Y724240D01*
X1173900Y724166D01*
X1174196Y724000D01*
X1174214D01*
X1174270Y723981D01*
X1174381Y723944D01*
X1174511Y723926D01*
X1174678Y723888D01*
X1174863Y723851D01*
X1175066Y723833D01*
X1175492D01*
X1175622Y723851D01*
X1175918Y723870D01*
X1176214Y723907D01*
X1176233D01*
X1176288Y723926D01*
X1176363Y723944D01*
X1176455Y723963D01*
X1176677Y724018D01*
X1176918Y724092D01*
X1176936D01*
X1176973Y724111D01*
X1177085Y724166D01*
X1177251Y724222D01*
X1177399Y724277D01*
X1177418D01*
X1177436Y724296D01*
X1177511Y724333D01*
X1177603Y724351D01*
X1177696Y724370D01*
X1177733D01*
X1177788Y724333D01*
X1177807D01*
X1177825Y724314D01*
X1177862Y724240D01*
Y724222D01*
X1177881Y724203D01*
X1177899Y724092D01*
Y724074D01*
X1177918Y724037D01*
Y723944D01*
Y723851D01*
Y723833D01*
Y723796D01*
X1177899Y723666D01*
Y723648D01*
Y723629D01*
X1177881Y723518D01*
X1177862Y723481D01*
X1177825Y723407D01*
X1177807Y723389D01*
X1177770Y723333D01*
X1177733Y723296D01*
X1177640Y723259D01*
X1177511Y723185D01*
X1177492D01*
X1177474Y723166D01*
X1177418Y723148D01*
X1177362Y723129D01*
X1177177Y723074D01*
X1176936Y723000D01*
X1176918D01*
X1176881Y722981D01*
X1176807Y722963D01*
X1176714Y722944D01*
X1176603Y722926D01*
X1176455Y722889D01*
X1176140Y722833D01*
X1176122D01*
X1176066Y722815D01*
X1175974D01*
X1175863Y722796D01*
X1175714Y722777D01*
X1175548D01*
X1175177Y722759D01*
X1175029D01*
X1174863Y722777D01*
X1174659Y722796D01*
X1174400Y722815D01*
X1174140Y722870D01*
X1173881Y722926D01*
X1173622Y723000D01*
X1173585Y723018D01*
X1173511Y723037D01*
X1173381Y723111D01*
X1173233Y723185D01*
X1173048Y723278D01*
X1172863Y723407D01*
X1172678Y723555D01*
X1172493Y723722D01*
X1172474Y723740D01*
X1172418Y723814D01*
X1172344Y723925D01*
X1172233Y724055D01*
X1172122Y724240D01*
X1172011Y724444D01*
X1171900Y724685D01*
X1171807Y724944D01*
Y724981D01*
X1171770Y725074D01*
X1171733Y725222D01*
X1171696Y725444D01*
X1171659Y725685D01*
X1171622Y725981D01*
X1171604Y726314D01*
X1171585Y726666D01*
Y726684D01*
Y726703D01*
Y726814D01*
X1171604Y726999D01*
X1171622Y727222D01*
X1171641Y727481D01*
X1171678Y727758D01*
X1171733Y728055D01*
X1171807Y728333D01*
X1171826Y728370D01*
X1171844Y728462D01*
X1171900Y728592D01*
X1171993Y728777D01*
X1172085Y728962D01*
X1172196Y729184D01*
X1172344Y729388D01*
X1172493Y729592D01*
X1172511Y729610D01*
X1172567Y729684D01*
X1172678Y729777D01*
X1172807Y729888D01*
X1172955Y730017D01*
X1173141Y730147D01*
X1173363Y730277D01*
X1173585Y730388D01*
X1173622Y730406D01*
X1173696Y730425D01*
X1173826Y730480D01*
X1174011Y730536D01*
X1174214Y730573D01*
X1174474Y730629D01*
X1174733Y730647D01*
X1175029Y730666D01*
X1175177D01*
X1175325Y730647D01*
D02*
G37*
G36*
X1158512Y733388D02*
X1158790Y733369D01*
X1159105Y733313D01*
X1159438Y733258D01*
X1159772Y733165D01*
X1160105Y733054D01*
X1160123D01*
X1160142Y733036D01*
X1160253Y732999D01*
X1160401Y732906D01*
X1160605Y732795D01*
X1160827Y732647D01*
X1161068Y732480D01*
X1161290Y732277D01*
X1161512Y732036D01*
X1161531Y731999D01*
X1161605Y731925D01*
X1161716Y731777D01*
X1161827Y731591D01*
X1161975Y731351D01*
X1162123Y731073D01*
X1162253Y730758D01*
X1162364Y730406D01*
Y730388D01*
X1162382Y730369D01*
Y730314D01*
X1162401Y730240D01*
X1162438Y730147D01*
X1162457Y730036D01*
X1162512Y729777D01*
X1162549Y729444D01*
X1162605Y729055D01*
X1162623Y728647D01*
X1162642Y728184D01*
Y728166D01*
Y728129D01*
Y728055D01*
Y727981D01*
Y727870D01*
X1162623Y727740D01*
X1162605Y727444D01*
X1162568Y727092D01*
X1162512Y726703D01*
X1162438Y726314D01*
X1162345Y725925D01*
Y725907D01*
X1162327Y725888D01*
X1162308Y725833D01*
X1162290Y725759D01*
X1162216Y725574D01*
X1162123Y725333D01*
X1161994Y725074D01*
X1161845Y724777D01*
X1161660Y724500D01*
X1161457Y724222D01*
X1161438Y724185D01*
X1161346Y724111D01*
X1161216Y723981D01*
X1161049Y723814D01*
X1160827Y723648D01*
X1160586Y723463D01*
X1160290Y723296D01*
X1159975Y723129D01*
X1159957D01*
X1159938Y723111D01*
X1159883Y723092D01*
X1159827Y723074D01*
X1159623Y723018D01*
X1159383Y722944D01*
X1159087Y722870D01*
X1158735Y722814D01*
X1158327Y722777D01*
X1157901Y722759D01*
X1157698D01*
X1157605Y722777D01*
X1157494D01*
X1157216Y722796D01*
X1156901Y722833D01*
X1156550Y722907D01*
X1156216Y722981D01*
X1155883Y723092D01*
X1155846Y723111D01*
X1155735Y723166D01*
X1155587Y723240D01*
X1155383Y723352D01*
X1155161Y723500D01*
X1154939Y723666D01*
X1154698Y723870D01*
X1154476Y724111D01*
X1154457Y724148D01*
X1154383Y724222D01*
X1154291Y724370D01*
X1154161Y724574D01*
X1154031Y724814D01*
X1153883Y725092D01*
X1153754Y725407D01*
X1153643Y725759D01*
Y725777D01*
X1153624Y725796D01*
Y725851D01*
X1153606Y725925D01*
X1153587Y726018D01*
X1153568Y726129D01*
X1153513Y726407D01*
X1153457Y726740D01*
X1153420Y727129D01*
X1153402Y727555D01*
X1153383Y728018D01*
Y728036D01*
Y728073D01*
Y728129D01*
Y728221D01*
Y728333D01*
X1153402Y728462D01*
X1153420Y728758D01*
X1153457Y729092D01*
X1153494Y729481D01*
X1153568Y729851D01*
X1153661Y730240D01*
Y730258D01*
X1153680Y730277D01*
X1153698Y730332D01*
X1153717Y730406D01*
X1153791Y730592D01*
X1153883Y730832D01*
X1154013Y731092D01*
X1154161Y731369D01*
X1154346Y731647D01*
X1154550Y731925D01*
X1154587Y731962D01*
X1154661Y732036D01*
X1154791Y732165D01*
X1154957Y732332D01*
X1155180Y732499D01*
X1155420Y732684D01*
X1155716Y732850D01*
X1156031Y733017D01*
X1156050D01*
X1156068Y733036D01*
X1156124Y733054D01*
X1156198Y733073D01*
X1156383Y733147D01*
X1156624Y733221D01*
X1156920Y733276D01*
X1157290Y733351D01*
X1157679Y733388D01*
X1158105Y733406D01*
X1158290D01*
X1158512Y733388D01*
D02*
G37*
G36*
X1131849Y730647D02*
X1132052Y730629D01*
X1132293Y730592D01*
X1132552Y730555D01*
X1132811Y730480D01*
X1133071Y730388D01*
X1133108Y730369D01*
X1133182Y730332D01*
X1133311Y730277D01*
X1133459Y730203D01*
X1133645Y730092D01*
X1133830Y729962D01*
X1134015Y729814D01*
X1134182Y729629D01*
X1134200Y729610D01*
X1134256Y729536D01*
X1134330Y729425D01*
X1134441Y729295D01*
X1134533Y729110D01*
X1134645Y728906D01*
X1134756Y728666D01*
X1134848Y728407D01*
X1134867Y728370D01*
X1134885Y728277D01*
X1134922Y728129D01*
X1134959Y727925D01*
X1134996Y727684D01*
X1135033Y727407D01*
X1135070Y727110D01*
Y726777D01*
Y726759D01*
Y726740D01*
Y726629D01*
X1135052Y726462D01*
X1135033Y726259D01*
X1135015Y725999D01*
X1134978Y725740D01*
X1134904Y725444D01*
X1134830Y725166D01*
X1134811Y725129D01*
X1134793Y725036D01*
X1134737Y724907D01*
X1134645Y724722D01*
X1134552Y724537D01*
X1134441Y724314D01*
X1134293Y724092D01*
X1134126Y723888D01*
X1134108Y723870D01*
X1134052Y723796D01*
X1133941Y723703D01*
X1133811Y723592D01*
X1133645Y723444D01*
X1133459Y723315D01*
X1133237Y723185D01*
X1132978Y723055D01*
X1132941Y723037D01*
X1132849Y723018D01*
X1132719Y722963D01*
X1132515Y722907D01*
X1132293Y722852D01*
X1132015Y722814D01*
X1131719Y722777D01*
X1131386Y722759D01*
X1131237D01*
X1131071Y722777D01*
X1130867Y722796D01*
X1130608Y722814D01*
X1130349Y722870D01*
X1130089Y722926D01*
X1129830Y723018D01*
X1129793Y723037D01*
X1129719Y723074D01*
X1129589Y723129D01*
X1129441Y723203D01*
X1129275Y723315D01*
X1129090Y723444D01*
X1128904Y723611D01*
X1128719Y723777D01*
X1128701Y723796D01*
X1128645Y723870D01*
X1128571Y723981D01*
X1128478Y724111D01*
X1128367Y724296D01*
X1128275Y724500D01*
X1128164Y724740D01*
X1128071Y724999D01*
Y725036D01*
X1128034Y725129D01*
X1128016Y725277D01*
X1127979Y725481D01*
X1127942Y725722D01*
X1127905Y725999D01*
X1127886Y726296D01*
X1127868Y726629D01*
Y726647D01*
Y726666D01*
Y726777D01*
X1127886Y726944D01*
X1127905Y727166D01*
X1127923Y727425D01*
X1127960Y727684D01*
X1128016Y727981D01*
X1128090Y728258D01*
X1128108Y728295D01*
X1128127Y728388D01*
X1128182Y728518D01*
X1128256Y728703D01*
X1128349Y728888D01*
X1128478Y729110D01*
X1128608Y729332D01*
X1128775Y729536D01*
X1128793Y729555D01*
X1128867Y729629D01*
X1128960Y729721D01*
X1129090Y729851D01*
X1129256Y729980D01*
X1129460Y730110D01*
X1129682Y730258D01*
X1129923Y730369D01*
X1129960Y730388D01*
X1130052Y730425D01*
X1130182Y730462D01*
X1130386Y730517D01*
X1130627Y730573D01*
X1130886Y730629D01*
X1131200Y730647D01*
X1131534Y730666D01*
X1131682D01*
X1131849Y730647D01*
D02*
G37*
G36*
X1112240D02*
X1112443Y730629D01*
X1112684Y730592D01*
X1112943Y730555D01*
X1113202Y730480D01*
X1113462Y730388D01*
X1113499Y730369D01*
X1113573Y730332D01*
X1113702Y730277D01*
X1113850Y730203D01*
X1114036Y730092D01*
X1114221Y729962D01*
X1114406Y729814D01*
X1114573Y729629D01*
X1114591Y729610D01*
X1114647Y729536D01*
X1114721Y729425D01*
X1114832Y729295D01*
X1114924Y729110D01*
X1115035Y728906D01*
X1115147Y728666D01*
X1115239Y728407D01*
X1115258Y728370D01*
X1115276Y728277D01*
X1115313Y728129D01*
X1115350Y727925D01*
X1115387Y727684D01*
X1115424Y727407D01*
X1115461Y727110D01*
Y726777D01*
Y726759D01*
Y726740D01*
Y726629D01*
X1115443Y726462D01*
X1115424Y726259D01*
X1115406Y725999D01*
X1115369Y725740D01*
X1115295Y725444D01*
X1115221Y725166D01*
X1115202Y725129D01*
X1115184Y725036D01*
X1115128Y724907D01*
X1115035Y724722D01*
X1114943Y724537D01*
X1114832Y724314D01*
X1114684Y724092D01*
X1114517Y723888D01*
X1114499Y723870D01*
X1114443Y723796D01*
X1114332Y723703D01*
X1114202Y723592D01*
X1114036Y723444D01*
X1113850Y723315D01*
X1113628Y723185D01*
X1113369Y723055D01*
X1113332Y723037D01*
X1113239Y723018D01*
X1113110Y722963D01*
X1112906Y722907D01*
X1112684Y722852D01*
X1112406Y722814D01*
X1112110Y722777D01*
X1111777Y722759D01*
X1111628D01*
X1111462Y722777D01*
X1111258Y722796D01*
X1110999Y722814D01*
X1110740Y722870D01*
X1110480Y722926D01*
X1110221Y723018D01*
X1110184Y723037D01*
X1110110Y723074D01*
X1109980Y723129D01*
X1109832Y723203D01*
X1109666Y723315D01*
X1109481Y723444D01*
X1109295Y723611D01*
X1109110Y723777D01*
X1109092Y723796D01*
X1109036Y723870D01*
X1108962Y723981D01*
X1108869Y724111D01*
X1108758Y724296D01*
X1108666Y724500D01*
X1108555Y724740D01*
X1108462Y724999D01*
Y725036D01*
X1108425Y725129D01*
X1108407Y725277D01*
X1108370Y725481D01*
X1108333Y725722D01*
X1108295Y725999D01*
X1108277Y726296D01*
X1108258Y726629D01*
Y726647D01*
Y726666D01*
Y726777D01*
X1108277Y726944D01*
X1108295Y727166D01*
X1108314Y727425D01*
X1108351Y727684D01*
X1108407Y727981D01*
X1108481Y728258D01*
X1108499Y728295D01*
X1108518Y728388D01*
X1108573Y728518D01*
X1108647Y728703D01*
X1108740Y728888D01*
X1108869Y729110D01*
X1108999Y729332D01*
X1109166Y729536D01*
X1109184Y729555D01*
X1109258Y729629D01*
X1109351Y729721D01*
X1109481Y729851D01*
X1109647Y729980D01*
X1109851Y730110D01*
X1110073Y730258D01*
X1110314Y730369D01*
X1110351Y730388D01*
X1110443Y730425D01*
X1110573Y730462D01*
X1110777Y730517D01*
X1111017Y730573D01*
X1111277Y730629D01*
X1111591Y730647D01*
X1111925Y730666D01*
X1112073D01*
X1112240Y730647D01*
D02*
G37*
%LPC*%
G36*
X1103000Y732128D02*
X1101370D01*
Y728777D01*
X1103129D01*
X1103259Y728795D01*
X1103537Y728832D01*
X1103666Y728869D01*
X1103796Y728906D01*
X1103814D01*
X1103851Y728925D01*
X1103907Y728962D01*
X1104000Y729018D01*
X1104166Y729129D01*
X1104351Y729277D01*
X1104370Y729295D01*
X1104388Y729314D01*
X1104426Y729369D01*
X1104481Y729444D01*
X1104574Y729610D01*
X1104666Y729832D01*
Y729851D01*
X1104685Y729888D01*
X1104703Y729943D01*
X1104722Y730036D01*
X1104759Y730240D01*
X1104777Y730480D01*
Y730499D01*
Y730555D01*
Y730629D01*
X1104759Y730721D01*
X1104740Y730943D01*
X1104666Y731165D01*
Y731184D01*
X1104648Y731221D01*
X1104629Y731277D01*
X1104592Y731351D01*
X1104481Y731517D01*
X1104333Y731684D01*
X1104314Y731702D01*
X1104296Y731721D01*
X1104240Y731758D01*
X1104185Y731795D01*
X1103981Y731906D01*
X1103740Y731999D01*
X1103722D01*
X1103685Y732017D01*
X1103592Y732036D01*
X1103500Y732073D01*
X1103352Y732091D01*
X1103203Y732110D01*
X1103000Y732128D01*
D02*
G37*
G36*
X1103259Y727684D02*
X1101370D01*
Y724037D01*
X1103537D01*
X1103648Y724055D01*
X1103907Y724092D01*
X1104185Y724148D01*
X1104203D01*
X1104240Y724166D01*
X1104314Y724203D01*
X1104388Y724222D01*
X1104592Y724333D01*
X1104796Y724463D01*
X1104814Y724481D01*
X1104851Y724500D01*
X1104962Y724611D01*
X1105092Y724796D01*
X1105222Y725018D01*
Y725036D01*
X1105240Y725074D01*
X1105277Y725148D01*
X1105314Y725240D01*
X1105333Y725351D01*
X1105370Y725481D01*
X1105388Y725777D01*
Y725796D01*
Y725851D01*
Y725944D01*
X1105370Y726055D01*
X1105333Y726314D01*
X1105240Y726592D01*
Y726610D01*
X1105222Y726647D01*
X1105185Y726721D01*
X1105129Y726796D01*
X1104999Y726999D01*
X1104796Y727184D01*
X1104777Y727203D01*
X1104740Y727222D01*
X1104685Y727277D01*
X1104611Y727314D01*
X1104500Y727388D01*
X1104388Y727444D01*
X1104092Y727555D01*
X1104074D01*
X1104018Y727573D01*
X1103925Y727592D01*
X1103796Y727629D01*
X1103648Y727647D01*
X1103463Y727666D01*
X1103259Y727684D01*
D02*
G37*
G36*
X1193805Y726388D02*
X1192472D01*
X1192342Y726370D01*
X1192194D01*
X1192028Y726351D01*
X1191713Y726296D01*
X1191694D01*
X1191657Y726277D01*
X1191583Y726259D01*
X1191490Y726222D01*
X1191268Y726148D01*
X1191065Y726018D01*
X1191046D01*
X1191028Y725981D01*
X1190917Y725888D01*
X1190787Y725759D01*
X1190676Y725574D01*
Y725555D01*
X1190657Y725536D01*
X1190639Y725481D01*
X1190620Y725407D01*
X1190583Y725222D01*
X1190565Y724999D01*
Y724981D01*
Y724907D01*
X1190583Y724814D01*
X1190602Y724685D01*
X1190657Y724537D01*
X1190713Y724389D01*
X1190805Y724240D01*
X1190917Y724111D01*
X1190935Y724092D01*
X1190991Y724055D01*
X1191065Y724018D01*
X1191176Y723963D01*
X1191305Y723888D01*
X1191472Y723851D01*
X1191676Y723814D01*
X1191898Y723796D01*
X1191991D01*
X1192083Y723814D01*
X1192213Y723833D01*
X1192361Y723851D01*
X1192527Y723907D01*
X1192694Y723963D01*
X1192861Y724055D01*
X1192879Y724074D01*
X1192935Y724111D01*
X1193027Y724166D01*
X1193139Y724259D01*
X1193287Y724370D01*
X1193453Y724500D01*
X1193620Y724666D01*
X1193805Y724851D01*
Y726388D01*
D02*
G37*
G36*
X1174974Y729629D02*
X1174789D01*
X1174678Y729610D01*
X1174400Y729555D01*
X1174103Y729444D01*
X1174085D01*
X1174048Y729407D01*
X1173974Y729369D01*
X1173881Y729314D01*
X1173678Y729147D01*
X1173474Y728944D01*
X1173455Y728925D01*
X1173437Y728888D01*
X1173381Y728832D01*
X1173344Y728740D01*
X1173270Y728647D01*
X1173215Y728518D01*
X1173085Y728240D01*
Y728221D01*
X1173066Y728166D01*
X1173048Y728092D01*
X1173029Y727981D01*
X1172992Y727851D01*
X1172974Y727721D01*
X1172955Y727407D01*
X1176881D01*
Y727425D01*
Y727462D01*
Y727499D01*
Y727573D01*
X1176862Y727758D01*
X1176825Y727999D01*
X1176770Y728258D01*
X1176677Y728536D01*
X1176566Y728795D01*
X1176400Y729036D01*
X1176381Y729055D01*
X1176307Y729129D01*
X1176196Y729221D01*
X1176048Y729332D01*
X1175844Y729444D01*
X1175603Y729536D01*
X1175307Y729610D01*
X1174974Y729629D01*
D02*
G37*
G36*
X1158031Y732221D02*
X1157883D01*
X1157716Y732202D01*
X1157513Y732184D01*
X1157272Y732128D01*
X1157031Y732073D01*
X1156772Y731980D01*
X1156531Y731869D01*
X1156513Y731851D01*
X1156439Y731814D01*
X1156309Y731740D01*
X1156179Y731628D01*
X1156013Y731499D01*
X1155846Y731351D01*
X1155679Y731184D01*
X1155531Y730980D01*
X1155513Y730962D01*
X1155476Y730888D01*
X1155402Y730758D01*
X1155328Y730610D01*
X1155235Y730425D01*
X1155142Y730184D01*
X1155068Y729943D01*
X1154994Y729666D01*
Y729629D01*
X1154976Y729536D01*
X1154957Y729388D01*
X1154920Y729203D01*
X1154902Y728962D01*
X1154865Y728703D01*
X1154846Y728407D01*
Y728110D01*
Y728092D01*
Y728073D01*
Y727962D01*
Y727777D01*
X1154865Y727555D01*
X1154883Y727296D01*
X1154902Y727018D01*
X1154994Y726425D01*
Y726388D01*
X1155031Y726296D01*
X1155068Y726148D01*
X1155105Y725981D01*
X1155180Y725777D01*
X1155272Y725555D01*
X1155365Y725333D01*
X1155494Y725111D01*
X1155513Y725092D01*
X1155568Y725018D01*
X1155642Y724925D01*
X1155753Y724796D01*
X1155902Y724648D01*
X1156050Y724518D01*
X1156253Y724370D01*
X1156457Y724240D01*
X1156494Y724222D01*
X1156568Y724203D01*
X1156698Y724148D01*
X1156883Y724092D01*
X1157105Y724037D01*
X1157364Y724000D01*
X1157642Y723963D01*
X1157975Y723944D01*
X1158124D01*
X1158290Y723963D01*
X1158494Y723981D01*
X1158735Y724018D01*
X1158975Y724092D01*
X1159235Y724166D01*
X1159475Y724277D01*
X1159512Y724296D01*
X1159586Y724333D01*
X1159697Y724407D01*
X1159846Y724518D01*
X1159994Y724648D01*
X1160160Y724796D01*
X1160327Y724962D01*
X1160475Y725166D01*
X1160494Y725185D01*
X1160531Y725277D01*
X1160605Y725388D01*
X1160679Y725555D01*
X1160771Y725740D01*
X1160864Y725962D01*
X1160938Y726222D01*
X1161012Y726499D01*
Y726536D01*
X1161031Y726629D01*
X1161068Y726777D01*
X1161105Y726981D01*
X1161123Y727222D01*
X1161160Y727499D01*
X1161179Y727777D01*
Y728092D01*
Y728110D01*
Y728129D01*
Y728240D01*
Y728407D01*
X1161160Y728629D01*
X1161142Y728869D01*
X1161105Y729147D01*
X1161012Y729721D01*
Y729758D01*
X1160975Y729851D01*
X1160938Y729999D01*
X1160901Y730166D01*
X1160827Y730369D01*
X1160734Y730592D01*
X1160623Y730814D01*
X1160494Y731036D01*
X1160475Y731054D01*
X1160438Y731128D01*
X1160346Y731221D01*
X1160235Y731351D01*
X1160105Y731499D01*
X1159938Y731647D01*
X1159753Y731777D01*
X1159531Y731906D01*
X1159512Y731925D01*
X1159420Y731962D01*
X1159290Y731999D01*
X1159124Y732073D01*
X1158901Y732128D01*
X1158642Y732165D01*
X1158346Y732202D01*
X1158031Y732221D01*
D02*
G37*
G36*
X1131478Y729555D02*
X1131386D01*
X1131274Y729536D01*
X1131126D01*
X1130978Y729499D01*
X1130793Y729462D01*
X1130627Y729406D01*
X1130460Y729332D01*
X1130441D01*
X1130386Y729295D01*
X1130312Y729240D01*
X1130219Y729184D01*
X1129997Y728999D01*
X1129775Y728740D01*
X1129756Y728721D01*
X1129738Y728666D01*
X1129682Y728592D01*
X1129627Y728499D01*
X1129553Y728370D01*
X1129478Y728203D01*
X1129423Y728036D01*
X1129367Y727851D01*
Y727832D01*
X1129349Y727758D01*
X1129330Y727647D01*
X1129312Y727518D01*
X1129275Y727351D01*
X1129256Y727147D01*
X1129238Y726944D01*
Y726721D01*
Y726703D01*
Y726629D01*
Y726499D01*
X1129256Y726370D01*
Y726185D01*
X1129275Y725999D01*
X1129330Y725611D01*
Y725592D01*
X1129349Y725518D01*
X1129386Y725425D01*
X1129423Y725296D01*
X1129534Y725018D01*
X1129701Y724703D01*
X1129719Y724685D01*
X1129756Y724648D01*
X1129812Y724574D01*
X1129886Y724481D01*
X1129978Y724388D01*
X1130108Y724277D01*
X1130386Y724092D01*
X1130404D01*
X1130460Y724055D01*
X1130552Y724018D01*
X1130682Y723981D01*
X1130830Y723944D01*
X1131015Y723907D01*
X1131219Y723888D01*
X1131441Y723870D01*
X1131534D01*
X1131645Y723888D01*
X1131793D01*
X1131960Y723925D01*
X1132126Y723963D01*
X1132293Y724000D01*
X1132460Y724074D01*
X1132478Y724092D01*
X1132534Y724111D01*
X1132608Y724166D01*
X1132700Y724222D01*
X1132941Y724407D01*
X1133163Y724648D01*
X1133182Y724666D01*
X1133200Y724722D01*
X1133256Y724796D01*
X1133311Y724907D01*
X1133385Y725036D01*
X1133459Y725185D01*
X1133515Y725351D01*
X1133571Y725536D01*
Y725555D01*
X1133589Y725629D01*
X1133608Y725740D01*
X1133645Y725888D01*
X1133663Y726055D01*
X1133682Y726240D01*
X1133700Y726684D01*
Y726703D01*
Y726777D01*
Y726907D01*
X1133682Y727055D01*
Y727222D01*
X1133663Y727407D01*
X1133589Y727795D01*
Y727814D01*
X1133571Y727888D01*
X1133534Y727981D01*
X1133496Y728110D01*
X1133385Y728407D01*
X1133219Y728703D01*
X1133200Y728721D01*
X1133182Y728777D01*
X1133126Y728832D01*
X1133052Y728925D01*
X1132960Y729018D01*
X1132830Y729129D01*
X1132700Y729221D01*
X1132552Y729314D01*
X1132534Y729332D01*
X1132478Y729351D01*
X1132385Y729388D01*
X1132256Y729444D01*
X1132108Y729481D01*
X1131923Y729518D01*
X1131719Y729536D01*
X1131478Y729555D01*
D02*
G37*
G36*
X1111869D02*
X1111777D01*
X1111665Y729536D01*
X1111517D01*
X1111369Y729499D01*
X1111184Y729462D01*
X1111017Y729406D01*
X1110851Y729332D01*
X1110832D01*
X1110777Y729295D01*
X1110703Y729240D01*
X1110610Y729184D01*
X1110388Y728999D01*
X1110166Y728740D01*
X1110147Y728721D01*
X1110129Y728666D01*
X1110073Y728592D01*
X1110017Y728499D01*
X1109943Y728370D01*
X1109869Y728203D01*
X1109814Y728036D01*
X1109758Y727851D01*
Y727832D01*
X1109740Y727758D01*
X1109721Y727647D01*
X1109703Y727518D01*
X1109666Y727351D01*
X1109647Y727147D01*
X1109629Y726944D01*
Y726721D01*
Y726703D01*
Y726629D01*
Y726499D01*
X1109647Y726370D01*
Y726185D01*
X1109666Y725999D01*
X1109721Y725611D01*
Y725592D01*
X1109740Y725518D01*
X1109777Y725425D01*
X1109814Y725296D01*
X1109925Y725018D01*
X1110092Y724703D01*
X1110110Y724685D01*
X1110147Y724648D01*
X1110203Y724574D01*
X1110277Y724481D01*
X1110369Y724388D01*
X1110499Y724277D01*
X1110777Y724092D01*
X1110795D01*
X1110851Y724055D01*
X1110943Y724018D01*
X1111073Y723981D01*
X1111221Y723944D01*
X1111406Y723907D01*
X1111610Y723888D01*
X1111832Y723870D01*
X1111925D01*
X1112036Y723888D01*
X1112184D01*
X1112351Y723925D01*
X1112517Y723963D01*
X1112684Y724000D01*
X1112850Y724074D01*
X1112869Y724092D01*
X1112925Y724111D01*
X1112999Y724166D01*
X1113091Y724222D01*
X1113332Y724407D01*
X1113554Y724648D01*
X1113573Y724666D01*
X1113591Y724722D01*
X1113647Y724796D01*
X1113702Y724907D01*
X1113776Y725036D01*
X1113850Y725185D01*
X1113906Y725351D01*
X1113961Y725536D01*
Y725555D01*
X1113980Y725629D01*
X1113999Y725740D01*
X1114036Y725888D01*
X1114054Y726055D01*
X1114073Y726240D01*
X1114091Y726684D01*
Y726703D01*
Y726777D01*
Y726907D01*
X1114073Y727055D01*
Y727222D01*
X1114054Y727407D01*
X1113980Y727795D01*
Y727814D01*
X1113961Y727888D01*
X1113924Y727981D01*
X1113887Y728110D01*
X1113776Y728407D01*
X1113610Y728703D01*
X1113591Y728721D01*
X1113573Y728777D01*
X1113517Y728832D01*
X1113443Y728925D01*
X1113351Y729018D01*
X1113221Y729129D01*
X1113091Y729221D01*
X1112943Y729314D01*
X1112925Y729332D01*
X1112869Y729351D01*
X1112776Y729388D01*
X1112647Y729444D01*
X1112499Y729481D01*
X1112314Y729518D01*
X1112110Y729536D01*
X1111869Y729555D01*
D02*
G37*
%LPD*%
M02*
