G04*
G04 #@! TF.GenerationSoftware,Altium Limited,Altium Designer,21.2.2 (38)*
G04*
G04 Layer_Physical_Order=2*
G04 Layer_Color=32768*
%FSLAX44Y44*%
%MOMM*%
G71*
G04*
G04 #@! TF.SameCoordinates,2A35CB41-4F08-4B63-A201-FD04A52A5515*
G04*
G04*
G04 #@! TF.FilePolarity,Negative*
G04*
G01*
G75*
%ADD91C,1.0160*%
%ADD92C,1.4000*%
%ADD93C,2.3000*%
%ADD94C,1.2000*%
%ADD95C,1.3000*%
%ADD96C,2.0000*%
G36*
X1140051Y913239D02*
X1140218D01*
X1140403Y913221D01*
X1140792Y913147D01*
X1140811D01*
X1140885Y913128D01*
X1140977Y913110D01*
X1141107Y913073D01*
X1141255Y913036D01*
X1141403Y912999D01*
X1141718Y912888D01*
X1141736D01*
X1141792Y912869D01*
X1141866Y912832D01*
X1141959Y912795D01*
X1142181Y912702D01*
X1142403Y912591D01*
X1142421D01*
X1142440Y912573D01*
X1142551Y912499D01*
X1142681Y912406D01*
X1142773Y912314D01*
X1142792Y912295D01*
X1142829Y912258D01*
X1142885Y912165D01*
X1142922Y912073D01*
X1142940Y912054D01*
X1142959Y911980D01*
X1142977Y911851D01*
Y911684D01*
Y911665D01*
Y911591D01*
Y911499D01*
X1142959Y911406D01*
Y911388D01*
X1142940Y911351D01*
X1142903Y911221D01*
Y911202D01*
X1142885Y911184D01*
X1142810Y911110D01*
X1142792D01*
X1142718Y911091D01*
X1142699D01*
X1142644Y911110D01*
X1142551Y911147D01*
X1142403Y911240D01*
X1142384D01*
X1142366Y911258D01*
X1142310Y911295D01*
X1142236Y911332D01*
X1142051Y911443D01*
X1141792Y911573D01*
X1141774D01*
X1141718Y911610D01*
X1141644Y911647D01*
X1141533Y911684D01*
X1141403Y911740D01*
X1141255Y911795D01*
X1141070Y911851D01*
X1140885Y911906D01*
X1140866D01*
X1140792Y911925D01*
X1140681Y911962D01*
X1140533Y911999D01*
X1140366Y912017D01*
X1140144Y912054D01*
X1139922Y912073D01*
X1139514D01*
X1139348Y912054D01*
X1139144Y912036D01*
X1138903Y911999D01*
X1138644Y911943D01*
X1138366Y911869D01*
X1138107Y911758D01*
X1138070Y911740D01*
X1137996Y911702D01*
X1137867Y911628D01*
X1137718Y911536D01*
X1137533Y911406D01*
X1137348Y911258D01*
X1137144Y911091D01*
X1136959Y910888D01*
X1136941Y910869D01*
X1136885Y910795D01*
X1136793Y910666D01*
X1136700Y910517D01*
X1136589Y910332D01*
X1136459Y910092D01*
X1136348Y909851D01*
X1136237Y909573D01*
X1136218Y909536D01*
X1136200Y909444D01*
X1136163Y909295D01*
X1136126Y909092D01*
X1136070Y908832D01*
X1136033Y908555D01*
X1136015Y908258D01*
X1135996Y907925D01*
Y907907D01*
Y907888D01*
Y907832D01*
Y907758D01*
X1136015Y907573D01*
X1136033Y907333D01*
X1136052Y907073D01*
X1136107Y906777D01*
X1136163Y906462D01*
X1136255Y906166D01*
X1136274Y906129D01*
X1136311Y906036D01*
X1136367Y905907D01*
X1136459Y905722D01*
X1136570Y905518D01*
X1136700Y905296D01*
X1136848Y905074D01*
X1137015Y904870D01*
X1137033Y904851D01*
X1137107Y904777D01*
X1137200Y904685D01*
X1137348Y904574D01*
X1137515Y904444D01*
X1137718Y904314D01*
X1137941Y904185D01*
X1138181Y904074D01*
X1138218Y904055D01*
X1138311Y904037D01*
X1138440Y904000D01*
X1138626Y903944D01*
X1138848Y903888D01*
X1139107Y903851D01*
X1139385Y903833D01*
X1139681Y903814D01*
X1139866D01*
X1139977Y903833D01*
X1140126D01*
X1140292Y903870D01*
X1140663Y903925D01*
X1140681D01*
X1140755Y903944D01*
X1140848Y903981D01*
X1140959Y904018D01*
X1141107Y904055D01*
X1141273Y904129D01*
X1141588Y904277D01*
Y907296D01*
X1139144D01*
X1139089Y907314D01*
X1139015Y907351D01*
X1138959Y907425D01*
Y907444D01*
X1138940Y907536D01*
X1138922Y907666D01*
X1138903Y907851D01*
Y907870D01*
Y907944D01*
Y908018D01*
Y908110D01*
Y908129D01*
X1138922Y908166D01*
X1138940Y908221D01*
X1138959Y908277D01*
Y908295D01*
X1138978Y908314D01*
X1139033Y908388D01*
X1139052D01*
X1139070Y908407D01*
X1139163Y908425D01*
X1142514D01*
X1142625Y908388D01*
X1142644D01*
X1142681Y908370D01*
X1142792Y908277D01*
X1142810Y908258D01*
X1142829Y908240D01*
X1142866Y908184D01*
X1142903Y908110D01*
X1142922Y908092D01*
X1142940Y908036D01*
X1142959Y907962D01*
Y907851D01*
Y903907D01*
Y903870D01*
Y903777D01*
X1142922Y903666D01*
X1142885Y903537D01*
X1142866Y903518D01*
X1142810Y903444D01*
X1142718Y903370D01*
X1142570Y903277D01*
X1142551D01*
X1142533Y903259D01*
X1142477Y903240D01*
X1142421Y903203D01*
X1142218Y903129D01*
X1141977Y903018D01*
X1141959D01*
X1141922Y903000D01*
X1141848Y902981D01*
X1141736Y902944D01*
X1141625Y902907D01*
X1141496Y902870D01*
X1141199Y902796D01*
X1141181D01*
X1141125Y902777D01*
X1141051D01*
X1140959Y902759D01*
X1140829Y902740D01*
X1140699Y902703D01*
X1140403Y902666D01*
X1140329D01*
X1140255Y902648D01*
X1140163D01*
X1139903Y902629D01*
X1139625Y902611D01*
X1139422D01*
X1139311Y902629D01*
X1139200D01*
X1138903Y902666D01*
X1138570Y902703D01*
X1138218Y902759D01*
X1137848Y902852D01*
X1137478Y902981D01*
X1137459D01*
X1137441Y903000D01*
X1137329Y903055D01*
X1137144Y903129D01*
X1136922Y903259D01*
X1136681Y903407D01*
X1136404Y903592D01*
X1136144Y903796D01*
X1135885Y904037D01*
X1135848Y904074D01*
X1135774Y904166D01*
X1135663Y904296D01*
X1135515Y904500D01*
X1135348Y904740D01*
X1135182Y905018D01*
X1135033Y905333D01*
X1134885Y905685D01*
Y905703D01*
X1134867Y905722D01*
X1134848Y905777D01*
X1134830Y905851D01*
X1134774Y906055D01*
X1134719Y906314D01*
X1134663Y906629D01*
X1134607Y906999D01*
X1134570Y907407D01*
X1134552Y907832D01*
Y907851D01*
Y907888D01*
Y907944D01*
Y908036D01*
X1134570Y908147D01*
Y908277D01*
X1134607Y908573D01*
X1134645Y908906D01*
X1134700Y909295D01*
X1134793Y909666D01*
X1134922Y910054D01*
Y910073D01*
X1134941Y910092D01*
X1134959Y910147D01*
X1134996Y910221D01*
X1135070Y910406D01*
X1135200Y910647D01*
X1135330Y910906D01*
X1135515Y911202D01*
X1135719Y911480D01*
X1135959Y911758D01*
X1135996Y911795D01*
X1136089Y911869D01*
X1136218Y911999D01*
X1136422Y912165D01*
X1136663Y912351D01*
X1136941Y912536D01*
X1137255Y912702D01*
X1137589Y912869D01*
X1137607D01*
X1137626Y912888D01*
X1137681Y912906D01*
X1137755Y912925D01*
X1137941Y912999D01*
X1138200Y913073D01*
X1138514Y913128D01*
X1138866Y913202D01*
X1139255Y913239D01*
X1139681Y913258D01*
X1139903D01*
X1140051Y913239D01*
D02*
G37*
G36*
X1107851Y910499D02*
X1108018Y910480D01*
X1108203Y910462D01*
X1108407Y910406D01*
X1108610Y910351D01*
X1108795Y910258D01*
X1108814Y910240D01*
X1108888Y910221D01*
X1108962Y910166D01*
X1109092Y910092D01*
X1109203Y909999D01*
X1109351Y909888D01*
X1109481Y909758D01*
X1109592Y909610D01*
X1109610Y909592D01*
X1109647Y909536D01*
X1109703Y909444D01*
X1109758Y909332D01*
X1109832Y909203D01*
X1109906Y909036D01*
X1109980Y908851D01*
X1110036Y908647D01*
Y908629D01*
X1110054Y908555D01*
X1110092Y908444D01*
X1110110Y908277D01*
X1110147Y908092D01*
X1110166Y907870D01*
X1110184Y907610D01*
Y907333D01*
Y902944D01*
Y902926D01*
Y902907D01*
X1110147Y902833D01*
X1110129Y902814D01*
X1110036Y902759D01*
X1110017D01*
X1109980Y902740D01*
X1109925D01*
X1109832Y902722D01*
X1109758D01*
X1109647Y902703D01*
X1109295D01*
X1109184Y902722D01*
X1109166D01*
X1109129Y902740D01*
X1108999Y902759D01*
X1108981D01*
X1108962Y902777D01*
X1108888Y902833D01*
Y902870D01*
X1108869Y902944D01*
Y907166D01*
Y907184D01*
Y907277D01*
Y907388D01*
X1108851Y907518D01*
X1108832Y907832D01*
X1108795Y907999D01*
X1108758Y908147D01*
Y908166D01*
X1108740Y908221D01*
X1108721Y908277D01*
X1108684Y908370D01*
X1108610Y908592D01*
X1108481Y908795D01*
Y908814D01*
X1108444Y908851D01*
X1108351Y908962D01*
X1108203Y909092D01*
X1107999Y909221D01*
X1107981D01*
X1107944Y909240D01*
X1107888Y909277D01*
X1107814Y909295D01*
X1107592Y909351D01*
X1107333Y909369D01*
X1107240D01*
X1107147Y909351D01*
X1107018Y909332D01*
X1106870Y909277D01*
X1106703Y909221D01*
X1106518Y909129D01*
X1106333Y908999D01*
X1106314Y908981D01*
X1106240Y908943D01*
X1106148Y908851D01*
X1106018Y908740D01*
X1105851Y908592D01*
X1105685Y908425D01*
X1105499Y908221D01*
X1105296Y907981D01*
Y902944D01*
Y902926D01*
Y902907D01*
X1105259Y902833D01*
X1105240Y902814D01*
X1105148Y902759D01*
X1105129D01*
X1105092Y902740D01*
X1105036D01*
X1104944Y902722D01*
X1104870D01*
X1104759Y902703D01*
X1104407D01*
X1104296Y902722D01*
X1104277D01*
X1104240Y902740D01*
X1104111Y902759D01*
X1104092D01*
X1104074Y902777D01*
X1104000Y902833D01*
Y902870D01*
X1103981Y902944D01*
Y910147D01*
Y910166D01*
Y910184D01*
X1104000Y910258D01*
X1104018Y910277D01*
X1104055Y910314D01*
X1104092Y910332D01*
X1104111D01*
X1104148Y910351D01*
X1104203Y910369D01*
X1104277Y910388D01*
X1104296D01*
X1104351Y910406D01*
X1104759D01*
X1104851Y910388D01*
X1104870D01*
X1104925Y910369D01*
X1104981Y910351D01*
X1105036Y910332D01*
X1105055D01*
X1105074Y910314D01*
X1105111Y910295D01*
X1105129Y910258D01*
X1105148Y910240D01*
X1105166Y910147D01*
Y909203D01*
X1105203Y909240D01*
X1105277Y909314D01*
X1105388Y909425D01*
X1105555Y909573D01*
X1105722Y909740D01*
X1105925Y909906D01*
X1106148Y910054D01*
X1106370Y910184D01*
X1106407Y910203D01*
X1106481Y910240D01*
X1106592Y910295D01*
X1106759Y910351D01*
X1106944Y910406D01*
X1107147Y910462D01*
X1107370Y910499D01*
X1107592Y910517D01*
X1107721D01*
X1107851Y910499D01*
D02*
G37*
G36*
X1152995Y913110D02*
X1153013D01*
X1153087Y913091D01*
X1153143Y913073D01*
X1153217Y913054D01*
X1153235D01*
X1153254Y913036D01*
X1153328Y912962D01*
X1153346Y912943D01*
X1153365Y912869D01*
Y903315D01*
Y903296D01*
Y903222D01*
X1153346Y903148D01*
X1153309Y903055D01*
X1153291Y903037D01*
X1153272Y903000D01*
X1153161Y902870D01*
X1153143Y902852D01*
X1153106Y902833D01*
X1153032Y902796D01*
X1152958Y902759D01*
X1152902D01*
X1152828Y902740D01*
X1152161D01*
X1152050Y902759D01*
X1151921Y902777D01*
X1151902D01*
X1151828Y902814D01*
X1151717Y902852D01*
X1151606Y902926D01*
X1151587Y902944D01*
X1151532Y903000D01*
X1151439Y903111D01*
X1151328Y903240D01*
Y903259D01*
X1151310Y903277D01*
X1151235Y903389D01*
X1151124Y903537D01*
X1151013Y903759D01*
X1147847Y909647D01*
X1147828Y909666D01*
X1147810Y909721D01*
X1147754Y909814D01*
X1147699Y909925D01*
X1147625Y910073D01*
X1147532Y910240D01*
X1147347Y910592D01*
X1147328Y910610D01*
X1147310Y910684D01*
X1147254Y910777D01*
X1147199Y910906D01*
X1147125Y911054D01*
X1147051Y911221D01*
X1146884Y911573D01*
X1146865D01*
Y911554D01*
Y911480D01*
Y911351D01*
X1146884Y911202D01*
Y911036D01*
Y910832D01*
Y910388D01*
Y910369D01*
Y910295D01*
Y910166D01*
X1146903Y910017D01*
Y909832D01*
Y909647D01*
Y909203D01*
Y902944D01*
Y902907D01*
X1146865Y902833D01*
X1146829Y902814D01*
X1146792Y902796D01*
X1146736Y902777D01*
X1146717D01*
X1146680Y902759D01*
X1146625D01*
X1146532Y902740D01*
X1146514D01*
X1146440Y902722D01*
X1146329Y902703D01*
X1146088D01*
X1145977Y902722D01*
X1145866Y902740D01*
X1145847D01*
X1145792Y902759D01*
X1145717D01*
X1145662Y902777D01*
X1145643D01*
X1145625Y902796D01*
X1145551Y902833D01*
Y902852D01*
Y902870D01*
X1145532Y902944D01*
Y912517D01*
Y912536D01*
Y912573D01*
X1145551Y912684D01*
X1145606Y912832D01*
X1145699Y912962D01*
X1145736Y912980D01*
X1145829Y913036D01*
X1145958Y913091D01*
X1146106Y913110D01*
X1146921D01*
X1147032Y913091D01*
X1147162Y913054D01*
X1147199D01*
X1147254Y913017D01*
X1147365Y912980D01*
X1147458Y912925D01*
X1147477Y912906D01*
X1147532Y912850D01*
X1147606Y912776D01*
X1147699Y912665D01*
X1147717Y912647D01*
X1147773Y912554D01*
X1147865Y912425D01*
X1147958Y912258D01*
X1150402Y907721D01*
X1150421Y907703D01*
X1150439Y907647D01*
X1150476Y907573D01*
X1150532Y907462D01*
X1150606Y907333D01*
X1150680Y907184D01*
X1150828Y906888D01*
X1150847Y906870D01*
X1150865Y906814D01*
X1150902Y906740D01*
X1150958Y906647D01*
X1151087Y906388D01*
X1151235Y906111D01*
X1151254Y906092D01*
X1151273Y906055D01*
X1151310Y905981D01*
X1151365Y905888D01*
X1151495Y905648D01*
X1151624Y905370D01*
Y905351D01*
X1151661Y905314D01*
X1151698Y905240D01*
X1151735Y905129D01*
X1151865Y904888D01*
X1151995Y904611D01*
X1152013D01*
Y904648D01*
Y904722D01*
Y904851D01*
Y905018D01*
X1151995Y905203D01*
Y905425D01*
Y905666D01*
Y905925D01*
Y905962D01*
Y906036D01*
Y906184D01*
Y906351D01*
Y906555D01*
Y906777D01*
Y907240D01*
Y912869D01*
Y912888D01*
Y912906D01*
X1152013Y912962D01*
Y912980D01*
X1152050Y912999D01*
X1152124Y913054D01*
X1152143D01*
X1152180Y913073D01*
X1152254Y913091D01*
X1152346Y913110D01*
X1152365D01*
X1152439Y913128D01*
X1152883D01*
X1152995Y913110D01*
D02*
G37*
G36*
X1159290Y913091D02*
X1159420D01*
X1159735Y913073D01*
X1160086Y913017D01*
X1160475Y912962D01*
X1160846Y912869D01*
X1161216Y912758D01*
X1161234D01*
X1161253Y912739D01*
X1161383Y912702D01*
X1161549Y912610D01*
X1161771Y912499D01*
X1162012Y912351D01*
X1162271Y912184D01*
X1162549Y911980D01*
X1162790Y911758D01*
X1162827Y911721D01*
X1162901Y911647D01*
X1163012Y911499D01*
X1163142Y911314D01*
X1163290Y911091D01*
X1163456Y910814D01*
X1163605Y910499D01*
X1163734Y910166D01*
Y910147D01*
X1163753Y910129D01*
X1163771Y910073D01*
X1163790Y909999D01*
X1163845Y909814D01*
X1163901Y909555D01*
X1163956Y909240D01*
X1164012Y908888D01*
X1164049Y908499D01*
X1164067Y908073D01*
Y908055D01*
Y908018D01*
Y907944D01*
Y907851D01*
X1164049Y907740D01*
Y907592D01*
X1164030Y907277D01*
X1163975Y906907D01*
X1163919Y906518D01*
X1163827Y906111D01*
X1163716Y905722D01*
Y905703D01*
X1163697Y905685D01*
X1163679Y905629D01*
X1163660Y905555D01*
X1163568Y905370D01*
X1163456Y905148D01*
X1163308Y904870D01*
X1163142Y904592D01*
X1162938Y904314D01*
X1162697Y904055D01*
X1162660Y904018D01*
X1162586Y903944D01*
X1162438Y903833D01*
X1162253Y903685D01*
X1162012Y903537D01*
X1161753Y903370D01*
X1161438Y903203D01*
X1161086Y903074D01*
X1161068D01*
X1161049Y903055D01*
X1160994Y903037D01*
X1160920Y903018D01*
X1160827Y903000D01*
X1160716Y902981D01*
X1160438Y902926D01*
X1160105Y902852D01*
X1159716Y902814D01*
X1159290Y902777D01*
X1158809Y902759D01*
X1156568D01*
X1156494Y902777D01*
X1156383Y902814D01*
X1156253Y902870D01*
X1156235Y902889D01*
X1156179Y902981D01*
X1156124Y903111D01*
X1156105Y903315D01*
Y912536D01*
Y912554D01*
Y912591D01*
X1156124Y912702D01*
X1156161Y912850D01*
X1156253Y912980D01*
X1156291Y912999D01*
X1156365Y913054D01*
X1156476Y913091D01*
X1156605Y913110D01*
X1159179D01*
X1159290Y913091D01*
D02*
G37*
G36*
X1121776Y913165D02*
X1121794D01*
X1121850Y913147D01*
X1121924Y913128D01*
X1121979Y913110D01*
X1121998D01*
X1122016Y913091D01*
X1122053Y913073D01*
X1122072Y913036D01*
X1122090Y913017D01*
X1122109Y912943D01*
Y903870D01*
X1124016D01*
X1124090Y903833D01*
X1124109D01*
X1124127Y903814D01*
X1124183Y903722D01*
Y903703D01*
X1124201Y903666D01*
X1124220Y903611D01*
X1124238Y903537D01*
Y903518D01*
X1124257Y903481D01*
X1124275Y903389D01*
Y903296D01*
Y903277D01*
Y903203D01*
X1124257Y903129D01*
X1124238Y903037D01*
Y903018D01*
X1124220Y902981D01*
X1124183Y902870D01*
X1124164Y902833D01*
X1124090Y902777D01*
X1124053D01*
X1123979Y902759D01*
X1118535D01*
X1118461Y902777D01*
X1118443Y902796D01*
X1118369Y902870D01*
Y902889D01*
X1118350Y902926D01*
X1118313Y903037D01*
Y903055D01*
Y903111D01*
X1118294Y903185D01*
Y903296D01*
Y903315D01*
Y903389D01*
Y903463D01*
X1118313Y903537D01*
Y903555D01*
X1118331Y903611D01*
X1118369Y903722D01*
Y903740D01*
X1118387Y903759D01*
X1118461Y903833D01*
X1118480D01*
X1118498Y903851D01*
X1118572Y903870D01*
X1120739D01*
Y911740D01*
X1118739Y910555D01*
X1118720Y910536D01*
X1118646Y910499D01*
X1118572Y910462D01*
X1118498Y910443D01*
X1118406D01*
X1118350Y910480D01*
Y910499D01*
X1118313Y910517D01*
X1118294Y910573D01*
X1118276Y910647D01*
Y910666D01*
Y910740D01*
X1118257Y910832D01*
Y910962D01*
Y910980D01*
Y911036D01*
Y911184D01*
Y911202D01*
X1118276Y911240D01*
Y911295D01*
X1118294Y911351D01*
Y911369D01*
X1118313Y911388D01*
X1118350Y911462D01*
X1118369Y911480D01*
X1118387Y911499D01*
X1118480Y911554D01*
X1120850Y913073D01*
X1120868Y913091D01*
X1120924Y913110D01*
X1120942D01*
X1120961Y913128D01*
X1121053Y913147D01*
X1121072D01*
X1121109Y913165D01*
X1121239D01*
X1121294Y913184D01*
X1121664D01*
X1121776Y913165D01*
D02*
G37*
G36*
X1100889Y913147D02*
X1101000Y913128D01*
X1101018D01*
X1101074Y913110D01*
X1101148Y913091D01*
X1101204Y913073D01*
X1101222D01*
X1101259Y913054D01*
X1101296Y913036D01*
X1101333Y912999D01*
X1101352Y912980D01*
X1101370Y912906D01*
Y902944D01*
Y902907D01*
X1101333Y902833D01*
X1101296Y902814D01*
X1101259Y902796D01*
X1101204Y902777D01*
X1101185D01*
X1101148Y902759D01*
X1101093D01*
X1101000Y902740D01*
X1100981D01*
X1100907Y902722D01*
X1100815Y902703D01*
X1100574D01*
X1100463Y902722D01*
X1100352Y902740D01*
X1100333D01*
X1100278Y902759D01*
X1100130Y902777D01*
X1100111D01*
X1100093Y902796D01*
X1100018Y902833D01*
Y902852D01*
Y902870D01*
X1100000Y902944D01*
Y912906D01*
Y912925D01*
Y912943D01*
X1100018Y912999D01*
Y913017D01*
X1100056Y913036D01*
X1100130Y913073D01*
X1100148D01*
X1100185Y913091D01*
X1100259Y913110D01*
X1100352Y913128D01*
X1100370D01*
X1100444Y913147D01*
X1100555Y913165D01*
X1100796D01*
X1100889Y913147D01*
D02*
G37*
G36*
X1113869Y912314D02*
X1113887D01*
X1113943Y912295D01*
X1114017Y912277D01*
X1114073Y912258D01*
X1114091D01*
X1114110Y912240D01*
X1114184Y912165D01*
X1114202Y912147D01*
X1114221Y912073D01*
Y910369D01*
X1116091D01*
X1116165Y910332D01*
X1116183D01*
X1116202Y910314D01*
X1116258Y910221D01*
Y910203D01*
X1116276Y910184D01*
X1116295Y910129D01*
X1116313Y910054D01*
Y910036D01*
X1116332Y909999D01*
Y909906D01*
Y909814D01*
Y909795D01*
Y909758D01*
Y909647D01*
X1116295Y909518D01*
X1116258Y909388D01*
X1116239Y909369D01*
X1116202Y909332D01*
X1116146Y909295D01*
X1116054Y909277D01*
X1114221D01*
Y905259D01*
Y905222D01*
Y905129D01*
X1114239Y904999D01*
Y904833D01*
X1114313Y904463D01*
X1114350Y904296D01*
X1114424Y904129D01*
X1114443Y904111D01*
X1114462Y904074D01*
X1114517Y904018D01*
X1114610Y903944D01*
X1114721Y903870D01*
X1114850Y903814D01*
X1115017Y903777D01*
X1115221Y903759D01*
X1115424D01*
X1115535Y903777D01*
X1115554D01*
X1115628Y903796D01*
X1115702Y903833D01*
X1115795Y903851D01*
X1115813Y903870D01*
X1115869Y903888D01*
X1115980Y903944D01*
X1115998D01*
X1116035Y903963D01*
X1116146Y903981D01*
X1116165D01*
X1116221Y903944D01*
X1116239Y903925D01*
X1116276Y903870D01*
Y903851D01*
X1116295Y903833D01*
X1116313Y903722D01*
Y903703D01*
X1116332Y903666D01*
Y903574D01*
Y903481D01*
Y903444D01*
Y903352D01*
X1116313Y903240D01*
X1116295Y903111D01*
Y903092D01*
X1116276Y903037D01*
X1116239Y902963D01*
X1116183Y902907D01*
X1116165D01*
X1116146Y902870D01*
X1116091Y902833D01*
X1115998Y902796D01*
X1115980D01*
X1115906Y902777D01*
X1115813Y902759D01*
X1115702Y902722D01*
X1115684D01*
X1115610Y902703D01*
X1115498Y902685D01*
X1115369Y902666D01*
X1115332D01*
X1115258Y902648D01*
X1115128Y902629D01*
X1114795D01*
X1114665Y902648D01*
X1114517Y902666D01*
X1114350Y902685D01*
X1114036Y902759D01*
X1114017D01*
X1113980Y902796D01*
X1113906Y902814D01*
X1113813Y902870D01*
X1113591Y903018D01*
X1113388Y903203D01*
X1113369Y903222D01*
X1113351Y903259D01*
X1113295Y903333D01*
X1113239Y903426D01*
X1113184Y903537D01*
X1113128Y903666D01*
X1113017Y903981D01*
Y904000D01*
X1112999Y904055D01*
X1112980Y904166D01*
X1112962Y904296D01*
X1112943Y904444D01*
X1112925Y904629D01*
X1112906Y904833D01*
Y905055D01*
Y909277D01*
X1111869D01*
X1111814Y909295D01*
X1111740Y909332D01*
X1111684Y909388D01*
Y909406D01*
X1111665Y909499D01*
X1111647Y909629D01*
X1111628Y909814D01*
Y909832D01*
Y909906D01*
Y909980D01*
X1111647Y910054D01*
Y910073D01*
X1111665Y910110D01*
Y910166D01*
X1111684Y910221D01*
Y910240D01*
X1111702Y910258D01*
X1111777Y910332D01*
X1111795D01*
X1111814Y910351D01*
X1111888Y910369D01*
X1112906D01*
Y912073D01*
Y912091D01*
Y912110D01*
X1112925Y912165D01*
Y912184D01*
X1112962Y912202D01*
X1113036Y912258D01*
X1113054D01*
X1113091Y912277D01*
X1113147Y912295D01*
X1113221Y912314D01*
X1113239D01*
X1113313Y912332D01*
X1113776D01*
X1113869Y912314D01*
D02*
G37*
G36*
X1166604Y914091D02*
X1166623D01*
X1166660Y914073D01*
X1166715D01*
X1166771Y914054D01*
X1166789D01*
X1166808Y914036D01*
X1166882Y913999D01*
X1166900Y913980D01*
X1166919Y913943D01*
X1166937Y913924D01*
X1166956Y913869D01*
X1166993Y913776D01*
X1167049Y913665D01*
X1167123Y913517D01*
X1167215Y913332D01*
X1167289Y913128D01*
X1167400Y912906D01*
X1167493Y912665D01*
X1167604Y912406D01*
X1167826Y911832D01*
X1168030Y911221D01*
X1168215Y910573D01*
Y910555D01*
X1168234Y910499D01*
X1168252Y910406D01*
X1168289Y910277D01*
X1168326Y910129D01*
X1168363Y909925D01*
X1168419Y909721D01*
X1168456Y909481D01*
X1168493Y909240D01*
X1168549Y908962D01*
X1168623Y908370D01*
X1168678Y907721D01*
X1168697Y907055D01*
Y907036D01*
Y907018D01*
Y906962D01*
Y906907D01*
Y906721D01*
X1168678Y906499D01*
X1168660Y906222D01*
X1168641Y905907D01*
X1168604Y905592D01*
X1168567Y905259D01*
Y905240D01*
Y905222D01*
X1168549Y905111D01*
X1168530Y904925D01*
X1168493Y904703D01*
X1168437Y904444D01*
X1168382Y904148D01*
X1168234Y903518D01*
X1168215Y903481D01*
X1168197Y903370D01*
X1168141Y903203D01*
X1168085Y902981D01*
X1167993Y902740D01*
X1167900Y902444D01*
X1167789Y902148D01*
X1167678Y901833D01*
X1167660Y901796D01*
X1167623Y901685D01*
X1167549Y901518D01*
X1167475Y901315D01*
X1167363Y901074D01*
X1167234Y900796D01*
X1166937Y900185D01*
X1166919Y900148D01*
X1166863Y900111D01*
X1166826Y900093D01*
X1166734Y900056D01*
X1166715D01*
X1166678Y900037D01*
X1166623Y900018D01*
X1166493D01*
X1166401Y900000D01*
X1166197D01*
X1166086Y900018D01*
X1165975Y900037D01*
X1165956D01*
X1165919Y900056D01*
X1165864Y900074D01*
X1165808Y900093D01*
X1165789Y900130D01*
X1165771Y900204D01*
Y900222D01*
Y900259D01*
X1165808Y900370D01*
Y900389D01*
X1165845Y900444D01*
X1165882Y900537D01*
X1165938Y900648D01*
X1165993Y900796D01*
X1166067Y900963D01*
X1166141Y901167D01*
X1166234Y901389D01*
X1166308Y901629D01*
X1166401Y901889D01*
X1166586Y902444D01*
X1166771Y903037D01*
X1166919Y903666D01*
Y903685D01*
X1166937Y903740D01*
X1166956Y903833D01*
X1166975Y903963D01*
X1167012Y904111D01*
X1167049Y904296D01*
X1167086Y904500D01*
X1167123Y904722D01*
X1167141Y904981D01*
X1167178Y905240D01*
X1167252Y905814D01*
X1167289Y906425D01*
X1167308Y907073D01*
Y907092D01*
Y907147D01*
Y907240D01*
Y907370D01*
X1167289Y907518D01*
Y907703D01*
X1167271Y907907D01*
X1167252Y908129D01*
X1167234Y908388D01*
X1167215Y908647D01*
X1167141Y909221D01*
X1167049Y909832D01*
X1166919Y910462D01*
Y910480D01*
X1166900Y910536D01*
X1166882Y910629D01*
X1166845Y910758D01*
X1166808Y910906D01*
X1166771Y911091D01*
X1166715Y911295D01*
X1166641Y911517D01*
X1166567Y911758D01*
X1166493Y912017D01*
X1166289Y912573D01*
X1166067Y913165D01*
X1165808Y913776D01*
Y913795D01*
X1165789Y913813D01*
X1165771Y913906D01*
Y913924D01*
X1165789Y913943D01*
X1165845Y914017D01*
X1165864D01*
X1165901Y914036D01*
X1165956Y914054D01*
X1166030Y914073D01*
X1166049D01*
X1166104Y914091D01*
X1166197Y914110D01*
X1166512D01*
X1166604Y914091D01*
D02*
G37*
G36*
X1132497D02*
X1132589Y914073D01*
X1132608D01*
X1132645Y914054D01*
X1132700Y914036D01*
X1132756Y914017D01*
X1132774D01*
X1132793Y913999D01*
X1132811Y913961D01*
X1132830Y913906D01*
Y913869D01*
Y913832D01*
X1132811Y913776D01*
Y913758D01*
X1132774Y913702D01*
X1132737Y913610D01*
X1132682Y913499D01*
X1132626Y913351D01*
X1132552Y913184D01*
X1132478Y912980D01*
X1132385Y912758D01*
X1132293Y912517D01*
X1132200Y912258D01*
X1132015Y911702D01*
X1131830Y911091D01*
X1131682Y910462D01*
Y910443D01*
X1131663Y910388D01*
X1131645Y910295D01*
X1131626Y910166D01*
X1131589Y910017D01*
X1131571Y909832D01*
X1131534Y909629D01*
X1131497Y909406D01*
X1131460Y909166D01*
X1131423Y908888D01*
X1131367Y908314D01*
X1131330Y907703D01*
X1131312Y907073D01*
Y907055D01*
Y906999D01*
Y906907D01*
Y906777D01*
X1131330Y906629D01*
Y906444D01*
X1131349Y906240D01*
X1131367Y905999D01*
X1131386Y905759D01*
X1131404Y905481D01*
X1131460Y904907D01*
X1131552Y904296D01*
X1131682Y903666D01*
Y903648D01*
X1131700Y903592D01*
X1131719Y903500D01*
X1131756Y903389D01*
X1131793Y903222D01*
X1131849Y903055D01*
X1131904Y902852D01*
X1131960Y902629D01*
X1132034Y902389D01*
X1132126Y902129D01*
X1132311Y901574D01*
X1132534Y900981D01*
X1132793Y900370D01*
Y900352D01*
X1132811Y900315D01*
X1132830Y900204D01*
Y900185D01*
Y900167D01*
Y900130D01*
X1132793Y900093D01*
X1132774D01*
X1132756Y900074D01*
X1132700Y900056D01*
X1132608Y900037D01*
X1132589D01*
X1132534Y900018D01*
X1132423Y900000D01*
X1132145D01*
X1132052Y900018D01*
X1131997D01*
X1131867Y900056D01*
X1131849D01*
X1131830Y900074D01*
X1131738Y900111D01*
X1131719Y900130D01*
X1131682Y900185D01*
Y900204D01*
X1131663Y900222D01*
X1131608Y900333D01*
X1131515Y900481D01*
X1131423Y900704D01*
X1131293Y900944D01*
X1131163Y901222D01*
X1131034Y901518D01*
X1130904Y901833D01*
Y901852D01*
X1130886Y901870D01*
X1130849Y901981D01*
X1130793Y902148D01*
X1130719Y902352D01*
X1130627Y902611D01*
X1130552Y902889D01*
X1130460Y903203D01*
X1130367Y903518D01*
Y903537D01*
Y903555D01*
X1130330Y903666D01*
X1130293Y903833D01*
X1130238Y904055D01*
X1130182Y904314D01*
X1130126Y904611D01*
X1130089Y904925D01*
X1130034Y905259D01*
Y905277D01*
Y905296D01*
X1130015Y905407D01*
X1129997Y905592D01*
X1129978Y905814D01*
X1129960Y906092D01*
X1129941Y906388D01*
X1129923Y906721D01*
Y907055D01*
Y907073D01*
Y907092D01*
Y907203D01*
Y907388D01*
X1129941Y907610D01*
Y907870D01*
X1129978Y908166D01*
X1129997Y908481D01*
X1130034Y908814D01*
Y908832D01*
Y908851D01*
X1130052Y908962D01*
X1130089Y909147D01*
X1130126Y909369D01*
X1130182Y909629D01*
X1130238Y909925D01*
X1130312Y910240D01*
X1130386Y910573D01*
Y910592D01*
X1130404Y910610D01*
X1130423Y910721D01*
X1130478Y910888D01*
X1130552Y911110D01*
X1130627Y911369D01*
X1130719Y911665D01*
X1130941Y912277D01*
Y912295D01*
X1130960Y912314D01*
X1130997Y912425D01*
X1131071Y912591D01*
X1131163Y912813D01*
X1131274Y913054D01*
X1131404Y913332D01*
X1131682Y913943D01*
Y913961D01*
X1131719Y913999D01*
X1131738Y914017D01*
X1131812Y914054D01*
X1131830D01*
X1131867Y914073D01*
X1131923D01*
X1131997Y914091D01*
X1132015D01*
X1132071Y914110D01*
X1132404D01*
X1132497Y914091D01*
D02*
G37*
%LPC*%
G36*
X1158864Y911962D02*
X1157476D01*
Y903907D01*
X1159049D01*
X1159235Y903925D01*
X1159475Y903944D01*
X1159735Y903963D01*
X1160012Y904018D01*
X1160290Y904074D01*
X1160549Y904148D01*
X1160586Y904166D01*
X1160660Y904203D01*
X1160790Y904259D01*
X1160957Y904333D01*
X1161123Y904444D01*
X1161327Y904574D01*
X1161512Y904722D01*
X1161697Y904907D01*
X1161716Y904925D01*
X1161771Y904999D01*
X1161864Y905111D01*
X1161957Y905259D01*
X1162068Y905444D01*
X1162179Y905666D01*
X1162290Y905907D01*
X1162382Y906184D01*
X1162401Y906222D01*
X1162420Y906314D01*
X1162457Y906481D01*
X1162512Y906703D01*
X1162549Y906981D01*
X1162586Y907296D01*
X1162605Y907629D01*
X1162623Y908018D01*
Y908036D01*
Y908055D01*
Y908166D01*
X1162605Y908314D01*
Y908518D01*
X1162568Y908758D01*
X1162531Y909018D01*
X1162475Y909295D01*
X1162401Y909573D01*
Y909610D01*
X1162364Y909703D01*
X1162308Y909832D01*
X1162253Y910017D01*
X1162160Y910203D01*
X1162049Y910425D01*
X1161901Y910629D01*
X1161753Y910832D01*
X1161734Y910851D01*
X1161679Y910925D01*
X1161568Y911017D01*
X1161438Y911147D01*
X1161290Y911277D01*
X1161086Y911406D01*
X1160864Y911554D01*
X1160623Y911665D01*
X1160586Y911684D01*
X1160494Y911721D01*
X1160346Y911758D01*
X1160142Y911814D01*
X1159901Y911869D01*
X1159586Y911925D01*
X1159253Y911943D01*
X1158864Y911962D01*
D02*
G37*
%LPD*%
D91*
X0Y0D02*
X985000D01*
X985000Y1000000D02*
X985000Y0D01*
X681000Y1000000D02*
X985000D01*
X681000Y951000D02*
Y1000000D01*
X568972Y951000D02*
X681000D01*
X568972D02*
Y1000000D01*
X0D02*
X568972D01*
X0D02*
X0Y0D01*
X681000Y1000000D02*
X985000D01*
X681000Y951000D02*
Y1000000D01*
X568972Y951000D02*
X681000D01*
X568972D02*
Y1000000D01*
X0D02*
X568972D01*
X0Y0D02*
X985000D01*
X985000Y1000000D02*
X985000Y0D01*
X0Y1000000D02*
X0Y0D01*
D92*
X67000Y912200D02*
D03*
X115000D02*
D03*
X75000D02*
D03*
X107000D02*
D03*
X83000D02*
D03*
X99000D02*
D03*
X71000Y905200D02*
D03*
X111000D02*
D03*
X79000D02*
D03*
X103000D02*
D03*
X87000D02*
D03*
X95000D02*
D03*
D93*
X600000Y911000D02*
D03*
X650000D02*
D03*
D94*
X94000Y882000D02*
D03*
X88000D02*
D03*
X380700Y742700D02*
D03*
X397500Y588000D02*
D03*
X355000Y592000D02*
D03*
X343000D02*
D03*
X470000Y545000D02*
D03*
X464000D02*
D03*
X720000Y524000D02*
D03*
X877000Y692000D02*
D03*
X906000Y710000D02*
D03*
X873000Y705000D02*
D03*
X800000Y616000D02*
D03*
X830000Y529000D02*
D03*
X855000Y488000D02*
D03*
X851000Y465000D02*
D03*
Y454000D02*
D03*
X856000Y168000D02*
D03*
X249000Y947000D02*
D03*
X331000Y915000D02*
D03*
X236000Y785000D02*
D03*
X244000D02*
D03*
X252000D02*
D03*
X260000D02*
D03*
X264000Y792000D02*
D03*
X256000D02*
D03*
X248000D02*
D03*
X240000D02*
D03*
X260000Y800000D02*
D03*
X252000D02*
D03*
X244000D02*
D03*
X236000D02*
D03*
X891464Y188536D02*
D03*
X916800Y174475D02*
D03*
X852465Y151465D02*
D03*
X141736Y178011D02*
D03*
X107665Y188511D02*
D03*
X91736Y188510D02*
D03*
X332000Y314000D02*
D03*
X322000D02*
D03*
X320465Y237465D02*
D03*
X339000Y241000D02*
D03*
X427000Y275000D02*
D03*
Y281000D02*
D03*
X520000Y268000D02*
D03*
X532000Y269000D02*
D03*
X332000Y524000D02*
D03*
X373000Y515000D02*
D03*
X424000Y502000D02*
D03*
X473000Y517000D02*
D03*
X480000Y512000D02*
D03*
X470000Y507000D02*
D03*
X464000D02*
D03*
X523000Y518000D02*
D03*
Y529000D02*
D03*
X433000Y507000D02*
D03*
X438000Y511000D02*
D03*
X443000Y508000D02*
D03*
X127000Y802000D02*
D03*
X119000Y811000D02*
D03*
X135000D02*
D03*
X143000Y823000D02*
D03*
X127000D02*
D03*
X112000D02*
D03*
X156000Y721000D02*
D03*
X146000Y713000D02*
D03*
X156000Y705000D02*
D03*
Y689000D02*
D03*
X146000Y697000D02*
D03*
X136000Y705000D02*
D03*
X48000Y874000D02*
D03*
X55000Y882000D02*
D03*
X104000Y884071D02*
D03*
X72000Y870000D02*
D03*
Y879000D02*
D03*
X154000Y940000D02*
D03*
Y945000D02*
D03*
Y950000D02*
D03*
Y955000D02*
D03*
X191000Y948000D02*
D03*
X197000D02*
D03*
X203000D02*
D03*
Y956000D02*
D03*
X197000D02*
D03*
X191000D02*
D03*
X494000Y940000D02*
D03*
X506000D02*
D03*
Y971000D02*
D03*
X500000D02*
D03*
X494000D02*
D03*
X491000Y976000D02*
D03*
X497000D02*
D03*
X503000D02*
D03*
X509000D02*
D03*
X502000Y821000D02*
D03*
Y831000D02*
D03*
X518000Y821000D02*
D03*
Y826000D02*
D03*
Y831000D02*
D03*
X309000Y969000D02*
D03*
X290000Y965000D02*
D03*
Y953000D02*
D03*
X318000D02*
D03*
X300000D02*
D03*
X309000Y949000D02*
D03*
Y956000D02*
D03*
X455000Y824000D02*
D03*
X448000D02*
D03*
X442000Y822000D02*
D03*
X436000D02*
D03*
X430000D02*
D03*
X424000D02*
D03*
X502000Y826000D02*
D03*
X466000Y857000D02*
D03*
X474000D02*
D03*
X484000D02*
D03*
X492000D02*
D03*
X478000Y872000D02*
D03*
X488000D02*
D03*
X498000D02*
D03*
X303905Y807405D02*
D03*
X393000Y924000D02*
D03*
Y930000D02*
D03*
Y936000D02*
D03*
X400000Y930000D02*
D03*
Y936000D02*
D03*
X393000Y918000D02*
D03*
X293000Y529000D02*
D03*
X178000Y269363D02*
D03*
X211000Y368000D02*
D03*
X215000Y379000D02*
D03*
X803000Y219000D02*
D03*
X670000Y194000D02*
D03*
X576000Y195000D02*
D03*
X173000Y149000D02*
D03*
X597000Y312000D02*
D03*
Y363000D02*
D03*
X937000Y887000D02*
D03*
X465000Y555000D02*
D03*
Y582000D02*
D03*
X419000Y620000D02*
D03*
X346000Y501000D02*
D03*
X89200Y215975D02*
D03*
X473299Y691299D02*
D03*
X823000Y141000D02*
D03*
X446000Y199000D02*
D03*
X185000Y320000D02*
D03*
X124000Y280000D02*
D03*
X185000Y301000D02*
D03*
X116000Y264000D02*
D03*
X146000Y211000D02*
D03*
X62000Y151000D02*
D03*
X814000Y182000D02*
D03*
X819000Y195000D02*
D03*
X839000Y157000D02*
D03*
X529475Y155200D02*
D03*
X845000Y168000D02*
D03*
X925336Y142940D02*
D03*
X914000Y140000D02*
D03*
Y148000D02*
D03*
X903300Y205475D02*
D03*
X865300D02*
D03*
X874536Y188535D02*
D03*
X511987Y138730D02*
D03*
X330000Y699000D02*
D03*
X546475Y780200D02*
D03*
X391000Y813000D02*
D03*
X394000Y845000D02*
D03*
X389000Y872000D02*
D03*
X471000Y765000D02*
D03*
X504000Y906000D02*
D03*
X415000Y631000D02*
D03*
X399235Y758683D02*
D03*
X411000Y876000D02*
D03*
X421000Y612000D02*
D03*
X534000Y577000D02*
D03*
X536000Y621000D02*
D03*
X511000Y645000D02*
D03*
X454271Y721261D02*
D03*
X453651Y711000D02*
D03*
X212000Y855000D02*
D03*
X421000Y707000D02*
D03*
X473000Y702000D02*
D03*
X304000Y848000D02*
D03*
X305000Y764000D02*
D03*
X507000Y721000D02*
D03*
Y702000D02*
D03*
X400000Y725000D02*
D03*
X411393Y976380D02*
D03*
X727000Y761000D02*
D03*
X747000Y727000D02*
D03*
X579000Y770000D02*
D03*
X584000Y748000D02*
D03*
X225000Y875000D02*
D03*
X226000Y881000D02*
D03*
X181000Y872000D02*
D03*
X120000Y857000D02*
D03*
X231000Y951000D02*
D03*
X185000Y945000D02*
D03*
X487000Y900000D02*
D03*
X269000Y958000D02*
D03*
X269000Y922000D02*
D03*
X629000Y627000D02*
D03*
X619000D02*
D03*
X608000Y631000D02*
D03*
X601000D02*
D03*
X725000Y581000D02*
D03*
X728000Y566000D02*
D03*
X721000Y572000D02*
D03*
X752000Y636000D02*
D03*
X696000Y337000D02*
D03*
X713000Y435000D02*
D03*
X704000Y569000D02*
D03*
X315464Y413465D02*
D03*
X455000Y361000D02*
D03*
X603000Y574000D02*
D03*
X637000Y454000D02*
D03*
X602000Y465000D02*
D03*
X346495Y445000D02*
D03*
X220000Y376000D02*
D03*
X525000Y559000D02*
D03*
X561250Y586903D02*
D03*
X561000Y593000D02*
D03*
X565000Y608000D02*
D03*
X562500Y598500D02*
D03*
X570000Y605000D02*
D03*
X572000Y614000D02*
D03*
X577000Y611000D02*
D03*
X582000Y614000D02*
D03*
X587000Y611000D02*
D03*
X592000Y614000D02*
D03*
X291000Y420000D02*
D03*
Y432000D02*
D03*
X220000Y435000D02*
D03*
X427000Y517000D02*
D03*
X535000Y566000D02*
D03*
X752000Y435000D02*
D03*
X723000Y392000D02*
D03*
X724000Y732000D02*
D03*
X720000Y702000D02*
D03*
X648000Y745000D02*
D03*
Y700000D02*
D03*
X708000Y705000D02*
D03*
X713000Y740000D02*
D03*
X708000Y732000D02*
D03*
X700000Y703000D02*
D03*
X817000Y719000D02*
D03*
X922000Y130000D02*
D03*
X747000Y367000D02*
D03*
X846000Y403000D02*
D03*
X554000Y562000D02*
D03*
X351000Y558000D02*
D03*
X381000Y558000D02*
D03*
X411000Y558000D02*
D03*
X441000D02*
D03*
X480000Y546000D02*
D03*
X647452Y438452D02*
D03*
X708000Y560000D02*
D03*
X698000Y571000D02*
D03*
X692007Y569007D02*
D03*
X688251Y564990D02*
D03*
X660000Y588000D02*
D03*
X653000D02*
D03*
X645000Y591000D02*
D03*
X637000D02*
D03*
X630000D02*
D03*
X628000Y584000D02*
D03*
X621000Y587000D02*
D03*
Y578000D02*
D03*
X614000Y584000D02*
D03*
X608000Y578000D02*
D03*
X535000Y721000D02*
D03*
X513995Y730995D02*
D03*
X514000Y742000D02*
D03*
X175000Y904000D02*
D03*
X510000Y612000D02*
D03*
X503000Y711000D02*
D03*
X761000Y743000D02*
D03*
X648000Y662000D02*
D03*
X830000Y655000D02*
D03*
X758000Y652000D02*
D03*
X797000Y661000D02*
D03*
X791000Y670000D02*
D03*
X799000Y674000D02*
D03*
X794000Y681000D02*
D03*
X845000Y662000D02*
D03*
X815000Y694000D02*
D03*
X836500Y692500D02*
D03*
X886000Y721000D02*
D03*
X828000Y692000D02*
D03*
X896000Y697000D02*
D03*
X618000Y773000D02*
D03*
X623000Y777000D02*
D03*
X627000Y781000D02*
D03*
X630000Y787000D02*
D03*
X639000Y788000D02*
D03*
X560000Y856000D02*
D03*
X550000D02*
D03*
X555000Y859000D02*
D03*
X545000D02*
D03*
X540000Y856000D02*
D03*
X663000Y339000D02*
D03*
Y387000D02*
D03*
X651000Y317000D02*
D03*
X912000Y645000D02*
D03*
X912000Y635000D02*
D03*
Y625000D02*
D03*
X912000Y615000D02*
D03*
X651113Y377946D02*
D03*
X890000Y405846D02*
D03*
X889000Y609000D02*
D03*
Y616000D02*
D03*
X873000Y664500D02*
D03*
Y670000D02*
D03*
X825000Y572000D02*
D03*
X819800Y539475D02*
D03*
X768000Y446000D02*
D03*
X843000Y421000D02*
D03*
Y433000D02*
D03*
Y446000D02*
D03*
X567000Y238000D02*
D03*
X871000Y284000D02*
D03*
X747000Y340000D02*
D03*
X723000Y341000D02*
D03*
X873000Y586000D02*
D03*
X732000Y266000D02*
D03*
X807000D02*
D03*
Y253000D02*
D03*
Y241000D02*
D03*
X671000Y225000D02*
D03*
X601000Y213000D02*
D03*
Y236000D02*
D03*
X752000Y397000D02*
D03*
X526964Y204484D02*
D03*
X236000Y445000D02*
D03*
X480050Y385250D02*
D03*
X516050D02*
D03*
X465000Y361000D02*
D03*
X365000Y315000D02*
D03*
X378000Y538000D02*
D03*
X427995Y286606D02*
D03*
X361968Y278779D02*
D03*
X319000Y402000D02*
D03*
X319000Y477000D02*
D03*
X319000Y457000D02*
D03*
X816000Y319000D02*
D03*
X123000Y386000D02*
D03*
X178000D02*
D03*
X599000Y438000D02*
D03*
X589000Y438000D02*
D03*
X186000Y438000D02*
D03*
Y419000D02*
D03*
X186000Y399000D02*
D03*
X187000Y359000D02*
D03*
X187000Y339000D02*
D03*
X815000Y299000D02*
D03*
X815000Y279000D02*
D03*
Y219000D02*
D03*
X815000Y239000D02*
D03*
X490000Y210000D02*
D03*
X476000Y159500D02*
D03*
X511000Y125000D02*
D03*
X362760Y284222D02*
D03*
X735000Y148000D02*
D03*
X753000D02*
D03*
X715000Y236000D02*
D03*
X526000Y269000D02*
D03*
X504000Y204000D02*
D03*
X548043Y243107D02*
D03*
X545000Y238000D02*
D03*
X547043Y253107D02*
D03*
X545000Y248000D02*
D03*
Y218000D02*
D03*
X548043Y223107D02*
D03*
X545000Y228000D02*
D03*
X682000Y168000D02*
D03*
Y233000D02*
D03*
X859000Y234000D02*
D03*
X875000Y247000D02*
D03*
X91200Y247975D02*
D03*
X75200Y233975D02*
D03*
X864800Y162975D02*
D03*
X914300Y201975D02*
D03*
X81700Y205475D02*
D03*
X119700Y205475D02*
D03*
X130700Y201975D02*
D03*
X73200Y168975D02*
D03*
X73200Y150975D02*
D03*
X81200Y162975D02*
D03*
X130200Y140975D02*
D03*
Y148975D02*
D03*
X138200Y141475D02*
D03*
X394500Y335500D02*
D03*
X444500Y275500D02*
D03*
X444500Y311500D02*
D03*
X407000Y262000D02*
D03*
X412107Y259957D02*
D03*
X397000Y262000D02*
D03*
X402107Y258957D02*
D03*
X387000Y262000D02*
D03*
X382107Y258957D02*
D03*
X377000Y262000D02*
D03*
X528000Y193000D02*
D03*
X471500Y235500D02*
D03*
X495500Y285500D02*
D03*
X531500D02*
D03*
X642000Y156750D02*
D03*
X600000Y156750D02*
D03*
X580000Y231750D02*
D03*
X642000Y224750D02*
D03*
X347000Y353000D02*
D03*
X282000Y329000D02*
D03*
X313000Y334000D02*
D03*
X352000Y312000D02*
D03*
X344000Y304000D02*
D03*
X354000Y268000D02*
D03*
X314000Y256000D02*
D03*
X283000Y241000D02*
D03*
X466000Y138514D02*
D03*
X529000Y135000D02*
D03*
X512000Y159000D02*
D03*
X508000Y174000D02*
D03*
X472000D02*
D03*
X452000Y145000D02*
D03*
Y155000D02*
D03*
X501000Y660000D02*
D03*
Y598000D02*
D03*
X555000Y525000D02*
D03*
X620000D02*
D03*
X670000D02*
D03*
X761000Y623000D02*
D03*
Y678000D02*
D03*
X657000Y785000D02*
D03*
X607000D02*
D03*
D95*
X211535Y975660D02*
D03*
X222535D02*
D03*
X211535Y964660D02*
D03*
X222535D02*
D03*
X169535Y975660D02*
D03*
X180535D02*
D03*
X169535Y964660D02*
D03*
X180535D02*
D03*
D96*
X337600Y726190D02*
D03*
Y746510D02*
D03*
X388400Y736350D02*
D03*
M02*
