G04*
G04 #@! TF.GenerationSoftware,Altium Limited,Altium Designer,21.2.2 (38)*
G04*
G04 Layer_Color=8388736*
%FSLAX44Y44*%
%MOMM*%
G71*
G04*
G04 #@! TF.SameCoordinates,2A35CB41-4F08-4B63-A201-FD04A52A5515*
G04*
G04*
G04 #@! TF.FilePolarity,Positive*
G04*
G01*
G75*
%ADD10C,0.2000*%
%ADD76C,0.3000*%
%ADD97C,0.2540*%
%ADD100C,0.1000*%
%ADD103C,0.1270*%
%ADD185C,0.0500*%
%ADD186C,0.0762*%
%ADD187C,0.0508*%
%ADD188C,0.0400*%
%ADD189C,0.0250*%
%ADD190C,0.0200*%
G36*
X644100Y949286D02*
X644341Y949268D01*
X644619Y949231D01*
X644933Y949157D01*
X645248Y949083D01*
X645563Y948971D01*
X645600Y948953D01*
X645692Y948916D01*
X645841Y948823D01*
X646026Y948731D01*
X646248Y948583D01*
X646470Y948416D01*
X646711Y948212D01*
X646933Y947990D01*
X646952Y947953D01*
X647026Y947879D01*
X647137Y947731D01*
X647266Y947527D01*
X647396Y947305D01*
X647544Y947027D01*
X647692Y946712D01*
X647822Y946361D01*
Y946342D01*
X647840Y946324D01*
Y946268D01*
X647859Y946194D01*
X647896Y946101D01*
X647914Y945990D01*
X647970Y945713D01*
X648026Y945398D01*
X648063Y945009D01*
X648100Y944602D01*
X648118Y944139D01*
Y944120D01*
Y944083D01*
Y944009D01*
Y943916D01*
X648100Y943805D01*
Y943676D01*
X648081Y943380D01*
X648044Y943028D01*
X647989Y942639D01*
X647914Y942250D01*
X647803Y941861D01*
Y941843D01*
X647785Y941824D01*
X647766Y941769D01*
X647748Y941694D01*
X647674Y941509D01*
X647563Y941269D01*
X647433Y940991D01*
X647266Y940713D01*
X647081Y940417D01*
X646878Y940139D01*
X646841Y940102D01*
X646766Y940028D01*
X646637Y939898D01*
X646470Y939732D01*
X646248Y939565D01*
X646007Y939380D01*
X645730Y939213D01*
X645433Y939065D01*
X645415D01*
X645396Y939047D01*
X645285Y939010D01*
X645118Y938954D01*
X644878Y938880D01*
X644600Y938806D01*
X644285Y938750D01*
X643933Y938713D01*
X643563Y938695D01*
X643396D01*
X643285Y938713D01*
X643156D01*
X643008Y938732D01*
X642693Y938787D01*
X642674D01*
X642619Y938806D01*
X642545Y938824D01*
X642433Y938843D01*
X642193Y938917D01*
X641915Y939010D01*
X641897D01*
X641860Y939028D01*
X641785Y939065D01*
X641693Y939102D01*
X641489Y939195D01*
X641267Y939306D01*
X641248D01*
X641230Y939324D01*
X641119Y939398D01*
X640989Y939491D01*
X640878Y939584D01*
X640860Y939602D01*
X640823Y939639D01*
X640767Y939695D01*
X640749Y939750D01*
X640730Y939787D01*
X640693Y939880D01*
Y939898D01*
X640674Y939935D01*
Y939991D01*
X640656Y940065D01*
Y940083D01*
X640637Y940121D01*
Y940213D01*
Y940306D01*
Y940324D01*
Y940398D01*
Y940472D01*
X640656Y940565D01*
Y940583D01*
X640674Y940639D01*
X640712Y940769D01*
Y940787D01*
X640730Y940806D01*
X640786Y940880D01*
X640804D01*
X640897Y940898D01*
X640915D01*
X640971Y940880D01*
X641082Y940843D01*
X641211Y940750D01*
X641248Y940732D01*
X641360Y940658D01*
X641508Y940546D01*
X641730Y940417D01*
X641748Y940398D01*
X641785Y940380D01*
X641860Y940343D01*
X641952Y940287D01*
X642063Y940232D01*
X642193Y940176D01*
X642508Y940065D01*
X642526D01*
X642582Y940046D01*
X642674Y940010D01*
X642804Y939972D01*
X642971Y939954D01*
X643156Y939917D01*
X643359Y939898D01*
X643711D01*
X643841Y939917D01*
X644007Y939935D01*
X644211Y939972D01*
X644415Y940010D01*
X644637Y940083D01*
X644859Y940176D01*
X644878Y940195D01*
X644952Y940232D01*
X645063Y940287D01*
X645192Y940380D01*
X645341Y940491D01*
X645507Y940639D01*
X645655Y940806D01*
X645822Y940991D01*
X645841Y941009D01*
X645896Y941083D01*
X645970Y941195D01*
X646044Y941361D01*
X646155Y941546D01*
X646266Y941769D01*
X646359Y942028D01*
X646452Y942306D01*
Y942343D01*
X646489Y942435D01*
X646507Y942602D01*
X646544Y942805D01*
X646581Y943065D01*
X646618Y943361D01*
X646637Y943694D01*
X646655Y944065D01*
Y944083D01*
Y944102D01*
Y944157D01*
Y944231D01*
X646637Y944416D01*
Y944657D01*
X646600Y944916D01*
X646563Y945213D01*
X646526Y945509D01*
X646452Y945805D01*
X646433Y945842D01*
X646415Y945935D01*
X646359Y946064D01*
X646285Y946250D01*
X646211Y946453D01*
X646100Y946657D01*
X645970Y946861D01*
X645841Y947064D01*
X645822Y947083D01*
X645767Y947138D01*
X645674Y947231D01*
X645563Y947342D01*
X645415Y947472D01*
X645248Y947601D01*
X645063Y947712D01*
X644859Y947823D01*
X644841Y947842D01*
X644748Y947860D01*
X644637Y947897D01*
X644470Y947953D01*
X644285Y948009D01*
X644063Y948046D01*
X643822Y948064D01*
X643544Y948083D01*
X643322D01*
X643174Y948064D01*
X643008Y948046D01*
X642841Y948027D01*
X642470Y947935D01*
X642452D01*
X642396Y947916D01*
X642304Y947879D01*
X642193Y947842D01*
X641952Y947731D01*
X641693Y947601D01*
X641674D01*
X641637Y947564D01*
X641582Y947527D01*
X641508Y947490D01*
X641322Y947379D01*
X641156Y947268D01*
X641137D01*
X641119Y947250D01*
X641026Y947175D01*
X640915Y947120D01*
X640823Y947101D01*
X640786D01*
X640730Y947138D01*
X640712D01*
X640693Y947157D01*
X640674Y947175D01*
X640656Y947231D01*
Y947250D01*
X640637Y947268D01*
Y947324D01*
X640619Y947416D01*
Y947435D01*
X640600Y947490D01*
Y947583D01*
Y947712D01*
Y947731D01*
Y947786D01*
Y947860D01*
X640619Y947953D01*
Y947972D01*
Y948009D01*
X640656Y948120D01*
X640674Y948157D01*
X640712Y948231D01*
Y948249D01*
X640730Y948268D01*
X640767Y948323D01*
X640823Y948379D01*
X640841Y948398D01*
X640897Y948435D01*
X640989Y948509D01*
X641156Y948620D01*
X641174D01*
X641193Y948657D01*
X641248Y948675D01*
X641322Y948731D01*
X641526Y948823D01*
X641785Y948953D01*
X641804D01*
X641860Y948971D01*
X641934Y949008D01*
X642026Y949046D01*
X642156Y949083D01*
X642304Y949120D01*
X642656Y949194D01*
X642674D01*
X642748Y949212D01*
X642841Y949231D01*
X642971Y949249D01*
X643137Y949268D01*
X643322Y949286D01*
X643730Y949305D01*
X643896D01*
X644100Y949286D01*
D02*
G37*
G36*
X603993Y949305D02*
X604104D01*
X604400Y949268D01*
X604734Y949231D01*
X605085Y949175D01*
X605456Y949083D01*
X605826Y948953D01*
X605845D01*
X605863Y948934D01*
X605974Y948879D01*
X606160Y948805D01*
X606382Y948675D01*
X606622Y948527D01*
X606900Y948342D01*
X607159Y948138D01*
X607419Y947897D01*
X607456Y947860D01*
X607530Y947768D01*
X607641Y947638D01*
X607789Y947435D01*
X607956Y947194D01*
X608122Y946916D01*
X608270Y946601D01*
X608419Y946250D01*
Y946231D01*
X608437Y946212D01*
X608456Y946157D01*
X608474Y946083D01*
X608530Y945879D01*
X608585Y945620D01*
X608641Y945305D01*
X608696Y944935D01*
X608733Y944528D01*
X608752Y944102D01*
Y944083D01*
Y944046D01*
Y943990D01*
Y943898D01*
X608733Y943787D01*
Y943657D01*
X608696Y943361D01*
X608659Y943028D01*
X608604Y942639D01*
X608511Y942269D01*
X608382Y941880D01*
Y941861D01*
X608363Y941843D01*
X608344Y941787D01*
X608307Y941713D01*
X608233Y941528D01*
X608104Y941287D01*
X607974Y941028D01*
X607789Y940732D01*
X607585Y940454D01*
X607345Y940176D01*
X607308Y940139D01*
X607215Y940065D01*
X607085Y939935D01*
X606882Y939769D01*
X606641Y939584D01*
X606363Y939398D01*
X606048Y939232D01*
X605715Y939065D01*
X605697D01*
X605678Y939047D01*
X605622Y939028D01*
X605548Y939010D01*
X605363Y938935D01*
X605104Y938861D01*
X604789Y938806D01*
X604437Y938732D01*
X604049Y938695D01*
X603623Y938676D01*
X603400D01*
X603252Y938695D01*
X603086D01*
X602901Y938713D01*
X602512Y938787D01*
X602493D01*
X602419Y938806D01*
X602327Y938824D01*
X602197Y938861D01*
X602049Y938898D01*
X601901Y938935D01*
X601586Y939047D01*
X601567D01*
X601512Y939065D01*
X601438Y939102D01*
X601345Y939139D01*
X601123Y939232D01*
X600901Y939343D01*
X600882D01*
X600864Y939361D01*
X600753Y939436D01*
X600623Y939528D01*
X600530Y939621D01*
X600512Y939639D01*
X600475Y939676D01*
X600419Y939769D01*
X600382Y939861D01*
X600364Y939880D01*
X600345Y939954D01*
X600327Y940083D01*
Y940250D01*
Y940269D01*
Y940343D01*
Y940435D01*
X600345Y940528D01*
Y940546D01*
X600364Y940583D01*
X600401Y940713D01*
Y940732D01*
X600419Y940750D01*
X600493Y940824D01*
X600512D01*
X600586Y940843D01*
X600605D01*
X600660Y940824D01*
X600753Y940787D01*
X600901Y940695D01*
X600919D01*
X600938Y940676D01*
X600993Y940639D01*
X601067Y940602D01*
X601253Y940491D01*
X601512Y940361D01*
X601530D01*
X601586Y940324D01*
X601660Y940287D01*
X601771Y940250D01*
X601901Y940195D01*
X602049Y940139D01*
X602234Y940083D01*
X602419Y940028D01*
X602438D01*
X602512Y940010D01*
X602623Y939972D01*
X602771Y939935D01*
X602938Y939917D01*
X603160Y939880D01*
X603382Y939861D01*
X603789D01*
X603956Y939880D01*
X604160Y939898D01*
X604400Y939935D01*
X604660Y939991D01*
X604937Y940065D01*
X605197Y940176D01*
X605234Y940195D01*
X605308Y940232D01*
X605437Y940306D01*
X605586Y940398D01*
X605771Y940528D01*
X605956Y940676D01*
X606160Y940843D01*
X606345Y941046D01*
X606363Y941065D01*
X606419Y941139D01*
X606511Y941269D01*
X606604Y941417D01*
X606715Y941602D01*
X606845Y941843D01*
X606956Y942083D01*
X607067Y942361D01*
X607085Y942398D01*
X607104Y942491D01*
X607141Y942639D01*
X607178Y942842D01*
X607234Y943102D01*
X607271Y943380D01*
X607289Y943676D01*
X607308Y944009D01*
Y944028D01*
Y944046D01*
Y944102D01*
Y944176D01*
X607289Y944361D01*
X607271Y944602D01*
X607252Y944861D01*
X607196Y945157D01*
X607141Y945472D01*
X607048Y945768D01*
X607030Y945805D01*
X606993Y945898D01*
X606937Y946027D01*
X606845Y946212D01*
X606734Y946416D01*
X606604Y946638D01*
X606456Y946861D01*
X606289Y947064D01*
X606271Y947083D01*
X606197Y947157D01*
X606104Y947250D01*
X605956Y947361D01*
X605789Y947490D01*
X605586Y947620D01*
X605363Y947749D01*
X605123Y947860D01*
X605085Y947879D01*
X604993Y947897D01*
X604863Y947935D01*
X604678Y947990D01*
X604456Y948046D01*
X604197Y948083D01*
X603919Y948101D01*
X603623Y948120D01*
X603438D01*
X603326Y948101D01*
X603178D01*
X603012Y948064D01*
X602641Y948009D01*
X602623D01*
X602549Y947990D01*
X602456Y947953D01*
X602345Y947916D01*
X602197Y947879D01*
X602030Y947805D01*
X601716Y947657D01*
Y944639D01*
X604160D01*
X604215Y944620D01*
X604289Y944583D01*
X604345Y944509D01*
Y944491D01*
X604363Y944398D01*
X604382Y944268D01*
X604400Y944083D01*
Y944065D01*
Y943990D01*
Y943916D01*
Y943824D01*
Y943805D01*
X604382Y943768D01*
X604363Y943713D01*
X604345Y943657D01*
Y943639D01*
X604326Y943620D01*
X604271Y943546D01*
X604252D01*
X604234Y943528D01*
X604141Y943509D01*
X600790D01*
X600679Y943546D01*
X600660D01*
X600623Y943565D01*
X600512Y943657D01*
X600493Y943676D01*
X600475Y943694D01*
X600438Y943750D01*
X600401Y943824D01*
X600382Y943842D01*
X600364Y943898D01*
X600345Y943972D01*
Y944083D01*
Y948027D01*
Y948064D01*
Y948157D01*
X600382Y948268D01*
X600419Y948398D01*
X600438Y948416D01*
X600493Y948490D01*
X600586Y948564D01*
X600734Y948657D01*
X600753D01*
X600771Y948675D01*
X600827Y948694D01*
X600882Y948731D01*
X601086Y948805D01*
X601327Y948916D01*
X601345D01*
X601382Y948934D01*
X601456Y948953D01*
X601567Y948990D01*
X601679Y949027D01*
X601808Y949064D01*
X602104Y949138D01*
X602123D01*
X602178Y949157D01*
X602253D01*
X602345Y949175D01*
X602475Y949194D01*
X602604Y949231D01*
X602901Y949268D01*
X602975D01*
X603049Y949286D01*
X603141D01*
X603400Y949305D01*
X603678Y949323D01*
X603882D01*
X603993Y949305D01*
D02*
G37*
G36*
X655525Y949212D02*
X655636Y949194D01*
X655654D01*
X655710Y949175D01*
X655858Y949157D01*
X655877D01*
X655895Y949138D01*
X655969Y949101D01*
Y949083D01*
Y949064D01*
X655988Y948990D01*
Y939417D01*
Y939398D01*
Y939361D01*
X655969Y939250D01*
X655914Y939102D01*
X655821Y938972D01*
X655784Y938954D01*
X655710Y938898D01*
X655599Y938843D01*
X655451Y938824D01*
X653025D01*
X652821Y938843D01*
X652599Y938861D01*
X652544D01*
X652469Y938880D01*
X652395Y938898D01*
X652284Y938917D01*
X652155Y938935D01*
X651859Y938991D01*
X651840D01*
X651784Y939010D01*
X651692Y939028D01*
X651599Y939065D01*
X651470Y939102D01*
X651321Y939158D01*
X651007Y939324D01*
X650988Y939343D01*
X650933Y939361D01*
X650859Y939417D01*
X650748Y939491D01*
X650507Y939695D01*
X650266Y939954D01*
X650247Y939972D01*
X650210Y940010D01*
X650155Y940102D01*
X650081Y940195D01*
X650007Y940324D01*
X649933Y940472D01*
X649785Y940806D01*
Y940824D01*
X649766Y940898D01*
X649729Y940991D01*
X649692Y941121D01*
X649673Y941269D01*
X649637Y941454D01*
X649618Y941861D01*
Y941898D01*
Y941991D01*
X649637Y942139D01*
X649655Y942324D01*
X649673Y942546D01*
X649729Y942787D01*
X649785Y943028D01*
X649877Y943268D01*
X649896Y943287D01*
X649933Y943380D01*
X649988Y943491D01*
X650062Y943639D01*
X650173Y943805D01*
X650303Y943990D01*
X650451Y944176D01*
X650618Y944342D01*
X650636Y944361D01*
X650710Y944416D01*
X650803Y944491D01*
X650951Y944602D01*
X651118Y944713D01*
X651321Y944824D01*
X651544Y944935D01*
X651803Y945027D01*
X651840D01*
X651933Y945064D01*
X652062Y945101D01*
X652266Y945139D01*
X652506Y945176D01*
X652784Y945213D01*
X653099Y945231D01*
X653451Y945250D01*
X654617D01*
Y948990D01*
Y949027D01*
X654654Y949101D01*
X654691Y949120D01*
X654728Y949138D01*
X654784Y949157D01*
X654803D01*
X654840Y949175D01*
X654895D01*
X654988Y949194D01*
X655006D01*
X655080Y949212D01*
X655173Y949231D01*
X655414D01*
X655525Y949212D01*
D02*
G37*
G36*
X638397Y949157D02*
X638508Y949120D01*
X638638Y949064D01*
X638656Y949046D01*
X638712Y948953D01*
X638767Y948823D01*
X638786Y948620D01*
Y939398D01*
Y939380D01*
Y939343D01*
X638767Y939232D01*
X638730Y939084D01*
X638638Y938954D01*
X638601Y938935D01*
X638526Y938880D01*
X638415Y938843D01*
X638286Y938824D01*
X635582D01*
X635379Y938843D01*
X635138Y938861D01*
X634879Y938898D01*
X634638Y938954D01*
X634397Y939010D01*
X634379D01*
X634305Y939047D01*
X634194Y939084D01*
X634045Y939139D01*
X633731Y939306D01*
X633564Y939417D01*
X633416Y939528D01*
X633397Y939547D01*
X633342Y939584D01*
X633268Y939658D01*
X633194Y939750D01*
X633083Y939880D01*
X632990Y940028D01*
X632897Y940176D01*
X632805Y940361D01*
X632786Y940380D01*
X632768Y940454D01*
X632731Y940546D01*
X632694Y940676D01*
X632657Y940843D01*
X632638Y941028D01*
X632601Y941232D01*
Y941454D01*
Y941472D01*
Y941509D01*
Y941583D01*
X632620Y941676D01*
X632638Y941898D01*
X632694Y942157D01*
Y942176D01*
X632712Y942213D01*
X632731Y942287D01*
X632768Y942361D01*
X632842Y942565D01*
X632971Y942787D01*
Y942805D01*
X633009Y942824D01*
X633083Y942954D01*
X633212Y943120D01*
X633397Y943287D01*
X633416D01*
X633434Y943324D01*
X633490Y943361D01*
X633564Y943417D01*
X633749Y943528D01*
X633990Y943657D01*
X633971D01*
X633916Y943676D01*
X633842Y943694D01*
X633731Y943713D01*
X633471Y943805D01*
X633194Y943953D01*
X633175D01*
X633138Y943990D01*
X633064Y944028D01*
X632971Y944102D01*
X632768Y944268D01*
X632564Y944491D01*
X632546Y944509D01*
X632509Y944546D01*
X632472Y944620D01*
X632397Y944713D01*
X632342Y944824D01*
X632268Y944953D01*
X632120Y945268D01*
Y945287D01*
X632101Y945342D01*
X632064Y945435D01*
X632027Y945546D01*
X632009Y945694D01*
X631972Y945842D01*
X631953Y946212D01*
Y946231D01*
Y946305D01*
Y946398D01*
X631972Y946509D01*
X631990Y946657D01*
X632009Y946805D01*
X632083Y947120D01*
Y947138D01*
X632101Y947194D01*
X632138Y947268D01*
X632175Y947361D01*
X632286Y947601D01*
X632435Y947860D01*
X632453Y947879D01*
X632472Y947916D01*
X632527Y947972D01*
X632583Y948064D01*
X632749Y948249D01*
X632971Y948435D01*
X632990Y948453D01*
X633027Y948472D01*
X633101Y948527D01*
X633175Y948583D01*
X633286Y948638D01*
X633416Y948712D01*
X633694Y948842D01*
X633712D01*
X633768Y948860D01*
X633842Y948897D01*
X633953Y948934D01*
X634064Y948971D01*
X634212Y949027D01*
X634545Y949101D01*
X634564D01*
X634619Y949120D01*
X634712D01*
X634842Y949138D01*
X634990Y949157D01*
X635175D01*
X635360Y949175D01*
X638323D01*
X638397Y949157D01*
D02*
G37*
G36*
X625787D02*
X625898Y949120D01*
X626028Y949064D01*
X626046Y949046D01*
X626102Y948953D01*
X626157Y948823D01*
X626176Y948620D01*
Y939398D01*
Y939380D01*
Y939343D01*
X626157Y939232D01*
X626120Y939084D01*
X626028Y938954D01*
X625991Y938935D01*
X625917Y938880D01*
X625806Y938843D01*
X625676Y938824D01*
X620714D01*
X620639Y938861D01*
X620621D01*
X620602Y938880D01*
X620565Y938972D01*
Y938991D01*
X620547Y939028D01*
X620528Y939084D01*
X620510Y939158D01*
Y939176D01*
X620491Y939232D01*
X620473Y939306D01*
Y939417D01*
Y939436D01*
Y939510D01*
X620491Y939584D01*
X620510Y939676D01*
Y939695D01*
X620528Y939732D01*
X620565Y939861D01*
X620584Y939898D01*
X620639Y939954D01*
X620676D01*
X620751Y939972D01*
X624806D01*
Y943213D01*
X621306D01*
X621232Y943250D01*
X621213D01*
X621195Y943268D01*
X621139Y943361D01*
Y943380D01*
X621121Y943398D01*
X621102Y943454D01*
X621084Y943528D01*
Y943546D01*
X621065Y943602D01*
Y943694D01*
Y943805D01*
Y943824D01*
Y943879D01*
Y943953D01*
X621084Y944046D01*
Y944065D01*
X621102Y944102D01*
X621121Y944157D01*
X621139Y944213D01*
X621158Y944250D01*
X621232Y944305D01*
X621269D01*
X621343Y944324D01*
X624806D01*
Y948027D01*
X620676D01*
X620602Y948064D01*
X620584D01*
X620565Y948083D01*
X620510Y948175D01*
X620491Y948194D01*
X620473Y948212D01*
X620454Y948268D01*
X620436Y948342D01*
Y948361D01*
X620417Y948416D01*
Y948509D01*
Y948620D01*
Y948638D01*
Y948712D01*
Y948786D01*
X620436Y948879D01*
Y948897D01*
X620454Y948934D01*
X620510Y949046D01*
Y949064D01*
X620528Y949083D01*
X620602Y949157D01*
X620621D01*
X620714Y949175D01*
X625713D01*
X625787Y949157D01*
D02*
G37*
G36*
X617788D02*
X617899Y949120D01*
X618029Y949064D01*
X618047Y949046D01*
X618103Y948953D01*
X618158Y948823D01*
X618177Y948620D01*
Y939398D01*
Y939380D01*
Y939343D01*
X618158Y939232D01*
X618121Y939084D01*
X618029Y938954D01*
X617992Y938935D01*
X617918Y938880D01*
X617806Y938843D01*
X617677Y938824D01*
X615103D01*
X614992Y938843D01*
X614862D01*
X614548Y938861D01*
X614196Y938917D01*
X613807Y938972D01*
X613437Y939065D01*
X613066Y939176D01*
X613048D01*
X613029Y939195D01*
X612900Y939232D01*
X612733Y939324D01*
X612511Y939436D01*
X612270Y939584D01*
X612011Y939750D01*
X611733Y939954D01*
X611492Y940176D01*
X611455Y940213D01*
X611381Y940287D01*
X611270Y940435D01*
X611141Y940620D01*
X610992Y940843D01*
X610826Y941121D01*
X610677Y941435D01*
X610548Y941769D01*
Y941787D01*
X610529Y941806D01*
X610511Y941861D01*
X610492Y941935D01*
X610437Y942120D01*
X610381Y942380D01*
X610326Y942694D01*
X610270Y943046D01*
X610233Y943435D01*
X610215Y943861D01*
Y943879D01*
Y943916D01*
Y943990D01*
Y944083D01*
X610233Y944194D01*
Y944342D01*
X610252Y944657D01*
X610307Y945027D01*
X610363Y945416D01*
X610455Y945824D01*
X610566Y946212D01*
Y946231D01*
X610585Y946250D01*
X610603Y946305D01*
X610622Y946379D01*
X610715Y946564D01*
X610826Y946786D01*
X610974Y947064D01*
X611141Y947342D01*
X611344Y947620D01*
X611585Y947879D01*
X611622Y947916D01*
X611696Y947990D01*
X611844Y948101D01*
X612029Y948249D01*
X612270Y948398D01*
X612529Y948564D01*
X612844Y948731D01*
X613196Y948860D01*
X613214D01*
X613233Y948879D01*
X613288Y948897D01*
X613363Y948916D01*
X613455Y948934D01*
X613566Y948953D01*
X613844Y949008D01*
X614177Y949083D01*
X614566Y949120D01*
X614992Y949157D01*
X615473Y949175D01*
X617714D01*
X617788Y949157D01*
D02*
G37*
G36*
X597383D02*
X597494Y949120D01*
X597623Y949064D01*
X597642Y949046D01*
X597697Y948953D01*
X597753Y948823D01*
X597771Y948620D01*
Y939398D01*
Y939380D01*
Y939343D01*
X597753Y939232D01*
X597716Y939084D01*
X597623Y938954D01*
X597586Y938935D01*
X597512Y938880D01*
X597401Y938843D01*
X597271Y938824D01*
X592309D01*
X592235Y938861D01*
X592216D01*
X592198Y938880D01*
X592161Y938972D01*
Y938991D01*
X592142Y939028D01*
X592124Y939084D01*
X592105Y939158D01*
Y939176D01*
X592087Y939232D01*
X592068Y939306D01*
Y939417D01*
Y939436D01*
Y939510D01*
X592087Y939584D01*
X592105Y939676D01*
Y939695D01*
X592124Y939732D01*
X592161Y939861D01*
X592179Y939898D01*
X592235Y939954D01*
X592272D01*
X592346Y939972D01*
X596401D01*
Y943213D01*
X592902D01*
X592827Y943250D01*
X592809D01*
X592790Y943268D01*
X592735Y943361D01*
Y943380D01*
X592716Y943398D01*
X592698Y943454D01*
X592679Y943528D01*
Y943546D01*
X592661Y943602D01*
Y943694D01*
Y943805D01*
Y943824D01*
Y943879D01*
Y943953D01*
X592679Y944046D01*
Y944065D01*
X592698Y944102D01*
X592716Y944157D01*
X592735Y944213D01*
X592753Y944250D01*
X592827Y944305D01*
X592865D01*
X592939Y944324D01*
X596401D01*
Y948027D01*
X592272D01*
X592198Y948064D01*
X592179D01*
X592161Y948083D01*
X592105Y948175D01*
X592087Y948194D01*
X592068Y948212D01*
X592050Y948268D01*
X592031Y948342D01*
Y948361D01*
X592013Y948416D01*
Y948509D01*
Y948620D01*
Y948638D01*
Y948712D01*
Y948786D01*
X592031Y948879D01*
Y948897D01*
X592050Y948934D01*
X592105Y949046D01*
Y949064D01*
X592124Y949083D01*
X592198Y949157D01*
X592216D01*
X592309Y949175D01*
X597309D01*
X597383Y949157D01*
D02*
G37*
G36*
X1188583Y830647D02*
X1188769Y830629D01*
X1188991Y830592D01*
X1189213Y830536D01*
X1189435Y830462D01*
X1189657Y830351D01*
X1189676Y830332D01*
X1189750Y830295D01*
X1189843Y830221D01*
X1189972Y830129D01*
X1190120Y830017D01*
X1190268Y829869D01*
X1190417Y829703D01*
X1190546Y829518D01*
X1190565Y829499D01*
X1190602Y829425D01*
X1190676Y829314D01*
X1190750Y829166D01*
X1190824Y828999D01*
X1190917Y828777D01*
X1190991Y828555D01*
X1191065Y828296D01*
Y828258D01*
X1191083Y828166D01*
X1191120Y828036D01*
X1191157Y827851D01*
X1191176Y827629D01*
X1191213Y827370D01*
X1191231Y827110D01*
Y826814D01*
Y826796D01*
Y826777D01*
Y826722D01*
Y826647D01*
X1191213Y826481D01*
Y826240D01*
X1191176Y825981D01*
X1191139Y825703D01*
X1191083Y825407D01*
X1191009Y825111D01*
Y825074D01*
X1190972Y824981D01*
X1190917Y824851D01*
X1190861Y824666D01*
X1190768Y824481D01*
X1190676Y824259D01*
X1190546Y824037D01*
X1190417Y823833D01*
X1190398Y823814D01*
X1190342Y823740D01*
X1190268Y823648D01*
X1190157Y823537D01*
X1190009Y823407D01*
X1189843Y823278D01*
X1189639Y823148D01*
X1189435Y823037D01*
X1189417Y823018D01*
X1189324Y823000D01*
X1189213Y822944D01*
X1189046Y822907D01*
X1188843Y822852D01*
X1188621Y822796D01*
X1188380Y822777D01*
X1188102Y822759D01*
X1187991D01*
X1187898Y822777D01*
X1187713Y822796D01*
X1187491Y822833D01*
X1187472D01*
X1187454Y822852D01*
X1187324Y822870D01*
X1187158Y822944D01*
X1186973Y823018D01*
X1186954D01*
X1186935Y823037D01*
X1186806Y823111D01*
X1186639Y823222D01*
X1186454Y823352D01*
X1186435Y823370D01*
X1186417Y823389D01*
X1186361Y823444D01*
X1186287Y823500D01*
X1186121Y823648D01*
X1185917Y823851D01*
Y820259D01*
Y820222D01*
X1185880Y820167D01*
X1185862Y820130D01*
X1185769Y820074D01*
X1185750D01*
X1185713Y820056D01*
X1185658Y820037D01*
X1185565Y820019D01*
X1185491D01*
X1185380Y820000D01*
X1185028D01*
X1184917Y820019D01*
X1184899D01*
X1184862Y820037D01*
X1184732Y820074D01*
X1184714D01*
X1184695Y820093D01*
X1184621Y820167D01*
Y820185D01*
X1184602Y820259D01*
Y830295D01*
Y830314D01*
Y830332D01*
X1184621Y830406D01*
Y830425D01*
X1184639Y830443D01*
X1184676Y830462D01*
X1184714Y830480D01*
X1184732D01*
X1184769Y830499D01*
X1184825Y830518D01*
X1184899Y830536D01*
X1184917D01*
X1184973Y830555D01*
X1185361D01*
X1185436Y830536D01*
X1185454D01*
X1185510Y830518D01*
X1185621Y830480D01*
X1185639D01*
X1185658Y830462D01*
X1185695Y830443D01*
X1185713Y830406D01*
X1185732Y830388D01*
X1185750Y830295D01*
Y829332D01*
X1185769Y829351D01*
X1185806Y829388D01*
X1185880Y829444D01*
X1185954Y829536D01*
X1186158Y829721D01*
X1186380Y829906D01*
X1186398Y829925D01*
X1186435Y829943D01*
X1186491Y829999D01*
X1186584Y830055D01*
X1186769Y830184D01*
X1186991Y830314D01*
X1187010D01*
X1187047Y830351D01*
X1187102Y830369D01*
X1187195Y830406D01*
X1187398Y830499D01*
X1187621Y830573D01*
X1187639D01*
X1187676Y830592D01*
X1187750Y830610D01*
X1187824Y830629D01*
X1188046Y830647D01*
X1188306Y830666D01*
X1188435D01*
X1188583Y830647D01*
D02*
G37*
G36*
X1139829Y830647D02*
X1139996Y830629D01*
X1140181Y830610D01*
X1140385Y830555D01*
X1140570Y830499D01*
X1140755Y830406D01*
X1140774Y830388D01*
X1140829Y830369D01*
X1140922Y830314D01*
X1141033Y830240D01*
X1141144Y830147D01*
X1141273Y830036D01*
X1141403Y829906D01*
X1141514Y829758D01*
X1141533Y829740D01*
X1141570Y829684D01*
X1141607Y829592D01*
X1141681Y829481D01*
X1141755Y829351D01*
X1141811Y829184D01*
X1141885Y828999D01*
X1141940Y828795D01*
Y828777D01*
X1141959Y828703D01*
X1141977Y828592D01*
X1142014Y828444D01*
X1142033Y828277D01*
X1142051Y828092D01*
X1142070Y827647D01*
Y823092D01*
Y823074D01*
Y823055D01*
X1142033Y822981D01*
X1142014Y822963D01*
X1141922Y822907D01*
X1141903D01*
X1141866Y822889D01*
X1141811D01*
X1141718Y822870D01*
X1141625D01*
X1141533Y822852D01*
X1141181D01*
X1141070Y822870D01*
X1141051D01*
X1140996Y822889D01*
X1140922D01*
X1140866Y822907D01*
X1140848D01*
X1140829Y822926D01*
X1140755Y822981D01*
Y823018D01*
X1140736Y823092D01*
Y827462D01*
Y827481D01*
Y827536D01*
Y827629D01*
X1140718Y827740D01*
X1140699Y828018D01*
X1140644Y828295D01*
Y828314D01*
X1140625Y828370D01*
X1140607Y828425D01*
X1140588Y828518D01*
X1140496Y828740D01*
X1140385Y828943D01*
Y828962D01*
X1140348Y828999D01*
X1140274Y829110D01*
X1140126Y829240D01*
X1139940Y829369D01*
X1139922D01*
X1139885Y829388D01*
X1139829Y829425D01*
X1139755Y829444D01*
X1139551Y829499D01*
X1139311Y829518D01*
X1139237D01*
X1139144Y829499D01*
X1139015Y829481D01*
X1138885Y829425D01*
X1138718Y829369D01*
X1138552Y829277D01*
X1138385Y829147D01*
X1138366Y829129D01*
X1138311Y829092D01*
X1138218Y828999D01*
X1138089Y828888D01*
X1137941Y828740D01*
X1137774Y828573D01*
X1137589Y828370D01*
X1137385Y828129D01*
Y823092D01*
Y823074D01*
Y823055D01*
X1137348Y822981D01*
X1137329Y822963D01*
X1137237Y822907D01*
X1137218D01*
X1137181Y822889D01*
X1137126D01*
X1137033Y822870D01*
X1136941D01*
X1136848Y822852D01*
X1136515D01*
X1136404Y822870D01*
X1136385D01*
X1136330Y822889D01*
X1136255D01*
X1136200Y822907D01*
X1136181D01*
X1136163Y822926D01*
X1136089Y822981D01*
Y823018D01*
X1136070Y823092D01*
Y827462D01*
Y827481D01*
Y827536D01*
Y827629D01*
X1136052Y827740D01*
X1136033Y828018D01*
X1135978Y828295D01*
Y828314D01*
X1135959Y828370D01*
X1135941Y828425D01*
X1135904Y828518D01*
X1135830Y828740D01*
X1135700Y828943D01*
Y828962D01*
X1135663Y828999D01*
X1135589Y829110D01*
X1135441Y829240D01*
X1135256Y829369D01*
X1135237D01*
X1135219Y829388D01*
X1135163Y829425D01*
X1135089Y829444D01*
X1134885Y829499D01*
X1134626Y829518D01*
X1134552D01*
X1134459Y829499D01*
X1134330Y829481D01*
X1134200Y829425D01*
X1134034Y829369D01*
X1133867Y829277D01*
X1133700Y829147D01*
X1133682Y829129D01*
X1133626Y829092D01*
X1133534Y828999D01*
X1133404Y828888D01*
X1133256Y828740D01*
X1133089Y828573D01*
X1132904Y828370D01*
X1132700Y828129D01*
Y823092D01*
Y823074D01*
Y823055D01*
X1132663Y822981D01*
X1132645Y822963D01*
X1132552Y822907D01*
X1132534D01*
X1132497Y822889D01*
X1132441D01*
X1132348Y822870D01*
X1132274D01*
X1132163Y822852D01*
X1131812D01*
X1131700Y822870D01*
X1131682D01*
X1131645Y822889D01*
X1131515Y822907D01*
X1131497D01*
X1131478Y822926D01*
X1131404Y822981D01*
Y823018D01*
X1131386Y823092D01*
Y830295D01*
Y830314D01*
Y830332D01*
X1131404Y830406D01*
X1131423Y830425D01*
X1131460Y830462D01*
X1131497Y830480D01*
X1131515D01*
X1131552Y830499D01*
X1131608Y830517D01*
X1131682Y830536D01*
X1131700D01*
X1131756Y830555D01*
X1132163D01*
X1132256Y830536D01*
X1132274D01*
X1132330Y830517D01*
X1132385Y830499D01*
X1132441Y830480D01*
X1132460D01*
X1132478Y830462D01*
X1132515Y830443D01*
X1132534Y830406D01*
X1132552Y830388D01*
X1132571Y830295D01*
Y829351D01*
X1132589Y829388D01*
X1132682Y829462D01*
X1132793Y829573D01*
X1132941Y829721D01*
X1133108Y829888D01*
X1133311Y830054D01*
X1133515Y830203D01*
X1133737Y830332D01*
X1133756Y830351D01*
X1133830Y830388D01*
X1133960Y830443D01*
X1134108Y830499D01*
X1134274Y830555D01*
X1134478Y830610D01*
X1134682Y830647D01*
X1134904Y830666D01*
X1135070D01*
X1135163Y830647D01*
X1135422Y830629D01*
X1135700Y830555D01*
X1135719D01*
X1135756Y830536D01*
X1135830Y830517D01*
X1135922Y830480D01*
X1136126Y830388D01*
X1136330Y830258D01*
X1136348D01*
X1136385Y830221D01*
X1136496Y830129D01*
X1136644Y829999D01*
X1136793Y829814D01*
X1136811Y829795D01*
X1136830Y829777D01*
X1136867Y829721D01*
X1136904Y829647D01*
X1137015Y829462D01*
X1137126Y829240D01*
X1137144Y829258D01*
X1137181Y829314D01*
X1137255Y829369D01*
X1137348Y829462D01*
X1137552Y829684D01*
X1137792Y829888D01*
X1137811Y829906D01*
X1137848Y829943D01*
X1137922Y829980D01*
X1137996Y830054D01*
X1138200Y830184D01*
X1138422Y830332D01*
X1138440D01*
X1138477Y830369D01*
X1138533Y830388D01*
X1138607Y830425D01*
X1138811Y830499D01*
X1139015Y830573D01*
X1139033D01*
X1139070Y830592D01*
X1139126Y830610D01*
X1139200Y830629D01*
X1139366Y830647D01*
X1139588Y830666D01*
X1139700D01*
X1139829Y830647D01*
D02*
G37*
G36*
X1119405D02*
X1119609Y830610D01*
X1119665D01*
X1119720Y830592D01*
X1119794Y830573D01*
X1119961Y830536D01*
X1120128Y830480D01*
X1120146D01*
X1120165Y830462D01*
X1120276Y830443D01*
X1120405Y830388D01*
X1120535Y830332D01*
X1120572Y830314D01*
X1120628Y830277D01*
X1120702Y830240D01*
X1120776Y830184D01*
X1120794D01*
X1120831Y830147D01*
X1120868Y830110D01*
X1120887Y830073D01*
X1120905Y830036D01*
X1120924Y829962D01*
Y829943D01*
X1120942Y829925D01*
X1120961Y829814D01*
Y829795D01*
X1120979Y829758D01*
Y829684D01*
Y829610D01*
Y829592D01*
Y829518D01*
Y829444D01*
X1120961Y829351D01*
Y829332D01*
X1120942Y829295D01*
X1120905Y829203D01*
X1120887Y829166D01*
X1120850Y829110D01*
X1120831D01*
X1120757Y829092D01*
X1120739D01*
X1120702Y829110D01*
X1120646Y829129D01*
X1120553Y829166D01*
X1120535Y829184D01*
X1120461Y829221D01*
X1120350Y829277D01*
X1120202Y829351D01*
X1120165Y829369D01*
X1120072Y829425D01*
X1119905Y829481D01*
X1119702Y829555D01*
X1119683D01*
X1119646Y829573D01*
X1119591Y829592D01*
X1119517Y829610D01*
X1119294Y829629D01*
X1119035Y829647D01*
X1118924D01*
X1118831Y829629D01*
X1118646Y829610D01*
X1118443Y829555D01*
X1118424D01*
X1118406Y829536D01*
X1118294Y829499D01*
X1118146Y829425D01*
X1118017Y829332D01*
X1117998Y829314D01*
X1117924Y829240D01*
X1117850Y829129D01*
X1117776Y828999D01*
X1117757Y828962D01*
X1117739Y828888D01*
X1117720Y828758D01*
X1117702Y828592D01*
Y828573D01*
Y828536D01*
Y828481D01*
X1117720Y828407D01*
X1117757Y828240D01*
X1117850Y828055D01*
X1117887Y828018D01*
X1117961Y827925D01*
X1118091Y827814D01*
X1118257Y827684D01*
X1118276D01*
X1118313Y827666D01*
X1118350Y827629D01*
X1118424Y827592D01*
X1118609Y827499D01*
X1118850Y827407D01*
X1118868D01*
X1118905Y827388D01*
X1118979Y827351D01*
X1119054Y827333D01*
X1119276Y827240D01*
X1119517Y827147D01*
X1119535D01*
X1119572Y827129D01*
X1119646Y827092D01*
X1119720Y827055D01*
X1119942Y826962D01*
X1120183Y826833D01*
X1120202D01*
X1120239Y826796D01*
X1120294Y826759D01*
X1120387Y826721D01*
X1120572Y826592D01*
X1120776Y826425D01*
X1120794Y826407D01*
X1120813Y826388D01*
X1120868Y826333D01*
X1120924Y826277D01*
X1121053Y826092D01*
X1121183Y825851D01*
Y825833D01*
X1121201Y825796D01*
X1121239Y825722D01*
X1121276Y825629D01*
X1121294Y825518D01*
X1121331Y825370D01*
X1121350Y825055D01*
Y825036D01*
Y824962D01*
X1121331Y824851D01*
Y824722D01*
X1121294Y824574D01*
X1121257Y824407D01*
X1121201Y824240D01*
X1121127Y824074D01*
Y824055D01*
X1121090Y824000D01*
X1121035Y823925D01*
X1120979Y823833D01*
X1120794Y823592D01*
X1120553Y823352D01*
X1120535Y823333D01*
X1120479Y823296D01*
X1120405Y823259D01*
X1120313Y823185D01*
X1120183Y823111D01*
X1120016Y823037D01*
X1119850Y822963D01*
X1119665Y822907D01*
X1119646D01*
X1119572Y822889D01*
X1119461Y822870D01*
X1119331Y822833D01*
X1119165Y822814D01*
X1118961Y822777D01*
X1118739Y822759D01*
X1118369D01*
X1118276Y822777D01*
X1118035Y822796D01*
X1117776Y822833D01*
X1117757D01*
X1117720Y822852D01*
X1117665D01*
X1117572Y822870D01*
X1117387Y822907D01*
X1117165Y822963D01*
X1117146D01*
X1117128Y822981D01*
X1116998Y823018D01*
X1116850Y823074D01*
X1116684Y823148D01*
X1116646Y823166D01*
X1116572Y823222D01*
X1116480Y823277D01*
X1116406Y823333D01*
X1116387Y823352D01*
X1116369Y823389D01*
X1116332Y823463D01*
X1116295Y823555D01*
Y823574D01*
X1116276Y823666D01*
X1116258Y823777D01*
Y823944D01*
Y823963D01*
Y824037D01*
Y824111D01*
Y824203D01*
Y824222D01*
X1116276Y824259D01*
Y824314D01*
X1116295Y824370D01*
Y824388D01*
X1116313Y824407D01*
X1116350Y824444D01*
X1116369Y824463D01*
X1116387D01*
X1116406Y824481D01*
X1116480Y824500D01*
X1116498D01*
X1116535Y824481D01*
X1116609Y824463D01*
X1116721Y824388D01*
X1116758Y824370D01*
X1116850Y824314D01*
X1116980Y824240D01*
X1117146Y824148D01*
X1117165D01*
X1117202Y824129D01*
X1117239Y824111D01*
X1117313Y824074D01*
X1117498Y824000D01*
X1117739Y823907D01*
X1117757D01*
X1117794Y823888D01*
X1117868Y823870D01*
X1117980D01*
X1118091Y823851D01*
X1118239Y823833D01*
X1118554Y823814D01*
X1118757D01*
X1118942Y823833D01*
X1119146Y823870D01*
X1119165D01*
X1119202Y823888D01*
X1119313Y823925D01*
X1119461Y823981D01*
X1119628Y824074D01*
X1119646D01*
X1119665Y824092D01*
X1119739Y824185D01*
X1119850Y824296D01*
X1119942Y824444D01*
Y824463D01*
X1119961Y824481D01*
X1119998Y824592D01*
X1120035Y824759D01*
X1120053Y824962D01*
Y824981D01*
Y825018D01*
Y825074D01*
X1120035Y825129D01*
X1119979Y825296D01*
X1119887Y825462D01*
Y825481D01*
X1119868Y825499D01*
X1119776Y825592D01*
X1119646Y825722D01*
X1119480Y825833D01*
X1119461D01*
X1119442Y825870D01*
X1119387Y825888D01*
X1119313Y825925D01*
X1119128Y826018D01*
X1118905Y826111D01*
X1118887D01*
X1118850Y826129D01*
X1118794Y826166D01*
X1118702Y826185D01*
X1118498Y826277D01*
X1118239Y826370D01*
X1118220D01*
X1118183Y826388D01*
X1118109Y826425D01*
X1118035Y826462D01*
X1117813Y826573D01*
X1117572Y826684D01*
X1117554D01*
X1117517Y826721D01*
X1117461Y826759D01*
X1117387Y826796D01*
X1117202Y826925D01*
X1116998Y827092D01*
X1116980Y827110D01*
X1116961Y827147D01*
X1116906Y827185D01*
X1116850Y827259D01*
X1116721Y827444D01*
X1116591Y827684D01*
Y827703D01*
X1116572Y827740D01*
X1116554Y827814D01*
X1116517Y827925D01*
X1116498Y828036D01*
X1116461Y828184D01*
X1116443Y828518D01*
Y828536D01*
Y828592D01*
Y828666D01*
X1116461Y828777D01*
X1116498Y829036D01*
X1116591Y829332D01*
Y829351D01*
X1116628Y829406D01*
X1116665Y829481D01*
X1116721Y829573D01*
X1116869Y829795D01*
X1117072Y830017D01*
X1117091Y830036D01*
X1117128Y830073D01*
X1117202Y830129D01*
X1117294Y830184D01*
X1117424Y830258D01*
X1117554Y830332D01*
X1117887Y830480D01*
X1117906D01*
X1117980Y830517D01*
X1118072Y830536D01*
X1118220Y830573D01*
X1118387Y830610D01*
X1118591Y830629D01*
X1118813Y830666D01*
X1119220D01*
X1119405Y830647D01*
D02*
G37*
G36*
X1112999D02*
X1113202Y830610D01*
X1113258D01*
X1113313Y830592D01*
X1113388Y830573D01*
X1113554Y830536D01*
X1113721Y830480D01*
X1113739D01*
X1113758Y830462D01*
X1113869Y830443D01*
X1113999Y830388D01*
X1114128Y830332D01*
X1114165Y830314D01*
X1114221Y830277D01*
X1114295Y830240D01*
X1114369Y830184D01*
X1114387D01*
X1114424Y830147D01*
X1114462Y830110D01*
X1114480Y830073D01*
X1114499Y830036D01*
X1114517Y829962D01*
Y829943D01*
X1114536Y829925D01*
X1114554Y829814D01*
Y829795D01*
X1114573Y829758D01*
Y829684D01*
Y829610D01*
Y829592D01*
Y829518D01*
Y829444D01*
X1114554Y829351D01*
Y829332D01*
X1114536Y829295D01*
X1114499Y829203D01*
X1114480Y829166D01*
X1114443Y829110D01*
X1114424D01*
X1114350Y829092D01*
X1114332D01*
X1114295Y829110D01*
X1114239Y829129D01*
X1114147Y829166D01*
X1114128Y829184D01*
X1114054Y829221D01*
X1113943Y829277D01*
X1113795Y829351D01*
X1113758Y829369D01*
X1113665Y829425D01*
X1113499Y829481D01*
X1113295Y829555D01*
X1113276D01*
X1113239Y829573D01*
X1113184Y829592D01*
X1113110Y829610D01*
X1112888Y829629D01*
X1112628Y829647D01*
X1112517D01*
X1112425Y829629D01*
X1112240Y829610D01*
X1112036Y829555D01*
X1112017D01*
X1111999Y829536D01*
X1111888Y829499D01*
X1111740Y829425D01*
X1111610Y829332D01*
X1111591Y829314D01*
X1111517Y829240D01*
X1111443Y829129D01*
X1111369Y828999D01*
X1111351Y828962D01*
X1111332Y828888D01*
X1111314Y828758D01*
X1111295Y828592D01*
Y828573D01*
Y828536D01*
Y828481D01*
X1111314Y828407D01*
X1111351Y828240D01*
X1111443Y828055D01*
X1111480Y828018D01*
X1111554Y827925D01*
X1111684Y827814D01*
X1111851Y827684D01*
X1111869D01*
X1111906Y827666D01*
X1111943Y827629D01*
X1112017Y827592D01*
X1112202Y827499D01*
X1112443Y827407D01*
X1112462D01*
X1112499Y827388D01*
X1112573Y827351D01*
X1112647Y827333D01*
X1112869Y827240D01*
X1113110Y827147D01*
X1113128D01*
X1113165Y827129D01*
X1113239Y827092D01*
X1113313Y827055D01*
X1113536Y826962D01*
X1113776Y826833D01*
X1113795D01*
X1113832Y826796D01*
X1113887Y826759D01*
X1113980Y826721D01*
X1114165Y826592D01*
X1114369Y826425D01*
X1114387Y826407D01*
X1114406Y826388D01*
X1114462Y826333D01*
X1114517Y826277D01*
X1114647Y826092D01*
X1114776Y825851D01*
Y825833D01*
X1114795Y825796D01*
X1114832Y825722D01*
X1114869Y825629D01*
X1114887Y825518D01*
X1114924Y825370D01*
X1114943Y825055D01*
Y825036D01*
Y824962D01*
X1114924Y824851D01*
Y824722D01*
X1114887Y824574D01*
X1114850Y824407D01*
X1114795Y824240D01*
X1114721Y824074D01*
Y824055D01*
X1114684Y824000D01*
X1114628Y823925D01*
X1114573Y823833D01*
X1114387Y823592D01*
X1114147Y823352D01*
X1114128Y823333D01*
X1114073Y823296D01*
X1113999Y823259D01*
X1113906Y823185D01*
X1113776Y823111D01*
X1113610Y823037D01*
X1113443Y822963D01*
X1113258Y822907D01*
X1113239D01*
X1113165Y822889D01*
X1113054Y822870D01*
X1112925Y822833D01*
X1112758Y822814D01*
X1112554Y822777D01*
X1112332Y822759D01*
X1111962D01*
X1111869Y822777D01*
X1111628Y822796D01*
X1111369Y822833D01*
X1111351D01*
X1111314Y822852D01*
X1111258D01*
X1111165Y822870D01*
X1110980Y822907D01*
X1110758Y822963D01*
X1110740D01*
X1110721Y822981D01*
X1110592Y823018D01*
X1110443Y823074D01*
X1110277Y823148D01*
X1110240Y823166D01*
X1110166Y823222D01*
X1110073Y823277D01*
X1109999Y823333D01*
X1109980Y823352D01*
X1109962Y823389D01*
X1109925Y823463D01*
X1109888Y823555D01*
Y823574D01*
X1109869Y823666D01*
X1109851Y823777D01*
Y823944D01*
Y823963D01*
Y824037D01*
Y824111D01*
Y824203D01*
Y824222D01*
X1109869Y824259D01*
Y824314D01*
X1109888Y824370D01*
Y824388D01*
X1109906Y824407D01*
X1109943Y824444D01*
X1109962Y824463D01*
X1109980D01*
X1109999Y824481D01*
X1110073Y824500D01*
X1110092D01*
X1110129Y824481D01*
X1110203Y824463D01*
X1110314Y824388D01*
X1110351Y824370D01*
X1110443Y824314D01*
X1110573Y824240D01*
X1110740Y824148D01*
X1110758D01*
X1110795Y824129D01*
X1110832Y824111D01*
X1110906Y824074D01*
X1111092Y824000D01*
X1111332Y823907D01*
X1111351D01*
X1111388Y823888D01*
X1111462Y823870D01*
X1111573D01*
X1111684Y823851D01*
X1111832Y823833D01*
X1112147Y823814D01*
X1112351D01*
X1112536Y823833D01*
X1112739Y823870D01*
X1112758D01*
X1112795Y823888D01*
X1112906Y823925D01*
X1113054Y823981D01*
X1113221Y824074D01*
X1113239D01*
X1113258Y824092D01*
X1113332Y824185D01*
X1113443Y824296D01*
X1113536Y824444D01*
Y824463D01*
X1113554Y824481D01*
X1113591Y824592D01*
X1113628Y824759D01*
X1113647Y824962D01*
Y824981D01*
Y825018D01*
Y825074D01*
X1113628Y825129D01*
X1113573Y825296D01*
X1113480Y825462D01*
Y825481D01*
X1113462Y825499D01*
X1113369Y825592D01*
X1113239Y825722D01*
X1113073Y825833D01*
X1113054D01*
X1113036Y825870D01*
X1112980Y825888D01*
X1112906Y825925D01*
X1112721Y826018D01*
X1112499Y826111D01*
X1112480D01*
X1112443Y826129D01*
X1112388Y826166D01*
X1112295Y826185D01*
X1112091Y826277D01*
X1111832Y826370D01*
X1111814D01*
X1111777Y826388D01*
X1111702Y826425D01*
X1111628Y826462D01*
X1111406Y826573D01*
X1111165Y826684D01*
X1111147D01*
X1111110Y826721D01*
X1111054Y826759D01*
X1110980Y826796D01*
X1110795Y826925D01*
X1110592Y827092D01*
X1110573Y827110D01*
X1110555Y827147D01*
X1110499Y827185D01*
X1110443Y827259D01*
X1110314Y827444D01*
X1110184Y827684D01*
Y827703D01*
X1110166Y827740D01*
X1110147Y827814D01*
X1110110Y827925D01*
X1110092Y828036D01*
X1110054Y828184D01*
X1110036Y828518D01*
Y828536D01*
Y828592D01*
Y828666D01*
X1110054Y828777D01*
X1110092Y829036D01*
X1110184Y829332D01*
Y829351D01*
X1110221Y829406D01*
X1110258Y829481D01*
X1110314Y829573D01*
X1110462Y829795D01*
X1110666Y830017D01*
X1110684Y830036D01*
X1110721Y830073D01*
X1110795Y830129D01*
X1110888Y830184D01*
X1111017Y830258D01*
X1111147Y830332D01*
X1111480Y830480D01*
X1111499D01*
X1111573Y830517D01*
X1111665Y830536D01*
X1111814Y830573D01*
X1111980Y830610D01*
X1112184Y830629D01*
X1112406Y830666D01*
X1112813D01*
X1112999Y830647D01*
D02*
G37*
G36*
X1162364Y830536D02*
X1162475Y830517D01*
X1162494D01*
X1162549Y830499D01*
X1162623Y830480D01*
X1162679Y830443D01*
X1162697Y830425D01*
X1162716Y830406D01*
X1162734Y830351D01*
X1162753Y830295D01*
Y830277D01*
Y830240D01*
X1162734Y830147D01*
X1162697Y830054D01*
X1160123Y822907D01*
X1159161Y820278D01*
X1159142Y820259D01*
X1159105Y820204D01*
X1159031Y820130D01*
X1158901Y820074D01*
X1158864Y820056D01*
X1158753Y820037D01*
X1158679Y820018D01*
X1158587D01*
X1158457Y820000D01*
X1158198D01*
X1158087Y820018D01*
X1157975Y820037D01*
X1157957D01*
X1157920Y820056D01*
X1157790Y820111D01*
X1157772D01*
X1157753Y820148D01*
X1157716Y820167D01*
X1157698Y820222D01*
Y820241D01*
Y820278D01*
X1157716Y820333D01*
X1157753Y820407D01*
X1158735Y822907D01*
X1158698Y822926D01*
X1158661Y822963D01*
X1158605Y823000D01*
Y823018D01*
X1158568Y823055D01*
X1158512Y823148D01*
X1155957Y830036D01*
X1155939Y830073D01*
X1155920Y830129D01*
X1155902Y830221D01*
X1155883Y830295D01*
Y830314D01*
Y830351D01*
X1155902Y830406D01*
X1155939Y830443D01*
X1155957Y830462D01*
X1155994Y830480D01*
X1156068Y830499D01*
X1156161Y830517D01*
X1156179D01*
X1156272Y830536D01*
X1156383Y830555D01*
X1156809D01*
X1156920Y830536D01*
X1156939D01*
X1156994Y830517D01*
X1157068Y830499D01*
X1157124Y830480D01*
X1157142D01*
X1157179Y830462D01*
X1157216Y830443D01*
X1157253Y830388D01*
Y830369D01*
X1157272Y830351D01*
X1157327Y830240D01*
X1159383Y824463D01*
X1159401D01*
X1161401Y830258D01*
Y830277D01*
X1161420Y830351D01*
X1161457Y830406D01*
X1161494Y830462D01*
X1161512D01*
X1161549Y830480D01*
X1161605Y830499D01*
X1161697Y830517D01*
X1161734D01*
X1161808Y830536D01*
X1161938Y830555D01*
X1162234D01*
X1162364Y830536D01*
D02*
G37*
G36*
X1174437Y833221D02*
X1174455D01*
X1174474Y833202D01*
X1174529Y833110D01*
Y833091D01*
X1174548Y833054D01*
X1174566Y832999D01*
X1174585Y832925D01*
Y832906D01*
X1174603Y832851D01*
Y832776D01*
Y832665D01*
Y832647D01*
Y832573D01*
Y832480D01*
X1174585Y832388D01*
Y832369D01*
X1174566Y832332D01*
X1174529Y832203D01*
X1174511Y832165D01*
X1174437Y832110D01*
X1174400D01*
X1174326Y832091D01*
X1171419Y832091D01*
Y823092D01*
Y823055D01*
X1171382Y822981D01*
X1171345Y822963D01*
X1171307Y822944D01*
X1171252Y822926D01*
X1171233D01*
X1171196Y822907D01*
X1171141D01*
X1171048Y822889D01*
X1171030D01*
X1170956Y822870D01*
X1170863Y822852D01*
X1170622D01*
X1170511Y822870D01*
X1170400Y822889D01*
X1170382D01*
X1170326Y822907D01*
X1170178Y822926D01*
X1170159D01*
X1170141Y822944D01*
X1170067Y822981D01*
Y823000D01*
Y823018D01*
X1170048Y823092D01*
Y832091D01*
X1167086D01*
X1167012Y832110D01*
X1166975Y832128D01*
X1166919Y832203D01*
Y832221D01*
X1166900Y832258D01*
Y832314D01*
X1166882Y832388D01*
Y832406D01*
Y832462D01*
X1166863Y832554D01*
Y832665D01*
Y832684D01*
Y832758D01*
Y832832D01*
X1166882Y832925D01*
Y832943D01*
X1166900Y832999D01*
X1166919Y833110D01*
Y833128D01*
X1166937Y833147D01*
X1167012Y833221D01*
X1167030D01*
X1167049Y833239D01*
X1167123Y833258D01*
X1174363Y833258D01*
X1174437Y833221D01*
D02*
G37*
G36*
X1154050Y834036D02*
X1154069D01*
X1154124Y834017D01*
X1154198Y833999D01*
X1154254Y833980D01*
X1154272D01*
X1154291Y833961D01*
X1154365Y833887D01*
X1154383Y833869D01*
X1154402Y833795D01*
Y823092D01*
Y823074D01*
Y823055D01*
X1154365Y822981D01*
X1154346Y822963D01*
X1154254Y822907D01*
X1154235D01*
X1154198Y822889D01*
X1154143D01*
X1154050Y822870D01*
X1153976D01*
X1153865Y822852D01*
X1153513D01*
X1153402Y822870D01*
X1153383D01*
X1153346Y822889D01*
X1153217Y822907D01*
X1153198D01*
X1153180Y822926D01*
X1153106Y822981D01*
Y823018D01*
X1153087Y823092D01*
Y833795D01*
Y833813D01*
Y833832D01*
X1153106Y833887D01*
Y833906D01*
X1153143Y833924D01*
X1153217Y833980D01*
X1153235D01*
X1153272Y833999D01*
X1153328Y834017D01*
X1153402Y834036D01*
X1153420D01*
X1153494Y834054D01*
X1153957D01*
X1154050Y834036D01*
D02*
G37*
G36*
X1104851Y833295D02*
X1104888D01*
X1104944Y833276D01*
X1105036Y833258D01*
X1105111Y833239D01*
X1105129D01*
X1105166Y833221D01*
X1105222Y833202D01*
X1105277Y833147D01*
X1105296D01*
X1105314Y833110D01*
X1105370Y833017D01*
X1108851Y823389D01*
X1108869Y823352D01*
X1108888Y823277D01*
X1108906Y823185D01*
Y823092D01*
Y823074D01*
Y823037D01*
X1108888Y822981D01*
X1108851Y822926D01*
X1108832D01*
X1108814Y822907D01*
X1108740Y822889D01*
X1108647Y822870D01*
X1108536D01*
X1108407Y822852D01*
X1107981D01*
X1107851Y822870D01*
X1107832D01*
X1107777Y822889D01*
X1107703D01*
X1107629Y822907D01*
X1107610D01*
X1107592Y822926D01*
X1107518Y822963D01*
Y822981D01*
X1107499Y823000D01*
X1107444Y823092D01*
X1106555Y825629D01*
X1102241D01*
X1101407Y823129D01*
Y823111D01*
X1101389Y823092D01*
X1101333Y823000D01*
X1101315Y822963D01*
X1101222Y822907D01*
X1101204D01*
X1101167Y822889D01*
X1101093D01*
X1101000Y822870D01*
X1100907D01*
X1100796Y822852D01*
X1100518D01*
X1100389Y822870D01*
X1100259Y822889D01*
X1100241D01*
X1100185Y822907D01*
X1100111Y822926D01*
X1100056Y822944D01*
Y822963D01*
X1100037Y822981D01*
X1100018Y823037D01*
X1100000Y823092D01*
Y823111D01*
X1100018Y823166D01*
X1100037Y823259D01*
X1100074Y823389D01*
X1103537Y833017D01*
Y833036D01*
X1103555Y833073D01*
X1103611Y833165D01*
X1103629Y833184D01*
X1103648Y833202D01*
X1103759Y833239D01*
X1103777D01*
X1103833Y833258D01*
X1103907Y833276D01*
X1104018Y833295D01*
X1104055D01*
X1104129Y833313D01*
X1104722D01*
X1104851Y833295D01*
D02*
G37*
G36*
X1179436Y830647D02*
X1179640Y830629D01*
X1179881Y830592D01*
X1180140Y830555D01*
X1180399Y830480D01*
X1180658Y830388D01*
X1180695Y830369D01*
X1180769Y830332D01*
X1180899Y830277D01*
X1181047Y830203D01*
X1181232Y830092D01*
X1181417Y829962D01*
X1181603Y829814D01*
X1181769Y829629D01*
X1181788Y829610D01*
X1181843Y829536D01*
X1181917Y829425D01*
X1182029Y829295D01*
X1182121Y829110D01*
X1182232Y828906D01*
X1182343Y828666D01*
X1182436Y828407D01*
X1182454Y828370D01*
X1182473Y828277D01*
X1182510Y828129D01*
X1182547Y827925D01*
X1182584Y827684D01*
X1182621Y827407D01*
X1182658Y827110D01*
Y826777D01*
Y826759D01*
Y826740D01*
Y826629D01*
X1182640Y826462D01*
X1182621Y826259D01*
X1182603Y825999D01*
X1182566Y825740D01*
X1182492Y825444D01*
X1182417Y825166D01*
X1182399Y825129D01*
X1182380Y825037D01*
X1182325Y824907D01*
X1182232Y824722D01*
X1182140Y824537D01*
X1182029Y824314D01*
X1181880Y824092D01*
X1181714Y823888D01*
X1181695Y823870D01*
X1181640Y823796D01*
X1181529Y823703D01*
X1181399Y823592D01*
X1181232Y823444D01*
X1181047Y823315D01*
X1180825Y823185D01*
X1180566Y823055D01*
X1180529Y823037D01*
X1180436Y823018D01*
X1180306Y822963D01*
X1180103Y822907D01*
X1179881Y822852D01*
X1179603Y822815D01*
X1179307Y822777D01*
X1178973Y822759D01*
X1178825D01*
X1178659Y822777D01*
X1178455Y822796D01*
X1178196Y822815D01*
X1177936Y822870D01*
X1177677Y822926D01*
X1177418Y823018D01*
X1177381Y823037D01*
X1177307Y823074D01*
X1177177Y823129D01*
X1177029Y823203D01*
X1176862Y823315D01*
X1176677Y823444D01*
X1176492Y823611D01*
X1176307Y823777D01*
X1176288Y823796D01*
X1176233Y823870D01*
X1176159Y823981D01*
X1176066Y824111D01*
X1175955Y824296D01*
X1175863Y824500D01*
X1175751Y824740D01*
X1175659Y824999D01*
Y825037D01*
X1175622Y825129D01*
X1175603Y825277D01*
X1175566Y825481D01*
X1175529Y825722D01*
X1175492Y825999D01*
X1175474Y826296D01*
X1175455Y826629D01*
Y826647D01*
Y826666D01*
Y826777D01*
X1175474Y826944D01*
X1175492Y827166D01*
X1175511Y827425D01*
X1175548Y827684D01*
X1175603Y827981D01*
X1175677Y828258D01*
X1175696Y828296D01*
X1175714Y828388D01*
X1175770Y828518D01*
X1175844Y828703D01*
X1175937Y828888D01*
X1176066Y829110D01*
X1176196Y829332D01*
X1176363Y829536D01*
X1176381Y829555D01*
X1176455Y829629D01*
X1176548Y829721D01*
X1176677Y829851D01*
X1176844Y829980D01*
X1177048Y830110D01*
X1177270Y830258D01*
X1177511Y830369D01*
X1177548Y830388D01*
X1177640Y830425D01*
X1177770Y830462D01*
X1177973Y830518D01*
X1178214Y830573D01*
X1178473Y830629D01*
X1178788Y830647D01*
X1179121Y830666D01*
X1179270D01*
X1179436Y830647D01*
D02*
G37*
G36*
X1145440Y834036D02*
X1145458D01*
X1145514Y834017D01*
X1145588Y833999D01*
X1145643Y833980D01*
X1145662D01*
X1145680Y833961D01*
X1145754Y833887D01*
X1145773Y833869D01*
X1145792Y833795D01*
Y829481D01*
X1145810Y829499D01*
X1145847Y829536D01*
X1145903Y829592D01*
X1145995Y829666D01*
X1146180Y829832D01*
X1146403Y830017D01*
X1146421Y830036D01*
X1146458Y830054D01*
X1146514Y830092D01*
X1146588Y830147D01*
X1146773Y830277D01*
X1146977Y830388D01*
X1146995D01*
X1147032Y830406D01*
X1147088Y830443D01*
X1147162Y830462D01*
X1147347Y830536D01*
X1147569Y830592D01*
X1147588D01*
X1147625Y830610D01*
X1147680D01*
X1147754Y830629D01*
X1147958Y830647D01*
X1148180Y830666D01*
X1148310D01*
X1148458Y830647D01*
X1148643Y830629D01*
X1148847Y830592D01*
X1149069Y830536D01*
X1149291Y830462D01*
X1149513Y830351D01*
X1149532Y830332D01*
X1149606Y830295D01*
X1149717Y830221D01*
X1149847Y830129D01*
X1149995Y829999D01*
X1150143Y829851D01*
X1150291Y829684D01*
X1150421Y829499D01*
X1150439Y829481D01*
X1150476Y829406D01*
X1150550Y829295D01*
X1150624Y829147D01*
X1150698Y828981D01*
X1150791Y828758D01*
X1150865Y828536D01*
X1150939Y828277D01*
Y828240D01*
X1150958Y828147D01*
X1150995Y828018D01*
X1151032Y827832D01*
X1151050Y827610D01*
X1151087Y827351D01*
X1151106Y827092D01*
Y826796D01*
Y826777D01*
Y826759D01*
Y826703D01*
Y826629D01*
X1151087Y826462D01*
Y826240D01*
X1151050Y825962D01*
X1151013Y825685D01*
X1150958Y825388D01*
X1150884Y825111D01*
Y825074D01*
X1150847Y824981D01*
X1150791Y824851D01*
X1150735Y824666D01*
X1150643Y824481D01*
X1150550Y824259D01*
X1150421Y824037D01*
X1150291Y823833D01*
X1150273Y823814D01*
X1150217Y823740D01*
X1150143Y823648D01*
X1150032Y823537D01*
X1149884Y823407D01*
X1149717Y823277D01*
X1149513Y823148D01*
X1149310Y823037D01*
X1149291Y823018D01*
X1149217Y823000D01*
X1149088Y822944D01*
X1148939Y822907D01*
X1148736Y822852D01*
X1148513Y822796D01*
X1148273Y822777D01*
X1147995Y822759D01*
X1147865D01*
X1147791Y822777D01*
X1147569Y822796D01*
X1147347Y822833D01*
X1147328D01*
X1147291Y822852D01*
X1147236Y822870D01*
X1147180Y822889D01*
X1146995Y822944D01*
X1146792Y823037D01*
X1146773D01*
X1146736Y823055D01*
X1146680Y823092D01*
X1146625Y823148D01*
X1146440Y823259D01*
X1146217Y823407D01*
X1146199Y823426D01*
X1146162Y823444D01*
X1146106Y823500D01*
X1146032Y823574D01*
X1145847Y823759D01*
X1145625Y823981D01*
Y823092D01*
Y823055D01*
X1145588Y822981D01*
X1145569Y822944D01*
X1145551Y822926D01*
X1145495Y822907D01*
X1145477D01*
X1145440Y822889D01*
X1145384D01*
X1145310Y822870D01*
X1145236D01*
X1145162Y822852D01*
X1144866D01*
X1144773Y822870D01*
X1144755D01*
X1144718Y822889D01*
X1144588Y822907D01*
X1144569D01*
X1144551Y822926D01*
X1144514Y822944D01*
X1144495Y822963D01*
Y822981D01*
Y823000D01*
X1144477Y823092D01*
Y833795D01*
Y833813D01*
Y833832D01*
X1144495Y833887D01*
Y833906D01*
X1144532Y833924D01*
X1144606Y833980D01*
X1144625D01*
X1144662Y833999D01*
X1144718Y834017D01*
X1144792Y834036D01*
X1144810D01*
X1144884Y834054D01*
X1145347D01*
X1145440Y834036D01*
D02*
G37*
G36*
X1126497Y830647D02*
X1126701Y830629D01*
X1126923Y830592D01*
X1127164Y830555D01*
X1127405Y830480D01*
X1127645Y830388D01*
X1127664Y830369D01*
X1127756Y830332D01*
X1127868Y830277D01*
X1127997Y830184D01*
X1128145Y830092D01*
X1128312Y829962D01*
X1128478Y829814D01*
X1128627Y829647D01*
X1128645Y829629D01*
X1128682Y829573D01*
X1128756Y829462D01*
X1128849Y829332D01*
X1128941Y829184D01*
X1129034Y828999D01*
X1129127Y828795D01*
X1129201Y828573D01*
Y828555D01*
X1129238Y828462D01*
X1129256Y828351D01*
X1129293Y828184D01*
X1129330Y827981D01*
X1129349Y827758D01*
X1129386Y827518D01*
Y827259D01*
Y827018D01*
Y826999D01*
Y826962D01*
X1129367Y826851D01*
X1129312Y826703D01*
X1129219Y826573D01*
X1129201Y826555D01*
X1129127Y826518D01*
X1129016Y826462D01*
X1128867Y826444D01*
X1124127D01*
Y826425D01*
Y826333D01*
Y826222D01*
X1124146Y826074D01*
Y825907D01*
X1124183Y825722D01*
X1124238Y825351D01*
Y825333D01*
X1124257Y825277D01*
X1124294Y825185D01*
X1124331Y825074D01*
X1124460Y824796D01*
X1124646Y824518D01*
X1124664Y824500D01*
X1124701Y824463D01*
X1124757Y824407D01*
X1124849Y824333D01*
X1124942Y824240D01*
X1125071Y824166D01*
X1125368Y824000D01*
X1125386D01*
X1125442Y823981D01*
X1125553Y823944D01*
X1125683Y823925D01*
X1125849Y823888D01*
X1126034Y823851D01*
X1126238Y823833D01*
X1126664D01*
X1126794Y823851D01*
X1127090Y823870D01*
X1127386Y823907D01*
X1127405D01*
X1127460Y823925D01*
X1127534Y823944D01*
X1127627Y823963D01*
X1127849Y824018D01*
X1128090Y824092D01*
X1128108D01*
X1128145Y824111D01*
X1128256Y824166D01*
X1128423Y824222D01*
X1128571Y824277D01*
X1128590D01*
X1128608Y824296D01*
X1128682Y824333D01*
X1128775Y824351D01*
X1128867Y824370D01*
X1128904D01*
X1128960Y824333D01*
X1128979D01*
X1128997Y824314D01*
X1129034Y824240D01*
Y824222D01*
X1129053Y824203D01*
X1129071Y824092D01*
Y824074D01*
X1129090Y824037D01*
Y823944D01*
Y823851D01*
Y823833D01*
Y823796D01*
X1129071Y823666D01*
Y823648D01*
Y823629D01*
X1129053Y823518D01*
X1129034Y823481D01*
X1128997Y823407D01*
X1128979Y823389D01*
X1128941Y823333D01*
X1128904Y823296D01*
X1128812Y823259D01*
X1128682Y823185D01*
X1128664D01*
X1128645Y823166D01*
X1128590Y823148D01*
X1128534Y823129D01*
X1128349Y823074D01*
X1128108Y823000D01*
X1128090D01*
X1128053Y822981D01*
X1127979Y822963D01*
X1127886Y822944D01*
X1127775Y822926D01*
X1127627Y822889D01*
X1127312Y822833D01*
X1127293D01*
X1127238Y822814D01*
X1127145D01*
X1127034Y822796D01*
X1126886Y822777D01*
X1126720D01*
X1126349Y822759D01*
X1126201D01*
X1126034Y822777D01*
X1125831Y822796D01*
X1125571Y822814D01*
X1125312Y822870D01*
X1125053Y822926D01*
X1124794Y823000D01*
X1124757Y823018D01*
X1124683Y823037D01*
X1124553Y823111D01*
X1124405Y823185D01*
X1124220Y823277D01*
X1124035Y823407D01*
X1123849Y823555D01*
X1123664Y823722D01*
X1123646Y823740D01*
X1123590Y823814D01*
X1123516Y823925D01*
X1123405Y824055D01*
X1123294Y824240D01*
X1123183Y824444D01*
X1123072Y824685D01*
X1122979Y824944D01*
Y824981D01*
X1122942Y825074D01*
X1122905Y825222D01*
X1122868Y825444D01*
X1122831Y825685D01*
X1122794Y825981D01*
X1122775Y826314D01*
X1122757Y826666D01*
Y826684D01*
Y826703D01*
Y826814D01*
X1122775Y826999D01*
X1122794Y827222D01*
X1122812Y827481D01*
X1122850Y827758D01*
X1122905Y828055D01*
X1122979Y828333D01*
X1122998Y828370D01*
X1123016Y828462D01*
X1123072Y828592D01*
X1123164Y828777D01*
X1123257Y828962D01*
X1123368Y829184D01*
X1123516Y829388D01*
X1123664Y829592D01*
X1123683Y829610D01*
X1123738Y829684D01*
X1123849Y829777D01*
X1123979Y829888D01*
X1124127Y830017D01*
X1124312Y830147D01*
X1124535Y830277D01*
X1124757Y830388D01*
X1124794Y830406D01*
X1124868Y830425D01*
X1124997Y830480D01*
X1125183Y830536D01*
X1125386Y830573D01*
X1125646Y830629D01*
X1125905Y830647D01*
X1126201Y830666D01*
X1126349D01*
X1126497Y830647D01*
D02*
G37*
%LPC*%
G36*
X654617Y944120D02*
X653155D01*
X653007Y944102D01*
X652840Y944083D01*
X652673Y944065D01*
X652506Y944028D01*
X652340Y943972D01*
X652321D01*
X652266Y943935D01*
X652192Y943898D01*
X652099Y943861D01*
X651877Y943713D01*
X651655Y943528D01*
X651636Y943509D01*
X651599Y943472D01*
X651544Y943417D01*
X651488Y943324D01*
X651340Y943120D01*
X651210Y942842D01*
Y942824D01*
X651192Y942768D01*
X651155Y942694D01*
X651136Y942583D01*
X651099Y942454D01*
X651081Y942306D01*
X651062Y941972D01*
Y941935D01*
Y941861D01*
X651081Y941750D01*
X651099Y941602D01*
X651118Y941435D01*
X651155Y941269D01*
X651229Y941083D01*
X651303Y940917D01*
X651321Y940898D01*
X651340Y940843D01*
X651395Y940769D01*
X651470Y940676D01*
X651655Y940472D01*
X651766Y940380D01*
X651896Y940287D01*
X651914Y940269D01*
X651951Y940250D01*
X652025Y940213D01*
X652118Y940176D01*
X652340Y940083D01*
X652618Y940028D01*
X652636D01*
X652673Y940010D01*
X652747D01*
X652840Y939991D01*
X653081Y939972D01*
X653340Y939954D01*
X654617D01*
Y944120D01*
D02*
G37*
G36*
X637416Y948046D02*
X635249D01*
X635138Y948027D01*
X634879Y947990D01*
X634601Y947935D01*
X634582D01*
X634545Y947916D01*
X634471Y947879D01*
X634397Y947860D01*
X634194Y947749D01*
X633990Y947620D01*
X633971Y947601D01*
X633934Y947583D01*
X633823Y947472D01*
X633694Y947287D01*
X633564Y947064D01*
Y947046D01*
X633545Y947009D01*
X633508Y946935D01*
X633471Y946842D01*
X633453Y946731D01*
X633416Y946601D01*
X633397Y946305D01*
Y946287D01*
Y946231D01*
Y946139D01*
X633416Y946027D01*
X633453Y945768D01*
X633545Y945490D01*
Y945472D01*
X633564Y945435D01*
X633601Y945361D01*
X633657Y945287D01*
X633786Y945083D01*
X633990Y944898D01*
X634008Y944879D01*
X634045Y944861D01*
X634101Y944805D01*
X634175Y944768D01*
X634286Y944694D01*
X634397Y944639D01*
X634694Y944528D01*
X634712D01*
X634768Y944509D01*
X634860Y944491D01*
X634990Y944454D01*
X635138Y944435D01*
X635323Y944416D01*
X635527Y944398D01*
X637416D01*
Y948046D01*
D02*
G37*
G36*
Y943305D02*
X635656D01*
X635527Y943287D01*
X635249Y943250D01*
X635120Y943213D01*
X634990Y943176D01*
X634971D01*
X634934Y943157D01*
X634879Y943120D01*
X634786Y943065D01*
X634619Y942954D01*
X634434Y942805D01*
X634416Y942787D01*
X634397Y942768D01*
X634360Y942713D01*
X634305Y942639D01*
X634212Y942472D01*
X634120Y942250D01*
Y942232D01*
X634101Y942194D01*
X634082Y942139D01*
X634064Y942046D01*
X634027Y941843D01*
X634008Y941602D01*
Y941583D01*
Y941528D01*
Y941454D01*
X634027Y941361D01*
X634045Y941139D01*
X634120Y940917D01*
Y940898D01*
X634138Y940861D01*
X634157Y940806D01*
X634194Y940732D01*
X634305Y940565D01*
X634453Y940398D01*
X634471Y940380D01*
X634490Y940361D01*
X634545Y940324D01*
X634601Y940287D01*
X634805Y940176D01*
X635045Y940083D01*
X635064D01*
X635101Y940065D01*
X635193Y940046D01*
X635286Y940010D01*
X635434Y939991D01*
X635582Y939972D01*
X635786Y939954D01*
X637416D01*
Y943305D01*
D02*
G37*
G36*
X616806Y948027D02*
X615233D01*
X615047Y948009D01*
X614807Y947990D01*
X614548Y947972D01*
X614270Y947916D01*
X613992Y947860D01*
X613733Y947786D01*
X613696Y947768D01*
X613622Y947731D01*
X613492Y947675D01*
X613325Y947601D01*
X613159Y947490D01*
X612955Y947361D01*
X612770Y947212D01*
X612585Y947027D01*
X612566Y947009D01*
X612511Y946935D01*
X612418Y946824D01*
X612326Y946675D01*
X612214Y946490D01*
X612103Y946268D01*
X611992Y946027D01*
X611900Y945750D01*
X611881Y945713D01*
X611863Y945620D01*
X611826Y945453D01*
X611770Y945231D01*
X611733Y944953D01*
X611696Y944639D01*
X611677Y944305D01*
X611659Y943916D01*
Y943898D01*
Y943879D01*
Y943768D01*
X611677Y943620D01*
Y943417D01*
X611715Y943176D01*
X611752Y942917D01*
X611807Y942639D01*
X611881Y942361D01*
Y942324D01*
X611918Y942232D01*
X611974Y942102D01*
X612029Y941917D01*
X612122Y941731D01*
X612233Y941509D01*
X612381Y941306D01*
X612529Y941102D01*
X612548Y941083D01*
X612603Y941009D01*
X612714Y940917D01*
X612844Y940787D01*
X612992Y940658D01*
X613196Y940528D01*
X613418Y940380D01*
X613659Y940269D01*
X613696Y940250D01*
X613788Y940213D01*
X613937Y940176D01*
X614140Y940121D01*
X614381Y940065D01*
X614696Y940010D01*
X615029Y939991D01*
X615418Y939972D01*
X616806D01*
Y948027D01*
D02*
G37*
G36*
X1188065Y829536D02*
X1188028D01*
X1187898Y829518D01*
X1187732Y829499D01*
X1187546Y829444D01*
X1187528D01*
X1187510Y829425D01*
X1187398Y829388D01*
X1187232Y829314D01*
X1187047Y829203D01*
X1187028D01*
X1187010Y829166D01*
X1186954Y829129D01*
X1186880Y829092D01*
X1186695Y828944D01*
X1186491Y828758D01*
X1186472Y828740D01*
X1186435Y828721D01*
X1186380Y828647D01*
X1186324Y828573D01*
X1186139Y828370D01*
X1185917Y828110D01*
Y825259D01*
X1185936Y825222D01*
X1186010Y825148D01*
X1186121Y825037D01*
X1186250Y824888D01*
X1186398Y824722D01*
X1186565Y824555D01*
X1186750Y824389D01*
X1186935Y824240D01*
X1186954Y824222D01*
X1187028Y824185D01*
X1187121Y824129D01*
X1187250Y824074D01*
X1187417Y824000D01*
X1187583Y823944D01*
X1187769Y823907D01*
X1187972Y823888D01*
X1188065D01*
X1188158Y823907D01*
X1188269Y823926D01*
X1188546Y823981D01*
X1188695Y824037D01*
X1188824Y824111D01*
X1188843Y824129D01*
X1188880Y824148D01*
X1188954Y824203D01*
X1189046Y824277D01*
X1189139Y824370D01*
X1189231Y824481D01*
X1189417Y824759D01*
X1189435Y824777D01*
X1189454Y824833D01*
X1189491Y824907D01*
X1189546Y825018D01*
X1189602Y825148D01*
X1189657Y825314D01*
X1189750Y825648D01*
Y825666D01*
X1189769Y825740D01*
X1189787Y825833D01*
X1189806Y825962D01*
X1189824Y826111D01*
X1189843Y826296D01*
X1189861Y826666D01*
Y826684D01*
Y826759D01*
Y826870D01*
X1189843Y826999D01*
Y827166D01*
X1189824Y827333D01*
X1189769Y827721D01*
Y827740D01*
X1189750Y827814D01*
X1189732Y827907D01*
X1189694Y828036D01*
X1189657Y828184D01*
X1189602Y828333D01*
X1189472Y828647D01*
Y828666D01*
X1189435Y828721D01*
X1189398Y828795D01*
X1189324Y828888D01*
X1189157Y829092D01*
X1188917Y829295D01*
X1188898Y829314D01*
X1188861Y829332D01*
X1188787Y829369D01*
X1188695Y829425D01*
X1188565Y829462D01*
X1188417Y829499D01*
X1188250Y829518D01*
X1188065Y829536D01*
D02*
G37*
G36*
X1104388Y831888D02*
X1104370D01*
X1102592Y826721D01*
X1106203D01*
X1104388Y831888D01*
D02*
G37*
G36*
X1179066Y829555D02*
X1178973D01*
X1178862Y829536D01*
X1178714D01*
X1178566Y829499D01*
X1178381Y829462D01*
X1178214Y829407D01*
X1178047Y829332D01*
X1178029D01*
X1177973Y829295D01*
X1177899Y829240D01*
X1177807Y829184D01*
X1177585Y828999D01*
X1177362Y828740D01*
X1177344Y828721D01*
X1177325Y828666D01*
X1177270Y828592D01*
X1177214Y828499D01*
X1177140Y828370D01*
X1177066Y828203D01*
X1177010Y828036D01*
X1176955Y827851D01*
Y827833D01*
X1176936Y827758D01*
X1176918Y827647D01*
X1176899Y827518D01*
X1176862Y827351D01*
X1176844Y827147D01*
X1176825Y826944D01*
Y826722D01*
Y826703D01*
Y826629D01*
Y826499D01*
X1176844Y826370D01*
Y826185D01*
X1176862Y825999D01*
X1176918Y825611D01*
Y825592D01*
X1176936Y825518D01*
X1176973Y825425D01*
X1177010Y825296D01*
X1177122Y825018D01*
X1177288Y824703D01*
X1177307Y824685D01*
X1177344Y824648D01*
X1177399Y824574D01*
X1177474Y824481D01*
X1177566Y824389D01*
X1177696Y824277D01*
X1177973Y824092D01*
X1177992D01*
X1178047Y824055D01*
X1178140Y824018D01*
X1178270Y823981D01*
X1178418Y823944D01*
X1178603Y823907D01*
X1178807Y823888D01*
X1179029Y823870D01*
X1179121D01*
X1179232Y823888D01*
X1179381D01*
X1179547Y823926D01*
X1179714Y823963D01*
X1179881Y824000D01*
X1180047Y824074D01*
X1180066Y824092D01*
X1180121Y824111D01*
X1180195Y824166D01*
X1180288Y824222D01*
X1180529Y824407D01*
X1180751Y824648D01*
X1180769Y824666D01*
X1180788Y824722D01*
X1180844Y824796D01*
X1180899Y824907D01*
X1180973Y825037D01*
X1181047Y825185D01*
X1181103Y825351D01*
X1181158Y825536D01*
Y825555D01*
X1181177Y825629D01*
X1181195Y825740D01*
X1181232Y825888D01*
X1181251Y826055D01*
X1181269Y826240D01*
X1181288Y826684D01*
Y826703D01*
Y826777D01*
Y826907D01*
X1181269Y827055D01*
Y827222D01*
X1181251Y827407D01*
X1181177Y827795D01*
Y827814D01*
X1181158Y827888D01*
X1181121Y827981D01*
X1181084Y828110D01*
X1180973Y828407D01*
X1180807Y828703D01*
X1180788Y828721D01*
X1180769Y828777D01*
X1180714Y828832D01*
X1180640Y828925D01*
X1180547Y829018D01*
X1180418Y829129D01*
X1180288Y829221D01*
X1180140Y829314D01*
X1180121Y829332D01*
X1180066Y829351D01*
X1179973Y829388D01*
X1179844Y829444D01*
X1179696Y829481D01*
X1179510Y829518D01*
X1179307Y829536D01*
X1179066Y829555D01*
D02*
G37*
G36*
X1147921Y829536D02*
X1147754D01*
X1147588Y829499D01*
X1147402Y829462D01*
X1147384D01*
X1147365Y829444D01*
X1147254Y829406D01*
X1147088Y829314D01*
X1146903Y829203D01*
X1146884D01*
X1146865Y829166D01*
X1146754Y829092D01*
X1146569Y828962D01*
X1146366Y828777D01*
X1146347Y828758D01*
X1146310Y828740D01*
X1146255Y828666D01*
X1146199Y828592D01*
X1146106Y828499D01*
X1146014Y828388D01*
X1145792Y828110D01*
Y825240D01*
X1145810Y825203D01*
X1145884Y825129D01*
X1145995Y825018D01*
X1146125Y824870D01*
X1146273Y824703D01*
X1146458Y824537D01*
X1146643Y824370D01*
X1146829Y824222D01*
X1146847Y824203D01*
X1146921Y824166D01*
X1147014Y824111D01*
X1147143Y824055D01*
X1147310Y824000D01*
X1147477Y823944D01*
X1147662Y823907D01*
X1147865Y823888D01*
X1147958D01*
X1148051Y823907D01*
X1148162Y823925D01*
X1148439Y823981D01*
X1148588Y824037D01*
X1148717Y824111D01*
X1148736Y824129D01*
X1148773Y824148D01*
X1148847Y824203D01*
X1148939Y824277D01*
X1149125Y824481D01*
X1149310Y824740D01*
X1149328Y824759D01*
X1149347Y824814D01*
X1149384Y824888D01*
X1149439Y824999D01*
X1149476Y825148D01*
X1149532Y825296D01*
X1149624Y825648D01*
Y825666D01*
X1149643Y825740D01*
X1149661Y825833D01*
X1149680Y825962D01*
X1149699Y826111D01*
X1149717Y826277D01*
X1149736Y826647D01*
Y826666D01*
Y826740D01*
Y826851D01*
X1149717Y826999D01*
Y827147D01*
X1149699Y827333D01*
X1149643Y827721D01*
Y827740D01*
X1149624Y827814D01*
X1149606Y827907D01*
X1149569Y828036D01*
X1149476Y828333D01*
X1149347Y828629D01*
Y828647D01*
X1149310Y828703D01*
X1149273Y828777D01*
X1149199Y828869D01*
X1149032Y829073D01*
X1148791Y829277D01*
X1148773Y829295D01*
X1148736Y829314D01*
X1148662Y829351D01*
X1148550Y829406D01*
X1148421Y829462D01*
X1148273Y829499D01*
X1148106Y829518D01*
X1147921Y829536D01*
D02*
G37*
G36*
X1126145Y829629D02*
X1125960D01*
X1125849Y829610D01*
X1125571Y829555D01*
X1125275Y829444D01*
X1125257D01*
X1125220Y829406D01*
X1125146Y829369D01*
X1125053Y829314D01*
X1124849Y829147D01*
X1124646Y828943D01*
X1124627Y828925D01*
X1124609Y828888D01*
X1124553Y828832D01*
X1124516Y828740D01*
X1124442Y828647D01*
X1124386Y828518D01*
X1124257Y828240D01*
Y828221D01*
X1124238Y828166D01*
X1124220Y828092D01*
X1124201Y827981D01*
X1124164Y827851D01*
X1124146Y827721D01*
X1124127Y827407D01*
X1128053D01*
Y827425D01*
Y827462D01*
Y827499D01*
Y827573D01*
X1128034Y827758D01*
X1127997Y827999D01*
X1127942Y828258D01*
X1127849Y828536D01*
X1127738Y828795D01*
X1127571Y829036D01*
X1127553Y829055D01*
X1127479Y829129D01*
X1127367Y829221D01*
X1127219Y829332D01*
X1127016Y829444D01*
X1126775Y829536D01*
X1126479Y829610D01*
X1126145Y829629D01*
D02*
G37*
%LPD*%
D10*
X284680Y841160D02*
X305000D01*
Y820840D02*
Y841160D01*
X284680Y820840D02*
X305000D01*
X284680D02*
Y841160D01*
X387840Y850840D02*
X408160D01*
X387840D02*
Y871160D01*
X408160D01*
Y850840D02*
Y871160D01*
X284680Y870160D02*
X305000D01*
Y849840D02*
Y870160D01*
X284680Y849840D02*
X305000D01*
X284680D02*
Y870160D01*
X387840Y821840D02*
X408160D01*
X387840D02*
Y842160D01*
X408160D01*
Y821840D02*
Y842160D01*
X52000Y873000D02*
X58000D01*
D76*
X882840Y673840D02*
G03*
X882840Y673840I-1000J0D01*
G01*
X502160Y157160D02*
G03*
X502160Y157160I-2000J0D01*
G01*
X863460Y575815D02*
G03*
X863460Y575815I-1000J0D01*
G01*
X357160Y625660D02*
G03*
X357160Y625660I-1000J0D01*
G01*
X863460Y538315D02*
G03*
X863460Y538315I-1000J0D01*
G01*
X394660Y625660D02*
G03*
X394660Y625660I-1000J0D01*
G01*
X876140Y150315D02*
G03*
X876140Y150315I-2000J0D01*
G01*
X92540D02*
G03*
X92540Y150315I-2000J0D01*
G01*
X345500Y704400D02*
G03*
X345500Y704400I-2000J0D01*
G01*
X207570Y954300D02*
G03*
X207570Y954300I-2000J0D01*
G01*
X165570D02*
G03*
X165570Y954300I-2000J0D01*
G01*
D97*
X925160Y908080D02*
G03*
X925160Y908080I-1270J0D01*
G01*
X329980Y718570D02*
X396020D01*
X329980Y754130D02*
X396020D01*
X329980Y718570D02*
Y754130D01*
X396020Y718570D02*
Y754130D01*
D100*
X575750Y837750D02*
G03*
X575750Y837750I-5000J0D01*
G01*
X535000Y252000D02*
G03*
X535000Y252000I-5000J0D01*
G01*
X416000Y277000D02*
G03*
X416000Y277000I-5000J0D01*
G01*
X880850Y219475D02*
G03*
X880850Y219475I-2549J0D01*
G01*
X97250D02*
G03*
X97250Y219475I-2549J0D01*
G01*
X318550Y355000D02*
G03*
X318550Y355000I-2549J0D01*
G01*
X545000Y745000D02*
G03*
X545000Y745000I-5000J0D01*
G01*
X190250Y874750D02*
G03*
X190250Y874750I-3500J0D01*
G01*
X487000Y332000D02*
G03*
X487000Y332000I-5000J0D01*
G01*
X858000Y708000D02*
G03*
X858000Y708000I-5000J0D01*
G01*
X841500Y648500D02*
G03*
X841500Y648500I-5000J0D01*
G01*
X639500Y173500D02*
G03*
X639500Y173500I-5000J0D01*
G01*
Y241500D02*
G03*
X639500Y241500I-5000J0D01*
G01*
X295000Y222000D02*
G03*
X295000Y222000I-5000J0D01*
G01*
X295000Y302000D02*
G03*
X295000Y302000I-5000J0D01*
G01*
X765000Y200000D02*
G03*
X765000Y200000I-5000J0D01*
G01*
X136000Y323000D02*
G03*
X136000Y323000I-5000J0D01*
G01*
X786000Y231000D02*
G03*
X786000Y231000I-5000J0D01*
G01*
X157000Y351000D02*
G03*
X157000Y351000I-5000J0D01*
G01*
X821000Y411000D02*
G03*
X821000Y411000I-5000J0D01*
G01*
X290000Y410000D02*
G03*
X290000Y410000I-5000J0D01*
G01*
X786000Y291000D02*
G03*
X786000Y291000I-5000J0D01*
G01*
X157000Y411000D02*
G03*
X157000Y411000I-5000J0D01*
G01*
X821000Y471000D02*
G03*
X821000Y471000I-5000J0D01*
G01*
X290000Y470000D02*
G03*
X290000Y470000I-5000J0D01*
G01*
X569000Y416000D02*
G03*
X569000Y416000I-5000J0D01*
G01*
X488500Y930750D02*
G03*
X488500Y930750I-5000J0D01*
G01*
X526250Y813250D02*
Y846750D01*
X579750Y813250D02*
Y846750D01*
X526250Y813250D02*
X579750D01*
X526250Y846750D02*
X579750D01*
X488000Y261000D02*
X539000D01*
X488000Y210000D02*
X539000D01*
Y261000D01*
X488000Y210000D02*
Y261000D01*
X420000Y268000D02*
Y319000D01*
X369000Y268000D02*
Y319000D01*
Y268000D02*
X420000D01*
X369000Y319000D02*
X420000D01*
X873800Y214975D02*
Y235975D01*
X894800Y214975D02*
Y235975D01*
X873800D02*
X894800D01*
X873800Y214975D02*
X894800D01*
X90200D02*
Y235975D01*
X111200Y214975D02*
Y235975D01*
X90200D02*
X111200D01*
X90200Y214975D02*
X111200D01*
X311500Y359500D02*
X332500D01*
X311500Y338500D02*
X332500D01*
Y359500D01*
X311500Y338500D02*
Y359500D01*
X531000Y554000D02*
Y754000D01*
X731000Y554000D02*
Y754000D01*
X531000D02*
X731000D01*
X531000Y554000D02*
X731000D01*
X179750Y867750D02*
X220250D01*
X179750Y908250D02*
X220250D01*
Y867750D02*
Y908250D01*
X179750Y867750D02*
Y908250D01*
X473000Y323000D02*
X523000D01*
X473000Y363000D02*
X523000D01*
Y323000D02*
Y363000D01*
X473000Y323000D02*
Y363000D01*
X826000Y725000D02*
X862000D01*
X826000Y699000D02*
X862000D01*
X826000D02*
Y725000D01*
X862000Y699000D02*
Y725000D01*
X827500Y606500D02*
X872500D01*
X827500Y657500D02*
X872500D01*
Y606500D02*
Y657500D01*
X827500Y606500D02*
Y657500D01*
X598500Y215500D02*
X643500D01*
X598500Y164500D02*
X643500D01*
X598500D02*
Y215500D01*
X643500Y164500D02*
Y215500D01*
X598500Y283500D02*
X643500D01*
X598500Y232500D02*
X643500D01*
X598500D02*
Y283500D01*
X643500Y232500D02*
Y283500D01*
X281000Y181000D02*
Y231000D01*
X321000Y181000D02*
Y231000D01*
X281000Y181000D02*
X321000D01*
X281000Y231000D02*
X321000D01*
X281000Y261000D02*
Y311000D01*
X321000Y261000D02*
Y311000D01*
X281000Y261000D02*
X321000D01*
X281000Y311000D02*
X321000D01*
X751000Y159000D02*
Y209000D01*
X791000Y159000D02*
Y209000D01*
X751000Y159000D02*
X791000D01*
X751000Y209000D02*
X791000D01*
X122000Y282000D02*
Y332000D01*
X162000Y282000D02*
Y332000D01*
X122000Y282000D02*
X162000D01*
X122000Y332000D02*
X162000D01*
X474500Y162500D02*
X505500D01*
X474500Y131500D02*
X505500D01*
X474500D02*
Y162500D01*
X505500Y131500D02*
Y162500D01*
X442500Y708000D02*
Y734000D01*
X431500Y708000D02*
Y734000D01*
X442500D01*
X431500Y708000D02*
X442500D01*
X790000Y222000D02*
Y272000D01*
X750000Y222000D02*
Y272000D01*
X790000D01*
X750000Y222000D02*
X790000D01*
X161000Y342000D02*
Y392000D01*
X121000Y342000D02*
Y392000D01*
X161000D01*
X121000Y342000D02*
X161000D01*
X825000Y402000D02*
Y452000D01*
X785000Y402000D02*
Y452000D01*
X825000D01*
X785000Y402000D02*
X825000D01*
X294000Y401000D02*
Y451000D01*
X254000Y401000D02*
Y451000D01*
X294000D01*
X254000Y401000D02*
X294000D01*
X790000Y282000D02*
Y332000D01*
X750000Y282000D02*
Y332000D01*
X790000D01*
X750000Y282000D02*
X790000D01*
X161000Y402000D02*
Y452000D01*
X121000Y402000D02*
Y452000D01*
X161000D01*
X121000Y402000D02*
X161000D01*
X825000Y462000D02*
Y512000D01*
X785000Y462000D02*
Y512000D01*
X825000D01*
X785000Y462000D02*
X825000D01*
X294000Y461000D02*
Y511000D01*
X254000Y461000D02*
Y511000D01*
X294000D01*
X254000Y461000D02*
X294000D01*
X868800Y144975D02*
X899800D01*
X868800Y175975D02*
X899800D01*
Y144975D02*
Y175975D01*
X868800Y144975D02*
Y175975D01*
X85200Y144975D02*
X116200D01*
X85200Y175975D02*
X116200D01*
Y144975D02*
Y175975D01*
X85200Y144975D02*
Y175975D01*
X555000Y375000D02*
Y425000D01*
X595000Y375000D02*
Y425000D01*
X555000Y375000D02*
X595000D01*
X555000Y425000D02*
X595000D01*
X938650Y961900D02*
X946750D01*
X883250D02*
X891350D01*
X938650D02*
Y1000000D01*
X918800Y961900D02*
Y1000000D01*
X911200Y961900D02*
Y1000000D01*
X891350Y961900D02*
Y1000000D01*
X942500Y1016500D02*
Y1095200D01*
X887500Y1016500D02*
Y1095200D01*
X946750Y961900D02*
Y1016500D01*
X883250Y961900D02*
Y1016500D01*
X911200Y961900D02*
X918800D01*
X891350Y1000000D02*
X911200D01*
X887500Y1095200D02*
X942500D01*
X918800Y1000000D02*
X938650D01*
X883250Y1016500D02*
X946750D01*
X333340Y647250D02*
X335491D01*
Y647250D01*
Y647250D02*
Y647250D01*
Y647250D02*
Y647250D01*
X335490D02*
X335491D01*
X391760D01*
X333340Y710750D02*
X391760D01*
Y647250D02*
Y710750D01*
X333340Y686620D02*
X338420D01*
Y671380D02*
Y686620D01*
X333340Y671380D02*
X338420D01*
X333340Y686620D02*
Y710750D01*
Y647250D02*
Y671380D01*
X713250Y38054D02*
X721350D01*
X768650D02*
X776750D01*
X721350Y-46D02*
Y38054D01*
X741200Y-46D02*
Y38054D01*
X748800Y-46D02*
Y38054D01*
X768650Y-46D02*
Y38054D01*
X717500Y-95246D02*
Y-16546D01*
X772500Y-95246D02*
Y-16546D01*
X713250D02*
Y38054D01*
X776750Y-16546D02*
Y38054D01*
X741200D02*
X748800D01*
Y-46D02*
X768650D01*
X717500Y-95246D02*
X772500D01*
X721350Y-46D02*
X741200D01*
X713250Y-16546D02*
X776750D01*
X203250Y38054D02*
X211350D01*
X258650D02*
X266750D01*
X211350Y-46D02*
Y38054D01*
X231200Y-46D02*
Y38054D01*
X238800Y-46D02*
Y38054D01*
X258650Y-46D02*
Y38054D01*
X207500Y-95246D02*
Y-16546D01*
X262500Y-95246D02*
Y-16546D01*
X203250D02*
Y38054D01*
X266750Y-16546D02*
Y38054D01*
X231200D02*
X238800D01*
Y-46D02*
X258650D01*
X207500Y-95246D02*
X262500D01*
X211350Y-46D02*
X231200D01*
X203250Y-16546D02*
X266750D01*
X378870Y1005590D02*
X392840D01*
X413160D02*
X427130D01*
X392840Y1000510D02*
Y1005590D01*
Y1000510D02*
X413160D01*
Y1005590D01*
X378870Y968760D02*
X427130D01*
X378870D02*
Y1005590D01*
X427130Y968760D02*
Y1005590D01*
X200055Y983950D02*
X234055Y983950D01*
X200055Y949450D02*
X234055D01*
X200055D02*
Y983950D01*
X234055Y949450D02*
X234055Y983950D01*
X158055Y983950D02*
X192055Y983950D01*
X158055Y949450D02*
X192055D01*
X158055D02*
Y983950D01*
X192055Y949450D02*
X192055Y983950D01*
X474500Y908750D02*
X505500D01*
X474500Y939750D02*
X505500D01*
Y908750D02*
Y939750D01*
X474500Y908750D02*
Y939750D01*
X84000Y837000D02*
X98000D01*
X84000Y809000D02*
Y837000D01*
Y809000D02*
X98000D01*
Y837000D01*
X333500Y915500D02*
Y956500D01*
X374500Y915500D02*
Y956500D01*
X333500Y915500D02*
X374500D01*
X333500Y956500D02*
X374500D01*
X47300Y998500D02*
X134700D01*
X134700Y902000D02*
Y1008000D01*
X47300Y902000D02*
Y1008000D01*
X60200Y896000D02*
X121800D01*
X60200D02*
Y902000D01*
X121800D02*
X134700D01*
X47300D02*
X60200D01*
X47600Y1008000D02*
X134700D01*
X121800Y896000D02*
Y902000D01*
X681000Y861000D02*
Y951000D01*
X569000Y861000D02*
X681000D01*
X569000D02*
Y951000D01*
X681000D01*
X669000Y861000D02*
Y951000D01*
X581000Y861000D02*
Y951000D01*
X543250Y38054D02*
X551350D01*
X598650D02*
X606750D01*
X551350Y-46D02*
Y38054D01*
X571200Y-46D02*
Y38054D01*
X578800Y-46D02*
Y38054D01*
X598650Y-46D02*
Y38054D01*
X547500Y-95246D02*
Y-16546D01*
X602500Y-95246D02*
Y-16546D01*
X543250D02*
Y38054D01*
X606750Y-16546D02*
Y38054D01*
X571200D02*
X578800D01*
Y-46D02*
X598650D01*
X547500Y-95246D02*
X602500D01*
X551350Y-46D02*
X571200D01*
X543250Y-16546D02*
X606750D01*
X373250Y38054D02*
X381350D01*
X428650D02*
X436750D01*
X381350Y-46D02*
Y38054D01*
X401200Y-46D02*
Y38054D01*
X408800Y-46D02*
Y38054D01*
X428650Y-46D02*
Y38054D01*
X377500Y-95246D02*
Y-16546D01*
X432500Y-95246D02*
Y-16546D01*
X373250D02*
Y38054D01*
X436750Y-16546D02*
Y38054D01*
X401200D02*
X408800D01*
Y-46D02*
X428650D01*
X377500Y-95246D02*
X432500D01*
X381350Y-46D02*
X401200D01*
X373250Y-16546D02*
X436750D01*
X883250Y38054D02*
X891350D01*
X938650D02*
X946750D01*
X891350Y-46D02*
Y38054D01*
X911200Y-46D02*
Y38054D01*
X918800Y-46D02*
Y38054D01*
X938650Y-46D02*
Y38054D01*
X887500Y-95246D02*
Y-16546D01*
X942500Y-95246D02*
Y-16546D01*
X883250D02*
Y38054D01*
X946750Y-16546D02*
Y38054D01*
X911200D02*
X918800D01*
Y-46D02*
X938650D01*
X887500Y-95246D02*
X942500D01*
X891350Y-46D02*
X911200D01*
X883250Y-16546D02*
X946750D01*
X33250Y38054D02*
X41350D01*
X88650D02*
X96750D01*
X41350Y-46D02*
Y38054D01*
X61200Y-46D02*
Y38054D01*
X68800Y-46D02*
Y38054D01*
X88650Y-46D02*
Y38054D01*
X37500Y-95246D02*
Y-16546D01*
X92500Y-95246D02*
Y-16546D01*
X33250D02*
Y38054D01*
X96750Y-16546D02*
Y38054D01*
X61200D02*
X68800D01*
Y-46D02*
X88650D01*
X37500Y-95246D02*
X92500D01*
X41350Y-46D02*
X61200D01*
X33250Y-16546D02*
X96750D01*
X768650Y961900D02*
X776750D01*
X713250D02*
X721350D01*
X768650D02*
Y1000000D01*
X748800Y961900D02*
Y1000000D01*
X741200Y961900D02*
Y1000000D01*
X721350Y961900D02*
Y1000000D01*
X772500Y1016500D02*
Y1095200D01*
X717500Y1016500D02*
Y1095200D01*
X776750Y961900D02*
Y1016500D01*
X713250Y961900D02*
Y1016500D01*
X741200Y961900D02*
X748800D01*
X721350Y1000000D02*
X741200D01*
X717500Y1095200D02*
X772500D01*
X748800Y1000000D02*
X768650D01*
X713250Y1016500D02*
X776750D01*
D103*
X465000Y614001D02*
Y646001D01*
X490000Y614001D02*
Y646001D01*
X465000D02*
X490000D01*
X465000Y614001D02*
X490000D01*
X877881Y670509D02*
X906882D01*
X877881D02*
Y698509D01*
X906882D01*
Y670509D02*
Y698509D01*
X306270Y919490D02*
X312620D01*
X307540D02*
X312620D01*
X307540D02*
Y923300D01*
Y924570D01*
X312620D01*
X297380Y919490D02*
X312620D01*
X297380Y952510D02*
X312620D01*
Y919490D02*
Y952510D01*
X297380Y919490D02*
Y952510D01*
X865791Y571856D02*
Y600857D01*
X837792Y571856D02*
X865791D01*
X837792D02*
Y600857D01*
X865791D01*
X331118Y628991D02*
X360119D01*
Y600992D02*
Y628991D01*
X331118Y600992D02*
X360119D01*
X331118D02*
Y628991D01*
X865791Y534356D02*
Y563357D01*
X837792Y534356D02*
X865791D01*
X837792D02*
Y563357D01*
X865791D01*
X368618Y628991D02*
X397619D01*
Y600992D02*
Y628991D01*
X368618Y600992D02*
X397619D01*
X368618D02*
Y628991D01*
X904840Y892000D02*
X926430D01*
X904840Y914000D02*
X926430D01*
X904840Y892000D02*
Y914000D01*
X926430Y892000D02*
Y914000D01*
X142750Y852000D02*
Y874000D01*
X129250Y852000D02*
Y874000D01*
Y852000D02*
X142750D01*
X129250Y874000D02*
X142750D01*
X599508Y830300D02*
Y856300D01*
X651508Y830300D02*
Y856300D01*
X604680Y832840D02*
Y854430D01*
X599508Y830300D02*
X651508D01*
X599508Y856300D02*
X651508D01*
D185*
X131526Y207952D02*
X131526Y213451D01*
X142026Y207952D02*
X142026Y213451D01*
X131526Y207952D02*
X142026D01*
X131526Y213451D02*
X142026D01*
X59452Y165224D02*
X64952D01*
X59452Y154724D02*
X64952D01*
X59452D02*
Y165224D01*
X64952Y154724D02*
Y165224D01*
X837751Y179749D02*
Y190249D01*
X832252Y179749D02*
Y190249D01*
Y179749D02*
X837751D01*
X832252Y190249D02*
X837751D01*
X430249Y142751D02*
Y153251D01*
X435748Y142751D02*
Y153251D01*
X430249D02*
X435748D01*
X430249Y142751D02*
X435748D01*
X401751Y883751D02*
X412251D01*
X401751Y878252D02*
X412251D01*
Y883751D01*
X401751Y878252D02*
Y883751D01*
X302751Y814751D02*
X313251D01*
X302751Y809252D02*
X313251D01*
Y814751D01*
X302751Y809252D02*
Y814751D01*
X375749Y810249D02*
X386249D01*
X375749Y815748D02*
X386249D01*
X375749Y810249D02*
Y815748D01*
X386249Y810249D02*
Y815748D01*
X575751Y777749D02*
Y788249D01*
X570252Y777749D02*
Y788249D01*
Y777749D02*
X575751D01*
X570252Y788249D02*
X575751D01*
X231749Y907249D02*
X242249D01*
X231749Y912748D02*
X242249D01*
X231749Y907249D02*
Y912748D01*
X242249Y907249D02*
Y912748D01*
X231749Y897249D02*
X242249D01*
X231749Y902748D02*
X242249D01*
X231749Y897249D02*
Y902748D01*
X242249Y897249D02*
Y902748D01*
X231749Y868249D02*
X242249D01*
X231749Y873748D02*
X242249D01*
X231749Y868249D02*
Y873748D01*
X242249Y868249D02*
Y873748D01*
X158751Y888751D02*
X169251D01*
X158751Y883252D02*
X169251D01*
Y888751D01*
X158751Y883252D02*
Y888751D01*
X160249Y931751D02*
Y942251D01*
X165748Y931751D02*
Y942251D01*
X160249D02*
X165748D01*
X160249Y931751D02*
X165748D01*
X246249D02*
Y942251D01*
X251748Y931751D02*
Y942251D01*
X246249D02*
X251748D01*
X246249Y931751D02*
X251748D01*
X236249D02*
Y942251D01*
X241748Y931751D02*
Y942251D01*
X236249D02*
X241748D01*
X236249Y931751D02*
X241748D01*
X221751Y931749D02*
Y942249D01*
X216252Y931749D02*
Y942249D01*
Y931749D02*
X221751D01*
X216252Y942249D02*
X221751D01*
X231751Y931749D02*
Y942249D01*
X226252Y931749D02*
Y942249D01*
Y931749D02*
X231751D01*
X226252Y942249D02*
X231751D01*
X501799Y392499D02*
X512299D01*
X501799Y397998D02*
X512299D01*
X501799Y392499D02*
Y397998D01*
X512299Y392499D02*
Y397998D01*
X483801Y398001D02*
X494301D01*
X483801Y392502D02*
X494301D01*
Y398001D01*
X483801Y392502D02*
Y398001D01*
X501801Y388001D02*
X512301D01*
X501801Y382502D02*
X512301D01*
Y388001D01*
X501801Y382502D02*
Y388001D01*
X483799Y382499D02*
X494299D01*
X483799Y387998D02*
X494299D01*
X483799Y382499D02*
Y387998D01*
X494299Y382499D02*
Y387998D01*
X330749Y532249D02*
X341249D01*
X330749Y537748D02*
X341249D01*
X330749Y532249D02*
Y537748D01*
X341249Y532249D02*
Y537748D01*
X360749Y532249D02*
X371249D01*
X360749Y537748D02*
X371249D01*
X360749Y532249D02*
Y537748D01*
X371249Y532249D02*
Y537748D01*
X390749Y532249D02*
X401249D01*
X390749Y537748D02*
X401249D01*
X390749Y532249D02*
Y537748D01*
X401249Y532249D02*
Y537748D01*
X420749Y532249D02*
X431249D01*
X420749Y537748D02*
X431249D01*
X420749Y532249D02*
Y537748D01*
X431249Y532249D02*
Y537748D01*
X348249Y543751D02*
Y554251D01*
X353748Y543751D02*
Y554251D01*
X348249D02*
X353748D01*
X348249Y543751D02*
X353748D01*
X378249D02*
Y554251D01*
X383748Y543751D02*
Y554251D01*
X378249D02*
X383748D01*
X378249Y543751D02*
X383748D01*
X408249D02*
Y554251D01*
X413748Y543751D02*
Y554251D01*
X408249D02*
X413748D01*
X408249Y543751D02*
X413748D01*
X438249D02*
Y554251D01*
X443748Y543751D02*
Y554251D01*
X438249D02*
X443748D01*
X438249Y543751D02*
X443748D01*
X504751Y843751D02*
X515251D01*
X504751Y838252D02*
X515251D01*
Y843751D01*
X504751Y838252D02*
Y843751D01*
X523751Y802751D02*
X534251D01*
X523751Y797252D02*
X534251D01*
Y802751D01*
X523751Y797252D02*
Y802751D01*
X504751Y855751D02*
X515251D01*
X504751Y850252D02*
X515251D01*
Y855751D01*
X504751Y850252D02*
Y855751D01*
X871751Y722751D02*
X882251D01*
X871751Y717252D02*
X882251D01*
Y722751D01*
X871751Y717252D02*
Y722751D01*
X870751Y673749D02*
Y684249D01*
X865252Y673749D02*
Y684249D01*
Y673749D02*
X870751D01*
X865252Y684249D02*
X870751D01*
X860751Y673749D02*
Y684249D01*
X855252Y673749D02*
Y684249D01*
Y673749D02*
X860751D01*
X855252Y684249D02*
X860751D01*
X840751Y673749D02*
Y684249D01*
X835252Y673749D02*
Y684249D01*
Y673749D02*
X840751D01*
X835252Y684249D02*
X840751D01*
X850751Y673749D02*
Y684249D01*
X845252Y673749D02*
Y684249D01*
Y673749D02*
X850751D01*
X845252Y684249D02*
X850751D01*
X846249Y740751D02*
Y751251D01*
X851748Y740751D02*
Y751251D01*
X846249D02*
X851748D01*
X846249Y740751D02*
X851748D01*
X866249D02*
Y751251D01*
X871748Y740751D02*
Y751251D01*
X866249D02*
X871748D01*
X866249Y740751D02*
X871748D01*
X856249D02*
Y751251D01*
X861748Y740751D02*
Y751251D01*
X856249D02*
X861748D01*
X856249Y740751D02*
X861748D01*
X897751Y617751D02*
X908251D01*
X897751Y612252D02*
X908251D01*
Y617751D01*
X897751Y612252D02*
Y617751D01*
X836249Y740751D02*
Y751251D01*
X841748Y740751D02*
Y751251D01*
X836249D02*
X841748D01*
X836249Y740751D02*
X841748D01*
X897751Y627751D02*
X908251D01*
X897751Y622252D02*
X908251D01*
Y627751D01*
X897751Y622252D02*
Y627751D01*
X826249Y740751D02*
Y751251D01*
X831748Y740751D02*
Y751251D01*
X826249D02*
X831748D01*
X826249Y740751D02*
X831748D01*
X897751Y637751D02*
X908251D01*
X897751Y632252D02*
X908251D01*
Y637751D01*
X897751Y632252D02*
Y637751D01*
X816249Y740751D02*
Y751251D01*
X821748Y740751D02*
Y751251D01*
X816249D02*
X821748D01*
X816249Y740751D02*
X821748D01*
X897751Y647751D02*
X908251D01*
X897751Y642252D02*
X908251D01*
Y647751D01*
X897751Y642252D02*
Y647751D01*
X817751Y697749D02*
Y708249D01*
X812252Y697749D02*
Y708249D01*
Y697749D02*
X817751D01*
X812252Y708249D02*
X817751D01*
X897751Y657751D02*
X908251D01*
X897751Y652252D02*
X908251D01*
Y657751D01*
X897751Y652252D02*
Y657751D01*
X565749Y240249D02*
X576249D01*
X565749Y245748D02*
X576249D01*
X565749Y240249D02*
Y245748D01*
X576249Y240249D02*
Y245748D01*
X565749Y250249D02*
X576249D01*
X565749Y255748D02*
X576249D01*
X565749Y250249D02*
Y255748D01*
X576249Y250249D02*
Y255748D01*
X667751Y170751D02*
X678251D01*
X667751Y165252D02*
X678251D01*
Y170751D01*
X667751Y165252D02*
Y170751D01*
X565749Y260249D02*
X576249D01*
X565749Y265748D02*
X576249D01*
X565749Y260249D02*
Y265748D01*
X576249Y260249D02*
Y265748D01*
X565749Y270249D02*
X576249D01*
X565749Y275748D02*
X576249D01*
X565749Y270249D02*
Y275748D01*
X576249Y270249D02*
Y275748D01*
X667751Y275751D02*
X678251D01*
X667751Y270252D02*
X678251D01*
Y275751D01*
X667751Y270252D02*
Y275751D01*
Y265751D02*
X678251D01*
X667751Y260252D02*
X678251D01*
Y265751D01*
X667751Y260252D02*
Y265751D01*
Y235751D02*
X678251D01*
X667751Y230252D02*
X678251D01*
Y235751D01*
X667751Y230252D02*
Y235751D01*
Y255751D02*
X678251D01*
X667751Y250252D02*
X678251D01*
Y255751D01*
X667751Y250252D02*
Y255751D01*
Y245751D02*
X678251D01*
X667751Y240252D02*
X678251D01*
Y245751D01*
X667751Y240252D02*
Y245751D01*
X286751Y253751D02*
X297251D01*
X286751Y248252D02*
X297251D01*
Y253751D01*
X286751Y248252D02*
Y253751D01*
X304749Y238249D02*
X315249D01*
X304749Y243748D02*
X315249D01*
X304749Y238249D02*
Y243748D01*
X315249Y238249D02*
Y243748D01*
X356751Y289749D02*
Y300249D01*
X351252Y289749D02*
Y300249D01*
Y289749D02*
X356751D01*
X351252Y300249D02*
X356751D01*
X341249Y271751D02*
Y282251D01*
X346748Y271751D02*
Y282251D01*
X341249D02*
X346748D01*
X341249Y271751D02*
X346748D01*
X286749Y238249D02*
X297249D01*
X286749Y243748D02*
X297249D01*
X286749Y238249D02*
Y243748D01*
X297249Y238249D02*
Y243748D01*
X304751Y253751D02*
X315251D01*
X304751Y248252D02*
X315251D01*
Y253751D01*
X304751Y248252D02*
Y253751D01*
X341249Y289751D02*
Y300251D01*
X346748Y289751D02*
Y300251D01*
X341249D02*
X346748D01*
X341249Y289751D02*
X346748D01*
X356751Y271749D02*
Y282249D01*
X351252Y271749D02*
Y282249D01*
Y271749D02*
X356751D01*
X351252Y282249D02*
X356751D01*
X778751Y138749D02*
Y149249D01*
X773252Y138749D02*
Y149249D01*
Y138749D02*
X778751D01*
X773252Y149249D02*
X778751D01*
X149751Y261749D02*
Y272249D01*
X144252Y261749D02*
Y272249D01*
Y261749D02*
X149751D01*
X144252Y272249D02*
X149751D01*
X783249Y138751D02*
Y149251D01*
X788748Y138751D02*
Y149251D01*
X783249D02*
X788748D01*
X783249Y138751D02*
X788748D01*
X164249Y261751D02*
Y272251D01*
X169748Y261751D02*
Y272251D01*
X164249D02*
X169748D01*
X164249Y261751D02*
X169748D01*
X763249Y138751D02*
Y149251D01*
X768748Y138751D02*
Y149251D01*
X763249D02*
X768748D01*
X763249Y138751D02*
X768748D01*
X134249Y261751D02*
Y272251D01*
X139748Y261751D02*
Y272251D01*
X134249D02*
X139748D01*
X134249Y261751D02*
X139748D01*
X479251Y245249D02*
Y255749D01*
X473752Y245249D02*
Y255749D01*
Y245249D02*
X479251D01*
X473752Y255749D02*
X479251D01*
X404249Y327749D02*
X414749D01*
X404249Y333248D02*
X414749D01*
X404249Y327749D02*
Y333248D01*
X414749Y327749D02*
Y333248D01*
X499251Y278251D02*
X509751D01*
X499251Y272752D02*
X509751D01*
Y278251D01*
X499251Y272752D02*
Y278251D01*
X437251Y297249D02*
Y307749D01*
X431752Y297249D02*
Y307749D01*
Y297249D02*
X437251D01*
X431752Y307749D02*
X437251D01*
X517249Y272749D02*
X527749D01*
X517249Y278248D02*
X527749D01*
X517249Y272749D02*
Y278248D01*
X527749Y272749D02*
Y278248D01*
X431749Y279251D02*
Y289751D01*
X437248Y279251D02*
Y289751D01*
X431749D02*
X437248D01*
X431749Y279251D02*
X437248D01*
X499249Y282749D02*
X509749D01*
X499249Y288248D02*
X509749D01*
X499249Y282749D02*
Y288248D01*
X509749Y282749D02*
Y288248D01*
X441749Y297251D02*
Y307751D01*
X447248Y297251D02*
Y307751D01*
X441749D02*
X447248D01*
X441749Y297251D02*
X447248D01*
X517251Y288251D02*
X527751D01*
X517251Y282752D02*
X527751D01*
Y288251D01*
X517251Y282752D02*
Y288251D01*
X447251Y279249D02*
Y289749D01*
X441752Y279249D02*
Y289749D01*
Y279249D02*
X447251D01*
X441752Y289749D02*
X447251D01*
X514749Y142249D02*
X525249D01*
X514749Y147748D02*
X525249D01*
X514749Y142249D02*
Y147748D01*
X525249Y142249D02*
Y147748D01*
X475751Y186751D02*
X486251D01*
X475751Y181252D02*
X486251D01*
Y186751D01*
X475751Y181252D02*
Y186751D01*
X493749Y181249D02*
X504249D01*
X493749Y186748D02*
X504249D01*
X493749Y181249D02*
Y186748D01*
X504249Y181249D02*
Y186748D01*
X475749Y171249D02*
X486249D01*
X475749Y176748D02*
X486249D01*
X475749Y171249D02*
Y176748D01*
X486249Y171249D02*
Y176748D01*
X493751Y176751D02*
X504251D01*
X493751Y171252D02*
X504251D01*
Y176751D01*
X493751Y171252D02*
Y176751D01*
X455751Y167751D02*
X466251D01*
X455751Y162252D02*
X466251D01*
Y167751D01*
X455751Y162252D02*
Y167751D01*
Y157751D02*
X466251D01*
X455751Y152252D02*
X466251D01*
Y157751D01*
X455751Y152252D02*
Y157751D01*
X446751Y127751D02*
X457251D01*
X446751Y122252D02*
X457251D01*
Y127751D01*
X446751Y122252D02*
Y127751D01*
X455749Y142249D02*
X466249D01*
X455749Y147748D02*
X466249D01*
X455749Y142249D02*
Y147748D01*
X466249Y142249D02*
Y147748D01*
X281751Y943749D02*
Y954249D01*
X276252Y943749D02*
Y954249D01*
Y943749D02*
X281751D01*
X276252Y954249D02*
X281751D01*
X276249Y925751D02*
Y936251D01*
X281748Y925751D02*
Y936251D01*
X276249D02*
X281748D01*
X276249Y925751D02*
X281748D01*
X266249Y943751D02*
Y954251D01*
X271748Y943751D02*
Y954251D01*
X266249D02*
X271748D01*
X266249Y943751D02*
X271748D01*
X271751Y925749D02*
Y936249D01*
X266252Y925749D02*
Y936249D01*
Y925749D02*
X271751D01*
X266252Y936249D02*
X271751D01*
X279591Y824749D02*
Y835249D01*
X274092Y824749D02*
Y835249D01*
Y824749D02*
X279591D01*
X274092Y835249D02*
X279591D01*
X413249Y856751D02*
Y867251D01*
X418748Y856751D02*
Y867251D01*
X413249D02*
X418748D01*
X413249Y856751D02*
X418748D01*
X279591Y854749D02*
Y865249D01*
X274092Y854749D02*
Y865249D01*
Y854749D02*
X279591D01*
X274092Y865249D02*
X279591D01*
X413249Y826751D02*
Y837251D01*
X418748Y826751D02*
Y837251D01*
X413249D02*
X418748D01*
X413249Y826751D02*
X418748D01*
X490749Y897249D02*
X501249D01*
X490749Y902748D02*
X501249D01*
X490749Y897249D02*
Y902748D01*
X501249Y897249D02*
Y902748D01*
X498249Y627751D02*
Y638251D01*
X503748Y627751D02*
Y638251D01*
X498249D02*
X503748D01*
X498249Y627751D02*
X503748D01*
X496749Y568249D02*
X507249D01*
X496749Y573748D02*
X507249D01*
X496749Y568249D02*
Y573748D01*
X507249Y568249D02*
Y573748D01*
X403249Y722751D02*
Y733251D01*
X408748Y722751D02*
Y733251D01*
X403249D02*
X408748D01*
X403249Y722751D02*
X408748D01*
X712249Y221751D02*
Y232251D01*
X717748Y221751D02*
Y232251D01*
X712249D02*
X717748D01*
X712249Y221751D02*
X717748D01*
X83249Y341751D02*
Y352251D01*
X88748Y341751D02*
Y352251D01*
X83249D02*
X88748D01*
X83249Y341751D02*
X88748D01*
X749249Y420751D02*
Y431251D01*
X754748Y420751D02*
Y431251D01*
X749249D02*
X754748D01*
X749249Y420751D02*
X754748D01*
X217249Y419751D02*
Y430251D01*
X222748Y419751D02*
Y430251D01*
X217249D02*
X222748D01*
X217249Y419751D02*
X222748D01*
X727751Y185749D02*
Y196249D01*
X722252Y185749D02*
Y196249D01*
Y185749D02*
X727751D01*
X722252Y196249D02*
X727751D01*
X98751Y299749D02*
Y310249D01*
X93252Y299749D02*
Y310249D01*
Y299749D02*
X98751D01*
X93252Y310249D02*
X98751D01*
X754751Y402749D02*
Y413249D01*
X749252Y402749D02*
Y413249D01*
Y402749D02*
X754751D01*
X749252Y413249D02*
X754751D01*
X222751Y401749D02*
Y412249D01*
X217252Y401749D02*
Y412249D01*
Y401749D02*
X222751D01*
X217252Y412249D02*
X222751D01*
X727751Y221749D02*
Y232249D01*
X722252Y221749D02*
Y232249D01*
Y221749D02*
X727751D01*
X722252Y232249D02*
X727751D01*
X98751Y341749D02*
Y352249D01*
X93252Y341749D02*
Y352249D01*
Y341749D02*
X98751D01*
X93252Y352249D02*
X98751D01*
X759249Y402751D02*
Y413251D01*
X764748Y402751D02*
Y413251D01*
X759249D02*
X764748D01*
X759249Y402751D02*
X764748D01*
X227249Y401751D02*
Y412251D01*
X232748Y401751D02*
Y412251D01*
X227249D02*
X232748D01*
X227249Y401751D02*
X232748D01*
X847751Y153749D02*
Y164249D01*
X842252Y153749D02*
Y164249D01*
Y153749D02*
X847751D01*
X842252Y164249D02*
X847751D01*
X889049Y192724D02*
X899549D01*
X889049Y198223D02*
X899549D01*
X889049Y192724D02*
Y198223D01*
X899549Y192724D02*
Y198223D01*
X105449Y192724D02*
X115949D01*
X105449Y198223D02*
X115949D01*
X105449Y192724D02*
Y198223D01*
X115949Y192724D02*
Y198223D01*
X869051Y198226D02*
X879551D01*
X869051Y192727D02*
X879551D01*
Y198226D01*
X869051Y192727D02*
Y198226D01*
X85451D02*
X95951D01*
X85451Y192727D02*
X95951D01*
Y198226D01*
X85451Y192727D02*
Y198226D01*
X907749Y127249D02*
X918249D01*
X907749Y132748D02*
X918249D01*
X907749Y127249D02*
Y132748D01*
X918249Y127249D02*
Y132748D01*
X123949Y127224D02*
X134449D01*
X123949Y132723D02*
X134449D01*
X123949Y127224D02*
Y132723D01*
X134449Y127224D02*
Y132723D01*
X889051Y208226D02*
X899551D01*
X889051Y202727D02*
X899551D01*
Y208226D01*
X889051Y202727D02*
Y208226D01*
X105451D02*
X115951D01*
X105451Y202727D02*
X115951D01*
Y208226D01*
X105451Y202727D02*
Y208226D01*
X869049Y202724D02*
X879549D01*
X869049Y208223D02*
X879549D01*
X869049Y202724D02*
Y208223D01*
X879549Y202724D02*
Y208223D01*
X85449Y202724D02*
X95949D01*
X85449Y208223D02*
X95949D01*
X85449Y202724D02*
Y208223D01*
X95949Y202724D02*
Y208223D01*
X847049Y520724D02*
X857549D01*
X847049Y526223D02*
X857549D01*
X847049Y520724D02*
Y526223D01*
X857549Y520724D02*
Y526223D01*
X411251Y610249D02*
Y620749D01*
X405752Y610249D02*
Y620749D01*
Y610249D02*
X411251D01*
X405752Y620749D02*
X411251D01*
X929049Y145226D02*
Y155726D01*
X934548Y145226D02*
Y155726D01*
X929049D02*
X934548D01*
X929049Y145226D02*
X934548D01*
X144449Y144726D02*
Y155226D01*
X149948Y144726D02*
Y155226D01*
X144449D02*
X149948D01*
X144449Y144726D02*
X149948D01*
X934551Y165224D02*
Y175724D01*
X929052Y165224D02*
Y175724D01*
Y165224D02*
X934551D01*
X929052Y175724D02*
X934551D01*
X150951Y165224D02*
Y175724D01*
X145452Y165224D02*
Y175724D01*
Y165224D02*
X150951D01*
X145452Y175724D02*
X150951D01*
X921549Y187726D02*
Y198226D01*
X927048Y187726D02*
Y198226D01*
X921549D02*
X927048D01*
X921549Y187726D02*
X927048D01*
X137949D02*
Y198226D01*
X143448Y187726D02*
Y198226D01*
X137949D02*
X143448D01*
X137949Y187726D02*
X143448D01*
X911549D02*
Y198226D01*
X917048Y187726D02*
Y198226D01*
X911549D02*
X917048D01*
X911549Y187726D02*
X917048D01*
X127949D02*
Y198226D01*
X133448Y187726D02*
Y198226D01*
X127949D02*
X133448D01*
X127949Y187726D02*
X133448D01*
X924551Y145224D02*
Y155724D01*
X919052Y145224D02*
Y155724D01*
Y145224D02*
X924551D01*
X919052Y155724D02*
X924551D01*
X140951Y145224D02*
Y155724D01*
X135452Y145224D02*
Y155724D01*
Y145224D02*
X140951D01*
X135452Y155724D02*
X140951D01*
X919049Y165226D02*
Y175726D01*
X924548Y165226D02*
Y175726D01*
X919049D02*
X924548D01*
X919049Y165226D02*
X924548D01*
X135449D02*
Y175726D01*
X140948Y165226D02*
Y175726D01*
X135449D02*
X140948D01*
X135449Y165226D02*
X140948D01*
X285751Y321751D02*
X296251D01*
X285751Y316252D02*
X296251D01*
Y321751D01*
X285751Y316252D02*
Y321751D01*
X303749Y316249D02*
X314249D01*
X303749Y321748D02*
X314249D01*
X303749Y316249D02*
Y321748D01*
X314249Y316249D02*
Y321748D01*
X285749Y326249D02*
X296249D01*
X285749Y331748D02*
X296249D01*
X285749Y326249D02*
Y331748D01*
X296249Y326249D02*
Y331748D01*
X303751Y331751D02*
X314251D01*
X303751Y326252D02*
X314251D01*
Y331751D01*
X303751Y326252D02*
Y331751D01*
X517500Y920250D02*
Y940250D01*
X542500Y920250D02*
Y940250D01*
X517500Y920250D02*
X542500D01*
X517500Y940250D02*
X542500D01*
X481000Y888750D02*
X501000D01*
X481000Y863750D02*
X501000D01*
X481000D02*
Y888750D01*
X501000Y863750D02*
Y888750D01*
X398000Y893500D02*
X418000D01*
X398000Y918500D02*
X418000D01*
Y893500D02*
Y918500D01*
X398000Y893500D02*
Y918500D01*
X494500Y945250D02*
Y965250D01*
X469500Y945250D02*
Y965250D01*
X494500D01*
X469500Y945250D02*
X494500D01*
X424000Y836500D02*
X444000D01*
X424000Y811500D02*
X444000D01*
X424000D02*
Y836500D01*
X444000Y811500D02*
Y836500D01*
X228000Y854500D02*
X248000D01*
X228000Y829500D02*
X248000D01*
X228000D02*
Y854500D01*
X248000Y829500D02*
Y854500D01*
X62500Y890100D02*
X64500D01*
X67500D02*
X69500D01*
X72500D02*
Y896000D01*
Y890100D02*
X74500D01*
Y896000D01*
X77500Y890100D02*
Y896000D01*
Y890100D02*
X79500D01*
Y896000D01*
X82500Y890100D02*
Y896000D01*
Y890100D02*
X84500D01*
Y896000D01*
X87500Y890100D02*
X89500D01*
X92500D02*
Y896000D01*
Y890100D02*
X94500D01*
Y896000D01*
X97500Y890100D02*
Y896000D01*
Y890100D02*
X99500D01*
Y896000D01*
X102500Y890100D02*
Y896000D01*
Y890100D02*
X104500D01*
Y896000D01*
X107500Y890100D02*
Y896000D01*
Y890100D02*
X109500D01*
Y896000D01*
X112500Y890100D02*
Y896000D01*
Y890100D02*
X114500D01*
Y896000D01*
X117500Y890100D02*
X119500D01*
X117500D02*
Y896000D01*
X119500Y890100D02*
Y896000D01*
X87500Y890100D02*
Y896000D01*
X67500Y890100D02*
Y896000D01*
X69500Y890100D02*
Y896000D01*
X62500Y890100D02*
Y896000D01*
X64500Y890100D02*
Y896000D01*
X89500Y890100D02*
Y896000D01*
X633749Y814248D02*
X651248D01*
X633749Y823748D02*
X651248D01*
X633749Y814248D02*
Y823748D01*
X651248Y814248D02*
Y823748D01*
X597752Y823752D02*
X615251D01*
X597752Y814252D02*
X615251D01*
Y823752D01*
X597752Y814252D02*
Y823752D01*
X545749Y527249D02*
X556249D01*
X545749Y532748D02*
X556249D01*
X545749Y527249D02*
Y532748D01*
X556249Y527249D02*
Y532748D01*
X605751Y781751D02*
X616251D01*
X605751Y776252D02*
X616251D01*
Y781751D01*
X605751Y776252D02*
Y781751D01*
X655751D02*
X666251D01*
X655751Y776252D02*
X666251D01*
Y781751D01*
X655751Y776252D02*
Y781751D01*
X718751Y531751D02*
X729251D01*
X718751Y526252D02*
X729251D01*
Y531751D01*
X718751Y526252D02*
Y531751D01*
X758751Y668749D02*
Y679249D01*
X753252Y668749D02*
Y679249D01*
Y668749D02*
X758751D01*
X753252Y679249D02*
X758751D01*
X643751Y157751D02*
X654251D01*
X643751Y152252D02*
X654251D01*
Y157751D01*
X643751Y152252D02*
Y157751D01*
X565749Y228249D02*
X576249D01*
X565749Y233748D02*
X576249D01*
X565749Y228249D02*
Y233748D01*
X576249Y228249D02*
Y233748D01*
X158749Y873249D02*
X169249D01*
X158749Y878748D02*
X169249D01*
X158749Y873249D02*
Y878748D01*
X169249Y873249D02*
Y878748D01*
X158749Y893249D02*
X169249D01*
X158749Y898748D02*
X169249D01*
X158749Y893249D02*
Y898748D01*
X169249Y893249D02*
Y898748D01*
X206249Y931751D02*
Y942251D01*
X211748Y931751D02*
Y942251D01*
X206249D02*
X211748D01*
X206249Y931751D02*
X211748D01*
X452249Y364751D02*
Y375251D01*
X457748Y364751D02*
Y375251D01*
X452249D02*
X457748D01*
X452249Y364751D02*
X457748D01*
X462249D02*
Y375251D01*
X467748Y364751D02*
Y375251D01*
X462249D02*
X467748D01*
X462249Y364751D02*
X467748D01*
X328249Y543751D02*
Y554251D01*
X333748Y543751D02*
Y554251D01*
X328249D02*
X333748D01*
X328249Y543751D02*
X333748D01*
X338249Y543751D02*
Y554251D01*
X343748Y543751D02*
Y554251D01*
X338249D02*
X343748D01*
X338249Y543751D02*
X343748D01*
X358249Y543751D02*
Y554251D01*
X363748Y543751D02*
Y554251D01*
X358249D02*
X363748D01*
X358249Y543751D02*
X363748D01*
X368249D02*
Y554251D01*
X373748Y543751D02*
Y554251D01*
X368249D02*
X373748D01*
X368249Y543751D02*
X373748D01*
X388249D02*
Y554251D01*
X393748Y543751D02*
Y554251D01*
X388249D02*
X393748D01*
X388249Y543751D02*
X393748D01*
X398249D02*
Y554251D01*
X403748Y543751D02*
Y554251D01*
X398249D02*
X403748D01*
X398249Y543751D02*
X403748D01*
X418249D02*
Y554251D01*
X423748Y543751D02*
Y554251D01*
X418249D02*
X423748D01*
X418249Y543751D02*
X423748D01*
X428249D02*
Y554251D01*
X433748Y543751D02*
Y554251D01*
X428249D02*
X433748D01*
X428249Y543751D02*
X433748D01*
X541749Y797249D02*
X552249D01*
X541749Y802748D02*
X552249D01*
X541749Y797249D02*
Y802748D01*
X552249Y797249D02*
Y802748D01*
X620251Y809751D02*
X630751D01*
X620251Y804252D02*
X630751D01*
Y809751D01*
X620251Y804252D02*
Y809751D01*
X559751Y802751D02*
X570251D01*
X559751Y797252D02*
X570251D01*
Y802751D01*
X559751Y797252D02*
Y802751D01*
X871751Y712751D02*
X882251D01*
X871751Y707252D02*
X882251D01*
Y712751D01*
X871751Y707252D02*
Y712751D01*
X858749Y662249D02*
X869249D01*
X858749Y667748D02*
X869249D01*
X858749Y662249D02*
Y667748D01*
X869249Y662249D02*
Y667748D01*
X898249Y708751D02*
Y719251D01*
X903748Y708751D02*
Y719251D01*
X898249D02*
X903748D01*
X898249Y708751D02*
X903748D01*
X584749Y153249D02*
X595249D01*
X584749Y158748D02*
X595249D01*
X584749Y153249D02*
Y158748D01*
X595249Y153249D02*
Y158748D01*
X645751Y226751D02*
X656251D01*
X645751Y221252D02*
X656251D01*
Y226751D01*
X645751Y221252D02*
Y226751D01*
X321249Y239751D02*
Y250251D01*
X326748Y239751D02*
Y250251D01*
X321249D02*
X326748D01*
X321249Y239751D02*
X326748D01*
X319249Y317751D02*
Y328251D01*
X324748Y317751D02*
Y328251D01*
X319249D02*
X324748D01*
X319249Y317751D02*
X324748D01*
X331249Y239751D02*
Y250251D01*
X336748Y239751D02*
Y250251D01*
X331249D02*
X336748D01*
X331249Y239751D02*
X336748D01*
X329249Y317751D02*
Y328251D01*
X334748Y317751D02*
Y328251D01*
X329249D02*
X334748D01*
X329249Y317751D02*
X334748D01*
X793249Y138751D02*
Y149251D01*
X798748Y138751D02*
Y149251D01*
X793249D02*
X798748D01*
X793249Y138751D02*
X798748D01*
X154249Y261751D02*
Y272251D01*
X159748Y261751D02*
Y272251D01*
X154249D02*
X159748D01*
X154249Y261751D02*
X159748D01*
X738749Y145249D02*
X749249D01*
X738749Y150748D02*
X749249D01*
X738749Y145249D02*
Y150748D01*
X749249Y145249D02*
Y150748D01*
X114749Y269249D02*
X125249D01*
X114749Y274748D02*
X125249D01*
X114749Y269249D02*
Y274748D01*
X125249Y269249D02*
Y274748D01*
X811249Y185751D02*
Y196251D01*
X816748Y185751D02*
Y196251D01*
X811249D02*
X816748D01*
X811249Y185751D02*
X816748D01*
X187751Y304749D02*
Y315249D01*
X182252Y304749D02*
Y315249D01*
Y304749D02*
X187751D01*
X182252Y315249D02*
X187751D01*
X526751Y200751D02*
X537251D01*
X526751Y195252D02*
X537251D01*
Y200751D01*
X526751Y195252D02*
Y200751D01*
X354249Y310751D02*
Y321251D01*
X359748Y310751D02*
Y321251D01*
X354249D02*
X359748D01*
X354249Y310751D02*
X359748D01*
X479251Y226249D02*
Y236749D01*
X473752Y226249D02*
Y236749D01*
Y226249D02*
X479251D01*
X473752Y236749D02*
X479251D01*
X385249Y327749D02*
X395749D01*
X385249Y333248D02*
X395749D01*
X385249Y327749D02*
Y333248D01*
X395749Y327749D02*
Y333248D01*
X514751Y127751D02*
X525251D01*
X514751Y122252D02*
X525251D01*
Y127751D01*
X514751Y122252D02*
Y127751D01*
X468751Y125749D02*
Y136249D01*
X463252Y125749D02*
Y136249D01*
Y125749D02*
X468751D01*
X463252Y136249D02*
X468751D01*
X514749Y132249D02*
X525249D01*
X514749Y137748D02*
X525249D01*
X514749Y132249D02*
Y137748D01*
X525249Y132249D02*
Y137748D01*
X514751Y157751D02*
X525251D01*
X514751Y152252D02*
X525251D01*
Y157751D01*
X514751Y152252D02*
Y157751D01*
X446749Y132249D02*
X457249D01*
X446749Y137748D02*
X457249D01*
X446749Y132249D02*
Y137748D01*
X457249Y132249D02*
Y137748D01*
X519751Y902999D02*
Y913499D01*
X514252Y902999D02*
Y913499D01*
Y902999D02*
X519751D01*
X514252Y913499D02*
X519751D01*
X503249Y947001D02*
Y957501D01*
X508748Y947001D02*
Y957501D01*
X503249D02*
X508748D01*
X503249Y947001D02*
X508748D01*
X460249Y928001D02*
Y938501D01*
X465748Y928001D02*
Y938501D01*
X460249D02*
X465748D01*
X460249Y928001D02*
X465748D01*
X316749Y903249D02*
X327249D01*
X316749Y908748D02*
X327249D01*
X316749Y903249D02*
Y908748D01*
X327249Y903249D02*
Y908748D01*
X287751Y914751D02*
X298251D01*
X287751Y909252D02*
X298251D01*
Y914751D01*
X287751Y909252D02*
Y914751D01*
X267591Y847751D02*
X278091D01*
X267591Y842252D02*
X278091D01*
Y847751D01*
X267591Y842252D02*
Y847751D01*
X414749Y844249D02*
X425249D01*
X414749Y849748D02*
X425249D01*
X414749Y844249D02*
Y849748D01*
X425249Y844249D02*
Y849748D01*
X312591Y848751D02*
X323091D01*
X312591Y843252D02*
X323091D01*
Y848751D01*
X312591Y843252D02*
Y848751D01*
X369749Y843249D02*
X380249D01*
X369749Y848748D02*
X380249D01*
X369749Y843249D02*
Y848748D01*
X380249Y843249D02*
Y848748D01*
X472751Y659751D02*
X483251D01*
X472751Y654252D02*
X483251D01*
Y659751D01*
X472751Y654252D02*
Y659751D01*
X472749Y600249D02*
X483249D01*
X472749Y605748D02*
X483249D01*
X472749Y600249D02*
Y605748D01*
X483249Y600249D02*
Y605748D01*
X712751Y520749D02*
Y531249D01*
X707252Y520749D02*
Y531249D01*
Y520749D02*
X712751D01*
X707252Y531249D02*
X712751D01*
X754751Y727751D02*
X765251D01*
X754751Y722252D02*
X765251D01*
Y727751D01*
X754751Y722252D02*
Y727751D01*
X496749Y578249D02*
X507249D01*
X496749Y583748D02*
X507249D01*
X496749Y578249D02*
Y583748D01*
X507249Y578249D02*
Y583748D01*
X496749Y558249D02*
X507249D01*
X496749Y563748D02*
X507249D01*
X496749Y558249D02*
Y563748D01*
X507249Y558249D02*
Y563748D01*
X496749Y548249D02*
X507249D01*
X496749Y553748D02*
X507249D01*
X496749Y548249D02*
Y553748D01*
X507249Y548249D02*
Y553748D01*
X496749Y538249D02*
X507249D01*
X496749Y543748D02*
X507249D01*
X496749Y538249D02*
Y543748D01*
X507249Y538249D02*
Y543748D01*
X478751Y543751D02*
X489251D01*
X478751Y538252D02*
X489251D01*
Y543751D01*
X478751Y538252D02*
Y543751D01*
X413249Y722751D02*
Y733251D01*
X418748Y722751D02*
Y733251D01*
X413249D02*
X418748D01*
X413249Y722751D02*
X418748D01*
X660749Y527249D02*
X671249D01*
X660749Y532748D02*
X671249D01*
X660749Y527249D02*
Y532748D01*
X671249Y527249D02*
Y532748D01*
X503249Y658751D02*
Y669251D01*
X508748Y658751D02*
Y669251D01*
X503249D02*
X508748D01*
X503249Y658751D02*
X508748D01*
X508751Y588749D02*
Y599249D01*
X503252Y588749D02*
Y599249D01*
Y588749D02*
X508751D01*
X503252Y599249D02*
X508751D01*
X531749Y777249D02*
X542249D01*
X531749Y782748D02*
X542249D01*
X531749Y777249D02*
Y782748D01*
X542249Y777249D02*
Y782748D01*
X758751Y733749D02*
Y744249D01*
X753252Y733749D02*
Y744249D01*
Y733749D02*
X758751D01*
X753252Y744249D02*
X758751D01*
Y613749D02*
Y624249D01*
X753252Y613749D02*
Y624249D01*
Y613749D02*
X758751D01*
X753252Y624249D02*
X758751D01*
X610749Y527249D02*
X621249D01*
X610749Y532748D02*
X621249D01*
X610749Y527249D02*
Y532748D01*
X621249Y527249D02*
Y532748D01*
X727751Y203749D02*
Y214249D01*
X722252Y203749D02*
Y214249D01*
Y203749D02*
X727751D01*
X722252Y214249D02*
X727751D01*
X98751Y323749D02*
Y334249D01*
X93252Y323749D02*
Y334249D01*
Y323749D02*
X98751D01*
X93252Y334249D02*
X98751D01*
X759249Y420751D02*
Y431251D01*
X764748Y420751D02*
Y431251D01*
X759249D02*
X764748D01*
X759249Y420751D02*
X764748D01*
X227249Y419751D02*
Y430251D01*
X232748Y419751D02*
Y430251D01*
X227249D02*
X232748D01*
X227249Y419751D02*
X232748D01*
X812751Y226751D02*
X823251D01*
X812751Y221252D02*
X823251D01*
Y226751D01*
X812751Y221252D02*
Y226751D01*
X184751Y345751D02*
X195251D01*
X184751Y340252D02*
X195251D01*
Y345751D01*
X184751Y340252D02*
Y345751D01*
X849751Y405751D02*
X860251D01*
X849751Y400252D02*
X860251D01*
Y405751D01*
X849751Y400252D02*
Y405751D01*
X317751Y409751D02*
X328251D01*
X317751Y404252D02*
X328251D01*
Y409751D01*
X317751Y404252D02*
Y409751D01*
X812751Y235751D02*
X823251D01*
X812751Y230252D02*
X823251D01*
Y235751D01*
X812751Y230252D02*
Y235751D01*
X184751Y356751D02*
X195251D01*
X184751Y351252D02*
X195251D01*
Y356751D01*
X184751Y351252D02*
Y356751D01*
X849751Y416751D02*
X860251D01*
X849751Y411252D02*
X860251D01*
Y416751D01*
X849751Y411252D02*
Y416751D01*
X317751Y419751D02*
X328251D01*
X317751Y414252D02*
X328251D01*
Y419751D01*
X317751Y414252D02*
Y419751D01*
X722249Y300751D02*
Y311251D01*
X727748Y300751D02*
Y311251D01*
X722249D02*
X727748D01*
X722249Y300751D02*
X727748D01*
X93249Y414751D02*
Y425251D01*
X98748Y414751D02*
Y425251D01*
X93249D02*
X98748D01*
X93249Y414751D02*
X98748D01*
X759249Y481751D02*
Y492251D01*
X764748Y481751D02*
Y492251D01*
X759249D02*
X764748D01*
X759249Y481751D02*
X764748D01*
X225249Y480751D02*
Y491251D01*
X230748Y480751D02*
Y491251D01*
X225249D02*
X230748D01*
X225249Y480751D02*
X230748D01*
X813751Y286751D02*
X824251D01*
X813751Y281252D02*
X824251D01*
Y286751D01*
X813751Y281252D02*
Y286751D01*
X184751Y406751D02*
X195251D01*
X184751Y401252D02*
X195251D01*
Y406751D01*
X184751Y401252D02*
Y406751D01*
X849751Y461751D02*
X860251D01*
X849751Y456252D02*
X860251D01*
Y461751D01*
X849751Y456252D02*
Y461751D01*
X317751Y464751D02*
X328251D01*
X317751Y459252D02*
X328251D01*
Y464751D01*
X317751Y459252D02*
Y464751D01*
X818751Y304749D02*
Y315249D01*
X813252Y304749D02*
Y315249D01*
Y304749D02*
X818751D01*
X813252Y315249D02*
X818751D01*
X184751Y435751D02*
X195251D01*
X184751Y430252D02*
X195251D01*
Y435751D01*
X184751Y430252D02*
Y435751D01*
X852751Y478749D02*
Y489249D01*
X847252Y478749D02*
Y489249D01*
Y478749D02*
X852751D01*
X847252Y489249D02*
X852751D01*
X316249Y480751D02*
Y491251D01*
X321748Y480751D02*
Y491251D01*
X316249D02*
X321748D01*
X316249Y480751D02*
X321748D01*
X813751Y296751D02*
X824251D01*
X813751Y291252D02*
X824251D01*
Y296751D01*
X813751Y291252D02*
Y296751D01*
X184751Y416751D02*
X195251D01*
X184751Y411252D02*
X195251D01*
Y416751D01*
X184751Y411252D02*
Y416751D01*
X849751Y472751D02*
X860251D01*
X849751Y467252D02*
X860251D01*
Y472751D01*
X849751Y467252D02*
Y472751D01*
X317751Y474751D02*
X328251D01*
X317751Y469252D02*
X328251D01*
Y474751D01*
X317751Y469252D02*
Y474751D01*
X815749Y574249D02*
X826249D01*
X815749Y579748D02*
X826249D01*
X815749Y574249D02*
Y579748D01*
X826249Y574249D02*
Y579748D01*
X353751Y589751D02*
X364251D01*
X353751Y584252D02*
X364251D01*
Y589751D01*
X353751Y584252D02*
Y589751D01*
X807751Y606749D02*
Y617249D01*
X802252Y606749D02*
Y617249D01*
Y606749D02*
X807751D01*
X802252Y617249D02*
X807751D01*
X333749Y584249D02*
X344249D01*
X333749Y589748D02*
X344249D01*
X333749Y584249D02*
Y589748D01*
X344249Y584249D02*
Y589748D01*
X893751Y187751D02*
X904251D01*
X893751Y182252D02*
X904251D01*
Y187751D01*
X893751Y182252D02*
Y187751D01*
X109951Y187726D02*
X120451D01*
X109951Y182227D02*
X120451D01*
Y187726D01*
X109951Y182227D02*
Y187726D01*
X861749Y182249D02*
X872249D01*
X861749Y187748D02*
X872249D01*
X861749Y182249D02*
Y187748D01*
X872249Y182249D02*
Y187748D01*
X78949Y182224D02*
X89449D01*
X78949Y187723D02*
X89449D01*
X78949Y182224D02*
Y187723D01*
X89449Y182224D02*
Y187723D01*
X911751Y138749D02*
Y149249D01*
X906252Y138749D02*
Y149249D01*
Y138749D02*
X911751D01*
X906252Y149249D02*
X911751D01*
X127951Y138724D02*
Y149224D01*
X122452Y138724D02*
Y149224D01*
Y138724D02*
X127951D01*
X122452Y149224D02*
X127951D01*
X853249Y153751D02*
Y164251D01*
X858748Y153751D02*
Y164251D01*
X853249D02*
X858748D01*
X853249Y153751D02*
X858748D01*
X70449Y154726D02*
Y165226D01*
X75948Y154726D02*
Y165226D01*
X70449D02*
X75948D01*
X70449Y154726D02*
X75948D01*
X815749Y526249D02*
X826249D01*
X815749Y531748D02*
X826249D01*
X815749Y526249D02*
Y531748D01*
X826249Y526249D02*
Y531748D01*
X411751Y589749D02*
Y600249D01*
X406252Y589749D02*
Y600249D01*
Y589749D02*
X411751D01*
X406252Y600249D02*
X411751D01*
X822049Y538226D02*
Y548726D01*
X827548Y538226D02*
Y548726D01*
X822049D02*
X827548D01*
X822049Y538226D02*
X827548D01*
X383249Y585249D02*
X393749D01*
X383249Y590748D02*
X393749D01*
X383249Y585249D02*
Y590748D01*
X393749Y585249D02*
Y590748D01*
X925751Y132751D02*
X936251D01*
X925751Y127252D02*
X936251D01*
Y132751D01*
X925751Y127252D02*
Y132751D01*
X141952Y132726D02*
X152451D01*
X141952Y127227D02*
X152451D01*
Y132726D01*
X141952Y127227D02*
Y132726D01*
X866751Y224749D02*
Y235249D01*
X861252Y224749D02*
Y235249D01*
Y224749D02*
X866751D01*
X861252Y235249D02*
X866751D01*
X82951Y224724D02*
Y235224D01*
X77452Y224724D02*
Y235224D01*
Y224724D02*
X82951D01*
X77452Y235224D02*
X82951D01*
X878751Y249751D02*
X889251D01*
X878751Y244252D02*
X889251D01*
Y249751D01*
X878751Y244252D02*
Y249751D01*
X94951Y250726D02*
X105451D01*
X94951Y245227D02*
X105451D01*
Y250726D01*
X94951Y245227D02*
Y250726D01*
X937051Y187724D02*
Y198224D01*
X931552Y187724D02*
Y198224D01*
Y187724D02*
X937051D01*
X931552Y198224D02*
X937051D01*
X153451Y187724D02*
Y198224D01*
X147952Y187724D02*
Y198224D01*
Y187724D02*
X153451D01*
X147952Y198224D02*
X153451D01*
X934249Y890751D02*
Y901251D01*
X939748Y890751D02*
Y901251D01*
X934249D02*
X939748D01*
X934249Y890751D02*
X939748D01*
X344751Y343749D02*
Y354249D01*
X339252Y343749D02*
Y354249D01*
Y343749D02*
X344751D01*
X339252Y354249D02*
X344751D01*
X597751Y435751D02*
X608251D01*
X597751Y430252D02*
X608251D01*
Y435751D01*
X597751Y430252D02*
Y435751D01*
X579749Y430249D02*
X590249D01*
X579749Y435748D02*
X590249D01*
X579749Y430249D02*
Y435748D01*
X590249Y430249D02*
Y435748D01*
X418781Y973881D02*
X419281Y973381D01*
X420280D01*
X420780Y973881D01*
Y974381D01*
X420280Y974881D01*
X419281D01*
X418781Y975380D01*
Y975880D01*
X419281Y976380D01*
X420280D01*
X420780Y975880D01*
X417781Y976380D02*
X416781D01*
X417281D01*
Y973381D01*
X417781Y973881D01*
D186*
X311252Y84752D02*
X328751D01*
X311252Y75252D02*
X328751D01*
Y84752D01*
X311252Y75252D02*
Y84752D01*
X651252D02*
X668752D01*
X651252Y75252D02*
X668752D01*
Y84752D01*
X651252Y75252D02*
Y84752D01*
X50252Y875000D02*
X59752D01*
X50252Y859000D02*
X59752D01*
X50252D02*
Y875000D01*
X59752Y859000D02*
Y875000D01*
X108000Y1005098D02*
X105388D01*
X104517Y1004808D01*
X104227Y1004517D01*
X103937Y1003937D01*
Y1003066D01*
X104227Y1002486D01*
X104517Y1002196D01*
X105388Y1001905D01*
X108000D01*
Y1008000D01*
X98219Y1003356D02*
X98510Y1002776D01*
X99090Y1002196D01*
X99671Y1001905D01*
X100831D01*
X101412Y1002196D01*
X101992Y1002776D01*
X102283Y1003356D01*
X102573Y1004227D01*
Y1005678D01*
X102283Y1006549D01*
X101992Y1007129D01*
X101412Y1007710D01*
X100831Y1008000D01*
X99671D01*
X99090Y1007710D01*
X98510Y1007129D01*
X98219Y1006549D01*
X96507Y1001905D02*
Y1008000D01*
Y1001905D02*
X93895D01*
X93025Y1002196D01*
X92734Y1002486D01*
X92444Y1003066D01*
Y1003647D01*
X92734Y1004227D01*
X93025Y1004517D01*
X93895Y1004808D01*
X96507D02*
X93895D01*
X93025Y1005098D01*
X92734Y1005388D01*
X92444Y1005968D01*
Y1006839D01*
X92734Y1007420D01*
X93025Y1007710D01*
X93895Y1008000D01*
X96507D01*
X82518Y1001905D02*
X86291D01*
Y1008000D01*
X82518D01*
X86291Y1004808D02*
X83969D01*
X78020Y1001905D02*
Y1008000D01*
Y1004808D02*
X78600Y1004227D01*
X79181Y1003937D01*
X80051D01*
X80632Y1004227D01*
X81212Y1004808D01*
X81503Y1005678D01*
Y1006259D01*
X81212Y1007129D01*
X80632Y1007710D01*
X80051Y1008000D01*
X79181D01*
X78600Y1007710D01*
X78020Y1007129D01*
X72912Y1003937D02*
Y1008580D01*
X73202Y1009451D01*
X73492Y1009741D01*
X74073Y1010032D01*
X74944D01*
X75524Y1009741D01*
X72912Y1004808D02*
X73492Y1004227D01*
X74073Y1003937D01*
X74944D01*
X75524Y1004227D01*
X76104Y1004808D01*
X76395Y1005678D01*
Y1006259D01*
X76104Y1007129D01*
X75524Y1007710D01*
X74944Y1008000D01*
X74073D01*
X73492Y1007710D01*
X72912Y1007129D01*
X71287Y1005678D02*
X67804D01*
Y1005098D01*
X68094Y1004517D01*
X68384Y1004227D01*
X68965Y1003937D01*
X69836D01*
X70416Y1004227D01*
X70996Y1004808D01*
X71287Y1005678D01*
Y1006259D01*
X70996Y1007129D01*
X70416Y1007710D01*
X69836Y1008000D01*
X68965D01*
X68384Y1007710D01*
X67804Y1007129D01*
D187*
X175002Y944252D02*
X197002D01*
X175002Y929752D02*
X197002D01*
Y944252D01*
X175002Y929752D02*
Y944252D01*
X478002Y519751D02*
Y534252D01*
X500002Y519751D02*
Y534252D01*
X478002Y519751D02*
X500002D01*
X478002Y534252D02*
X500002D01*
X517002Y977252D02*
X539002D01*
X517002Y962751D02*
X539002D01*
Y977252D01*
X517002Y962751D02*
Y977252D01*
X488999Y800748D02*
X510998D01*
X488999Y815249D02*
X510998D01*
X488999Y800748D02*
Y815249D01*
X510998Y800748D02*
Y815249D01*
X488999Y818748D02*
X510998D01*
X488999Y833249D02*
X510998D01*
X488999Y818748D02*
Y833249D01*
X510998Y818748D02*
Y833249D01*
X488999Y782748D02*
X510998D01*
X488999Y797249D02*
X510998D01*
X488999Y782748D02*
Y797249D01*
X510998Y782748D02*
Y797249D01*
X461748Y866252D02*
Y888251D01*
X476249Y866252D02*
Y888251D01*
X461748D02*
X476249D01*
X461748Y866252D02*
X476249D01*
X528002Y879252D02*
X550002D01*
X528002Y864752D02*
X550002D01*
Y879252D01*
X528002Y864752D02*
Y879252D01*
Y897252D02*
X550002D01*
X528002Y882751D02*
X550002D01*
Y897252D01*
X528002Y882751D02*
Y897252D01*
Y915252D02*
X550002D01*
X528002Y900751D02*
X550002D01*
Y915252D01*
X528002Y900751D02*
Y915252D01*
X520252Y865999D02*
Y887998D01*
X505751Y865999D02*
Y887998D01*
Y865999D02*
X520252D01*
X505751Y887998D02*
X520252D01*
X403748Y931002D02*
Y953001D01*
X418249Y931002D02*
Y953001D01*
X403748D02*
X418249D01*
X403748Y931002D02*
X418249D01*
X436252Y895999D02*
Y917998D01*
X421752Y895999D02*
Y917998D01*
Y895999D02*
X436252D01*
X421752Y917998D02*
X436252D01*
X454252Y895999D02*
Y917998D01*
X439752Y895999D02*
Y917998D01*
Y895999D02*
X454252D01*
X439752Y917998D02*
X454252D01*
X421748Y931002D02*
Y953001D01*
X436249Y931002D02*
Y953001D01*
X421748D02*
X436249D01*
X421748Y931002D02*
X436249D01*
X439748D02*
Y953001D01*
X454249Y931002D02*
Y953001D01*
X439748D02*
X454249D01*
X439748Y931002D02*
X454249D01*
X518002Y959502D02*
X540002D01*
X518002Y945002D02*
X540002D01*
Y959502D01*
X518002Y945002D02*
Y959502D01*
X348252Y882999D02*
Y904998D01*
X333752Y882999D02*
Y904998D01*
Y882999D02*
X348252D01*
X333752Y904998D02*
X348252D01*
X384252Y882999D02*
Y904998D01*
X369752Y882999D02*
Y904998D01*
Y882999D02*
X384252D01*
X369752Y904998D02*
X384252D01*
X366252Y882999D02*
Y904998D01*
X351752Y882999D02*
Y904998D01*
Y882999D02*
X366252D01*
X351752Y904998D02*
X366252D01*
X310748Y961002D02*
Y983001D01*
X325249Y961002D02*
Y983001D01*
X310748D02*
X325249D01*
X310748Y961002D02*
X325249D01*
X292748Y961002D02*
Y983001D01*
X307249Y961002D02*
Y983001D01*
X292748D02*
X307249D01*
X292748Y961002D02*
X307249D01*
X269092Y810999D02*
Y832998D01*
X254592Y810999D02*
Y832998D01*
Y810999D02*
X269092D01*
X254592Y832998D02*
X269092D01*
X441748Y861002D02*
Y883001D01*
X456249Y861002D02*
Y883001D01*
X441748D02*
X456249D01*
X441748Y861002D02*
X456249D01*
X254588Y857002D02*
Y879001D01*
X269089Y857002D02*
Y879001D01*
X254588D02*
X269089D01*
X254588Y857002D02*
X269089D01*
X423748Y861002D02*
Y883001D01*
X438249Y861002D02*
Y883001D01*
X423748D02*
X438249D01*
X423748Y861002D02*
X438249D01*
X314842Y868252D02*
X336842D01*
X314842Y853751D02*
X336842D01*
Y868252D01*
X314842Y853751D02*
Y868252D01*
X355999Y823748D02*
X377998D01*
X355999Y838249D02*
X377998D01*
X355999Y823748D02*
Y838249D01*
X377998Y823748D02*
Y838249D01*
X314842Y838252D02*
X336842D01*
X314842Y823751D02*
X336842D01*
Y838252D01*
X314842Y823751D02*
Y838252D01*
X355999Y853748D02*
X377998D01*
X355999Y868249D02*
X377998D01*
X355999Y853748D02*
Y868249D01*
X377998Y853748D02*
Y868249D01*
X447748Y814002D02*
Y836002D01*
X462249Y814002D02*
Y836002D01*
X447748D02*
X462249D01*
X447748Y814002D02*
X462249D01*
X221999Y806748D02*
X243998D01*
X221999Y821248D02*
X243998D01*
X221999Y806748D02*
Y821248D01*
X243998Y806748D02*
Y821248D01*
D188*
X880570Y687269D02*
Y685603D01*
X880903Y685270D01*
X881570D01*
X881903Y685603D01*
Y687269D01*
X883902Y685270D02*
X882569D01*
X883902Y686603D01*
Y686936D01*
X883569Y687269D01*
X882903D01*
X882569Y686936D01*
X885568Y685270D02*
Y687269D01*
X884569Y686270D01*
X885902D01*
X494539Y160700D02*
X492873D01*
X492540Y160367D01*
Y159700D01*
X492873Y159367D01*
X494539D01*
X492540Y158701D02*
Y158034D01*
Y158367D01*
X494539D01*
X494206Y158701D01*
X494539Y155702D02*
Y157035D01*
X493540D01*
X493873Y156368D01*
Y156035D01*
X493540Y155702D01*
X492873D01*
X492540Y156035D01*
Y156701D01*
X492873Y157035D01*
X849031Y574545D02*
X850697D01*
X851030Y574878D01*
Y575545D01*
X850697Y575878D01*
X849031D01*
Y576544D02*
Y577877D01*
X849364D01*
X850697Y576544D01*
X851030D01*
X851363Y578544D02*
Y579877D01*
X849364Y581876D02*
X849031Y581543D01*
Y580876D01*
X849364Y580543D01*
X850697D01*
X851030Y580876D01*
Y581543D01*
X850697Y581876D01*
X849031Y583542D02*
Y582876D01*
X849364Y582542D01*
X850697D01*
X851030Y582876D01*
Y583542D01*
X850697Y583875D01*
X849364D01*
X849031Y583542D01*
X851030Y584542D02*
X849031D01*
X849697Y585208D01*
X849031Y585875D01*
X851030D01*
Y586541D02*
X849031D01*
Y587541D01*
X849364Y587874D01*
X850031D01*
X850364Y587541D01*
Y586541D01*
X851363Y588540D02*
Y589873D01*
X851030Y590540D02*
X849031D01*
Y591540D01*
X849364Y591873D01*
X850031D01*
X850364Y591540D01*
Y590540D01*
X357430Y612231D02*
Y613897D01*
X357097Y614230D01*
X356430D01*
X356097Y613897D01*
Y612231D01*
X355431D02*
X354098D01*
Y612564D01*
X355431Y613897D01*
Y614230D01*
X353431Y614563D02*
X352099D01*
X350099Y612564D02*
X350432Y612231D01*
X351099D01*
X351432Y612564D01*
Y613897D01*
X351099Y614230D01*
X350432D01*
X350099Y613897D01*
X348433Y612231D02*
X349099D01*
X349433Y612564D01*
Y613897D01*
X349099Y614230D01*
X348433D01*
X348100Y613897D01*
Y612564D01*
X348433Y612231D01*
X347433Y614230D02*
Y612231D01*
X346767Y612897D01*
X346100Y612231D01*
Y614230D01*
X345434D02*
Y612231D01*
X344434D01*
X344101Y612564D01*
Y613230D01*
X344434Y613563D01*
X345434D01*
X343434Y614563D02*
X342102D01*
X341435Y614230D02*
Y612231D01*
X340102Y614230D01*
Y612231D01*
X849031Y537045D02*
X850697D01*
X851030Y537378D01*
Y538045D01*
X850697Y538378D01*
X849031D01*
Y540377D02*
X849364Y539711D01*
X850031Y539044D01*
X850697D01*
X851030Y539378D01*
Y540044D01*
X850697Y540377D01*
X850364D01*
X850031Y540044D01*
Y539044D01*
X851363Y541044D02*
Y542377D01*
X849364Y544376D02*
X849031Y544043D01*
Y543376D01*
X849364Y543043D01*
X850697D01*
X851030Y543376D01*
Y544043D01*
X850697Y544376D01*
X849031Y546042D02*
Y545376D01*
X849364Y545042D01*
X850697D01*
X851030Y545376D01*
Y546042D01*
X850697Y546375D01*
X849364D01*
X849031Y546042D01*
X851030Y547042D02*
X849031D01*
X849697Y547708D01*
X849031Y548375D01*
X851030D01*
Y549041D02*
X849031D01*
Y550041D01*
X849364Y550374D01*
X850031D01*
X850364Y550041D01*
Y549041D01*
X851363Y551040D02*
Y552373D01*
X851030Y553040D02*
X849031D01*
Y554040D01*
X849364Y554373D01*
X850031D01*
X850364Y554040D01*
Y553040D01*
X394930Y612231D02*
Y613897D01*
X394597Y614230D01*
X393930D01*
X393597Y613897D01*
Y612231D01*
X391598D02*
X392264Y612564D01*
X392931Y613230D01*
Y613897D01*
X392598Y614230D01*
X391931D01*
X391598Y613897D01*
Y613563D01*
X391931Y613230D01*
X392931D01*
X390931Y614563D02*
X389599D01*
X387599Y612564D02*
X387932Y612231D01*
X388599D01*
X388932Y612564D01*
Y613897D01*
X388599Y614230D01*
X387932D01*
X387599Y613897D01*
X385933Y612231D02*
X386599D01*
X386933Y612564D01*
Y613897D01*
X386599Y614230D01*
X385933D01*
X385600Y613897D01*
Y612564D01*
X385933Y612231D01*
X384933Y614230D02*
Y612231D01*
X384267Y612897D01*
X383600Y612231D01*
Y614230D01*
X382934D02*
Y612231D01*
X381934D01*
X381601Y612564D01*
Y613230D01*
X381934Y613563D01*
X382934D01*
X380934Y614563D02*
X379602D01*
X378935Y614230D02*
Y612231D01*
X377602Y614230D01*
Y612231D01*
X879761Y146775D02*
X881427D01*
X881760Y147108D01*
Y147775D01*
X881427Y148108D01*
X879761D01*
X881760Y149774D02*
X879761D01*
X880760Y148774D01*
Y150107D01*
X882093Y150774D02*
Y152107D01*
X880094Y154106D02*
X879761Y153773D01*
Y153106D01*
X880094Y152773D01*
X881427D01*
X881760Y153106D01*
Y153773D01*
X881427Y154106D01*
X879761Y155772D02*
Y155106D01*
X880094Y154772D01*
X881427D01*
X881760Y155106D01*
Y155772D01*
X881427Y156105D01*
X880094D01*
X879761Y155772D01*
X881760Y156772D02*
X879761D01*
X880427Y157438D01*
X879761Y158105D01*
X881760D01*
Y158771D02*
X879761D01*
Y159771D01*
X880094Y160104D01*
X880760D01*
X881094Y159771D01*
Y158771D01*
X882093Y160770D02*
Y162103D01*
X881760Y162770D02*
X879761D01*
Y163769D01*
X880094Y164103D01*
X880760D01*
X881094Y163769D01*
Y162770D01*
X96161Y146775D02*
X97827D01*
X98160Y147108D01*
Y147775D01*
X97827Y148108D01*
X96161D01*
X98160Y149774D02*
X96161D01*
X97161Y148774D01*
Y150107D01*
X98493Y150774D02*
Y152107D01*
X96494Y154106D02*
X96161Y153773D01*
Y153106D01*
X96494Y152773D01*
X97827D01*
X98160Y153106D01*
Y153773D01*
X97827Y154106D01*
X96161Y155772D02*
Y155106D01*
X96494Y154772D01*
X97827D01*
X98160Y155106D01*
Y155772D01*
X97827Y156105D01*
X96494D01*
X96161Y155772D01*
X98160Y156772D02*
X96161D01*
X96827Y157438D01*
X96161Y158105D01*
X98160D01*
Y158771D02*
X96161D01*
Y159771D01*
X96494Y160104D01*
X97161D01*
X97494Y159771D01*
Y158771D01*
X98493Y160770D02*
Y162103D01*
X98160Y162770D02*
X96161D01*
X98160Y164103D01*
X96161D01*
X218603Y978367D02*
X219936D01*
X220269Y978700D01*
Y979367D01*
X219936Y979700D01*
X218603D01*
X218270Y979367D01*
Y978700D01*
X218937Y979034D02*
X218270Y978367D01*
Y978700D02*
X218603Y978367D01*
X219936Y977701D02*
X220269Y977367D01*
Y976701D01*
X219936Y976368D01*
X219603D01*
X219270Y976701D01*
Y977034D01*
Y976701D01*
X218937Y976368D01*
X218603D01*
X218270Y976701D01*
Y977367D01*
X218603Y977701D01*
X176603Y978367D02*
X177936D01*
X178269Y978700D01*
Y979367D01*
X177936Y979700D01*
X176603D01*
X176270Y979367D01*
Y978700D01*
X176936Y979034D02*
X176270Y978367D01*
Y978700D02*
X176603Y978367D01*
X176270Y976368D02*
Y977701D01*
X177603Y976368D01*
X177936D01*
X178269Y976701D01*
Y977367D01*
X177936Y977701D01*
D189*
X86750Y815250D02*
X87750D01*
Y815917D01*
X86917Y816250D02*
X86750Y816416D01*
Y816749D01*
X86917Y816916D01*
X87084D01*
X87250Y816749D01*
X87417Y816916D01*
X87584D01*
X87750Y816749D01*
Y816416D01*
X87584Y816250D01*
X87417D01*
X87250Y816416D01*
X87084Y816250D01*
X86917D01*
X87250Y816416D02*
Y816749D01*
D190*
X648787Y818271D02*
X650120D01*
Y819270D01*
X649454D01*
X650120D01*
Y820270D01*
X648121Y818271D02*
Y820270D01*
X647121D01*
X646788Y819937D01*
Y819604D01*
X647121Y819270D01*
X648121D01*
X647121D01*
X646788Y818937D01*
Y818604D01*
X647121Y818271D01*
X648121D01*
X646121Y818604D02*
X645788Y818271D01*
X645122D01*
X644788Y818604D01*
Y818937D01*
X645122Y819270D01*
X645455D01*
X645122D01*
X644788Y819604D01*
Y819937D01*
X645122Y820270D01*
X645788D01*
X646121Y819937D01*
X600213Y819729D02*
X598880D01*
Y818730D01*
X599547D01*
X598880D01*
Y817730D01*
X600879Y819729D02*
Y817730D01*
X601879D01*
X602212Y818063D01*
Y818397D01*
X601879Y818730D01*
X600879D01*
X601879D01*
X602212Y819063D01*
Y819396D01*
X601879Y819729D01*
X600879D01*
X604212Y817730D02*
X602879D01*
X604212Y819063D01*
Y819396D01*
X603878Y819729D01*
X603212D01*
X602879Y819396D01*
M02*
