G04*
G04 #@! TF.GenerationSoftware,Altium Limited,Altium Designer,21.2.2 (38)*
G04*
G04 Layer_Color=128*
%FSLAX44Y44*%
%MOMM*%
G71*
G04*
G04 #@! TF.SameCoordinates,1D3918CC-9385-454E-ACC4-38365C0A3FBC*
G04*
G04*
G04 #@! TF.FilePolarity,Positive*
G04*
G01*
G75*
G04:AMPARAMS|DCode=124|XSize=1.21mm|YSize=4.06mm|CornerRadius=0.23mm|HoleSize=0mm|Usage=FLASHONLY|Rotation=0.000|XOffset=0mm|YOffset=0mm|HoleType=Round|Shape=RoundedRectangle|*
%AMROUNDEDRECTD124*
21,1,1.2100,3.6000,0,0,0.0*
21,1,0.7500,4.0600,0,0,0.0*
1,1,0.4600,0.3750,-1.8000*
1,1,0.4600,-0.3750,-1.8000*
1,1,0.4600,-0.3750,1.8000*
1,1,0.4600,0.3750,1.8000*
%
%ADD124ROUNDEDRECTD124*%
G36*
X1145458Y687888D02*
X1145625Y687870D01*
X1145810Y687851D01*
X1146014Y687795D01*
X1146199Y687740D01*
X1146384Y687647D01*
X1146403Y687629D01*
X1146458Y687610D01*
X1146551Y687555D01*
X1146662Y687481D01*
X1146773Y687388D01*
X1146903Y687277D01*
X1147032Y687147D01*
X1147143Y686999D01*
X1147162Y686981D01*
X1147199Y686925D01*
X1147236Y686833D01*
X1147310Y686721D01*
X1147384Y686592D01*
X1147439Y686425D01*
X1147514Y686240D01*
X1147569Y686036D01*
Y686018D01*
X1147588Y685944D01*
X1147606Y685833D01*
X1147643Y685685D01*
X1147662Y685518D01*
X1147680Y685333D01*
X1147699Y684888D01*
Y680333D01*
Y680315D01*
Y680296D01*
X1147662Y680222D01*
X1147643Y680204D01*
X1147551Y680148D01*
X1147532D01*
X1147495Y680130D01*
X1147439D01*
X1147347Y680111D01*
X1147254D01*
X1147162Y680093D01*
X1146810D01*
X1146699Y680111D01*
X1146680D01*
X1146625Y680130D01*
X1146551D01*
X1146495Y680148D01*
X1146477D01*
X1146458Y680167D01*
X1146384Y680222D01*
Y680259D01*
X1146366Y680333D01*
Y684703D01*
Y684722D01*
Y684777D01*
Y684870D01*
X1146347Y684981D01*
X1146329Y685259D01*
X1146273Y685536D01*
Y685555D01*
X1146255Y685611D01*
X1146236Y685666D01*
X1146217Y685759D01*
X1146125Y685981D01*
X1146014Y686185D01*
Y686203D01*
X1145977Y686240D01*
X1145903Y686351D01*
X1145754Y686481D01*
X1145569Y686610D01*
X1145551D01*
X1145514Y686629D01*
X1145458Y686666D01*
X1145384Y686684D01*
X1145181Y686740D01*
X1144940Y686759D01*
X1144866D01*
X1144773Y686740D01*
X1144643Y686721D01*
X1144514Y686666D01*
X1144347Y686610D01*
X1144181Y686518D01*
X1144014Y686388D01*
X1143996Y686370D01*
X1143940Y686333D01*
X1143847Y686240D01*
X1143718Y686129D01*
X1143570Y685981D01*
X1143403Y685814D01*
X1143218Y685611D01*
X1143014Y685370D01*
Y680333D01*
Y680315D01*
Y680296D01*
X1142977Y680222D01*
X1142959Y680204D01*
X1142866Y680148D01*
X1142847D01*
X1142810Y680130D01*
X1142755D01*
X1142662Y680111D01*
X1142570D01*
X1142477Y680093D01*
X1142144D01*
X1142033Y680111D01*
X1142014D01*
X1141959Y680130D01*
X1141885D01*
X1141829Y680148D01*
X1141811D01*
X1141792Y680167D01*
X1141718Y680222D01*
Y680259D01*
X1141699Y680333D01*
Y684703D01*
Y684722D01*
Y684777D01*
Y684870D01*
X1141681Y684981D01*
X1141662Y685259D01*
X1141607Y685536D01*
Y685555D01*
X1141588Y685611D01*
X1141570Y685666D01*
X1141533Y685759D01*
X1141459Y685981D01*
X1141329Y686185D01*
Y686203D01*
X1141292Y686240D01*
X1141218Y686351D01*
X1141070Y686481D01*
X1140885Y686610D01*
X1140866D01*
X1140848Y686629D01*
X1140792Y686666D01*
X1140718Y686684D01*
X1140514Y686740D01*
X1140255Y686759D01*
X1140181D01*
X1140088Y686740D01*
X1139959Y686721D01*
X1139829Y686666D01*
X1139663Y686610D01*
X1139496Y686518D01*
X1139329Y686388D01*
X1139311Y686370D01*
X1139255Y686333D01*
X1139163Y686240D01*
X1139033Y686129D01*
X1138885Y685981D01*
X1138718Y685814D01*
X1138533Y685611D01*
X1138329Y685370D01*
Y680333D01*
Y680315D01*
Y680296D01*
X1138292Y680222D01*
X1138274Y680204D01*
X1138181Y680148D01*
X1138163D01*
X1138126Y680130D01*
X1138070D01*
X1137978Y680111D01*
X1137904D01*
X1137792Y680093D01*
X1137441D01*
X1137329Y680111D01*
X1137311D01*
X1137274Y680130D01*
X1137144Y680148D01*
X1137126D01*
X1137107Y680167D01*
X1137033Y680222D01*
Y680259D01*
X1137015Y680333D01*
Y687536D01*
Y687555D01*
Y687573D01*
X1137033Y687647D01*
X1137052Y687666D01*
X1137089Y687703D01*
X1137126Y687721D01*
X1137144D01*
X1137181Y687740D01*
X1137237Y687758D01*
X1137311Y687777D01*
X1137329D01*
X1137385Y687795D01*
X1137792D01*
X1137885Y687777D01*
X1137904D01*
X1137959Y687758D01*
X1138015Y687740D01*
X1138070Y687721D01*
X1138089D01*
X1138107Y687703D01*
X1138144Y687684D01*
X1138163Y687647D01*
X1138181Y687629D01*
X1138200Y687536D01*
Y686592D01*
X1138218Y686629D01*
X1138311Y686703D01*
X1138422Y686814D01*
X1138570Y686962D01*
X1138737Y687129D01*
X1138940Y687296D01*
X1139144Y687444D01*
X1139366Y687573D01*
X1139385Y687592D01*
X1139459Y687629D01*
X1139588Y687684D01*
X1139737Y687740D01*
X1139903Y687795D01*
X1140107Y687851D01*
X1140311Y687888D01*
X1140533Y687907D01*
X1140699D01*
X1140792Y687888D01*
X1141051Y687870D01*
X1141329Y687795D01*
X1141348D01*
X1141385Y687777D01*
X1141459Y687758D01*
X1141551Y687721D01*
X1141755Y687629D01*
X1141959Y687499D01*
X1141977D01*
X1142014Y687462D01*
X1142125Y687370D01*
X1142273Y687240D01*
X1142421Y687055D01*
X1142440Y687036D01*
X1142459Y687018D01*
X1142496Y686962D01*
X1142533Y686888D01*
X1142644Y686703D01*
X1142755Y686481D01*
X1142773Y686499D01*
X1142810Y686555D01*
X1142885Y686610D01*
X1142977Y686703D01*
X1143181Y686925D01*
X1143421Y687129D01*
X1143440Y687147D01*
X1143477Y687185D01*
X1143551Y687222D01*
X1143625Y687296D01*
X1143829Y687425D01*
X1144051Y687573D01*
X1144070D01*
X1144107Y687610D01*
X1144162Y687629D01*
X1144236Y687666D01*
X1144440Y687740D01*
X1144643Y687814D01*
X1144662D01*
X1144699Y687832D01*
X1144755Y687851D01*
X1144829Y687870D01*
X1144995Y687888D01*
X1145218Y687907D01*
X1145329D01*
X1145458Y687888D01*
D02*
G37*
G36*
X1172696Y687888D02*
X1172900Y687851D01*
X1172955D01*
X1173011Y687833D01*
X1173085Y687814D01*
X1173252Y687777D01*
X1173418Y687721D01*
X1173437D01*
X1173455Y687703D01*
X1173567Y687684D01*
X1173696Y687629D01*
X1173826Y687573D01*
X1173863Y687555D01*
X1173918Y687518D01*
X1173992Y687481D01*
X1174066Y687425D01*
X1174085D01*
X1174122Y687388D01*
X1174159Y687351D01*
X1174177Y687314D01*
X1174196Y687277D01*
X1174214Y687203D01*
Y687185D01*
X1174233Y687166D01*
X1174252Y687055D01*
Y687036D01*
X1174270Y686999D01*
Y686925D01*
Y686851D01*
Y686833D01*
Y686759D01*
Y686684D01*
X1174252Y686592D01*
Y686573D01*
X1174233Y686536D01*
X1174196Y686444D01*
X1174177Y686407D01*
X1174140Y686351D01*
X1174122D01*
X1174048Y686333D01*
X1174029D01*
X1173992Y686351D01*
X1173937Y686370D01*
X1173844Y686407D01*
X1173826Y686425D01*
X1173752Y686462D01*
X1173641Y686518D01*
X1173492Y686592D01*
X1173455Y686610D01*
X1173363Y686666D01*
X1173196Y686722D01*
X1172992Y686796D01*
X1172974D01*
X1172937Y686814D01*
X1172881Y686833D01*
X1172807Y686851D01*
X1172585Y686870D01*
X1172326Y686888D01*
X1172215D01*
X1172122Y686870D01*
X1171937Y686851D01*
X1171733Y686796D01*
X1171715D01*
X1171696Y686777D01*
X1171585Y686740D01*
X1171437Y686666D01*
X1171307Y686573D01*
X1171289Y686555D01*
X1171215Y686481D01*
X1171141Y686370D01*
X1171067Y686240D01*
X1171048Y686203D01*
X1171030Y686129D01*
X1171011Y685999D01*
X1170993Y685833D01*
Y685814D01*
Y685777D01*
Y685722D01*
X1171011Y685648D01*
X1171048Y685481D01*
X1171141Y685296D01*
X1171178Y685259D01*
X1171252Y685166D01*
X1171382Y685055D01*
X1171548Y684925D01*
X1171567D01*
X1171604Y684907D01*
X1171641Y684870D01*
X1171715Y684833D01*
X1171900Y684740D01*
X1172141Y684648D01*
X1172159D01*
X1172196Y684629D01*
X1172270Y684592D01*
X1172344Y684574D01*
X1172567Y684481D01*
X1172807Y684389D01*
X1172826D01*
X1172863Y684370D01*
X1172937Y684333D01*
X1173011Y684296D01*
X1173233Y684203D01*
X1173474Y684074D01*
X1173492D01*
X1173529Y684037D01*
X1173585Y684000D01*
X1173678Y683963D01*
X1173863Y683833D01*
X1174066Y683666D01*
X1174085Y683648D01*
X1174103Y683629D01*
X1174159Y683574D01*
X1174214Y683518D01*
X1174344Y683333D01*
X1174474Y683092D01*
Y683074D01*
X1174492Y683037D01*
X1174529Y682963D01*
X1174566Y682870D01*
X1174585Y682759D01*
X1174622Y682611D01*
X1174640Y682296D01*
Y682278D01*
Y682204D01*
X1174622Y682092D01*
Y681963D01*
X1174585Y681815D01*
X1174548Y681648D01*
X1174492Y681481D01*
X1174418Y681315D01*
Y681296D01*
X1174381Y681241D01*
X1174326Y681167D01*
X1174270Y681074D01*
X1174085Y680833D01*
X1173844Y680593D01*
X1173826Y680574D01*
X1173770Y680537D01*
X1173696Y680500D01*
X1173604Y680426D01*
X1173474Y680352D01*
X1173307Y680278D01*
X1173141Y680204D01*
X1172955Y680148D01*
X1172937D01*
X1172863Y680130D01*
X1172752Y680111D01*
X1172622Y680074D01*
X1172456Y680056D01*
X1172252Y680018D01*
X1172030Y680000D01*
X1171659D01*
X1171567Y680018D01*
X1171326Y680037D01*
X1171067Y680074D01*
X1171048D01*
X1171011Y680093D01*
X1170956D01*
X1170863Y680111D01*
X1170678Y680148D01*
X1170456Y680204D01*
X1170437D01*
X1170419Y680222D01*
X1170289Y680259D01*
X1170141Y680315D01*
X1169974Y680389D01*
X1169937Y680407D01*
X1169863Y680463D01*
X1169771Y680518D01*
X1169697Y680574D01*
X1169678Y680592D01*
X1169660Y680630D01*
X1169622Y680704D01*
X1169585Y680796D01*
Y680815D01*
X1169567Y680907D01*
X1169548Y681018D01*
Y681185D01*
Y681204D01*
Y681278D01*
Y681352D01*
Y681444D01*
Y681463D01*
X1169567Y681500D01*
Y681555D01*
X1169585Y681611D01*
Y681629D01*
X1169604Y681648D01*
X1169641Y681685D01*
X1169660Y681703D01*
X1169678D01*
X1169697Y681722D01*
X1169771Y681741D01*
X1169789D01*
X1169826Y681722D01*
X1169900Y681703D01*
X1170011Y681629D01*
X1170048Y681611D01*
X1170141Y681555D01*
X1170270Y681481D01*
X1170437Y681389D01*
X1170456D01*
X1170493Y681370D01*
X1170530Y681352D01*
X1170604Y681315D01*
X1170789Y681241D01*
X1171030Y681148D01*
X1171048D01*
X1171085Y681130D01*
X1171159Y681111D01*
X1171270D01*
X1171382Y681093D01*
X1171530Y681074D01*
X1171844Y681056D01*
X1172048D01*
X1172233Y681074D01*
X1172437Y681111D01*
X1172456D01*
X1172493Y681130D01*
X1172604Y681167D01*
X1172752Y681222D01*
X1172918Y681315D01*
X1172937D01*
X1172955Y681333D01*
X1173029Y681426D01*
X1173141Y681537D01*
X1173233Y681685D01*
Y681704D01*
X1173252Y681722D01*
X1173289Y681833D01*
X1173326Y682000D01*
X1173344Y682204D01*
Y682222D01*
Y682259D01*
Y682315D01*
X1173326Y682370D01*
X1173270Y682537D01*
X1173178Y682703D01*
Y682722D01*
X1173159Y682740D01*
X1173066Y682833D01*
X1172937Y682963D01*
X1172770Y683074D01*
X1172752D01*
X1172733Y683111D01*
X1172678Y683129D01*
X1172604Y683166D01*
X1172418Y683259D01*
X1172196Y683352D01*
X1172178D01*
X1172141Y683370D01*
X1172085Y683407D01*
X1171993Y683426D01*
X1171789Y683518D01*
X1171530Y683611D01*
X1171511D01*
X1171474Y683629D01*
X1171400Y683666D01*
X1171326Y683703D01*
X1171104Y683814D01*
X1170863Y683925D01*
X1170844D01*
X1170807Y683963D01*
X1170752Y684000D01*
X1170678Y684037D01*
X1170493Y684166D01*
X1170289Y684333D01*
X1170270Y684351D01*
X1170252Y684388D01*
X1170196Y684426D01*
X1170141Y684500D01*
X1170011Y684685D01*
X1169882Y684925D01*
Y684944D01*
X1169863Y684981D01*
X1169845Y685055D01*
X1169808Y685166D01*
X1169789Y685277D01*
X1169752Y685425D01*
X1169734Y685759D01*
Y685777D01*
Y685833D01*
Y685907D01*
X1169752Y686018D01*
X1169789Y686277D01*
X1169882Y686573D01*
Y686592D01*
X1169919Y686647D01*
X1169956Y686721D01*
X1170011Y686814D01*
X1170159Y687036D01*
X1170363Y687259D01*
X1170382Y687277D01*
X1170419Y687314D01*
X1170493Y687370D01*
X1170585Y687425D01*
X1170715Y687499D01*
X1170844Y687573D01*
X1171178Y687721D01*
X1171196D01*
X1171270Y687758D01*
X1171363Y687777D01*
X1171511Y687814D01*
X1171678Y687851D01*
X1171881Y687870D01*
X1172104Y687907D01*
X1172511D01*
X1172696Y687888D01*
D02*
G37*
G36*
X1103407Y690480D02*
X1103648Y690462D01*
X1103907Y690425D01*
X1104148Y690369D01*
X1104388Y690314D01*
X1104407D01*
X1104481Y690277D01*
X1104592Y690240D01*
X1104740Y690184D01*
X1105055Y690017D01*
X1105222Y689906D01*
X1105370Y689795D01*
X1105388Y689777D01*
X1105444Y689740D01*
X1105518Y689666D01*
X1105592Y689573D01*
X1105703Y689444D01*
X1105796Y689295D01*
X1105888Y689147D01*
X1105981Y688962D01*
X1105999Y688943D01*
X1106018Y688869D01*
X1106055Y688777D01*
X1106092Y688647D01*
X1106129Y688481D01*
X1106148Y688295D01*
X1106185Y688092D01*
Y687870D01*
Y687851D01*
Y687814D01*
Y687740D01*
X1106166Y687647D01*
X1106148Y687425D01*
X1106092Y687166D01*
Y687147D01*
X1106074Y687110D01*
X1106055Y687036D01*
X1106018Y686962D01*
X1105944Y686759D01*
X1105814Y686536D01*
Y686518D01*
X1105777Y686499D01*
X1105703Y686370D01*
X1105574Y686203D01*
X1105388Y686036D01*
X1105370D01*
X1105351Y685999D01*
X1105296Y685962D01*
X1105222Y685907D01*
X1105036Y685796D01*
X1104796Y685666D01*
X1104814D01*
X1104870Y685648D01*
X1104944Y685629D01*
X1105055Y685611D01*
X1105314Y685518D01*
X1105592Y685370D01*
X1105611D01*
X1105648Y685333D01*
X1105722Y685296D01*
X1105814Y685222D01*
X1106018Y685055D01*
X1106222Y684833D01*
X1106240Y684814D01*
X1106277Y684777D01*
X1106314Y684703D01*
X1106388Y684611D01*
X1106444Y684500D01*
X1106518Y684370D01*
X1106666Y684055D01*
Y684037D01*
X1106684Y683981D01*
X1106721Y683888D01*
X1106759Y683777D01*
X1106777Y683629D01*
X1106814Y683481D01*
X1106833Y683111D01*
Y683092D01*
Y683018D01*
Y682926D01*
X1106814Y682814D01*
X1106796Y682666D01*
X1106777Y682518D01*
X1106703Y682204D01*
Y682185D01*
X1106684Y682129D01*
X1106647Y682055D01*
X1106610Y681963D01*
X1106499Y681722D01*
X1106351Y681463D01*
X1106333Y681444D01*
X1106314Y681407D01*
X1106259Y681352D01*
X1106203Y681259D01*
X1106036Y681074D01*
X1105814Y680889D01*
X1105796Y680870D01*
X1105759Y680852D01*
X1105685Y680796D01*
X1105611Y680741D01*
X1105499Y680685D01*
X1105370Y680611D01*
X1105092Y680481D01*
X1105074D01*
X1105018Y680463D01*
X1104944Y680426D01*
X1104833Y680389D01*
X1104722Y680352D01*
X1104574Y680296D01*
X1104240Y680222D01*
X1104222D01*
X1104166Y680204D01*
X1104074D01*
X1103944Y680185D01*
X1103796Y680167D01*
X1103611D01*
X1103426Y680148D01*
X1100463D01*
X1100389Y680167D01*
X1100278Y680204D01*
X1100148Y680259D01*
X1100130Y680278D01*
X1100074Y680370D01*
X1100018Y680500D01*
X1100000Y680704D01*
Y689925D01*
Y689943D01*
Y689980D01*
X1100018Y690092D01*
X1100056Y690240D01*
X1100148Y690369D01*
X1100185Y690388D01*
X1100259Y690443D01*
X1100370Y690480D01*
X1100500Y690499D01*
X1103203D01*
X1103407Y690480D01*
D02*
G37*
G36*
X1165308Y687888D02*
X1165512Y687870D01*
X1165734Y687832D01*
X1165956Y687777D01*
X1166160Y687721D01*
X1166178D01*
X1166252Y687684D01*
X1166345Y687647D01*
X1166475Y687592D01*
X1166771Y687425D01*
X1166919Y687314D01*
X1167049Y687203D01*
X1167067Y687185D01*
X1167104Y687147D01*
X1167160Y687073D01*
X1167234Y686981D01*
X1167308Y686851D01*
X1167400Y686703D01*
X1167475Y686536D01*
X1167530Y686351D01*
Y686333D01*
X1167549Y686259D01*
X1167586Y686166D01*
X1167623Y686018D01*
X1167641Y685851D01*
X1167678Y685648D01*
X1167697Y685425D01*
Y685185D01*
Y680315D01*
Y680296D01*
Y680259D01*
X1167660Y680222D01*
X1167623Y680185D01*
X1167604D01*
X1167586Y680167D01*
X1167530Y680148D01*
X1167438Y680130D01*
X1167419D01*
X1167363Y680111D01*
X1167252Y680093D01*
X1167012D01*
X1166900Y680111D01*
X1166789Y680130D01*
X1166771D01*
X1166715Y680148D01*
X1166660Y680167D01*
X1166604Y680185D01*
X1166586Y680222D01*
X1166567Y680259D01*
X1166549Y680315D01*
Y681037D01*
X1166530Y681018D01*
X1166475Y680963D01*
X1166364Y680870D01*
X1166252Y680759D01*
X1166086Y680630D01*
X1165901Y680500D01*
X1165715Y680370D01*
X1165493Y680259D01*
X1165475Y680241D01*
X1165401Y680222D01*
X1165271Y680185D01*
X1165123Y680130D01*
X1164938Y680074D01*
X1164734Y680037D01*
X1164512Y680018D01*
X1164271Y680000D01*
X1164067D01*
X1163919Y680018D01*
X1163771Y680037D01*
X1163586Y680056D01*
X1163234Y680148D01*
X1163216D01*
X1163160Y680167D01*
X1163067Y680204D01*
X1162975Y680241D01*
X1162716Y680370D01*
X1162457Y680555D01*
X1162438Y680574D01*
X1162401Y680611D01*
X1162345Y680667D01*
X1162271Y680759D01*
X1162197Y680852D01*
X1162105Y680981D01*
X1161957Y681259D01*
Y681278D01*
X1161938Y681333D01*
X1161901Y681407D01*
X1161882Y681537D01*
X1161845Y681666D01*
X1161808Y681815D01*
X1161790Y682185D01*
Y682204D01*
Y682278D01*
X1161808Y682389D01*
X1161827Y682537D01*
X1161845Y682703D01*
X1161901Y682870D01*
X1161957Y683055D01*
X1162031Y683222D01*
X1162049Y683240D01*
X1162068Y683296D01*
X1162123Y683389D01*
X1162216Y683500D01*
X1162308Y683611D01*
X1162438Y683740D01*
X1162568Y683870D01*
X1162734Y683981D01*
X1162753Y684000D01*
X1162827Y684037D01*
X1162919Y684092D01*
X1163049Y684148D01*
X1163216Y684222D01*
X1163401Y684296D01*
X1163623Y684370D01*
X1163864Y684426D01*
X1163901D01*
X1163993Y684444D01*
X1164123Y684481D01*
X1164308Y684500D01*
X1164530Y684537D01*
X1164790Y684555D01*
X1165086Y684574D01*
X1166382D01*
Y685129D01*
Y685148D01*
Y685203D01*
Y685277D01*
X1166364Y685370D01*
X1166345Y685611D01*
X1166289Y685851D01*
Y685870D01*
X1166271Y685907D01*
X1166252Y685962D01*
X1166215Y686036D01*
X1166123Y686222D01*
X1165993Y686388D01*
Y686407D01*
X1165956Y686425D01*
X1165864Y686518D01*
X1165697Y686629D01*
X1165493Y686721D01*
X1165475D01*
X1165438Y686740D01*
X1165364Y686759D01*
X1165290Y686777D01*
X1165178Y686796D01*
X1165049Y686814D01*
X1164734Y686833D01*
X1164549D01*
X1164438Y686814D01*
X1164141Y686777D01*
X1163845Y686703D01*
X1163827D01*
X1163790Y686684D01*
X1163716Y686666D01*
X1163623Y686629D01*
X1163401Y686555D01*
X1163179Y686444D01*
X1163160D01*
X1163123Y686425D01*
X1163067Y686407D01*
X1163012Y686370D01*
X1162845Y686296D01*
X1162679Y686203D01*
X1162642Y686185D01*
X1162568Y686148D01*
X1162475Y686111D01*
X1162401Y686092D01*
X1162364D01*
X1162271Y686111D01*
X1162253Y686129D01*
X1162197Y686203D01*
Y686222D01*
X1162179Y686259D01*
X1162142Y686370D01*
Y686388D01*
Y686444D01*
Y686518D01*
Y686592D01*
Y686610D01*
Y686629D01*
Y686703D01*
Y686814D01*
X1162160Y686907D01*
Y686925D01*
X1162197Y686981D01*
X1162234Y687055D01*
X1162290Y687129D01*
X1162308Y687147D01*
X1162382Y687203D01*
X1162494Y687277D01*
X1162660Y687370D01*
X1162679D01*
X1162716Y687388D01*
X1162771Y687425D01*
X1162845Y687462D01*
X1163030Y687536D01*
X1163271Y687629D01*
X1163290D01*
X1163327Y687647D01*
X1163401Y687666D01*
X1163493Y687703D01*
X1163605Y687721D01*
X1163734Y687758D01*
X1164030Y687814D01*
X1164049D01*
X1164105Y687832D01*
X1164178Y687851D01*
X1164290Y687870D01*
X1164401D01*
X1164549Y687888D01*
X1164845Y687907D01*
X1165123D01*
X1165308Y687888D01*
D02*
G37*
G36*
X1157124Y690480D02*
X1157346Y690462D01*
X1157402D01*
X1157476Y690443D01*
X1157550Y690425D01*
X1157661Y690406D01*
X1157790Y690388D01*
X1158087Y690332D01*
X1158105D01*
X1158161Y690314D01*
X1158253Y690295D01*
X1158346Y690258D01*
X1158475Y690221D01*
X1158624Y690166D01*
X1158938Y689999D01*
X1158957Y689980D01*
X1159012Y689962D01*
X1159087Y689906D01*
X1159198Y689832D01*
X1159438Y689629D01*
X1159679Y689369D01*
X1159697Y689351D01*
X1159735Y689314D01*
X1159790Y689221D01*
X1159864Y689129D01*
X1159938Y688999D01*
X1160012Y688851D01*
X1160160Y688518D01*
Y688499D01*
X1160179Y688425D01*
X1160216Y688333D01*
X1160253Y688203D01*
X1160272Y688055D01*
X1160309Y687870D01*
X1160327Y687462D01*
Y687425D01*
Y687333D01*
X1160309Y687185D01*
X1160290Y686999D01*
X1160272Y686777D01*
X1160216Y686536D01*
X1160160Y686296D01*
X1160068Y686055D01*
X1160049Y686036D01*
X1160012Y685944D01*
X1159957Y685833D01*
X1159883Y685685D01*
X1159772Y685518D01*
X1159642Y685333D01*
X1159494Y685148D01*
X1159327Y684981D01*
X1159309Y684962D01*
X1159235Y684907D01*
X1159142Y684833D01*
X1158994Y684722D01*
X1158827Y684611D01*
X1158624Y684500D01*
X1158401Y684388D01*
X1158142Y684296D01*
X1158105D01*
X1158012Y684259D01*
X1157883Y684222D01*
X1157679Y684185D01*
X1157439Y684148D01*
X1157161Y684111D01*
X1156846Y684092D01*
X1156494Y684074D01*
X1155328D01*
Y680333D01*
Y680296D01*
X1155291Y680222D01*
X1155254Y680204D01*
X1155217Y680185D01*
X1155161Y680167D01*
X1155142D01*
X1155105Y680148D01*
X1155050D01*
X1154957Y680130D01*
X1154939D01*
X1154865Y680111D01*
X1154772Y680093D01*
X1154531D01*
X1154420Y680111D01*
X1154309Y680130D01*
X1154291D01*
X1154235Y680148D01*
X1154087Y680167D01*
X1154069D01*
X1154050Y680185D01*
X1153976Y680222D01*
Y680241D01*
Y680259D01*
X1153957Y680333D01*
Y689906D01*
Y689925D01*
Y689962D01*
X1153976Y690073D01*
X1154031Y690221D01*
X1154124Y690351D01*
X1154161Y690369D01*
X1154235Y690425D01*
X1154346Y690480D01*
X1154494Y690499D01*
X1156920D01*
X1157124Y690480D01*
D02*
G37*
G36*
X1177807Y689703D02*
X1177825D01*
X1177881Y689684D01*
X1177955Y689666D01*
X1178010Y689647D01*
X1178029D01*
X1178047Y689629D01*
X1178121Y689555D01*
X1178140Y689536D01*
X1178159Y689462D01*
Y687758D01*
X1180029D01*
X1180103Y687721D01*
X1180121D01*
X1180140Y687703D01*
X1180195Y687610D01*
Y687592D01*
X1180214Y687573D01*
X1180232Y687518D01*
X1180251Y687444D01*
Y687425D01*
X1180269Y687388D01*
Y687296D01*
Y687203D01*
Y687185D01*
Y687147D01*
Y687036D01*
X1180232Y686907D01*
X1180195Y686777D01*
X1180177Y686759D01*
X1180140Y686722D01*
X1180084Y686684D01*
X1179992Y686666D01*
X1178159D01*
Y682648D01*
Y682611D01*
Y682518D01*
X1178177Y682389D01*
Y682222D01*
X1178251Y681852D01*
X1178288Y681685D01*
X1178362Y681518D01*
X1178381Y681500D01*
X1178399Y681463D01*
X1178455Y681407D01*
X1178547Y681333D01*
X1178659Y681259D01*
X1178788Y681204D01*
X1178955Y681167D01*
X1179158Y681148D01*
X1179362D01*
X1179473Y681167D01*
X1179492D01*
X1179566Y681185D01*
X1179640Y681222D01*
X1179733Y681241D01*
X1179751Y681259D01*
X1179807Y681278D01*
X1179918Y681333D01*
X1179936D01*
X1179973Y681352D01*
X1180084Y681370D01*
X1180103D01*
X1180158Y681333D01*
X1180177Y681315D01*
X1180214Y681259D01*
Y681241D01*
X1180232Y681222D01*
X1180251Y681111D01*
Y681093D01*
X1180269Y681056D01*
Y680963D01*
Y680870D01*
Y680833D01*
Y680741D01*
X1180251Y680630D01*
X1180232Y680500D01*
Y680481D01*
X1180214Y680426D01*
X1180177Y680352D01*
X1180121Y680296D01*
X1180103D01*
X1180084Y680259D01*
X1180029Y680222D01*
X1179936Y680185D01*
X1179918D01*
X1179844Y680167D01*
X1179751Y680148D01*
X1179640Y680111D01*
X1179621D01*
X1179547Y680093D01*
X1179436Y680074D01*
X1179307Y680056D01*
X1179270D01*
X1179195Y680037D01*
X1179066Y680019D01*
X1178733D01*
X1178603Y680037D01*
X1178455Y680056D01*
X1178288Y680074D01*
X1177973Y680148D01*
X1177955D01*
X1177918Y680185D01*
X1177844Y680204D01*
X1177751Y680259D01*
X1177529Y680407D01*
X1177325Y680593D01*
X1177307Y680611D01*
X1177288Y680648D01*
X1177233Y680722D01*
X1177177Y680815D01*
X1177122Y680926D01*
X1177066Y681056D01*
X1176955Y681370D01*
Y681389D01*
X1176936Y681444D01*
X1176918Y681555D01*
X1176899Y681685D01*
X1176881Y681833D01*
X1176862Y682018D01*
X1176844Y682222D01*
Y682444D01*
Y686666D01*
X1175807D01*
X1175751Y686684D01*
X1175677Y686722D01*
X1175622Y686777D01*
Y686796D01*
X1175603Y686888D01*
X1175585Y687018D01*
X1175566Y687203D01*
Y687222D01*
Y687296D01*
Y687370D01*
X1175585Y687444D01*
Y687462D01*
X1175603Y687499D01*
Y687555D01*
X1175622Y687610D01*
Y687629D01*
X1175640Y687647D01*
X1175714Y687721D01*
X1175733D01*
X1175751Y687740D01*
X1175826Y687758D01*
X1176844D01*
Y689462D01*
Y689481D01*
Y689499D01*
X1176862Y689555D01*
Y689573D01*
X1176899Y689592D01*
X1176973Y689647D01*
X1176992D01*
X1177029Y689666D01*
X1177085Y689684D01*
X1177159Y689703D01*
X1177177D01*
X1177251Y689721D01*
X1177714D01*
X1177807Y689703D01*
D02*
G37*
G36*
X1124164Y689703D02*
X1124183D01*
X1124238Y689684D01*
X1124312Y689666D01*
X1124368Y689647D01*
X1124386D01*
X1124405Y689629D01*
X1124479Y689555D01*
X1124498Y689536D01*
X1124516Y689462D01*
Y687758D01*
X1126386D01*
X1126460Y687721D01*
X1126479D01*
X1126497Y687703D01*
X1126553Y687610D01*
Y687592D01*
X1126571Y687573D01*
X1126590Y687518D01*
X1126608Y687444D01*
Y687425D01*
X1126627Y687388D01*
Y687296D01*
Y687203D01*
Y687185D01*
Y687147D01*
Y687036D01*
X1126590Y686907D01*
X1126553Y686777D01*
X1126534Y686759D01*
X1126497Y686721D01*
X1126442Y686684D01*
X1126349Y686666D01*
X1124516D01*
Y682648D01*
Y682611D01*
Y682518D01*
X1124535Y682389D01*
Y682222D01*
X1124609Y681852D01*
X1124646Y681685D01*
X1124720Y681518D01*
X1124738Y681500D01*
X1124757Y681463D01*
X1124812Y681407D01*
X1124905Y681333D01*
X1125016Y681259D01*
X1125146Y681204D01*
X1125312Y681167D01*
X1125516Y681148D01*
X1125720D01*
X1125831Y681167D01*
X1125849D01*
X1125923Y681185D01*
X1125997Y681222D01*
X1126090Y681241D01*
X1126108Y681259D01*
X1126164Y681278D01*
X1126275Y681333D01*
X1126294D01*
X1126331Y681352D01*
X1126442Y681370D01*
X1126460D01*
X1126516Y681333D01*
X1126534Y681315D01*
X1126571Y681259D01*
Y681241D01*
X1126590Y681222D01*
X1126608Y681111D01*
Y681093D01*
X1126627Y681056D01*
Y680963D01*
Y680870D01*
Y680833D01*
Y680741D01*
X1126608Y680630D01*
X1126590Y680500D01*
Y680481D01*
X1126571Y680426D01*
X1126534Y680352D01*
X1126479Y680296D01*
X1126460D01*
X1126442Y680259D01*
X1126386Y680222D01*
X1126294Y680185D01*
X1126275D01*
X1126201Y680167D01*
X1126108Y680148D01*
X1125997Y680111D01*
X1125979D01*
X1125905Y680093D01*
X1125794Y680074D01*
X1125664Y680056D01*
X1125627D01*
X1125553Y680037D01*
X1125423Y680018D01*
X1125090D01*
X1124960Y680037D01*
X1124812Y680056D01*
X1124646Y680074D01*
X1124331Y680148D01*
X1124312D01*
X1124275Y680185D01*
X1124201Y680204D01*
X1124109Y680259D01*
X1123886Y680407D01*
X1123683Y680592D01*
X1123664Y680611D01*
X1123646Y680648D01*
X1123590Y680722D01*
X1123535Y680815D01*
X1123479Y680926D01*
X1123423Y681056D01*
X1123312Y681370D01*
Y681389D01*
X1123294Y681444D01*
X1123275Y681555D01*
X1123257Y681685D01*
X1123238Y681833D01*
X1123220Y682018D01*
X1123201Y682222D01*
Y682444D01*
Y686666D01*
X1122164D01*
X1122109Y686684D01*
X1122035Y686721D01*
X1121979Y686777D01*
Y686796D01*
X1121961Y686888D01*
X1121942Y687018D01*
X1121924Y687203D01*
Y687222D01*
Y687296D01*
Y687370D01*
X1121942Y687444D01*
Y687462D01*
X1121961Y687499D01*
Y687555D01*
X1121979Y687610D01*
Y687629D01*
X1121998Y687647D01*
X1122072Y687721D01*
X1122090D01*
X1122109Y687740D01*
X1122183Y687758D01*
X1123201D01*
Y689462D01*
Y689481D01*
Y689499D01*
X1123220Y689555D01*
Y689573D01*
X1123257Y689592D01*
X1123331Y689647D01*
X1123349D01*
X1123387Y689666D01*
X1123442Y689684D01*
X1123516Y689703D01*
X1123535D01*
X1123609Y689721D01*
X1124072D01*
X1124164Y689703D01*
D02*
G37*
G36*
X1118683D02*
X1118702D01*
X1118757Y689684D01*
X1118831Y689666D01*
X1118887Y689647D01*
X1118905D01*
X1118924Y689629D01*
X1118998Y689555D01*
X1119017Y689536D01*
X1119035Y689462D01*
Y687758D01*
X1120905D01*
X1120979Y687721D01*
X1120998D01*
X1121016Y687703D01*
X1121072Y687610D01*
Y687592D01*
X1121090Y687573D01*
X1121109Y687518D01*
X1121127Y687444D01*
Y687425D01*
X1121146Y687388D01*
Y687296D01*
Y687203D01*
Y687185D01*
Y687147D01*
Y687036D01*
X1121109Y686907D01*
X1121072Y686777D01*
X1121053Y686759D01*
X1121016Y686721D01*
X1120961Y686684D01*
X1120868Y686666D01*
X1119035D01*
Y682648D01*
Y682611D01*
Y682518D01*
X1119054Y682389D01*
Y682222D01*
X1119128Y681852D01*
X1119165Y681685D01*
X1119239Y681518D01*
X1119257Y681500D01*
X1119276Y681463D01*
X1119331Y681407D01*
X1119424Y681333D01*
X1119535Y681259D01*
X1119665Y681204D01*
X1119831Y681167D01*
X1120035Y681148D01*
X1120239D01*
X1120350Y681167D01*
X1120368D01*
X1120442Y681185D01*
X1120516Y681222D01*
X1120609Y681241D01*
X1120628Y681259D01*
X1120683Y681278D01*
X1120794Y681333D01*
X1120813D01*
X1120850Y681352D01*
X1120961Y681370D01*
X1120979D01*
X1121035Y681333D01*
X1121053Y681315D01*
X1121090Y681259D01*
Y681241D01*
X1121109Y681222D01*
X1121127Y681111D01*
Y681093D01*
X1121146Y681056D01*
Y680963D01*
Y680870D01*
Y680833D01*
Y680741D01*
X1121127Y680630D01*
X1121109Y680500D01*
Y680481D01*
X1121090Y680426D01*
X1121053Y680352D01*
X1120998Y680296D01*
X1120979D01*
X1120961Y680259D01*
X1120905Y680222D01*
X1120813Y680185D01*
X1120794D01*
X1120720Y680167D01*
X1120628Y680148D01*
X1120516Y680111D01*
X1120498D01*
X1120424Y680093D01*
X1120313Y680074D01*
X1120183Y680056D01*
X1120146D01*
X1120072Y680037D01*
X1119942Y680018D01*
X1119609D01*
X1119480Y680037D01*
X1119331Y680056D01*
X1119165Y680074D01*
X1118850Y680148D01*
X1118831D01*
X1118794Y680185D01*
X1118720Y680204D01*
X1118628Y680259D01*
X1118406Y680407D01*
X1118202Y680592D01*
X1118183Y680611D01*
X1118165Y680648D01*
X1118109Y680722D01*
X1118054Y680815D01*
X1117998Y680926D01*
X1117943Y681056D01*
X1117831Y681370D01*
Y681389D01*
X1117813Y681444D01*
X1117794Y681555D01*
X1117776Y681685D01*
X1117757Y681833D01*
X1117739Y682018D01*
X1117720Y682222D01*
Y682444D01*
Y686666D01*
X1116684D01*
X1116628Y686684D01*
X1116554Y686721D01*
X1116498Y686777D01*
Y686796D01*
X1116480Y686888D01*
X1116461Y687018D01*
X1116443Y687203D01*
Y687222D01*
Y687296D01*
Y687370D01*
X1116461Y687444D01*
Y687462D01*
X1116480Y687499D01*
Y687555D01*
X1116498Y687610D01*
Y687629D01*
X1116517Y687647D01*
X1116591Y687721D01*
X1116609D01*
X1116628Y687740D01*
X1116702Y687758D01*
X1117720D01*
Y689462D01*
Y689481D01*
Y689499D01*
X1117739Y689555D01*
Y689573D01*
X1117776Y689592D01*
X1117850Y689647D01*
X1117868D01*
X1117906Y689666D01*
X1117961Y689684D01*
X1118035Y689703D01*
X1118054D01*
X1118128Y689721D01*
X1118591D01*
X1118683Y689703D01*
D02*
G37*
G36*
X1185269Y687888D02*
X1185473Y687870D01*
X1185695Y687833D01*
X1185936Y687795D01*
X1186176Y687721D01*
X1186417Y687629D01*
X1186435Y687610D01*
X1186528Y687573D01*
X1186639Y687518D01*
X1186769Y687425D01*
X1186917Y687333D01*
X1187084Y687203D01*
X1187250Y687055D01*
X1187398Y686888D01*
X1187417Y686870D01*
X1187454Y686814D01*
X1187528Y686703D01*
X1187621Y686573D01*
X1187713Y686425D01*
X1187806Y686240D01*
X1187898Y686036D01*
X1187972Y685814D01*
Y685796D01*
X1188009Y685703D01*
X1188028Y685592D01*
X1188065Y685425D01*
X1188102Y685222D01*
X1188120Y684999D01*
X1188158Y684759D01*
Y684500D01*
Y684259D01*
Y684240D01*
Y684203D01*
X1188139Y684092D01*
X1188083Y683944D01*
X1187991Y683814D01*
X1187972Y683796D01*
X1187898Y683759D01*
X1187787Y683703D01*
X1187639Y683685D01*
X1182899D01*
Y683666D01*
Y683574D01*
Y683463D01*
X1182917Y683315D01*
Y683148D01*
X1182954Y682963D01*
X1183010Y682592D01*
Y682574D01*
X1183028Y682518D01*
X1183065Y682426D01*
X1183102Y682315D01*
X1183232Y682037D01*
X1183417Y681759D01*
X1183436Y681741D01*
X1183473Y681704D01*
X1183528Y681648D01*
X1183621Y681574D01*
X1183714Y681481D01*
X1183843Y681407D01*
X1184139Y681241D01*
X1184158D01*
X1184213Y681222D01*
X1184325Y681185D01*
X1184454Y681167D01*
X1184621Y681130D01*
X1184806Y681093D01*
X1185010Y681074D01*
X1185436D01*
X1185565Y681093D01*
X1185862Y681111D01*
X1186158Y681148D01*
X1186176D01*
X1186232Y681167D01*
X1186306Y681185D01*
X1186398Y681204D01*
X1186621Y681259D01*
X1186861Y681333D01*
X1186880D01*
X1186917Y681352D01*
X1187028Y681407D01*
X1187195Y681463D01*
X1187343Y681518D01*
X1187361D01*
X1187380Y681537D01*
X1187454Y681574D01*
X1187546Y681592D01*
X1187639Y681611D01*
X1187676D01*
X1187732Y681574D01*
X1187750D01*
X1187769Y681555D01*
X1187806Y681481D01*
Y681463D01*
X1187824Y681444D01*
X1187843Y681333D01*
Y681315D01*
X1187861Y681278D01*
Y681185D01*
Y681093D01*
Y681074D01*
Y681037D01*
X1187843Y680907D01*
Y680889D01*
Y680870D01*
X1187824Y680759D01*
X1187806Y680722D01*
X1187769Y680648D01*
X1187750Y680630D01*
X1187713Y680574D01*
X1187676Y680537D01*
X1187583Y680500D01*
X1187454Y680426D01*
X1187435D01*
X1187417Y680407D01*
X1187361Y680389D01*
X1187306Y680370D01*
X1187121Y680315D01*
X1186880Y680241D01*
X1186861D01*
X1186824Y680222D01*
X1186750Y680204D01*
X1186658Y680185D01*
X1186547Y680167D01*
X1186398Y680130D01*
X1186084Y680074D01*
X1186065D01*
X1186010Y680056D01*
X1185917D01*
X1185806Y680037D01*
X1185658Y680019D01*
X1185491D01*
X1185121Y680000D01*
X1184973D01*
X1184806Y680019D01*
X1184602Y680037D01*
X1184343Y680056D01*
X1184084Y680111D01*
X1183825Y680167D01*
X1183565Y680241D01*
X1183528Y680259D01*
X1183454Y680278D01*
X1183325Y680352D01*
X1183177Y680426D01*
X1182991Y680518D01*
X1182806Y680648D01*
X1182621Y680796D01*
X1182436Y680963D01*
X1182417Y680981D01*
X1182362Y681056D01*
X1182288Y681167D01*
X1182177Y681296D01*
X1182066Y681481D01*
X1181954Y681685D01*
X1181843Y681926D01*
X1181751Y682185D01*
Y682222D01*
X1181714Y682315D01*
X1181677Y682463D01*
X1181640Y682685D01*
X1181603Y682926D01*
X1181566Y683222D01*
X1181547Y683555D01*
X1181529Y683907D01*
Y683926D01*
Y683944D01*
Y684055D01*
X1181547Y684240D01*
X1181566Y684463D01*
X1181584Y684722D01*
X1181621Y684999D01*
X1181677Y685296D01*
X1181751Y685574D01*
X1181769Y685611D01*
X1181788Y685703D01*
X1181843Y685833D01*
X1181936Y686018D01*
X1182029Y686203D01*
X1182140Y686425D01*
X1182288Y686629D01*
X1182436Y686833D01*
X1182454Y686851D01*
X1182510Y686925D01*
X1182621Y687018D01*
X1182751Y687129D01*
X1182899Y687259D01*
X1183084Y687388D01*
X1183306Y687518D01*
X1183528Y687629D01*
X1183565Y687647D01*
X1183640Y687666D01*
X1183769Y687721D01*
X1183954Y687777D01*
X1184158Y687814D01*
X1184417Y687870D01*
X1184676Y687888D01*
X1184973Y687907D01*
X1185121D01*
X1185269Y687888D01*
D02*
G37*
G36*
X1131849Y687888D02*
X1132052Y687870D01*
X1132293Y687832D01*
X1132552Y687795D01*
X1132811Y687721D01*
X1133071Y687629D01*
X1133108Y687610D01*
X1133182Y687573D01*
X1133311Y687518D01*
X1133459Y687444D01*
X1133645Y687333D01*
X1133830Y687203D01*
X1134015Y687055D01*
X1134182Y686870D01*
X1134200Y686851D01*
X1134256Y686777D01*
X1134330Y686666D01*
X1134441Y686536D01*
X1134533Y686351D01*
X1134645Y686148D01*
X1134756Y685907D01*
X1134848Y685648D01*
X1134867Y685611D01*
X1134885Y685518D01*
X1134922Y685370D01*
X1134959Y685166D01*
X1134996Y684925D01*
X1135033Y684648D01*
X1135070Y684351D01*
Y684018D01*
Y684000D01*
Y683981D01*
Y683870D01*
X1135052Y683703D01*
X1135033Y683500D01*
X1135015Y683240D01*
X1134978Y682981D01*
X1134904Y682685D01*
X1134830Y682407D01*
X1134811Y682370D01*
X1134793Y682278D01*
X1134737Y682148D01*
X1134645Y681963D01*
X1134552Y681778D01*
X1134441Y681555D01*
X1134293Y681333D01*
X1134126Y681130D01*
X1134108Y681111D01*
X1134052Y681037D01*
X1133941Y680944D01*
X1133811Y680833D01*
X1133645Y680685D01*
X1133459Y680555D01*
X1133237Y680426D01*
X1132978Y680296D01*
X1132941Y680278D01*
X1132849Y680259D01*
X1132719Y680204D01*
X1132515Y680148D01*
X1132293Y680093D01*
X1132015Y680056D01*
X1131719Y680018D01*
X1131386Y680000D01*
X1131237D01*
X1131071Y680018D01*
X1130867Y680037D01*
X1130608Y680056D01*
X1130349Y680111D01*
X1130089Y680167D01*
X1129830Y680259D01*
X1129793Y680278D01*
X1129719Y680315D01*
X1129589Y680370D01*
X1129441Y680444D01*
X1129275Y680555D01*
X1129090Y680685D01*
X1128904Y680852D01*
X1128719Y681018D01*
X1128701Y681037D01*
X1128645Y681111D01*
X1128571Y681222D01*
X1128478Y681352D01*
X1128367Y681537D01*
X1128275Y681741D01*
X1128164Y681981D01*
X1128071Y682241D01*
Y682278D01*
X1128034Y682370D01*
X1128016Y682518D01*
X1127979Y682722D01*
X1127942Y682963D01*
X1127905Y683240D01*
X1127886Y683537D01*
X1127868Y683870D01*
Y683888D01*
Y683907D01*
Y684018D01*
X1127886Y684185D01*
X1127905Y684407D01*
X1127923Y684666D01*
X1127960Y684925D01*
X1128016Y685222D01*
X1128090Y685499D01*
X1128108Y685536D01*
X1128127Y685629D01*
X1128182Y685759D01*
X1128256Y685944D01*
X1128349Y686129D01*
X1128478Y686351D01*
X1128608Y686573D01*
X1128775Y686777D01*
X1128793Y686796D01*
X1128867Y686870D01*
X1128960Y686962D01*
X1129090Y687092D01*
X1129256Y687222D01*
X1129460Y687351D01*
X1129682Y687499D01*
X1129923Y687610D01*
X1129960Y687629D01*
X1130052Y687666D01*
X1130182Y687703D01*
X1130386Y687758D01*
X1130627Y687814D01*
X1130886Y687870D01*
X1131200Y687888D01*
X1131534Y687907D01*
X1131682D01*
X1131849Y687888D01*
D02*
G37*
G36*
X1112240D02*
X1112443Y687870D01*
X1112684Y687832D01*
X1112943Y687795D01*
X1113202Y687721D01*
X1113462Y687629D01*
X1113499Y687610D01*
X1113573Y687573D01*
X1113702Y687518D01*
X1113850Y687444D01*
X1114036Y687333D01*
X1114221Y687203D01*
X1114406Y687055D01*
X1114573Y686870D01*
X1114591Y686851D01*
X1114647Y686777D01*
X1114721Y686666D01*
X1114832Y686536D01*
X1114924Y686351D01*
X1115035Y686148D01*
X1115147Y685907D01*
X1115239Y685648D01*
X1115258Y685611D01*
X1115276Y685518D01*
X1115313Y685370D01*
X1115350Y685166D01*
X1115387Y684925D01*
X1115424Y684648D01*
X1115461Y684351D01*
Y684018D01*
Y684000D01*
Y683981D01*
Y683870D01*
X1115443Y683703D01*
X1115424Y683500D01*
X1115406Y683240D01*
X1115369Y682981D01*
X1115295Y682685D01*
X1115221Y682407D01*
X1115202Y682370D01*
X1115184Y682278D01*
X1115128Y682148D01*
X1115035Y681963D01*
X1114943Y681778D01*
X1114832Y681555D01*
X1114684Y681333D01*
X1114517Y681130D01*
X1114499Y681111D01*
X1114443Y681037D01*
X1114332Y680944D01*
X1114202Y680833D01*
X1114036Y680685D01*
X1113850Y680555D01*
X1113628Y680426D01*
X1113369Y680296D01*
X1113332Y680278D01*
X1113239Y680259D01*
X1113110Y680204D01*
X1112906Y680148D01*
X1112684Y680093D01*
X1112406Y680056D01*
X1112110Y680018D01*
X1111777Y680000D01*
X1111628D01*
X1111462Y680018D01*
X1111258Y680037D01*
X1110999Y680056D01*
X1110740Y680111D01*
X1110480Y680167D01*
X1110221Y680259D01*
X1110184Y680278D01*
X1110110Y680315D01*
X1109980Y680370D01*
X1109832Y680444D01*
X1109666Y680555D01*
X1109481Y680685D01*
X1109295Y680852D01*
X1109110Y681018D01*
X1109092Y681037D01*
X1109036Y681111D01*
X1108962Y681222D01*
X1108869Y681352D01*
X1108758Y681537D01*
X1108666Y681741D01*
X1108555Y681981D01*
X1108462Y682241D01*
Y682278D01*
X1108425Y682370D01*
X1108407Y682518D01*
X1108370Y682722D01*
X1108333Y682963D01*
X1108295Y683240D01*
X1108277Y683537D01*
X1108258Y683870D01*
Y683888D01*
Y683907D01*
Y684018D01*
X1108277Y684185D01*
X1108295Y684407D01*
X1108314Y684666D01*
X1108351Y684925D01*
X1108407Y685222D01*
X1108481Y685499D01*
X1108499Y685536D01*
X1108518Y685629D01*
X1108573Y685759D01*
X1108647Y685944D01*
X1108740Y686129D01*
X1108869Y686351D01*
X1108999Y686573D01*
X1109166Y686777D01*
X1109184Y686796D01*
X1109258Y686870D01*
X1109351Y686962D01*
X1109481Y687092D01*
X1109647Y687222D01*
X1109851Y687351D01*
X1110073Y687499D01*
X1110314Y687610D01*
X1110351Y687629D01*
X1110443Y687666D01*
X1110573Y687703D01*
X1110777Y687758D01*
X1111017Y687814D01*
X1111277Y687870D01*
X1111591Y687888D01*
X1111925Y687907D01*
X1112073D01*
X1112240Y687888D01*
D02*
G37*
%LPC*%
G36*
X1103000Y689369D02*
X1101370D01*
Y686018D01*
X1103129D01*
X1103259Y686036D01*
X1103537Y686074D01*
X1103666Y686111D01*
X1103796Y686148D01*
X1103814D01*
X1103851Y686166D01*
X1103907Y686203D01*
X1104000Y686259D01*
X1104166Y686370D01*
X1104351Y686518D01*
X1104370Y686536D01*
X1104388Y686555D01*
X1104426Y686610D01*
X1104481Y686684D01*
X1104574Y686851D01*
X1104666Y687073D01*
Y687092D01*
X1104685Y687129D01*
X1104703Y687185D01*
X1104722Y687277D01*
X1104759Y687481D01*
X1104777Y687721D01*
Y687740D01*
Y687795D01*
Y687870D01*
X1104759Y687962D01*
X1104740Y688184D01*
X1104666Y688407D01*
Y688425D01*
X1104648Y688462D01*
X1104629Y688518D01*
X1104592Y688592D01*
X1104481Y688758D01*
X1104333Y688925D01*
X1104314Y688943D01*
X1104296Y688962D01*
X1104240Y688999D01*
X1104185Y689036D01*
X1103981Y689147D01*
X1103740Y689240D01*
X1103722D01*
X1103685Y689258D01*
X1103592Y689277D01*
X1103500Y689314D01*
X1103352Y689332D01*
X1103203Y689351D01*
X1103000Y689369D01*
D02*
G37*
G36*
X1103259Y684925D02*
X1101370D01*
Y681278D01*
X1103537D01*
X1103648Y681296D01*
X1103907Y681333D01*
X1104185Y681389D01*
X1104203D01*
X1104240Y681407D01*
X1104314Y681444D01*
X1104388Y681463D01*
X1104592Y681574D01*
X1104796Y681703D01*
X1104814Y681722D01*
X1104851Y681741D01*
X1104962Y681852D01*
X1105092Y682037D01*
X1105222Y682259D01*
Y682278D01*
X1105240Y682315D01*
X1105277Y682389D01*
X1105314Y682481D01*
X1105333Y682592D01*
X1105370Y682722D01*
X1105388Y683018D01*
Y683037D01*
Y683092D01*
Y683185D01*
X1105370Y683296D01*
X1105333Y683555D01*
X1105240Y683833D01*
Y683851D01*
X1105222Y683888D01*
X1105185Y683963D01*
X1105129Y684037D01*
X1104999Y684240D01*
X1104796Y684426D01*
X1104777Y684444D01*
X1104740Y684463D01*
X1104685Y684518D01*
X1104611Y684555D01*
X1104500Y684629D01*
X1104388Y684685D01*
X1104092Y684796D01*
X1104074D01*
X1104018Y684814D01*
X1103925Y684833D01*
X1103796Y684870D01*
X1103648Y684888D01*
X1103463Y684907D01*
X1103259Y684925D01*
D02*
G37*
G36*
X1166382Y683629D02*
X1165049D01*
X1164919Y683611D01*
X1164771D01*
X1164604Y683592D01*
X1164290Y683537D01*
X1164271D01*
X1164234Y683518D01*
X1164160Y683500D01*
X1164067Y683463D01*
X1163845Y683389D01*
X1163642Y683259D01*
X1163623D01*
X1163605Y683222D01*
X1163493Y683129D01*
X1163364Y683000D01*
X1163253Y682814D01*
Y682796D01*
X1163234Y682777D01*
X1163216Y682722D01*
X1163197Y682648D01*
X1163160Y682463D01*
X1163142Y682241D01*
Y682222D01*
Y682148D01*
X1163160Y682055D01*
X1163179Y681926D01*
X1163234Y681778D01*
X1163290Y681629D01*
X1163382Y681481D01*
X1163493Y681352D01*
X1163512Y681333D01*
X1163568Y681296D01*
X1163642Y681259D01*
X1163753Y681204D01*
X1163882Y681130D01*
X1164049Y681093D01*
X1164253Y681056D01*
X1164475Y681037D01*
X1164567D01*
X1164660Y681056D01*
X1164790Y681074D01*
X1164938Y681093D01*
X1165104Y681148D01*
X1165271Y681204D01*
X1165438Y681296D01*
X1165456Y681315D01*
X1165512Y681352D01*
X1165604Y681407D01*
X1165715Y681500D01*
X1165864Y681611D01*
X1166030Y681741D01*
X1166197Y681907D01*
X1166382Y682092D01*
Y683629D01*
D02*
G37*
G36*
X1156605Y689369D02*
X1155328D01*
Y685203D01*
X1156790D01*
X1156939Y685222D01*
X1157105Y685240D01*
X1157272Y685259D01*
X1157439Y685296D01*
X1157605Y685351D01*
X1157624D01*
X1157679Y685388D01*
X1157753Y685425D01*
X1157846Y685462D01*
X1158068Y685611D01*
X1158290Y685796D01*
X1158309Y685814D01*
X1158346Y685851D01*
X1158401Y685907D01*
X1158457Y685999D01*
X1158605Y686203D01*
X1158735Y686481D01*
Y686499D01*
X1158753Y686555D01*
X1158790Y686629D01*
X1158809Y686740D01*
X1158846Y686870D01*
X1158864Y687018D01*
X1158883Y687351D01*
Y687388D01*
Y687462D01*
X1158864Y687573D01*
X1158846Y687721D01*
X1158827Y687888D01*
X1158790Y688055D01*
X1158716Y688240D01*
X1158642Y688407D01*
X1158624Y688425D01*
X1158605Y688481D01*
X1158549Y688555D01*
X1158475Y688647D01*
X1158290Y688851D01*
X1158179Y688943D01*
X1158050Y689036D01*
X1158031Y689055D01*
X1157994Y689073D01*
X1157920Y689110D01*
X1157827Y689147D01*
X1157605Y689240D01*
X1157327Y689295D01*
X1157309D01*
X1157272Y689314D01*
X1157198D01*
X1157105Y689332D01*
X1156864Y689351D01*
X1156605Y689369D01*
D02*
G37*
G36*
X1184917Y686870D02*
X1184732D01*
X1184621Y686851D01*
X1184343Y686796D01*
X1184047Y686684D01*
X1184028D01*
X1183991Y686647D01*
X1183917Y686610D01*
X1183825Y686555D01*
X1183621Y686388D01*
X1183417Y686185D01*
X1183399Y686166D01*
X1183380Y686129D01*
X1183325Y686074D01*
X1183288Y685981D01*
X1183214Y685888D01*
X1183158Y685759D01*
X1183028Y685481D01*
Y685462D01*
X1183010Y685407D01*
X1182991Y685333D01*
X1182973Y685222D01*
X1182936Y685092D01*
X1182917Y684962D01*
X1182899Y684648D01*
X1186824D01*
Y684666D01*
Y684703D01*
Y684740D01*
Y684814D01*
X1186806Y684999D01*
X1186769Y685240D01*
X1186713Y685499D01*
X1186621Y685777D01*
X1186510Y686036D01*
X1186343Y686277D01*
X1186324Y686296D01*
X1186250Y686370D01*
X1186139Y686462D01*
X1185991Y686573D01*
X1185787Y686684D01*
X1185547Y686777D01*
X1185250Y686851D01*
X1184917Y686870D01*
D02*
G37*
G36*
X1131478Y686796D02*
X1131386D01*
X1131274Y686777D01*
X1131126D01*
X1130978Y686740D01*
X1130793Y686703D01*
X1130627Y686647D01*
X1130460Y686573D01*
X1130441D01*
X1130386Y686536D01*
X1130312Y686481D01*
X1130219Y686425D01*
X1129997Y686240D01*
X1129775Y685981D01*
X1129756Y685962D01*
X1129738Y685907D01*
X1129682Y685833D01*
X1129627Y685740D01*
X1129553Y685611D01*
X1129478Y685444D01*
X1129423Y685277D01*
X1129367Y685092D01*
Y685074D01*
X1129349Y684999D01*
X1129330Y684888D01*
X1129312Y684759D01*
X1129275Y684592D01*
X1129256Y684388D01*
X1129238Y684185D01*
Y683963D01*
Y683944D01*
Y683870D01*
Y683740D01*
X1129256Y683611D01*
Y683426D01*
X1129275Y683240D01*
X1129330Y682852D01*
Y682833D01*
X1129349Y682759D01*
X1129386Y682666D01*
X1129423Y682537D01*
X1129534Y682259D01*
X1129701Y681944D01*
X1129719Y681926D01*
X1129756Y681889D01*
X1129812Y681815D01*
X1129886Y681722D01*
X1129978Y681629D01*
X1130108Y681518D01*
X1130386Y681333D01*
X1130404D01*
X1130460Y681296D01*
X1130552Y681259D01*
X1130682Y681222D01*
X1130830Y681185D01*
X1131015Y681148D01*
X1131219Y681130D01*
X1131441Y681111D01*
X1131534D01*
X1131645Y681130D01*
X1131793D01*
X1131960Y681167D01*
X1132126Y681204D01*
X1132293Y681241D01*
X1132460Y681315D01*
X1132478Y681333D01*
X1132534Y681352D01*
X1132608Y681407D01*
X1132700Y681463D01*
X1132941Y681648D01*
X1133163Y681889D01*
X1133182Y681907D01*
X1133200Y681963D01*
X1133256Y682037D01*
X1133311Y682148D01*
X1133385Y682278D01*
X1133459Y682426D01*
X1133515Y682592D01*
X1133571Y682777D01*
Y682796D01*
X1133589Y682870D01*
X1133608Y682981D01*
X1133645Y683129D01*
X1133663Y683296D01*
X1133682Y683481D01*
X1133700Y683925D01*
Y683944D01*
Y684018D01*
Y684148D01*
X1133682Y684296D01*
Y684463D01*
X1133663Y684648D01*
X1133589Y685036D01*
Y685055D01*
X1133571Y685129D01*
X1133534Y685222D01*
X1133496Y685351D01*
X1133385Y685648D01*
X1133219Y685944D01*
X1133200Y685962D01*
X1133182Y686018D01*
X1133126Y686074D01*
X1133052Y686166D01*
X1132960Y686259D01*
X1132830Y686370D01*
X1132700Y686462D01*
X1132552Y686555D01*
X1132534Y686573D01*
X1132478Y686592D01*
X1132385Y686629D01*
X1132256Y686684D01*
X1132108Y686721D01*
X1131923Y686759D01*
X1131719Y686777D01*
X1131478Y686796D01*
D02*
G37*
G36*
X1111869D02*
X1111777D01*
X1111665Y686777D01*
X1111517D01*
X1111369Y686740D01*
X1111184Y686703D01*
X1111017Y686647D01*
X1110851Y686573D01*
X1110832D01*
X1110777Y686536D01*
X1110703Y686481D01*
X1110610Y686425D01*
X1110388Y686240D01*
X1110166Y685981D01*
X1110147Y685962D01*
X1110129Y685907D01*
X1110073Y685833D01*
X1110017Y685740D01*
X1109943Y685611D01*
X1109869Y685444D01*
X1109814Y685277D01*
X1109758Y685092D01*
Y685074D01*
X1109740Y684999D01*
X1109721Y684888D01*
X1109703Y684759D01*
X1109666Y684592D01*
X1109647Y684388D01*
X1109629Y684185D01*
Y683963D01*
Y683944D01*
Y683870D01*
Y683740D01*
X1109647Y683611D01*
Y683426D01*
X1109666Y683240D01*
X1109721Y682852D01*
Y682833D01*
X1109740Y682759D01*
X1109777Y682666D01*
X1109814Y682537D01*
X1109925Y682259D01*
X1110092Y681944D01*
X1110110Y681926D01*
X1110147Y681889D01*
X1110203Y681815D01*
X1110277Y681722D01*
X1110369Y681629D01*
X1110499Y681518D01*
X1110777Y681333D01*
X1110795D01*
X1110851Y681296D01*
X1110943Y681259D01*
X1111073Y681222D01*
X1111221Y681185D01*
X1111406Y681148D01*
X1111610Y681130D01*
X1111832Y681111D01*
X1111925D01*
X1112036Y681130D01*
X1112184D01*
X1112351Y681167D01*
X1112517Y681204D01*
X1112684Y681241D01*
X1112850Y681315D01*
X1112869Y681333D01*
X1112925Y681352D01*
X1112999Y681407D01*
X1113091Y681463D01*
X1113332Y681648D01*
X1113554Y681889D01*
X1113573Y681907D01*
X1113591Y681963D01*
X1113647Y682037D01*
X1113702Y682148D01*
X1113776Y682278D01*
X1113850Y682426D01*
X1113906Y682592D01*
X1113961Y682777D01*
Y682796D01*
X1113980Y682870D01*
X1113999Y682981D01*
X1114036Y683129D01*
X1114054Y683296D01*
X1114073Y683481D01*
X1114091Y683925D01*
Y683944D01*
Y684018D01*
Y684148D01*
X1114073Y684296D01*
Y684463D01*
X1114054Y684648D01*
X1113980Y685036D01*
Y685055D01*
X1113961Y685129D01*
X1113924Y685222D01*
X1113887Y685351D01*
X1113776Y685648D01*
X1113610Y685944D01*
X1113591Y685962D01*
X1113573Y686018D01*
X1113517Y686074D01*
X1113443Y686166D01*
X1113351Y686259D01*
X1113221Y686370D01*
X1113091Y686462D01*
X1112943Y686555D01*
X1112925Y686573D01*
X1112869Y686592D01*
X1112776Y686629D01*
X1112647Y686684D01*
X1112499Y686721D01*
X1112314Y686759D01*
X1112110Y686777D01*
X1111869Y686796D01*
D02*
G37*
%LPD*%
D124*
X887250Y979500D02*
D03*
X942750D02*
D03*
X772750Y20454D02*
D03*
X717250D02*
D03*
X262750D02*
D03*
X207250D02*
D03*
X602750D02*
D03*
X547250D02*
D03*
X432750D02*
D03*
X377250D02*
D03*
X942750D02*
D03*
X887250D02*
D03*
X92750D02*
D03*
X37250D02*
D03*
X717250Y979500D02*
D03*
X772750D02*
D03*
M02*
